<svg width="40" height="40" viewBox="0 0 40 40" fill="none" xmlns="http://www.w3.org/2000/svg">
<path d="M33.8909 24.3118C33.8659 27.98 32.4647 31.4938 29.9844 34.108C27.5042 36.7221 24.14 38.231 20.6054 38.3145C18.8842 38.3853 17.1668 38.0971 15.5549 37.4668C13.943 36.8366 12.4694 35.8771 11.2213 34.6454C9.97323 33.4136 8.97603 31.9345 8.28877 30.2957C7.60152 28.6568 7.23818 26.8916 7.22028 25.1044C7.17599 17.5919 13.0659 3.01484 20.4283 2.79658C27.7907 2.57833 33.8466 16.7993 33.8909 24.3118Z" fill="#4F345A"/>
<path d="M28.2114 7.96576C29.552 11.1371 30.3249 14.5353 30.492 17.994C30.4671 21.6621 29.0658 25.1759 26.5856 27.7901C24.1053 30.4043 20.7411 31.9131 17.2065 31.9967C15.4234 32.0555 13.6476 31.7342 11.989 31.0525C10.3303 30.3709 8.82411 29.3434 7.56348 28.0336C8.24557 31.0648 9.92386 33.7548 12.3099 35.6414C14.696 37.5281 17.6409 38.4935 20.6386 38.372C24.1732 38.2884 27.5374 36.7796 30.0177 34.1654C32.4979 31.5513 33.8991 28.0375 33.9241 24.3693C33.8688 19.7515 31.6102 12.7329 28.2114 7.96576Z" fill="#41294C"/>
<path d="M22.5207 8.99959L22.864 8.55159L20.7936 6.81705V8.5401L18.7344 9.55097L20.7936 10.6997V11.4119L19.5094 10.378L19.1772 10.8375L21.3915 12.5835V10.6882L22.875 9.74625L21.3915 8.59754V8.02319L22.5207 8.99959ZM19.9522 9.59691L20.8047 9.18338V10.0909L19.9522 9.59691ZM21.8565 9.7003L21.3583 10.0104V9.30974L21.8565 9.7003Z" fill="#7CFEF0"/>
<path d="M14.9258 6.97787L12.4902 8.57458L14.4166 9.8841L13.0991 10.8146L13.4091 11.2855L14.5162 10.4699V12.4572L16.6862 10.7571L15.3908 9.87261L17.3837 8.4597L14.9258 6.97787ZM15.723 10.7916L15.0919 11.297V10.3551L15.723 10.7916ZM14.8926 9.528L13.5087 8.58606L14.9369 7.64412L16.354 8.49417L14.8926 9.528Z" fill="#7CFEF0"/>
<path d="M26.8606 7.85088V9.83814L27.547 10.6537L26.2185 11.9977L26.6392 12.4457L28.3774 10.6882L27.4695 9.59692V7.85088L28.9752 9.03405L29.3406 8.52862L27.1596 6.82854L24.9785 8.52862L25.3439 9.03405L26.8606 7.85088Z" fill="#7CFEF0"/>
<path d="M25.5875 37.1888L26.141 36.9246V34.6272H27.8903V34.0528H25.5875V37.1888Z" fill="#7CFEF0"/>
<path d="M24.9453 37.4415L24.6353 37.2462L24.0043 37.7632L24.9453 37.4415Z" fill="#7CFEF0"/>
<path d="M15.9665 37.5909L16.9629 36.9591L15.5237 35.7989V35.2475L16.6308 36.2239L16.9851 35.7759L14.9147 34.0414V35.7644L13.553 36.4422L14.1398 36.7868L14.9147 36.3962V37.1658C15.258 37.3267 15.6122 37.4645 15.9665 37.5909ZM15.5237 36.5226L16.0329 36.9131L15.5237 37.2233V36.5226Z" fill="#7CFEF0"/>
<path d="M18.9779 37.5794L20.7714 38.6132L22.565 37.5794L20.7714 36.5455L18.9779 37.5794ZM20.7714 37.9584L20.1182 37.5794L20.7714 37.2118L21.4247 37.5794L20.7714 37.9584Z" fill="#7CFEF0"/>
<path d="M19.144 36.9361L20.7825 35.6955L22.41 36.9361L22.7421 36.4651L21.2475 35.3394L22.7421 34.2251L22.41 33.7542L20.7825 34.9833L19.144 33.7542L18.8118 34.2251L20.3064 35.3394L18.8118 36.4651L19.144 36.9361Z" fill="#7CFEF0"/>
<path d="M33.1713 28.16L31.4331 27.1147L28.9974 28.7114L30.9017 30.0209L29.5842 30.9399L29.8942 31.4108L31.0013 30.5952V32.2149C31.2006 31.9507 31.3999 31.6865 31.577 31.4108V30.4804L31.9756 30.7446C32.0752 30.5838 32.1749 30.4229 32.2635 30.2506L31.876 29.9864L32.651 29.4351C32.8484 29.021 33.0222 28.5953 33.1713 28.16ZM31.3999 29.6648L30.016 28.7229L31.4442 27.7809L32.8613 28.631L31.3999 29.6648Z" fill="#7CFEF0"/>
<path d="M32.7505 20.4292H32.197V22.0374L30.6359 20.9576V21.509C30.6359 22.9908 30.6913 25.449 30.6359 25.7477L31.1895 25.8511C31.2448 25.4835 31.1895 23.1631 31.1895 22.0489L32.1748 22.7381V24.576H32.7284V23.1172L33.7248 23.8064V25.4376H34.3448V23.4962L32.7948 22.4279L32.7505 20.4292Z" fill="#7CFEF0"/>
<path d="M27.2814 13.7093H26.7278V15.3175L25.1667 14.2377V14.7891C25.1667 16.2709 25.2221 18.7291 25.1667 19.0278L25.7092 19.1312C25.7646 18.7636 25.7092 16.4432 25.7092 15.3289L26.6946 16.0182V17.8561H27.2481V16.3628L28.2446 17.052V18.6832H28.8092V16.7419L27.2592 15.6736L27.2814 13.7093Z" fill="#7CFEF0"/>
<path d="M11.527 18.0054C11.527 16.5236 11.527 14.0654 11.527 13.7667L10.9734 13.7093C10.918 14.0654 10.9734 16.3972 10.9734 17.5L9.98805 16.7878V14.9499H9.43449V16.4087L8.98057 16.0871C8.91414 16.2824 8.84771 16.4662 8.79236 16.65L9.43449 17.098V19.0967H9.98805V17.477L11.5491 18.5568L11.527 18.0054Z" fill="#7CFEF0"/>
<path d="M11.682 28.8607L9.88845 27.8383L8.09491 28.8607L9.88845 29.8945L11.682 28.8607ZM9.88845 28.4931L10.5417 28.8607L9.88845 29.2398L9.24632 28.8607L9.88845 28.4931Z" fill="#7CFEF0"/>
<path d="M11.848 32.8467L10.3534 31.698L11.848 30.5493L11.527 30.0783L9.88842 31.3764L8.24988 30.1358C8.3938 30.4804 8.5488 30.825 8.71487 31.1466L9.4345 31.698L9.13558 31.9163L9.4345 32.3987L9.88842 32.0886L11.527 33.3292L11.848 32.8467Z" fill="#7CFEF0"/>
<path d="M7.22028 22.5773L7.55241 23.0368L8.01741 22.6807V26.391H8.57097V22.2442L9.20203 21.7502L9.84416 22.2442V26.391H10.3977V22.6807L10.8627 23.0368L11.1949 22.5773L9.20203 21.038L7.22028 22.5773Z" fill="#7CFEF0"/>
<path d="M17.3947 31.698L17.0626 31.2385L16.5976 31.5946V27.8843H16.044V32.0311L15.413 32.5251L14.7819 32.0311V27.8843H14.2283V31.5946L13.7634 31.2385L13.4312 31.698L15.413 33.2373L17.3947 31.698Z" fill="#7CFEF0"/>
<path d="M22.7864 17.8676L22.4543 17.4081L21.9893 17.7757V14.0539H21.4358V18.2007L20.8047 18.6947L20.1736 18.2007V14.0539H19.6201V17.7757L19.1551 17.4081L18.8229 17.8676L20.8047 19.4069L22.7864 17.8676Z" fill="#7CFEF0"/>
<path d="M22.7864 4.3703L22.4543 3.91082L21.9893 4.27841V2.96888L21.4358 2.8655V4.70343L20.8047 5.19737L20.1736 4.70343V2.81955C19.9879 2.83044 19.803 2.85346 19.6201 2.88847V4.27841L19.1551 3.91082L18.8229 4.3703L20.8047 5.92105L22.7864 4.3703Z" fill="#7CFEF0"/>
<path d="M22.5207 23.0023L22.864 22.5543L20.7936 20.8313V22.5428L18.7344 23.5537L20.7936 24.7024V25.3801L19.5094 24.3463L19.1772 24.7943L21.3915 26.5518V24.6794L22.875 23.749L21.3915 22.6003V22.0489L22.5207 23.0023ZM19.9522 23.5996L20.8047 23.1861V24.0476L19.9522 23.5996ZM21.8565 23.6915L21.3583 24.0132V23.301L21.8565 23.6915Z" fill="#7CFEF0"/>
<path d="M32.4627 16.627L32.3742 16.6844V16.3743C32.197 15.8574 32.0199 15.3404 31.8206 14.8235V15.2141L29.7614 16.2249L31.8206 17.3736V18.0514L30.5363 17.0175L30.1931 17.4655L32.4074 19.2231V17.3507L32.6731 17.1898C32.5734 16.9946 32.5181 16.8108 32.4627 16.627ZM31.8206 16.7648L31.0235 16.2709L31.876 15.8459L31.8206 16.7648Z" fill="#7CFEF0"/>
<path d="M27.7021 29.5499L28.0453 29.1019L25.975 27.3789V29.0904L23.9157 30.1013L25.975 31.3074V31.9737L24.6686 30.9399L24.3253 31.3993L26.5396 33.1454V31.2385L28.0231 30.2966L26.5396 29.1479V28.585L27.7021 29.5499ZM25.1225 30.1473L25.975 29.7337V30.6412L25.1225 30.1473ZM27.0267 30.2392L26.5285 30.5608V29.8486L27.0267 30.2392Z" fill="#7CFEF0"/>
<path d="M14.9258 20.9691L12.4902 22.5773L14.4166 23.8753L13.0991 24.8058L13.4091 25.2882L14.5162 24.4727V26.4484L16.664 24.7598L15.3687 23.8753L17.3615 22.4624L14.9258 20.9691ZM15.723 24.7943L15.0919 25.2882V24.3578L15.723 24.7943ZM14.8926 23.5307L13.5087 22.5888L14.9369 21.6468L16.354 22.4969L14.8926 23.5307Z" fill="#7CFEF0"/>
<path d="M26.8606 21.8536V23.8294L27.547 24.6564L26.2185 25.9889L26.6392 26.4484L28.3774 24.6909L27.4695 23.5996V21.8536L28.9752 23.0253L29.3406 22.5198L27.1596 20.8313L24.9785 22.5198L25.3439 23.0253L26.8606 21.8536Z" fill="#7CFEF0"/>
<path d="M26.8606 21.8536V23.8294L27.547 24.6564L26.2185 25.9889L26.6392 26.4484L28.3774 24.6909L27.4695 23.5996V21.8536L28.9752 23.0253L29.3406 22.5198L27.1596 20.8313L24.9785 22.5198L25.3439 23.0253L26.8606 21.8536Z" fill="#7CFEF0"/>
<path d="M15.2358 18.5224V16.5351L14.5494 15.7195L15.878 14.3755L15.4462 13.9275L13.708 15.6851L14.6269 16.7763V18.5224L13.1102 17.3392L12.7448 17.8446L14.9258 19.5447L17.1069 17.8446L16.7415 17.3392L15.2358 18.5224Z" fill="#7CFEF0"/>
<path d="M20.6276 27.8613V31.6291L19.6754 31.0203L18.1919 32.2149L18.5351 32.6629L19.7087 31.721L21.1811 32.6514V28.4357H22.9193V27.8613H20.6276Z" fill="#7CFEF0"/>
<path d="M22.5207 8.99959L22.864 8.55159L20.7936 6.81705V8.5401L18.7344 9.55097L20.7936 10.6997V11.4119L19.5094 10.378L19.1772 10.8375L21.3915 12.5835V10.6882L22.875 9.74625L21.3915 8.59754V8.02319L22.5207 8.99959ZM19.9522 9.59691L20.8047 9.18338V10.0909L19.9522 9.59691ZM21.8565 9.7003L21.3583 10.0104V9.30974L21.8565 9.7003Z" fill="#7CFEF0"/>
<path d="M14.9258 6.97787L12.4902 8.57458L14.4166 9.8841L13.0991 10.8146L13.4091 11.2855L14.5162 10.4699V12.4572L16.6862 10.7571L15.3908 9.87261L17.3837 8.4597L14.9258 6.97787ZM15.723 10.7916L15.0919 11.297V10.3551L15.723 10.7916ZM14.8926 9.528L13.5087 8.58606L14.9369 7.64412L16.354 8.49417L14.8926 9.528Z" fill="#7CFEF0"/>
<path d="M26.8606 7.85088V9.83814L27.547 10.6537L26.2185 11.9977L26.6392 12.4457L28.3774 10.6882L27.4695 9.59692V7.85088L28.9752 9.03405L29.3406 8.52862L27.1596 6.82854L24.9785 8.52862L25.3439 9.03405L26.8606 7.85088Z" fill="#7CFEF0"/>
<path d="M25.5875 37.1888L26.141 36.9246V34.6272H27.8903V34.0528H25.5875V37.1888Z" fill="#7CFEF0"/>
<path d="M24.9453 37.4415L24.6353 37.2462L24.0043 37.7632L24.9453 37.4415Z" fill="#7CFEF0"/>
<path d="M15.9665 37.5909L16.9629 36.9591L15.5237 35.7989V35.2475L16.6308 36.2239L16.9851 35.7759L14.9147 34.0414V35.7644L13.553 36.4422L14.1398 36.7868L14.9147 36.3962V37.1658C15.258 37.3267 15.6122 37.4645 15.9665 37.5909ZM15.5237 36.5226L16.0329 36.9131L15.5237 37.2233V36.5226Z" fill="#7CFEF0"/>
<path d="M18.9779 37.5794L20.7714 38.6132L22.565 37.5794L20.7714 36.5455L18.9779 37.5794ZM20.7714 37.9584L20.1182 37.5794L20.7714 37.2118L21.4247 37.5794L20.7714 37.9584Z" fill="#7CFEF0"/>
<path d="M19.144 36.9361L20.7825 35.6955L22.41 36.9361L22.7421 36.4651L21.2475 35.3394L22.7421 34.2251L22.41 33.7542L20.7825 34.9833L19.144 33.7542L18.8118 34.2251L20.3064 35.3394L18.8118 36.4651L19.144 36.9361Z" fill="#7CFEF0"/>
<path d="M33.1713 28.16L31.4331 27.1147L28.9974 28.7114L30.9017 30.0209L29.5842 30.9399L29.8942 31.4108L31.0013 30.5952V32.2149C31.2006 31.9507 31.3999 31.6865 31.577 31.4108V30.4804L31.9756 30.7446C32.0752 30.5838 32.1749 30.4229 32.2635 30.2506L31.876 29.9864L32.651 29.4351C32.8484 29.021 33.0222 28.5953 33.1713 28.16ZM31.3999 29.6648L30.016 28.7229L31.4442 27.7809L32.8613 28.631L31.3999 29.6648Z" fill="#7CFEF0"/>
<path d="M32.7505 20.4292H32.197V22.0374L30.6359 20.9576V21.509C30.6359 22.9908 30.6913 25.449 30.6359 25.7477L31.1895 25.8511C31.2448 25.4835 31.1895 23.1631 31.1895 22.0489L32.1748 22.7381V24.576H32.7284V23.1172L33.7248 23.8064V25.4376H34.3448V23.4962L32.7948 22.4279L32.7505 20.4292Z" fill="#7CFEF0"/>
<path d="M27.2814 13.7093H26.7278V15.3175L25.1667 14.2377V14.7891C25.1667 16.2709 25.2221 18.7291 25.1667 19.0278L25.7092 19.1312C25.7646 18.7636 25.7092 16.4432 25.7092 15.3289L26.6946 16.0182V17.8561H27.2481V16.3628L28.2446 17.052V18.6832H28.8092V16.7419L27.2592 15.6736L27.2814 13.7093Z" fill="#7CFEF0"/>
<path d="M11.527 18.0054C11.527 16.5236 11.527 14.0654 11.527 13.7667L10.9734 13.7093C10.918 14.0654 10.9734 16.3972 10.9734 17.5L9.98805 16.7878V14.9499H9.43449V16.4087L8.98057 16.0871C8.91414 16.2824 8.84771 16.4662 8.79236 16.65L9.43449 17.098V19.0967H9.98805V17.477L11.5491 18.5568L11.527 18.0054Z" fill="#7CFEF0"/>
<path d="M11.682 28.8607L9.88845 27.8383L8.09491 28.8607L9.88845 29.8945L11.682 28.8607ZM9.88845 28.4931L10.5417 28.8607L9.88845 29.2398L9.24632 28.8607L9.88845 28.4931Z" fill="#7CFEF0"/>
<path d="M11.848 32.8467L10.3534 31.698L11.848 30.5493L11.527 30.0783L9.88842 31.3764L8.24988 30.1358C8.3938 30.4804 8.5488 30.825 8.71487 31.1466L9.4345 31.698L9.13558 31.9163L9.4345 32.3987L9.88842 32.0886L11.527 33.3292L11.848 32.8467Z" fill="#7CFEF0"/>
<path d="M7.22028 22.5773L7.55241 23.0368L8.01741 22.6807V26.391H8.57097V22.2442L9.20203 21.7502L9.84416 22.2442V26.391H10.3977V22.6807L10.8627 23.0368L11.1949 22.5773L9.20203 21.038L7.22028 22.5773Z" fill="#7CFEF0"/>
<path d="M17.3947 31.698L17.0626 31.2385L16.5976 31.5946V27.8843H16.044V32.0311L15.413 32.5251L14.7819 32.0311V27.8843H14.2283V31.5946L13.7634 31.2385L13.4312 31.698L15.413 33.2373L17.3947 31.698Z" fill="#7CFEF0"/>
<path d="M22.7864 17.8676L22.4543 17.4081L21.9893 17.7757V14.0539H21.4358V18.2007L20.8047 18.6947L20.1736 18.2007V14.0539H19.6201V17.7757L19.1551 17.4081L18.8229 17.8676L20.8047 19.4069L22.7864 17.8676Z" fill="#7CFEF0"/>
<path d="M22.7864 4.3703L22.4543 3.91082L21.9893 4.27841V2.96888L21.4358 2.8655V4.70343L20.8047 5.19737L20.1736 4.70343V2.81955C19.9879 2.83044 19.803 2.85346 19.6201 2.88847V4.27841L19.1551 3.91082L18.8229 4.3703L20.8047 5.92105L22.7864 4.3703Z" fill="#7CFEF0"/>
<path d="M22.5207 23.0023L22.864 22.5543L20.7936 20.8313V22.5428L18.7344 23.5537L20.7936 24.7024V25.3801L19.5094 24.3463L19.1772 24.7943L21.3915 26.5518V24.6794L22.875 23.749L21.3915 22.6003V22.0489L22.5207 23.0023ZM19.9522 23.5996L20.8047 23.1861V24.0476L19.9522 23.5996ZM21.8565 23.6915L21.3583 24.0132V23.301L21.8565 23.6915Z" fill="#7CFEF0"/>
<path d="M32.4627 16.627L32.3742 16.6844V16.3743C32.197 15.8574 32.0199 15.3404 31.8206 14.8235V15.2141L29.7614 16.2249L31.8206 17.3736V18.0514L30.5363 17.0175L30.1931 17.4655L32.4074 19.2231V17.3507L32.6731 17.1898C32.5734 16.9946 32.5181 16.8108 32.4627 16.627ZM31.8206 16.7648L31.0235 16.2709L31.876 15.8459L31.8206 16.7648Z" fill="#7CFEF0"/>
<path d="M27.7021 29.5499L28.0453 29.1019L25.975 27.3789V29.0904L23.9157 30.1013L25.975 31.3074V31.9737L24.6686 30.9399L24.3253 31.3993L26.5396 33.1454V31.2385L28.0231 30.2966L26.5396 29.1479V28.585L27.7021 29.5499ZM25.1225 30.1473L25.975 29.7337V30.6412L25.1225 30.1473ZM27.0267 30.2392L26.5285 30.5608V29.8486L27.0267 30.2392Z" fill="#7CFEF0"/>
<path d="M14.9258 20.9691L12.4902 22.5773L14.4166 23.8753L13.0991 24.8058L13.4091 25.2882L14.5162 24.4727V26.4484L16.664 24.7598L15.3687 23.8753L17.3615 22.4624L14.9258 20.9691ZM15.723 24.7943L15.0919 25.2882V24.3578L15.723 24.7943ZM14.8926 23.5307L13.5087 22.5888L14.9369 21.6468L16.354 22.4969L14.8926 23.5307Z" fill="#7CFEF0"/>
<path d="M26.8606 21.8536V23.8294L27.547 24.6564L26.2185 25.9889L26.6392 26.4484L28.3774 24.6909L27.4695 23.5996V21.8536L28.9752 23.0253L29.3406 22.5198L27.1596 20.8313L24.9785 22.5198L25.3439 23.0253L26.8606 21.8536Z" fill="#7CFEF0"/>
<path d="M26.8606 21.8536V23.8294L27.547 24.6564L26.2185 25.9889L26.6392 26.4484L28.3774 24.6909L27.4695 23.5996V21.8536L28.9752 23.0253L29.3406 22.5198L27.1596 20.8313L24.9785 22.5198L25.3439 23.0253L26.8606 21.8536Z" fill="#7CFEF0"/>
<path d="M15.2358 18.5224V16.5351L14.5494 15.7195L15.878 14.3755L15.4462 13.9275L13.708 15.6851L14.6269 16.7763V18.5224L13.1102 17.3392L12.7448 17.8446L14.9258 19.5447L17.1069 17.8446L16.7415 17.3392L15.2358 18.5224Z" fill="#7CFEF0"/>
<path d="M20.6276 27.8613V31.6291L19.6754 31.0203L18.1919 32.2149L18.5351 32.6629L19.7087 31.721L21.1811 32.6514V28.4357H22.9193V27.8613H20.6276Z" fill="#7CFEF0"/>
<path opacity="0.61" d="M22.6757 3.78447C23.2054 3.7711 23.7344 3.83294 24.2479 3.96826C23.1091 3.2089 21.7819 2.80977 20.4283 2.81956C13.0659 3.01484 7.17599 17.5919 7.22028 25.1044C7.23665 27.9172 8.11721 30.6513 9.73394 32.9093C11.3507 35.1672 13.6193 36.8314 16.2101 37.6598C14.1848 36.5424 12.4887 34.8772 11.3017 32.8406C10.1147 30.8041 9.48095 28.4723 9.46774 26.0923C9.66205 21.7876 10.7138 17.5713 12.5566 13.7093C12.7081 14.0027 12.9443 14.2397 13.232 14.387C14.3391 14.881 15.8337 13.8701 16.6419 12.0896C17.4501 10.3091 17.2176 8.52862 16.1437 8.03468C16.0811 8.02808 16.0181 8.02808 15.9555 8.03468C17.9151 5.54199 20.2179 3.85339 22.6757 3.78447Z" fill="#F7F5FB"/>
<path opacity="0.61" d="M19.3358 15.3701C19.8425 14.3208 19.7347 13.2006 19.0951 12.8681C18.4554 12.5357 17.5262 13.1168 17.0195 14.1661C16.5129 15.2155 16.6206 16.3357 17.2602 16.6681C17.8999 17.0006 18.8291 16.4195 19.3358 15.3701Z" fill="#F7F5FB"/>
<path d="M20.24 38.8889C16.6899 38.9166 13.2711 37.4977 10.7188 34.9374C9.4409 33.6676 8.42332 32.1432 7.72703 30.4555C7.03074 28.7679 6.67009 26.9517 6.66669 25.1159C6.66669 17.6149 12.5345 2.46346 20.4172 2.22223C21.5853 2.26408 22.7336 2.54782 23.7945 3.05677C24.8554 3.56573 25.8076 4.28962 26.5949 5.18589C31.2227 9.78071 34.3448 18.821 34.4002 24.3118C34.3703 28.1151 32.9212 31.7583 30.3572 34.4764C27.7932 37.1946 24.3138 38.7761 20.6497 38.8889H20.24ZM20.5943 3.37093H20.4393C13.4423 3.5777 7.77381 17.8906 7.77381 25.1044C7.77706 26.7871 8.10716 28.4519 8.7444 29.9992C9.38164 31.5466 10.3129 32.9448 11.4827 34.1103C12.694 35.3181 14.1264 36.2617 15.6952 36.8851C17.264 37.5086 18.9375 37.7994 20.6165 37.7402C24.0014 37.6509 27.2204 36.2004 29.5939 33.6949C31.9674 31.1893 33.3097 27.8249 33.3373 24.3118C33.3373 19.1656 30.2374 10.3895 25.8753 6.01296C24.5163 4.44875 22.6202 3.50012 20.5943 3.37093Z" fill="#210124"/>
</svg>
