<svg width="40" height="40" viewBox="0 0 40 40" fill="none" xmlns="http://www.w3.org/2000/svg">
<g clip-path="url(#clip0)">
<path d="M32.213 34.2556C27.275 34.2556 19.7526 30.4669 13.8248 25.8793C7.00626 20.6069 2.77214 14.9466 2.77214 11.1236C2.75201 10.4911 2.8795 9.86302 3.14375 9.29274C3.40801 8.72246 3.8012 8.22692 4.28983 7.84834C8.30399 4.74428 18.5868 9.33189 26.1752 15.2319C32.9938 20.5042 37.1729 26.1531 37.1729 29.9876C37.1931 30.62 37.0656 31.2481 36.8013 31.8184C36.5371 32.3887 36.1439 32.8842 35.6553 33.2628C34.6372 33.9616 33.4325 34.3091 32.213 34.2556ZM15.6285 23.3914C24.2396 30.056 32.125 32.1787 33.9176 30.7636C34.0305 30.6741 34.1185 30.5551 34.1726 30.4187C34.2267 30.2824 34.245 30.1336 34.2256 29.9876C34.2256 27.7052 30.8493 22.7295 24.3276 17.7197C15.7054 11.0551 7.83109 8.93247 6.02746 10.3476C5.91455 10.4371 5.82655 10.5561 5.77245 10.6924C5.71835 10.8287 5.70009 10.9775 5.71953 11.1236C5.71953 13.406 9.09582 18.3816 15.6175 23.3914H15.6285Z" fill="#A882DD"/>
<path d="M7.78709 34.2556C6.54901 34.3213 5.32325 33.9733 4.28983 33.2628C3.8012 32.8842 3.40801 32.3887 3.14375 31.8184C2.8795 31.2481 2.75201 30.62 2.77214 29.9876C2.77214 26.1874 7.00626 20.4814 13.8248 15.2319C21.4462 9.33189 31.6961 4.74428 35.7103 7.84834C36.1989 8.22692 36.5921 8.72246 36.8563 9.29274C37.1206 9.86302 37.2481 10.4911 37.2279 11.1236C37.2279 14.9466 32.9938 20.6069 26.2302 25.8793C20.2475 30.4669 12.7251 34.2556 7.78709 34.2556ZM32.202 9.92531C29.0127 9.92531 22.568 12.3447 15.6285 17.7197C14.0114 18.9512 12.4722 20.2891 11.0204 21.7253C7.53415 25.2174 5.74152 28.2986 5.74152 29.9876C5.72208 30.1336 5.74034 30.2824 5.79444 30.4187C5.84854 30.5551 5.93654 30.6741 6.04946 30.7636C7.87508 32.1787 15.7274 30.056 24.3496 23.3914C30.8163 18.3816 34.2476 13.4288 34.2476 11.1236C34.267 10.9775 34.2487 10.8287 34.1946 10.6924C34.1405 10.5561 34.0525 10.4371 33.9396 10.3476C33.4172 10.0217 32.8095 9.87405 32.202 9.92531Z" fill="#A882DD"/>
<path d="M13.5389 8.0081C15.1446 4.75569 17.4101 2.79283 20.0055 2.79283C22.601 2.79283 24.7895 4.69863 26.4172 7.92822C28.2169 11.8877 29.0947 16.2307 28.9797 20.6069C28.9797 30.7408 25.1305 38.3754 20.0275 38.3754C14.9246 38.3754 11.0204 30.6837 11.0204 20.5499C10.9955 17.2773 11.4592 14.0205 12.3951 10.8953L13.5389 8.0081ZM16.3433 31.8934C17.4431 33.9818 18.7408 35.18 20.0055 35.18C22.821 35.18 25.9553 29.1659 25.9553 20.527C25.9553 11.8882 22.821 5.9083 20.0055 5.9083C17.1901 5.9083 14.0448 11.9224 14.0448 20.5499C14.0148 23.4642 14.4154 26.3661 15.2325 29.1545" fill="#A882DD"/>
<path d="M20.0055 38.8889C17.2781 38.8889 14.8146 36.926 13.055 33.3655C13.0218 33.2988 13.0015 33.226 12.9954 33.1512C12.9894 33.0764 12.9975 33.0011 13.0195 32.9295C13.0414 32.858 13.0768 32.7917 13.1234 32.7343C13.1701 32.6769 13.2272 32.6297 13.2914 32.5952C13.3557 32.5607 13.4259 32.5397 13.498 32.5334C13.5701 32.5271 13.6427 32.5356 13.7116 32.5583C13.7805 32.5811 13.8445 32.6178 13.8997 32.6662C13.955 32.7146 14.0006 32.7739 14.0338 32.8405C15.5955 36.0017 17.707 37.7477 20.0055 37.7477C24.8005 37.7477 28.4078 30.3527 28.4078 20.5499C28.4428 17.3407 27.9976 14.1454 27.0881 11.0779C27.0642 11.0068 27.0544 10.9314 27.0593 10.8563C27.0641 10.7812 27.0836 10.7078 27.1165 10.6407C27.1493 10.5735 27.1949 10.514 27.2505 10.4656C27.3061 10.4172 27.3706 10.3809 27.44 10.359C27.5785 10.3122 27.7293 10.3243 27.8592 10.3928C27.9891 10.4613 28.0875 10.5804 28.1328 10.7241C29.0768 13.9062 29.5405 17.2206 29.5076 20.5499C29.5076 31.0032 25.4274 38.8889 20.0055 38.8889ZM20.0055 35.7734C18.5209 35.7734 17.0582 34.4953 15.8594 32.1787C15.8248 32.1136 15.8031 32.0421 15.7954 31.9682C15.7877 31.8944 15.7943 31.8197 15.8148 31.7485C15.8353 31.6773 15.8692 31.6111 15.9147 31.5536C15.9601 31.4962 16.0161 31.4488 16.0794 31.4141C16.1429 31.3779 16.2126 31.3551 16.2846 31.347C16.3567 31.3389 16.4295 31.3457 16.499 31.3669C16.5685 31.3881 16.6333 31.4234 16.6896 31.4706C16.7459 31.5179 16.7927 31.5762 16.8272 31.6423C17.795 33.5139 19.0267 34.6322 20.0055 34.6322C22.2051 34.6322 25.4054 29.28 25.4054 20.5499C25.4453 17.7313 25.0745 14.9227 24.3056 12.2191C24.2835 12.1487 24.275 12.0744 24.2807 12.0006C24.2865 11.9267 24.3063 11.8548 24.339 11.789C24.3718 11.7231 24.4168 11.6647 24.4715 11.6171C24.5261 11.5695 24.5894 11.5336 24.6576 11.5116C24.7261 11.4868 24.7987 11.4766 24.8712 11.4817C24.9436 11.4868 25.0142 11.507 25.0789 11.5411C25.1436 11.5752 25.201 11.6225 25.2477 11.6802C25.2943 11.7378 25.3293 11.8047 25.3504 11.8768C26.1665 14.6889 26.567 17.6131 26.5382 20.5499C26.5052 29.611 23.1179 35.7734 20.0055 35.7734ZM12.3951 30.7522C12.278 30.7511 12.164 30.7121 12.0694 30.6404C11.9747 30.5688 11.904 30.4682 11.8672 30.3527C11.0315 27.5563 10.5762 24.6524 10.5145 21.7253C10.5168 21.5835 10.5699 21.4477 10.6634 21.3443C10.757 21.241 10.8842 21.1774 11.0204 21.1661C11.093 21.1615 11.1657 21.1721 11.2342 21.1974C11.3027 21.2227 11.3656 21.2622 11.419 21.3133C11.4725 21.3645 11.5153 21.4264 11.5451 21.4952C11.5749 21.5641 11.591 21.6384 11.5923 21.7139C11.6491 24.5371 12.0897 27.3378 12.901 30.0332C12.9461 30.177 12.9344 30.3334 12.8684 30.4682C12.8024 30.603 12.6876 30.7052 12.5491 30.7522H12.3951ZM15.1776 29.4854C15.06 29.4862 14.9453 29.4478 14.8502 29.3759C14.7552 29.304 14.6849 29.2024 14.6497 29.086C13.8572 26.3045 13.468 23.416 13.4949 20.5156V19.9793C13.4949 19.6369 13.4949 19.306 13.4949 18.9294C13.4962 18.8544 13.5122 18.7805 13.5421 18.7122C13.572 18.6439 13.6151 18.5828 13.6687 18.5325C13.7224 18.4822 13.7853 18.4439 13.8538 18.4199C13.9223 18.3959 13.9948 18.3867 14.0668 18.393C14.139 18.3959 14.21 18.4136 14.2756 18.445C14.3412 18.4765 14.4003 18.521 14.4493 18.5761C14.4983 18.6312 14.5364 18.6959 14.5614 18.7663C14.5863 18.8367 14.5976 18.9115 14.5947 18.9864C14.5947 19.3288 14.5947 19.6369 14.5947 19.9564V20.5156C14.5657 23.2997 14.9364 26.0728 15.6944 28.7437C15.7361 28.8889 15.7215 29.0453 15.6537 29.1796C15.5859 29.3139 15.4703 29.4154 15.3315 29.4626L15.1776 29.4854ZM11.1744 17.9822H11.1194C11.0475 17.9765 10.9775 17.9559 10.9134 17.9216C10.8494 17.8873 10.7926 17.84 10.7464 17.7826C10.7003 17.7251 10.6657 17.6586 10.6448 17.5871C10.6238 17.5155 10.6169 17.4403 10.6245 17.3659C10.7936 15.1092 11.2143 12.8803 11.8782 10.7241C12.189 9.6987 12.5826 8.70232 13.055 7.74562C14.8036 4.18509 17.2781 2.22223 20.0055 2.22223C22.733 2.22223 25.1305 4.13944 26.8791 7.60868C26.9191 7.67499 26.9455 7.74913 26.9567 7.82649C26.9679 7.90385 26.9637 7.98277 26.9443 8.05836C26.9249 8.13394 26.8907 8.20458 26.8438 8.26588C26.797 8.32718 26.7385 8.37782 26.672 8.41468C26.6055 8.45153 26.5324 8.4738 26.4573 8.48011C26.3821 8.48641 26.3066 8.47662 26.2352 8.45133C26.1639 8.42605 26.0983 8.38581 26.0426 8.33312C25.9869 8.28043 25.9422 8.21641 25.9113 8.14504C24.3496 5.06381 22.2601 3.36343 20.0055 3.36343C17.751 3.36343 15.6065 5.10946 14.0338 8.27057C13.5919 9.17265 13.224 10.1118 12.934 11.0779C12.2995 13.1539 11.8937 15.2978 11.7243 17.4686C11.7131 17.6109 11.6499 17.7433 11.5477 17.8388C11.4454 17.9342 11.3119 17.9855 11.1744 17.9822ZM14.5727 15.1976H14.4737C14.3302 15.1673 14.2038 15.0798 14.1216 14.954C14.0394 14.8282 14.0079 14.6739 14.0338 14.5243C15.0786 9.03518 17.4761 5.39476 20.0055 5.39476C21.4792 5.39476 22.9529 6.6729 24.1407 8.97812C24.2107 9.11129 24.2268 9.26786 24.1856 9.41339C24.1443 9.55892 24.0491 9.68149 23.9207 9.75413C23.7924 9.82677 23.6415 9.84353 23.5012 9.80073C23.361 9.75793 23.2429 9.65906 23.1729 9.52589C22.2051 7.65433 21.0283 6.53595 20.0055 6.53595C18.3999 6.53595 16.1344 9.42318 15.1116 14.7868C15.0794 14.9083 15.0088 15.0149 14.911 15.0894C14.8132 15.164 14.694 15.2021 14.5727 15.1976Z" fill="#210124"/>
<path d="M7.78709 34.8262C6.42573 34.8876 5.08219 34.4869 3.95989 33.685C3.4063 33.2579 2.95956 32.6992 2.6572 32.0558C2.35483 31.4124 2.20568 30.7032 2.22225 29.9876C2.22225 27.3286 4.10286 23.8365 7.53414 20.1618C7.87507 19.7852 8.23799 19.4087 8.63391 19.0206C9.02983 18.6326 9.35976 18.3017 9.73368 17.8794C10.8884 16.8866 12.1202 15.8139 13.5059 14.7754C14.5287 13.988 15.6174 13.212 16.7172 12.493C16.7778 12.4477 16.8466 12.4157 16.9195 12.3989C16.9924 12.3821 17.0678 12.3809 17.1412 12.3954C17.2145 12.4098 17.2843 12.4396 17.3462 12.483C17.4081 12.5263 17.4608 12.5822 17.5012 12.6474C17.5416 12.7126 17.5687 12.7856 17.581 12.862C17.5933 12.9384 17.5905 13.0167 17.5727 13.0919C17.5549 13.1671 17.5225 13.2378 17.4776 13.2997C17.4326 13.3615 17.3759 13.4132 17.3111 13.4516C16.2113 14.182 15.1116 14.9352 14.1548 15.734C12.835 16.7497 11.5923 17.7996 10.4595 18.8609C10.0856 19.2146 9.72268 19.557 9.35976 19.9108C8.99683 20.2646 8.64491 20.6297 8.25999 20.9949C5.09265 24.4185 3.32202 27.6253 3.32202 29.9876C3.30733 30.5305 3.41735 31.0693 3.643 31.5595C3.86865 32.0496 4.20346 32.477 4.61975 32.8063C5.55826 33.4421 6.66803 33.75 7.78709 33.685C12.0322 33.685 18.8398 30.6609 25.1085 25.9819C25.2266 25.8927 25.3741 25.8557 25.5184 25.8793C25.6628 25.9028 25.7923 25.9849 25.8783 26.1075C25.9643 26.2301 25.9999 26.3831 25.9773 26.5329C25.9546 26.6827 25.8755 26.817 25.7573 26.9063C19.3017 31.7222 12.2522 34.8262 7.78709 34.8262ZM7.78709 31.745C7.06556 31.7971 6.34642 31.6135 5.73052 31.22C5.54988 31.0771 5.40683 30.8893 5.31457 30.6739C5.22231 30.4585 5.18381 30.2225 5.20263 29.9876C5.20263 27.0775 9.33776 21.8508 15.2765 17.2632C16.6893 16.1526 18.1578 15.1203 19.6756 14.1706C19.7376 14.1312 19.8065 14.105 19.8783 14.0935C19.9501 14.0819 20.0235 14.0853 20.094 14.1033C20.1646 14.1214 20.231 14.1537 20.2894 14.1986C20.3479 14.2434 20.3971 14.2998 20.4344 14.3646C20.5081 14.4953 20.5298 14.6506 20.4949 14.7976C20.46 14.9446 20.3712 15.0718 20.2475 15.152C18.764 16.0893 17.3287 17.1064 15.9474 18.199C9.70069 23.0377 6.32439 27.8992 6.32439 30.0104C6.32439 30.2614 6.32439 30.2957 6.41238 30.3299C7.02825 30.8092 9.06282 30.7978 12.2192 29.6908C16.4688 28.0745 20.4584 25.8007 24.0527 22.9464C24.5696 22.5469 25.0755 22.1475 25.5594 21.7367C25.6147 21.6825 25.6804 21.6407 25.7521 21.6142C25.8238 21.5877 25.9001 21.5769 25.976 21.5825C26.052 21.5881 26.126 21.6101 26.1933 21.6469C26.2607 21.6838 26.3199 21.7347 26.3673 21.7966C26.4147 21.8584 26.4492 21.9298 26.4686 22.0062C26.488 22.0826 26.4919 22.1624 26.48 22.2404C26.4682 22.3185 26.4408 22.3931 26.3997 22.4596C26.3586 22.5262 26.3046 22.5831 26.2412 22.6268C25.7573 23.0377 25.2404 23.4485 24.7125 23.8707C21.0241 26.7886 16.9304 29.1088 12.5711 30.7522C11.0434 31.3388 9.4366 31.6738 7.80908 31.745H7.78709ZM28.8367 24.2587C28.7561 24.2596 28.6761 24.2428 28.6022 24.2093C28.5283 24.1759 28.462 24.1266 28.4078 24.0647C28.3173 23.9463 28.2737 23.7966 28.286 23.646C28.2983 23.4955 28.3654 23.3554 28.4738 23.2545C28.8477 22.935 29.1996 22.6154 29.5735 22.2959C29.626 22.2404 29.6889 22.1966 29.7583 22.1672C29.8277 22.1378 29.9021 22.1234 29.9771 22.125C30.052 22.1265 30.1258 22.144 30.194 22.1762C30.2623 22.2085 30.3234 22.2548 30.3737 22.3125C30.424 22.3701 30.4624 22.4379 30.4866 22.5115C30.5107 22.5851 30.5202 22.6631 30.5142 22.7406C30.5083 22.8181 30.4872 22.8936 30.4521 22.9623C30.417 23.0311 30.3688 23.0917 30.3104 23.1404L29.2106 24.1332C29.1033 24.2179 28.9714 24.2621 28.8367 24.2587ZM32.081 21.1204C32.0097 21.1228 31.9387 21.1099 31.8724 21.0824C31.8062 21.0549 31.7461 21.0134 31.6961 20.9607C31.6435 20.9095 31.6016 20.8476 31.5729 20.7789C31.5442 20.7102 31.5294 20.6361 31.5294 20.5613C31.5294 20.4864 31.5442 20.4123 31.5729 20.3436C31.6016 20.2749 31.6435 20.2131 31.6961 20.1618C34.9184 16.7383 36.689 13.4858 36.689 11.1236C36.7037 10.5806 36.5937 10.0418 36.3681 9.55164C36.1424 9.06151 35.8076 8.63412 35.3913 8.3048C32.9168 6.38759 27.132 7.65432 20.2805 11.5915C20.2169 11.6282 20.147 11.6515 20.0748 11.6602C20.0025 11.6689 19.9293 11.6627 19.8594 11.6421C19.7894 11.6214 19.7241 11.5867 19.6671 11.5398C19.6101 11.4929 19.5625 11.4349 19.5271 11.3689C19.4917 11.303 19.4692 11.2305 19.4609 11.1555C19.4525 11.0805 19.4584 11.0046 19.4783 10.932C19.4982 10.8594 19.5317 10.7916 19.5769 10.7324C19.6221 10.6733 19.678 10.6239 19.7416 10.5872C27.088 6.37618 33.1808 5.17792 36.0512 7.39185C36.6095 7.82151 37.0585 8.38587 37.3593 9.03608C37.6602 9.6863 37.8038 10.4028 37.7778 11.1236C37.7778 13.7825 35.8972 17.2746 32.4769 20.9493C32.372 21.0585 32.2296 21.1201 32.081 21.1204ZM30.0354 18.8381C29.9113 18.8194 29.7979 18.7545 29.7165 18.6555C29.6653 18.6034 29.6246 18.5413 29.5968 18.4727C29.5691 18.4041 29.5548 18.3304 29.5548 18.256C29.5548 18.1816 29.5691 18.108 29.5968 18.0394C29.6246 17.9708 29.6653 17.9087 29.7165 17.8566C32.6969 14.6042 33.7527 12.2533 33.7527 11.1236C33.7527 10.8725 33.7527 10.8383 33.6647 10.804C33.2456 10.5524 32.7606 10.4446 32.279 10.4959C30.2004 10.4959 26.8791 11.6371 23.4038 13.406C23.339 13.4464 23.2669 13.4726 23.1919 13.4828C23.1169 13.493 23.0407 13.4871 22.9681 13.4653C22.8954 13.4436 22.8279 13.4066 22.7696 13.3565C22.7114 13.3065 22.6637 13.2445 22.6296 13.1745C22.5955 13.1045 22.5756 13.0279 22.5713 12.9496C22.567 12.8712 22.5783 12.7928 22.6045 12.7192C22.6307 12.6456 22.6713 12.5784 22.7237 12.5218C22.7761 12.4652 22.8391 12.4205 22.9089 12.3903C28.0338 9.69706 32.7189 8.64716 34.3245 9.89107C34.4912 10.0425 34.6195 10.2341 34.6981 10.449C34.7767 10.6639 34.8033 10.8955 34.7754 11.1236C34.7754 12.8924 33.2028 15.6883 30.4423 18.6441C30.3891 18.6995 30.3256 18.7433 30.2557 18.7727C30.1858 18.8021 30.1109 18.8166 30.0354 18.8152V18.8381Z" fill="#210124"/>
<path d="M32.213 34.8262C30.3004 34.7574 28.4107 34.3721 26.6151 33.685C26.4938 33.6247 26.3979 33.5203 26.3458 33.3916C26.2936 33.2628 26.2888 33.1187 26.3321 32.9866C26.3755 32.8544 26.4641 32.7433 26.5811 32.6743C26.6981 32.6053 26.8354 32.5833 26.9671 32.6123C30.8162 33.9361 33.7966 33.9932 35.3803 32.7721C35.7966 32.4428 36.1314 32.0154 36.357 31.5252C36.5827 31.0351 36.6927 30.4963 36.678 29.9533C36.678 26.8949 33.6647 22.3986 28.6057 17.9251C28.55 17.8778 28.5039 17.8193 28.4703 17.7532C28.4368 17.6871 28.4163 17.6146 28.4101 17.5402C28.404 17.4657 28.4123 17.3907 28.4345 17.3196C28.4568 17.2485 28.4926 17.1828 28.5397 17.1263C28.6355 17.0114 28.7708 16.9399 28.9167 16.9271C29.0626 16.9143 29.2075 16.9612 29.3206 17.0578C34.6984 21.8166 37.7778 26.5183 37.7778 29.9533C37.8025 30.6751 37.6572 31.3922 37.3544 32.0425C37.0516 32.6928 36.6005 33.2566 36.0402 33.685C34.9179 34.487 33.5743 34.8876 32.213 34.8262ZM23.5908 32.4525C23.5146 32.4688 23.436 32.4688 23.3598 32.4525C22.1941 31.9048 20.9733 31.3114 19.7526 30.5696C19.6259 30.4953 19.5327 30.3718 19.4935 30.2264C19.4544 30.0809 19.4724 29.9253 19.5436 29.7936C19.578 29.7273 19.6249 29.669 19.6815 29.622C19.7381 29.575 19.8033 29.5403 19.8731 29.5201C19.9429 29.4998 20.0159 29.4944 20.0878 29.5042C20.1597 29.5139 20.229 29.5386 20.2915 29.5767C21.4792 30.2614 22.667 30.8777 23.8107 31.4026C23.9432 31.4649 24.0466 31.5791 24.0981 31.7203C24.1496 31.8615 24.1452 32.0181 24.0857 32.1558C24.0383 32.2485 23.9668 32.3254 23.8792 32.3779C23.7917 32.4304 23.6918 32.4562 23.5908 32.4525ZM32.191 31.745C30.5636 31.6727 28.957 31.3377 27.429 30.7522C27.3601 30.7278 27.2966 30.6895 27.2421 30.6395C27.1876 30.5895 27.1433 30.5288 27.1115 30.4608C27.0798 30.3929 27.0614 30.3191 27.0574 30.2438C27.0534 30.1684 27.0638 30.093 27.088 30.0218C27.1356 29.8802 27.2349 29.7637 27.3645 29.6975C27.4942 29.6313 27.6438 29.6207 27.7809 29.668C30.9372 30.8092 32.9718 30.8092 33.5877 30.3071C33.5877 30.3071 33.6757 30.2386 33.6757 29.9876C33.6757 28.7322 32.3449 25.9249 28.5727 22.1475C28.5207 22.0951 28.4792 22.0325 28.4505 21.9634C28.4218 21.8943 28.4065 21.82 28.4055 21.7448C28.4045 21.6695 28.4178 21.5948 28.4446 21.5249C28.4714 21.455 28.5112 21.3912 28.5617 21.3373C28.6123 21.2833 28.6726 21.2402 28.7392 21.2105C28.8058 21.1807 28.8774 21.1648 28.9499 21.1638C29.0224 21.1627 29.0944 21.1765 29.1617 21.2043C29.2291 21.2321 29.2906 21.2734 29.3426 21.3259C32.7518 24.7495 34.7754 27.9791 34.7754 29.9876C34.7942 30.2225 34.7557 30.4585 34.6635 30.6739C34.5712 30.8893 34.4282 31.0771 34.2475 31.2201C33.6322 31.615 32.9126 31.7986 32.191 31.745ZM24.7895 29.611C24.7133 29.6071 24.6386 29.5877 24.5696 29.5539C24.0087 29.2914 23.4698 29.0061 22.8319 28.698C22.7621 28.6678 22.6991 28.6231 22.6467 28.5665C22.5943 28.5099 22.5537 28.4427 22.5275 28.3691C22.5013 28.2955 22.49 28.2171 22.4943 28.1387C22.4986 28.0604 22.5185 27.9838 22.5526 27.9138C22.5867 27.8438 22.6344 27.7818 22.6926 27.7318C22.7509 27.6817 22.8184 27.6447 22.8911 27.623C22.9637 27.6012 23.0399 27.5953 23.1149 27.6055C23.1899 27.6157 23.262 27.6419 23.3268 27.6823C23.8987 27.9791 24.4266 28.2644 25.0205 28.5154C25.0927 28.5312 25.1612 28.5615 25.2221 28.6047C25.283 28.6479 25.3351 28.7032 25.3755 28.7673C25.4158 28.8314 25.4436 28.9031 25.4572 28.9784C25.4708 29.0536 25.47 29.1309 25.4549 29.2058C25.4397 29.2808 25.4105 29.3519 25.3688 29.4151C25.3272 29.4783 25.2739 29.5324 25.2122 29.5742C25.1504 29.6161 25.0813 29.6449 25.0087 29.659C24.9362 29.6732 24.8617 29.6724 24.7895 29.6566V29.611ZM17.0251 28.7208C16.9195 28.7226 16.8159 28.6907 16.7282 28.6295C15.8924 28.0704 15.0565 27.4883 14.2537 26.8835C14.1942 26.8403 14.1436 26.7852 14.1048 26.7216C14.0659 26.6579 14.0396 26.5869 14.0273 26.5126C14.015 26.4384 14.0171 26.3623 14.0333 26.2888C14.0495 26.2154 14.0795 26.146 14.1217 26.0847C14.2094 25.9643 14.3386 25.8839 14.4822 25.8605C14.6258 25.8371 14.7726 25.8725 14.8916 25.9591C15.6724 26.5411 16.4972 27.1003 17.3221 27.6709C17.3835 27.7106 17.4369 27.7624 17.479 27.8234C17.5211 27.8845 17.5512 27.9536 17.5676 28.0267C17.5839 28.0999 17.5862 28.1757 17.5743 28.2497C17.5623 28.3238 17.5364 28.3947 17.498 28.4584C17.4492 28.5438 17.3802 28.6149 17.2974 28.6649C17.2146 28.7148 17.1209 28.7419 17.0251 28.7437V28.7208ZM20.0275 27.009C19.9268 27.0113 19.8276 26.9835 19.7416 26.9292C18.2459 25.9934 16.7502 24.9435 15.3425 23.8251C14.7926 23.4029 14.2427 22.9806 13.7698 22.5584C13.6565 22.4642 13.5837 22.3274 13.5672 22.1778C13.5507 22.0281 13.5919 21.8778 13.6818 21.7595C13.7745 21.6412 13.9083 21.5654 14.0543 21.5483C14.2003 21.5312 14.3469 21.5743 14.4627 21.6682C14.9466 22.0791 15.4635 22.4899 15.9914 22.9007C17.4211 24.0419 18.8837 25.0348 20.3904 25.9477C20.4936 26.0113 20.574 26.1081 20.6192 26.2234C20.6644 26.3388 20.6721 26.4663 20.6409 26.5866C20.6098 26.7069 20.5415 26.8132 20.4467 26.8895C20.3518 26.9658 20.2355 27.0078 20.1155 27.009H20.0275ZM11.1634 24.2588C11.0364 24.2556 10.9135 24.2117 10.8114 24.1332L9.71167 23.1404C9.61348 23.0365 9.55724 22.8977 9.55443 22.7522C9.55163 22.6068 9.60247 22.4657 9.69658 22.3578C9.79068 22.25 9.92093 22.1835 10.0607 22.172C10.2005 22.1605 10.3392 22.2048 10.4485 22.2959C10.7894 22.6154 11.1524 22.935 11.5483 23.2545C11.659 23.3539 11.7279 23.4943 11.7403 23.6457C11.7526 23.7971 11.7074 23.9475 11.6143 24.0648C11.5576 24.1296 11.4877 24.1806 11.4098 24.2142C11.3318 24.2477 11.2477 24.2629 11.1634 24.2588ZM7.93004 21.1205C7.85618 21.1223 7.78277 21.108 7.71457 21.0785C7.64637 21.049 7.5849 21.005 7.53412 20.9493C4.10284 17.2746 2.22224 13.7826 2.22224 11.1236C2.20031 10.4022 2.34689 9.68612 2.64947 9.03631C2.95204 8.3865 3.40163 7.8223 3.95987 7.39186C5.91746 5.87407 9.29376 5.9083 13.7148 7.49457C13.8607 7.54451 13.9814 7.65252 14.0505 7.79484C14.1196 7.93716 14.1314 8.10213 14.0833 8.25346C14.0351 8.40479 13.931 8.53009 13.7939 8.60179C13.6567 8.67348 13.4977 8.6857 13.3519 8.63576C9.34874 7.1408 6.24739 7.0495 4.61973 8.30482C4.20344 8.63414 3.86864 9.06152 3.64298 9.55165C3.41733 10.0418 3.30731 10.5806 3.32201 11.1236C3.32201 13.4859 5.09263 16.6926 8.31496 20.1619C8.36756 20.2131 8.40949 20.275 8.43815 20.3437C8.46681 20.4124 8.4816 20.4864 8.4816 20.5613C8.4816 20.6361 8.46681 20.7102 8.43815 20.7789C8.40949 20.8476 8.36756 20.9095 8.31496 20.9607C8.26575 21.0146 8.20585 21.0568 8.1394 21.0844C8.07295 21.112 8.00152 21.1243 7.93004 21.1205ZM25.9003 19.5114C25.7754 19.5157 25.6537 19.4708 25.5593 19.3858L24.0527 18.199C22.623 17.0578 21.1713 16.0878 19.6536 15.1748C18.1316 14.2187 16.5562 13.3575 14.9356 12.5957C14.8619 12.5717 14.7939 12.5317 14.736 12.4786C14.6782 12.4254 14.6318 12.3602 14.5999 12.2872C14.5679 12.2141 14.5512 12.135 14.5507 12.0548C14.5503 11.9746 14.5661 11.8952 14.5972 11.8218C14.6283 11.7484 14.674 11.6826 14.7312 11.6288C14.7884 11.5749 14.856 11.5342 14.9294 11.5092C15.0028 11.4842 15.0805 11.4756 15.1574 11.4839C15.2342 11.4922 15.3086 11.5171 15.3755 11.5572C17.0204 12.3211 18.6182 13.1901 20.1595 14.1592C21.7138 15.133 23.2132 16.1753 24.6575 17.286C25.1854 17.6969 25.7023 18.1077 26.1862 18.5185C26.3002 18.6147 26.3733 18.7535 26.3898 18.905C26.4063 19.0565 26.3647 19.2087 26.2742 19.3288C26.1772 19.4378 26.0431 19.5033 25.9003 19.5114ZM10.0966 18.9636C9.94664 18.959 9.80446 18.8934 9.70067 18.781C6.89626 15.7682 5.22461 12.9038 5.22461 11.1236C5.20579 10.8887 5.24429 10.6526 5.33655 10.4372C5.42881 10.2218 5.57185 10.034 5.7525 9.89108C6.85227 9.04659 9.32675 9.21777 12.5711 10.359C12.7169 10.4074 12.8382 10.514 12.9084 10.6552C12.9785 10.7965 12.9917 10.9608 12.945 11.1122C12.8983 11.2635 12.7956 11.3894 12.6595 11.4622C12.5234 11.5349 12.365 11.5486 12.2191 11.5002C9.0738 10.359 7.02823 10.359 6.41236 10.8611C6.41236 10.8611 6.32438 10.9296 6.32438 11.1806C6.32438 12.3218 7.42415 14.7412 10.4925 18.0278C10.544 18.0809 10.585 18.144 10.6129 18.2135C10.6408 18.283 10.6552 18.3576 10.6552 18.4329C10.6552 18.5083 10.6408 18.5828 10.6129 18.6524C10.585 18.7219 10.544 18.785 10.4925 18.8381C10.4377 18.885 10.3746 18.9203 10.3066 18.9419C10.2387 18.9634 10.1673 18.9708 10.0966 18.9636ZM25.4274 15.2319C25.3115 15.2338 25.1986 15.1934 25.1084 15.1178C22.2937 13.0131 19.2838 11.2049 16.1233 9.7199C16.0569 9.68993 15.9968 9.64667 15.9465 9.5926C15.8961 9.53853 15.8566 9.4747 15.83 9.40476C15.7764 9.26351 15.779 9.10594 15.8374 8.96671C15.8957 8.82749 16.005 8.71801 16.1411 8.66236C16.2772 8.60672 16.4291 8.60947 16.5632 8.67C19.7947 10.1876 22.8712 12.038 25.7463 14.1934C25.8049 14.2375 25.8546 14.2932 25.8924 14.3573C25.9302 14.4213 25.9555 14.4925 25.9667 14.5667C25.978 14.641 25.975 14.7168 25.9579 14.7898C25.9408 14.8628 25.91 14.9316 25.8673 14.9922C25.8185 15.0666 25.7529 15.1273 25.6762 15.1691C25.5995 15.2109 25.514 15.2325 25.4274 15.2319Z" fill="#210124"/>
<path d="M20.0055 26.4498C23.1457 26.4498 25.6913 23.8083 25.6913 20.5499C25.6913 17.2914 23.1457 14.6499 20.0055 14.6499C16.8653 14.6499 14.3197 17.2914 14.3197 20.5499C14.3197 23.8083 16.8653 26.4498 20.0055 26.4498Z" fill="#7CFEF0"/>
<path d="M20.0055 27.0204C18.7718 27.0227 17.5651 26.6451 16.5382 25.9355C15.5113 25.2259 14.7103 24.2161 14.2367 23.034C13.763 21.8518 13.638 20.5504 13.8773 19.2945C14.1167 18.0386 14.7097 16.8846 15.5814 15.9785C16.453 15.0724 17.5641 14.455 18.774 14.2044C19.9839 13.9538 21.2382 14.0813 22.3783 14.5707C23.5184 15.0601 24.4929 15.8895 25.1786 16.9538C25.8642 18.0181 26.2302 19.2696 26.2302 20.5498C26.2302 22.264 25.5748 23.9081 24.4077 25.1212C23.2407 26.3344 21.6574 27.0174 20.0055 27.0204ZM20.0055 15.2319C18.9888 15.2296 17.9943 15.5405 17.148 16.1253C16.3018 16.71 15.6418 17.5422 15.2517 18.5165C14.8616 19.4908 14.759 20.5633 14.9568 21.5982C15.1546 22.633 15.644 23.5837 16.3629 24.3297C17.0818 25.0757 17.998 25.5835 18.9953 25.7888C19.9926 25.9941 21.0261 25.8876 21.9651 25.4828C22.904 25.078 23.706 24.3931 24.2695 23.515C24.833 22.6368 25.1326 21.6049 25.1305 20.5498C25.1276 19.1404 24.5867 17.7895 23.6262 16.7928C22.6657 15.7961 21.3639 15.2349 20.0055 15.2319Z" fill="#210124"/>
<path d="M22.7109 19.694H17.3331V21.4172H22.7109V19.694Z" fill="#4F345A"/>
<path d="M28.8367 12.3104C30.7499 12.3104 32.3009 10.701 32.3009 8.71564C32.3009 6.7303 30.7499 5.12086 28.8367 5.12086C26.9234 5.12086 25.3724 6.7303 25.3724 8.71564C25.3724 10.701 26.9234 12.3104 28.8367 12.3104Z" fill="#7CFEF0"/>
<path d="M28.8367 12.8924C28.0401 12.8947 27.2608 12.6516 26.5974 12.1941C25.9341 11.7365 25.4164 11.085 25.1101 10.322C24.8038 9.55895 24.7225 8.71878 24.8765 7.90782C25.0306 7.09685 25.4131 6.35155 25.9756 5.76628C26.5381 5.181 27.2553 4.78207 28.0364 4.61998C28.8175 4.45789 29.6274 4.53993 30.3635 4.85572C31.0996 5.17152 31.7289 5.70686 32.1717 6.39397C32.6145 7.08108 32.8508 7.88907 32.8509 8.71565C32.8509 9.82142 32.4283 10.8821 31.6758 11.6651C30.9233 12.448 29.9023 12.8894 28.8367 12.8924ZM28.8367 5.64583C28.2572 5.64357 27.6901 5.81997 27.2073 6.15266C26.7245 6.48534 26.3479 6.95932 26.1251 7.51446C25.9023 8.06961 25.8435 8.6809 25.956 9.27081C26.0685 9.86072 26.3474 10.4027 26.7572 10.8279C27.1669 11.2531 27.6892 11.5424 28.2577 11.6592C28.8262 11.776 29.4153 11.7149 29.9503 11.4837C30.4853 11.2525 30.942 10.8617 31.2627 10.3608C31.5833 9.85982 31.7533 9.27135 31.7511 8.67C31.7482 7.86886 31.4402 7.1014 30.8943 6.53491C30.3483 5.96842 29.6087 5.64883 28.8367 5.64583Z" fill="#210124"/>
<path d="M30.4863 8.19069H27.198V9.24059H30.4863V8.19069Z" fill="#BE1E2D"/>
<path d="M29.3536 7.01526H28.3418V10.4274H29.3536V7.01526Z" fill="#BE1E2D"/>
<path d="M11.0424 35.9788C12.9557 35.9788 14.5067 34.3694 14.5067 32.3841C14.5067 30.3987 12.9557 28.7893 11.0424 28.7893C9.12913 28.7893 7.57812 30.3987 7.57812 32.3841C7.57812 34.3694 9.12913 35.9788 11.0424 35.9788Z" fill="#7CFEF0"/>
<path d="M11.0204 36.5609C10.2238 36.5631 9.44454 36.3201 8.78116 35.8625C8.11778 35.4049 7.60016 34.7534 7.29382 33.9904C6.98748 33.2274 6.90619 32.3872 7.06026 31.5762C7.21433 30.7653 7.59682 30.02 8.15931 29.4347C8.72179 28.8494 9.43899 28.4505 10.2201 28.2884C11.0012 28.1263 11.8111 28.2084 12.5472 28.5242C13.2834 28.8399 13.9127 29.3753 14.3554 30.0624C14.7982 30.7495 15.0346 31.5575 15.0346 32.3841C15.036 32.932 14.9333 33.4749 14.7322 33.9816C14.5311 34.4883 14.2356 34.9488 13.8627 35.3368C13.4899 35.7248 13.0468 36.0327 12.5591 36.2427C12.0714 36.4527 11.5485 36.5609 11.0204 36.5609ZM11.0204 29.3599C10.4409 29.3576 9.87379 29.534 9.39103 29.8667C8.90827 30.1994 8.53161 30.6734 8.30883 31.2285C8.08605 31.7837 8.0272 32.395 8.13972 32.9849C8.25225 33.5748 8.53109 34.1167 8.94087 34.5419C9.35065 34.9672 9.87292 35.2565 10.4414 35.3733C11.0099 35.49 11.599 35.429 12.134 35.1978C12.669 34.9666 13.1258 34.5758 13.4464 34.0748C13.767 33.5739 13.937 32.9854 13.9348 32.3841C13.9348 31.582 13.6277 30.8128 13.0812 30.2457C12.5346 29.6785 11.7934 29.3599 11.0204 29.3599Z" fill="#210124"/>
<path d="M12.703 31.8591H9.41473V32.909H12.703V31.8591Z" fill="#BE1E2D"/>
<path d="M11.5593 30.6837H10.5475V34.0959H11.5593V30.6837Z" fill="#BE1E2D"/>
</g>
<defs>
<clipPath id="clip0">
<rect width="35.5556" height="36.6667" fill="white" transform="translate(2.22223 2.22223)"/>
</clipPath>
</defs>
</svg>
