<svg width="40" height="40" viewBox="0 0 40 40" fill="none" xmlns="http://www.w3.org/2000/svg">
<g clip-path="url(#clip0)">
<path d="M4.99444 28.4257H34.7287C34.8394 28.1519 34.9391 27.8821 35.0277 27.6161C35.8712 25.035 36.1152 22.2766 35.7391 19.5743C35.3631 16.8721 34.3779 14.3056 32.8672 12.0923C31.3564 9.8789 29.3645 8.08378 27.0601 6.8589C24.7557 5.63403 22.2066 5.01545 19.6287 5.05556C17.0507 5.09566 14.5199 5.79327 12.2504 7.0893C9.98093 8.38533 8.03963 10.2416 6.59086 12.5011C5.14209 14.7605 4.22852 17.3564 3.9275 20.0692C3.62648 22.782 3.94687 25.5317 4.86155 28.0854L4.99444 28.4257Z" fill="#00916E"/>
<path d="M19.8671 5.03108C18.2092 5.02804 16.5611 5.30122 14.9833 5.84062C17.0226 6.53208 18.9107 7.64864 20.5366 9.12461C22.1626 10.6006 23.4935 12.4061 24.451 14.4351C25.4086 16.464 25.9734 18.6754 26.1124 20.939C26.2514 23.2027 25.9616 25.4729 25.2602 27.6161C25.1716 27.886 25.0719 28.1558 24.9723 28.4257H34.7286C34.8394 28.1519 34.939 27.8821 35.0276 27.6161C35.8662 25.0539 36.1144 22.3164 35.7516 19.6319C35.3888 16.9474 34.4254 14.3937 32.9419 12.1837C31.4585 9.97374 29.4978 8.1715 27.2234 6.92728C24.949 5.68307 22.4268 5.03293 19.8671 5.03108Z" fill="#037682"/>
<path d="M29.258 8.24578C29.258 8.24578 25.4485 7.60049 23.7209 8.24578C21.9933 8.89107 20.5869 7.67089 18.4828 8.24578C16.793 8.76356 15.0082 8.82807 13.289 8.4335C10.753 8.06979 10.4319 8.32791 10.4319 8.32791L7.38647 11.3549C9.1182 10.784 10.9123 10.4528 12.7242 10.3694C15.1606 10.3694 16.6777 11.3197 19.1473 10.3694C21.6168 9.41903 23.0232 11.9298 25.7918 10.78C28.5603 9.63021 32.3034 11.3549 32.3034 11.3549L29.258 8.24578Z" fill="#82DDF0"/>
<path d="M35.9136 22.0432C35.9136 21.8672 35.9136 21.6795 35.9136 21.5035C35.3156 21.656 33.876 22.0197 31.9934 22.3834C29.5017 22.8762 29.3134 21.9611 26.3012 21.0107C23.289 20.0604 23.876 22.184 20.4873 23.0991C17.0986 24.0143 15.7586 22.5712 12.7353 22.2309C9.71207 21.8907 10.6312 24.1316 7.56367 23.2516C4.49612 22.3717 4.1196 23.9908 4.1196 23.9908L4.03101 24.1902C4.11496 24.8536 4.23326 25.5117 4.38538 26.1613C5.46217 25.8164 6.60097 25.7481 7.70764 25.9619C9.82281 26.5133 9.92248 25.8915 11.2846 24.9411C12.6467 23.9908 17.1096 25.0115 18.5825 25.692C20.0554 26.3725 22.1595 25.7624 24.4629 24.202C26.7663 22.6416 28.6157 24.202 30.598 24.8825C31.8605 25.3048 34.2636 24.5305 35.8472 23.9087C35.8693 23.2868 35.9136 22.665 35.9136 22.0432Z" fill="#82DDF0"/>
<path d="M34.7065 15.2031C34.7065 15.2031 33.4773 17.1625 30.753 15.8132C28.0288 14.464 27.8627 13.9712 25.5038 14.64C23.145 15.3087 23.1672 14.7221 19.4241 13.1969C15.681 11.6717 15.5592 15.7663 12.5913 15.2501C9.62345 14.7338 4.7065 16.4233 4.62899 16.4233C4.36579 17.2729 4.16948 18.1441 4.04205 19.0279C5.00787 19.0593 5.96056 19.2739 6.8549 19.6615C8.62677 20.518 8.40529 19.0514 10.6091 18.2301C12.8128 17.4089 13.5769 18.5821 17.2536 20.2364C20.9302 21.8907 23.3776 18.6994 24.5847 17.4206C25.7918 16.1417 27.0099 18.8168 29.4241 19.1687C31.4989 19.1607 33.5578 18.784 35.5149 18.0541C35.324 17.0808 35.0535 16.1268 34.7065 15.2031ZM18.9811 18.5234C17.4751 18.5234 16.2569 17.8312 16.2569 16.9865C16.2569 16.1417 17.4751 15.4378 18.9811 15.4378C20.4872 15.4378 21.7165 16.13 21.7165 16.9865C21.7165 17.843 20.4872 18.5234 18.9811 18.5234Z" fill="#82DDF0"/>
<path d="M31.9712 22.3717C29.4795 22.8645 29.2912 21.9493 26.279 20.999H26.1018C26.1018 21.3627 26.1018 21.7147 26.1018 22.0784C26.1018 22.4421 26.1018 23.0874 26.0354 23.5919C27.619 23.4042 29.0365 24.4014 30.5205 24.9177C31.7829 25.34 34.186 24.5657 35.7696 23.9439C35.7696 23.3338 35.8693 22.7706 35.8693 22.0784C35.8693 21.9024 35.8693 21.7147 35.8693 21.5387C35.2934 21.6443 33.8538 22.0432 31.9712 22.3717Z" fill="#60A8C4"/>
<path d="M34.6179 15.3322C34.2857 15.7311 33.0675 16.963 30.753 15.8132C27.9955 14.4405 27.8626 13.9712 25.5038 14.64C25.1605 14.7221 24.8726 14.7925 24.6068 14.8277C24.9436 15.5404 25.2322 16.2775 25.4706 17.0334C26.4562 17.1742 27.6079 18.8285 29.4795 19.1101C31.509 19.1007 33.5227 18.7319 35.4374 18.019C35.2344 17.101 34.9603 16.2024 34.6179 15.3322Z" fill="#60A8C4"/>
<path d="M32.3255 11.3197L29.3577 8.33964L29.2248 8.23405C28.8815 8.23405 25.371 7.63569 23.6877 8.23405C22.0044 8.8324 20.9302 7.95247 19.258 8.09326C20.1851 8.77942 21.0425 9.56581 21.8161 10.4398C23.057 11.1003 24.4941 11.2142 25.8139 10.7565C28.5825 9.58328 32.1927 11.261 32.3145 11.3197H32.3255Z" fill="#60A8C4"/>
<path d="M34.7397 29.0123H4.99444C4.88385 29.0108 4.77622 28.9742 4.68543 28.9073C4.59463 28.8404 4.52484 28.7462 4.48503 28.6369V28.5078C4.48503 28.4374 4.48503 28.367 4.39643 28.2849C3.52017 25.8713 3.15674 23.2827 3.332 20.7034C3.50727 18.1241 4.21693 15.6174 5.41048 13.3616C6.60404 11.1058 8.25216 9.15648 10.2376 7.6522C12.223 6.14791 14.497 5.12568 16.8977 4.65822C19.2984 4.19076 21.7668 4.28956 24.1274 4.9476C26.4879 5.60564 28.6826 6.80674 30.5552 8.46545C32.4279 10.1242 33.9324 12.1997 34.9619 14.5445C35.9914 16.8892 36.5205 19.4455 36.5116 22.0315C36.5118 23.9955 36.205 25.946 35.6035 27.8039L35.3599 28.4726L35.2934 28.6369C35.2497 28.7528 35.1728 28.8514 35.0735 28.9187C34.9742 28.9861 34.8575 29.0188 34.7397 29.0123ZM5.35989 27.8391H34.33C34.33 27.6983 34.4297 27.5575 34.474 27.4167C35.2911 24.9237 35.5292 22.2589 35.1682 19.6478C34.8072 17.0367 33.8577 14.5562 32.4 12.4163C30.9423 10.2764 29.0195 8.54004 26.7942 7.35431C24.5689 6.16858 22.1066 5.56836 19.616 5.60445C17.1253 5.64054 14.6795 6.31189 12.4857 7.56166C10.2918 8.81142 8.41448 10.6028 7.0126 12.7842C5.61073 14.9655 4.72559 17.4726 4.43212 20.0932C4.13865 22.7138 4.44549 25.3707 5.32667 27.8391H5.35989Z" fill="#210124"/>
<path d="M38.4385 28.0385H1.56141C1.32471 28.0432 1.09713 28.136 0.918569 28.3007C0.740012 28.4654 0.62188 28.6914 0.584889 28.9391C0.547899 29.1869 0.594412 29.4405 0.716271 29.6555C0.83813 29.8706 1.02756 30.0333 1.25133 30.1151L7.47503 31.6169C7.81471 31.6958 8.13123 31.8608 8.39743 32.0979C8.66362 32.335 8.87152 32.6369 9.00327 32.9779C9.11014 33.2411 9.28803 33.4651 9.51459 33.6216C9.74116 33.7782 10.0063 33.8603 10.2768 33.8578H29.7231C29.9954 33.8627 30.263 33.7816 30.4918 33.6249C30.7205 33.4682 30.9001 33.243 31.0077 32.9779C31.1394 32.6369 31.3473 32.335 31.6135 32.0979C31.8797 31.8608 32.1963 31.6958 32.5359 31.6169L38.7596 30.1151C38.9842 30.0329 39.1741 29.8692 39.2958 29.653C39.4175 29.4367 39.4632 29.1819 39.4248 28.9335C39.3864 28.6851 39.2663 28.459 39.0858 28.2952C38.9054 28.1315 38.6761 28.0405 38.4385 28.0385Z" fill="#F7F5FB"/>
<path d="M8.37207 31.4292H27.6855V33.8813H10.1218C9.89202 33.8813 9.66449 33.8333 9.4522 33.7402C9.23992 33.647 9.04703 33.5105 8.88455 33.3383C8.72208 33.1662 8.59319 32.9619 8.50526 32.7369C8.41733 32.512 8.37207 32.271 8.37207 32.0276V31.4292Z" fill="#B7CACE"/>
<path d="M38.4385 28.0385H28.1285C28.3661 28.0405 28.5953 28.1315 28.7758 28.2952C28.9563 28.459 29.0763 28.6851 29.1147 28.9335C29.1532 29.1819 29.1075 29.4367 28.9858 29.653C28.8641 29.8692 28.6742 30.0329 28.4496 30.1151L22.2148 31.6169C21.8773 31.7012 21.5632 31.8682 21.2978 32.1046C21.0323 32.341 20.823 32.6401 20.6866 32.9779C20.5829 33.2411 20.4073 33.4656 20.1823 33.6223C19.9574 33.7791 19.6934 33.8611 19.4241 33.8578H29.7231C29.9955 33.8627 30.2631 33.7816 30.4918 33.6249C30.7205 33.4682 30.9001 33.243 31.0077 32.9779C31.1395 32.6369 31.3474 32.335 31.6136 32.0979C31.8798 31.8608 32.1963 31.6958 32.536 31.6169L38.7597 30.1151C38.9843 30.0329 39.1742 29.8692 39.2959 29.653C39.4176 29.4367 39.4632 29.1819 39.4248 28.9335C39.3864 28.6851 39.2664 28.459 39.0859 28.2952C38.9054 28.1315 38.6761 28.0405 38.4385 28.0385Z" fill="#B7CACE"/>
<path d="M29.7231 34.4444H10.2768C9.89639 34.4495 9.52324 34.3337 9.20546 34.1121C8.88768 33.8904 8.63984 33.573 8.49388 33.2008C8.39839 32.9502 8.24827 32.727 8.0558 32.5496C7.86333 32.3722 7.63397 32.2456 7.38646 32.1801L1.10739 30.69C0.74092 30.5777 0.425943 30.3271 0.22192 29.9856C0.017897 29.6441 -0.0610552 29.2353 -3.17302e-05 28.8363C0.0514964 28.4456 0.236824 28.0887 0.52067 27.8334C0.804515 27.5781 1.16706 27.4423 1.53928 27.4519H38.4164C38.788 27.4449 39.1492 27.5816 39.4326 27.8364C39.7159 28.0912 39.9019 28.4467 39.9557 28.8363C40.0162 29.2338 39.9369 29.641 39.7328 29.9805C39.5286 30.3201 39.2138 30.5684 38.8483 30.6783L32.5692 32.1801C32.3217 32.2456 32.0923 32.3722 31.8998 32.5496C31.7074 32.727 31.5573 32.9502 31.4618 33.2008C31.3187 33.5656 31.0777 33.878 30.7686 34.099C30.4595 34.3201 30.096 34.4402 29.7231 34.4444ZM1.56143 28.5782C1.45296 28.5772 1.34774 28.6174 1.26481 28.6915C1.18188 28.7655 1.12673 28.8686 1.10933 28.9821C1.09193 29.0955 1.11344 29.2118 1.16996 29.3099C1.22648 29.4079 1.31428 29.4814 1.41747 29.5168L7.59687 30.9951C8.02859 31.1011 8.42953 31.3167 8.7652 31.6232C9.10086 31.9298 9.36119 32.3182 9.52378 32.755C9.58717 32.9102 9.69251 33.042 9.82653 33.1339C9.96054 33.2257 10.1172 33.2735 10.2768 33.2712H29.7231C29.8827 33.2735 30.0394 33.2257 30.1734 33.1339C30.3074 33.042 30.4128 32.9102 30.4762 32.755C30.6446 32.3269 30.9074 31.948 31.2427 31.6499C31.578 31.3518 31.976 31.1434 32.4031 31.042L38.6268 29.5403C38.7221 29.503 38.8009 29.4295 38.848 29.3341C38.8951 29.2387 38.907 29.1282 38.8815 29.024C38.8703 28.9099 38.818 28.8048 38.7355 28.7305C38.653 28.6562 38.5466 28.6185 38.4385 28.6251L1.56143 28.5782Z" fill="#210124"/>
<path d="M32.5249 32.2035H19.1473C19.0004 32.2035 18.8596 32.1417 18.7557 32.0317C18.6519 31.9217 18.5936 31.7725 18.5936 31.6169C18.5936 31.4613 18.6519 31.3121 18.7557 31.2021C18.8596 31.0921 19.0004 31.0303 19.1473 31.0303H32.5249C32.6718 31.0303 32.8126 31.0921 32.9164 31.2021C33.0203 31.3121 33.0786 31.4613 33.0786 31.6169C33.0758 31.7716 33.0165 31.919 32.9133 32.0284C32.8101 32.1378 32.6709 32.2005 32.5249 32.2035Z" fill="#210124"/>
<path d="M6.20152 20.0956L4.08635 18.9576L2.0044 20.166L2.36985 17.6787L0.642273 15.954L2.99 15.5551L4.00883 13.2908L5.08303 15.5199L7.44183 15.8484L5.76963 17.6318L6.20152 20.0956Z" fill="#FEC803"/>
<path d="M2.00437 20.7526C1.88979 20.7521 1.77797 20.7153 1.68322 20.647C1.59722 20.5842 1.52974 20.4969 1.48859 20.3952C1.44744 20.2934 1.43429 20.1814 1.45066 20.0721L1.77181 17.8899L0.265723 16.3764C0.192783 16.3004 0.141134 16.2045 0.116507 16.0993C0.0918793 15.9941 0.0952358 15.8838 0.126204 15.7805C0.157172 15.6772 0.214541 15.585 0.291947 15.5142C0.369353 15.4433 0.463771 15.3966 0.564726 15.3791L2.61345 15.0037L3.51046 13.0092C3.55101 12.907 3.61857 12.8194 3.70502 12.7569C3.79147 12.6945 3.89312 12.6598 3.99773 12.6572C4.10009 12.6572 4.20053 12.6867 4.28831 12.7425C4.37608 12.7983 4.4479 12.8783 4.49607 12.974L5.44845 15.0037L7.50825 15.297C7.6111 15.3082 7.70878 15.3504 7.78979 15.4185C7.8708 15.4865 7.93176 15.5777 7.96551 15.6813C7.99925 15.7848 8.00437 15.8964 7.98025 16.0029C7.95614 16.1095 7.9038 16.2065 7.8294 16.2825L6.36761 17.8312L6.74413 19.99C6.76403 20.0982 6.75476 20.2101 6.7174 20.3129C6.68004 20.4158 6.61608 20.5054 6.53287 20.5715C6.44965 20.6376 6.35054 20.6776 6.24689 20.6868C6.14323 20.696 6.03923 20.6741 5.94679 20.6236L4.0974 19.6263L2.27015 20.6822C2.18804 20.7276 2.09697 20.7517 2.00437 20.7526ZM1.83826 16.3412L2.74634 17.2563C2.81221 17.3211 2.86187 17.4021 2.89086 17.4923C2.91985 17.5824 2.92727 17.6787 2.91246 17.7726L2.7242 19.0749L3.83161 18.453C3.90941 18.4068 3.99712 18.3825 4.08632 18.3825C4.17553 18.3825 4.26323 18.4068 4.34103 18.453L5.44845 19.0514L5.21589 17.7491C5.20158 17.6562 5.20817 17.561 5.23511 17.4713C5.26205 17.3816 5.30858 17.2999 5.37093 17.2329L6.25686 16.2943L5.01655 16.1065C4.9271 16.0949 4.84178 16.0599 4.76831 16.0046C4.69484 15.9493 4.63553 15.8754 4.59573 15.7898L4.03095 14.6165L3.48831 15.7898C3.44954 15.8739 3.39194 15.9468 3.32053 16.002C3.24912 16.0572 3.16606 16.0931 3.07857 16.1065L1.83826 16.3412Z" fill="#210124"/>
<path d="M38.073 24.9294L35.9579 23.7913L33.8759 24.9881L34.2414 22.5125L32.5138 20.7761L34.8615 20.3889L35.8803 18.1128L36.9656 20.3537L39.3133 20.6822L37.6411 22.4538L38.073 24.9294Z" fill="#FEC803"/>
<path d="M33.8759 25.5629C33.7613 25.5624 33.6495 25.5256 33.5548 25.4574C33.4688 25.3945 33.4013 25.3072 33.3601 25.2055C33.319 25.1038 33.3058 24.9918 33.3222 24.8825L33.6433 22.7119L32.1151 21.2102C32.043 21.1328 31.9921 21.0361 31.9679 20.9304C31.9437 20.8248 31.9472 20.7141 31.978 20.6103C32.0087 20.5066 32.0656 20.4137 32.1424 20.3416C32.2192 20.2695 32.3132 20.221 32.4141 20.2012L34.4628 19.8492L35.4374 17.8664C35.4806 17.7673 35.5492 17.6829 35.6353 17.6228C35.7213 17.5627 35.8216 17.5292 35.9246 17.5262C36.0275 17.531 36.1277 17.5623 36.2165 17.6176C36.3053 17.6728 36.38 17.7502 36.434 17.843L37.3754 19.814L39.4352 20.0956C39.5378 20.1077 39.635 20.1505 39.7154 20.2191C39.7958 20.2877 39.8561 20.3792 39.8892 20.4828C39.9237 20.5874 39.9295 20.7002 39.906 20.8082C39.8825 20.9161 39.8306 21.0149 39.7563 21.0929L38.2945 22.6533L38.671 24.8238C38.6898 24.9309 38.68 25.0414 38.6429 25.1429C38.6057 25.2444 38.5426 25.333 38.4606 25.3987C38.3722 25.4557 38.2707 25.4858 38.1672 25.4858C38.0637 25.4858 37.9621 25.4557 37.8737 25.3987L36.0243 24.4014L34.1971 25.4574C34.102 25.525 33.9904 25.5617 33.8759 25.5629ZM33.7098 21.1633L34.6179 22.0667C34.6837 22.1314 34.7334 22.2125 34.7624 22.3026C34.7914 22.3927 34.7988 22.489 34.784 22.5829L34.5957 23.8969L35.7032 23.2634C35.7838 23.2201 35.873 23.1975 35.9634 23.1975C36.0538 23.1975 36.143 23.2201 36.2236 23.2634L37.3311 23.8617L37.0985 22.5594C37.0851 22.4665 37.0921 22.3716 37.119 22.2821C37.1459 22.1925 37.1919 22.1108 37.2535 22.0432L38.1395 21.1046L36.8992 20.9286C36.8111 20.9172 36.7269 20.8835 36.6536 20.8305C36.5804 20.7774 36.5203 20.7064 36.4783 20.6236L35.9136 19.4503L35.3709 20.6236C35.332 20.7087 35.2746 20.7829 35.2034 20.84C35.1321 20.8972 35.0491 20.9355 34.9612 20.9521L33.7098 21.1633Z" fill="#210124"/>
<path d="M32.3366 10.8152L30.5537 9.85313L28.7929 10.8621L29.103 8.762L27.6412 7.30717L29.6235 6.96693L30.4872 5.05453L31.3953 6.94347L33.3776 7.22505L31.9712 8.72681L32.3366 10.8152Z" fill="#FEC803"/>
<path d="M28.7929 11.4839C28.6779 11.4865 28.5652 11.4494 28.4717 11.3783C28.3857 11.3155 28.3183 11.2282 28.2771 11.1265C28.2359 11.0248 28.2228 10.9128 28.2392 10.8035L28.505 9.02012L27.2646 7.72954C27.206 7.65349 27.1663 7.56303 27.1491 7.46649C27.132 7.36994 27.1381 7.27039 27.1668 7.17697C27.1954 7.08355 27.2458 6.99925 27.3132 6.9318C27.3806 6.86435 27.4629 6.81592 27.5526 6.79094L29.2469 6.49763L29.9889 4.79642C30.0294 4.69422 30.097 4.60663 30.1835 4.54418C30.2699 4.48173 30.3716 4.44709 30.4762 4.44444C30.5845 4.44998 30.6897 4.48398 30.7825 4.54338C30.8753 4.60277 30.9527 4.6857 31.0077 4.78469L31.794 6.40377L33.4883 6.63842C33.591 6.65051 33.6882 6.69336 33.7686 6.76194C33.849 6.83052 33.9093 6.92198 33.9424 7.02559C33.9731 7.13065 33.9771 7.24247 33.9537 7.34965C33.9304 7.45683 33.8806 7.55553 33.8095 7.63568L32.5692 8.91452L32.8793 10.6979C32.8992 10.806 32.8899 10.9179 32.8525 11.0208C32.8152 11.1236 32.7512 11.2133 32.668 11.2794C32.5848 11.3455 32.4857 11.3855 32.382 11.3947C32.2784 11.4039 32.1744 11.3819 32.0819 11.3314L30.5537 10.5101L29.0587 11.3783C28.9796 11.4361 28.8883 11.4723 28.7929 11.4839ZM28.7929 7.72954L29.4352 8.37483C29.5011 8.43958 29.5507 8.52064 29.5797 8.61075C29.6087 8.70085 29.6161 8.79717 29.6013 8.89106L29.4684 9.81793L30.2436 9.37209C30.3223 9.32889 30.4097 9.30634 30.4983 9.30634C30.587 9.30634 30.6743 9.32889 30.753 9.37209L31.5393 9.79446L31.3842 8.87933C31.3685 8.78552 31.3732 8.68913 31.3982 8.59758C31.4232 8.50604 31.4676 8.4218 31.5282 8.35136L32.1594 7.69434L31.2846 7.57702C31.1951 7.5654 31.1098 7.53035 31.0363 7.47504C30.9629 7.41974 30.9036 7.34592 30.8638 7.26024L30.454 6.42724L30.0775 7.27198C30.0386 7.35716 29.9812 7.43135 29.9099 7.48846C29.8387 7.54556 29.7557 7.58396 29.6677 7.60048L28.7929 7.72954Z" fill="#210124"/>
<path d="M26.5448 20.4828L24.8394 19.5676L23.1561 20.5297L23.4551 18.5352L22.0709 17.139L23.9535 16.8222L24.773 15.0037L25.6478 16.7988L27.5415 17.0569L26.1905 18.4882L26.5448 20.4828Z" fill="#FEC803"/>
<path d="M23.1561 21.1163C23.0448 21.1172 22.9361 21.0802 22.8461 21.0107C22.761 20.9498 22.6939 20.8645 22.6528 20.7648C22.6116 20.6652 22.598 20.5551 22.6135 20.4476L22.8682 18.7464L21.6944 17.5731C21.6184 17.4984 21.5637 17.4025 21.5366 17.2965C21.5095 17.1905 21.511 17.0785 21.541 16.9734C21.571 16.8682 21.6283 16.7741 21.7063 16.7018C21.7843 16.6294 21.8799 16.5817 21.9823 16.5641L23.577 16.2943L24.2746 14.7456C24.3203 14.6468 24.3912 14.5637 24.4793 14.5056C24.5675 14.4475 24.6692 14.4168 24.773 14.4171C24.8742 14.4227 24.9725 14.4546 25.0593 14.5098C25.1462 14.565 25.219 14.6419 25.2713 14.7338L26.0022 16.2591L27.608 16.482C27.7106 16.4941 27.8078 16.5369 27.8882 16.6055C27.9687 16.6741 28.0289 16.7656 28.062 16.8692C28.0965 16.9738 28.1023 17.0866 28.0788 17.1946C28.0553 17.3025 28.0034 17.4012 27.9291 17.4793L26.8217 18.6525L27.1207 20.342C27.1395 20.4491 27.1297 20.5595 27.0925 20.6611C27.0554 20.7626 26.9923 20.8512 26.9103 20.9169C26.8211 20.9714 26.7199 21.0002 26.6168 21.0002C26.5138 21.0002 26.4126 20.9714 26.3234 20.9169L24.8837 20.1425L23.4552 20.9521C23.3749 21.0397 23.27 21.0974 23.1561 21.1163ZM23.2669 17.5379L23.8427 18.1128C23.9071 18.1788 23.9557 18.2599 23.9845 18.3497C24.0134 18.4395 24.0218 18.5352 24.0089 18.629L23.887 19.4503L24.5736 19.0514C24.6543 19.0081 24.7435 18.9856 24.8339 18.9856C24.9243 18.9856 25.0135 19.0081 25.0941 19.0514L25.7918 19.4386L25.6478 18.6173C25.6317 18.5226 25.6374 18.4251 25.6643 18.3332C25.6913 18.2413 25.7389 18.1576 25.8029 18.0893L26.3566 17.5027L25.5703 17.3502C25.482 17.3349 25.3982 17.2984 25.3253 17.2435C25.2523 17.1885 25.1922 17.1167 25.1495 17.0334L24.7951 16.2943L24.4518 17.0451C24.4129 17.1303 24.3555 17.2045 24.2843 17.2616C24.213 17.3187 24.13 17.3571 24.0421 17.3737L23.2669 17.5379Z" fill="#210124"/>
</g>
<defs>
<clipPath id="clip0">
<rect width="40" height="30" fill="white" transform="translate(0 4.44444)"/>
</clipPath>
</defs>
</svg>
