<svg width="40" height="40" viewBox="0 0 40 40" fill="none" xmlns="http://www.w3.org/2000/svg">
<path d="M21.8799 19.9607L23.5375 16.7483L20.6116 18.4348L21.5906 13.0426L17.8081 17.1728L17.3075 13.5589L15.9057 16.691L13.6251 11.7462L12.9131 17.3678L10.4545 14.7521L11.1108 18.1365L6.43833 15.5207L9.07496 20.4999L5.59283 19.8689L8.05146 22.2208L2.7782 22.9321L7.75108 25.3643L4.56933 26.959L7.89571 27.372L4.03533 31.1351L9.45321 30.1025L7.78446 33.3149L10.7215 31.6399L9.74246 37.0205L13.525 32.9018L14.0145 36.5157L15.4273 33.3722L17.708 38.3169L18.42 32.6953L20.8786 35.3111L20.2222 31.9267L24.8947 34.5424L22.2581 29.5633L25.7402 30.1943L23.2816 27.8424L28.5549 27.1311L23.582 24.6989L26.7637 23.1042L23.4262 22.6912L27.2866 18.9281L21.8799 19.9607Z" fill="#82DDF0"/>
<path d="M15.9725 31.2957C19.1613 31.2957 21.7464 28.6298 21.7464 25.3413C21.7464 22.0529 19.1613 19.387 15.9725 19.387C12.7837 19.387 10.1986 22.0529 10.1986 25.3413C10.1986 28.6298 12.7837 31.2957 15.9725 31.2957Z" fill="#7CFEF0"/>
<path d="M17.708 38.9365C17.6037 38.9367 17.5015 38.9067 17.413 38.8499C17.3245 38.7931 17.2532 38.7118 17.2073 38.6152L15.4273 34.7719L14.5262 36.7911C14.4766 36.9053 14.3921 36.9996 14.2856 37.0596C14.1792 37.1197 14.0566 37.1422 13.9366 37.1238C13.8174 37.1049 13.7073 37.0466 13.6231 36.9576C13.5388 36.8686 13.4848 36.7538 13.4693 36.6305L13.1356 34.1983L10.143 37.4106C10.0637 37.5066 9.95535 37.5723 9.83544 37.5972C9.71554 37.6221 9.59101 37.6047 9.48188 37.5477C9.37274 37.4908 9.28535 37.3977 9.23374 37.2833C9.18213 37.169 9.16931 37.04 9.19733 36.9173L10.0095 32.7297L8.11821 33.8197C8.01371 33.8789 7.89351 33.902 7.77533 33.8855C7.65714 33.869 7.54724 33.8137 7.46183 33.7279C7.37498 33.6425 7.31722 33.5305 7.29717 33.4085C7.27712 33.2865 7.29586 33.1611 7.35058 33.051L8.46308 30.8826L4.19107 31.7087C4.07132 31.7352 3.94642 31.7202 3.83577 31.666C3.72512 31.6119 3.6349 31.5216 3.57911 31.4091C3.52332 31.2967 3.50508 31.1684 3.52723 31.0441C3.54937 30.9199 3.61065 30.8067 3.70157 30.722L6.67195 27.7965L4.5137 27.5326C4.3963 27.5156 4.28703 27.4611 4.20123 27.3767C4.11543 27.2923 4.05741 27.1824 4.03532 27.0622C4.01308 26.9393 4.03038 26.8123 4.0846 26.7005C4.13883 26.5886 4.227 26.4981 4.3357 26.4427L6.48283 25.3758L2.54457 23.4484C2.43482 23.3959 2.34465 23.308 2.28771 23.1979C2.23077 23.0879 2.21017 22.9617 2.22904 22.8384C2.2479 22.7152 2.3052 22.6017 2.39225 22.5151C2.47931 22.4285 2.59136 22.3735 2.71145 22.3585L6.80545 21.8078L5.21458 20.2934C5.12709 20.2096 5.06806 20.099 5.04621 19.978C5.02436 19.857 5.04085 19.7319 5.09324 19.6213C5.14562 19.5107 5.23113 19.4203 5.33713 19.3637C5.44312 19.3071 5.56398 19.2871 5.68183 19.3067L8.02921 19.7312L5.94883 15.7961C5.89356 15.685 5.87349 15.5588 5.89145 15.4353C5.90941 15.3118 5.9645 15.1972 6.04895 15.1077C6.13167 15.0293 6.23545 14.9786 6.34666 14.9622C6.45786 14.9459 6.57127 14.9646 6.67195 15.0159L10.2987 17.0466L9.90933 14.8439C9.88797 14.7223 9.90444 14.5969 9.9564 14.4857C10.0084 14.3744 10.0931 14.2829 10.1986 14.2243C10.3054 14.1679 10.427 14.1486 10.5453 14.1692C10.6635 14.1899 10.7722 14.2495 10.855 14.3391L12.5126 16.1058L13.0688 11.6544C13.086 11.5318 13.1405 11.4179 13.2245 11.3293C13.3085 11.2406 13.4176 11.1817 13.5361 11.1611C13.655 11.1398 13.7774 11.1598 13.8841 11.2179C13.9908 11.2761 14.0758 11.3691 14.1257 11.4824L15.8946 15.3257L16.8068 13.3065C16.8565 13.1923 16.941 13.098 17.0474 13.0379C17.1539 12.9779 17.2765 12.9553 17.3965 12.9738C17.5157 12.9927 17.6257 13.051 17.71 13.14C17.7943 13.229 17.8482 13.3438 17.8637 13.4671L18.1975 15.8993L21.1901 12.6411C21.2689 12.5491 21.3758 12.4875 21.4932 12.4667C21.6105 12.4458 21.7312 12.4669 21.8354 12.5264C21.9432 12.5797 22.031 12.6681 22.0852 12.778C22.1395 12.8879 22.1573 13.0131 22.1357 13.1344L21.3792 17.3219L23.2705 16.232C23.375 16.1728 23.4952 16.1497 23.6134 16.1662C23.7315 16.1827 23.8414 16.238 23.9269 16.3238C24.0135 16.4095 24.0703 16.5223 24.0884 16.6447C24.1065 16.7671 24.0849 16.8923 24.027 17.0007L22.9145 19.1691L27.1865 18.343C27.3054 18.3238 27.4272 18.3433 27.5349 18.3988C27.6426 18.4543 27.7308 18.5431 27.7872 18.6528C27.842 18.7629 27.8607 18.8883 27.8406 19.0103C27.8206 19.1323 27.7628 19.2443 27.676 19.3297L24.6722 22.2552L26.8305 22.5191C26.9494 22.5368 27.0598 22.593 27.1458 22.6796C27.2318 22.7662 27.2889 22.8787 27.3089 23.0009C27.3276 23.1234 27.3074 23.2488 27.2513 23.3584C27.1951 23.468 27.106 23.5559 26.9974 23.609L24.8614 24.6874L28.7885 26.6033C28.8982 26.6558 28.9884 26.7437 29.0454 26.8538C29.1023 26.9638 29.1229 27.09 29.104 27.2133C29.0852 27.3365 29.0279 27.45 28.9408 27.5366C28.8538 27.6232 28.7417 27.6782 28.6216 27.6932L24.5276 28.2439L26.1185 29.7583C26.2057 29.8433 26.2645 29.9546 26.2864 30.0762C26.3084 30.1979 26.2925 30.3235 26.2409 30.4352C26.1871 30.5473 26.0994 30.6382 25.9909 30.6942C25.8825 30.7501 25.7593 30.7679 25.6401 30.745L23.3595 30.332L25.4399 34.2671C25.4951 34.3782 25.5152 34.5044 25.4972 34.6279C25.4793 34.7514 25.4242 34.866 25.3397 34.9554C25.2543 35.0413 25.1444 35.0965 25.0262 35.1131C24.9081 35.1296 24.7878 35.1065 24.6834 35.0472L21.0566 33.0166L21.4794 35.2078C21.5007 35.3294 21.4842 35.4548 21.4323 35.566C21.3803 35.6773 21.2955 35.7688 21.1901 35.8274C21.0833 35.8838 20.9617 35.9031 20.8434 35.8824C20.7251 35.8618 20.6165 35.8022 20.5337 35.7126L18.8761 33.9459L18.3087 38.3972C18.3011 38.5357 18.245 38.6667 18.1509 38.7658C18.0568 38.865 17.9311 38.9256 17.797 38.9365H17.708ZM15.4273 32.8445C15.5331 32.8439 15.6367 32.875 15.7256 32.9341C15.8145 32.9932 15.8848 33.0776 15.928 33.1772L17.3965 36.3666L17.8637 32.6609C17.8786 32.5542 17.9218 32.4538 17.9886 32.3708C18.0553 32.2877 18.143 32.2254 18.242 32.1905C18.3423 32.1576 18.4496 32.1541 18.5518 32.1804C18.6539 32.2068 18.747 32.2619 18.8205 32.3397L19.933 33.5673L19.6771 32.0529C19.6572 31.9453 19.6676 31.8342 19.7071 31.7325C19.7465 31.6309 19.8133 31.543 19.8996 31.4792C19.9875 31.4209 20.0899 31.3899 20.1944 31.3899C20.299 31.3899 20.4013 31.4209 20.4892 31.4792L23.5041 33.1657L21.7686 29.896C21.7146 29.8044 21.686 29.6992 21.686 29.592C21.686 29.4847 21.7146 29.3796 21.7686 29.2879C21.8295 29.1979 21.9146 29.1281 22.0134 29.0874C22.1123 29.0466 22.2205 29.0365 22.3249 29.0585L23.9491 29.3453L22.8366 28.3242C22.7613 28.2482 22.7072 28.1528 22.6798 28.0479C22.6524 27.943 22.6528 27.8324 22.6809 27.7277C22.7118 27.6218 22.7729 27.528 22.8562 27.4584C22.9395 27.3888 23.0412 27.3467 23.1481 27.3376L26.5412 26.8787L23.3595 25.1693C23.265 25.1231 23.1854 25.0498 23.1302 24.9583C23.075 24.8668 23.0464 24.7608 23.048 24.653C23.049 24.5458 23.0787 24.4409 23.1336 24.3498C23.1885 24.2588 23.2667 24.1851 23.3595 24.1367L24.8391 23.391L23.3595 23.2648C23.256 23.2494 23.1586 23.2049 23.0781 23.136C22.9976 23.0672 22.9371 22.9768 22.9034 22.8747C22.8701 22.7714 22.866 22.6604 22.8916 22.5548C22.9172 22.4491 22.9714 22.3532 23.048 22.2781L25.5845 19.8459L22.0245 20.5343C21.9218 20.5539 21.8159 20.5427 21.7193 20.502C21.6227 20.4613 21.5394 20.3929 21.4794 20.3048C21.4228 20.2142 21.3928 20.1086 21.3928 20.0008C21.3928 19.893 21.4228 19.7875 21.4794 19.6968L22.247 18.1939L20.9676 18.9281C20.8807 18.9893 20.778 19.022 20.6728 19.022C20.5676 19.022 20.4649 18.9893 20.378 18.9281C20.2519 18.8858 20.1456 18.7965 20.0797 18.6777C20.0139 18.559 19.9933 18.4192 20.022 18.2857L20.645 14.8439L18.1641 17.5514C18.0918 17.6306 17.9991 17.6869 17.8969 17.7139C17.7948 17.7408 17.6873 17.7372 17.587 17.7035C17.4867 17.6699 17.3978 17.6075 17.3305 17.5237C17.2633 17.4399 17.2206 17.3381 17.2073 17.2302L16.9848 15.5552L16.3618 16.9204C16.3199 17.0209 16.2498 17.1062 16.1607 17.1654C16.0715 17.2247 15.9673 17.2552 15.8612 17.2531C15.757 17.2533 15.6548 17.2233 15.5662 17.1665C15.4777 17.1097 15.4065 17.0284 15.3606 16.9319L13.9366 13.6966L13.4693 17.4023C13.4544 17.509 13.4112 17.6094 13.3445 17.6924C13.2777 17.7754 13.19 17.8378 13.0911 17.8726C12.9909 17.907 12.8833 17.9112 12.7808 17.8848C12.6784 17.8583 12.5853 17.8024 12.5126 17.7235L11.4001 16.4959L11.6893 17.9874C11.7066 18.0948 11.6949 18.2051 11.6557 18.3062C11.6165 18.4073 11.5512 18.4954 11.4668 18.561C11.378 18.6167 11.276 18.6462 11.172 18.6462C11.068 18.6462 10.9661 18.6167 10.8772 18.561L7.78445 16.9548L9.56446 20.2245C9.621 20.3152 9.65106 20.4208 9.65106 20.5286C9.65106 20.6364 9.621 20.7419 9.56446 20.8326C9.50645 20.9229 9.42342 20.993 9.32619 21.034C9.22896 21.0749 9.12203 21.0847 9.01933 21.062L7.39508 20.7752L8.50758 21.7963C8.58411 21.8713 8.63835 21.9673 8.66396 22.0729C8.68957 22.1786 8.68549 22.2895 8.65221 22.3929C8.62014 22.4971 8.56041 22.5899 8.47979 22.6609C8.39918 22.7318 8.30089 22.7781 8.19608 22.7944L4.85858 23.2418L8.11821 24.848C8.21562 24.8913 8.29833 24.9635 8.35579 25.0555C8.41325 25.1474 8.44286 25.2549 8.44083 25.3643C8.43977 25.4715 8.41015 25.5764 8.35522 25.6674C8.30028 25.7585 8.22214 25.8322 8.12933 25.8806L6.6497 26.6263L8.09596 26.8099C8.20281 26.819 8.30453 26.8611 8.38786 26.9306C8.4712 27.0002 8.5323 27.094 8.56321 27.1999C8.59516 27.3034 8.59856 27.414 8.57302 27.5194C8.54748 27.6247 8.494 27.7207 8.41858 27.7965L5.79308 30.2172L9.35308 29.5289C9.45554 29.5133 9.56018 29.5264 9.65607 29.5667C9.75196 29.6071 9.83558 29.6733 9.89821 29.7583C9.95224 29.8499 9.98082 29.9551 9.98082 30.0624C9.98082 30.1696 9.95224 30.2748 9.89821 30.3664L9.11946 31.8693L10.3988 31.135C10.4874 31.0729 10.5921 31.0397 10.6992 31.0397C10.8063 31.0397 10.911 31.0729 10.9996 31.135C11.0849 31.1997 11.1509 31.2877 11.1902 31.3891C11.2296 31.4905 11.2406 31.6012 11.2221 31.7087L10.588 35.1505L13.1245 32.5003C13.1955 32.4223 13.2866 32.3669 13.3871 32.3405C13.4876 32.3141 13.5933 32.3178 13.6918 32.3512C13.7929 32.3842 13.8829 32.4458 13.9517 32.529C14.0205 32.6121 14.0654 32.7134 14.0812 32.8215L14.3037 34.4965L14.9156 33.1313C14.9569 33.028 15.0284 32.9405 15.1201 32.8809C15.2117 32.8213 15.3191 32.7925 15.4273 32.7986V32.8445Z" fill="#210124"/>
<path d="M35.3077 2.79755L16.5955 22.0946C16.0873 21.924 15.5441 21.8963 15.0221 22.0144C14.5001 22.1325 14.018 22.3921 13.6257 22.7664C13.2334 23.1407 12.9451 23.6161 12.7904 24.1437C12.6358 24.6713 12.6204 25.2318 12.7459 25.7676C12.8715 26.3033 13.1333 26.7948 13.5045 27.1913C13.8756 27.5879 14.3427 27.8751 14.8574 28.0234C15.3721 28.1718 15.9159 28.1757 16.4327 28.035C16.9494 27.8943 17.4203 27.6139 17.797 27.2229C18.1907 26.8212 18.4671 26.3136 18.595 25.7579C18.7228 25.2022 18.6969 24.6206 18.5201 24.0794L37.2212 4.77085L35.3077 2.79755Z" fill="white"/>
<path d="M15.661 28.7028C15.1933 28.7052 14.7299 28.611 14.2981 28.4258C13.8663 28.2406 13.4748 27.9681 13.1467 27.6244C12.6065 27.0622 12.2569 26.335 12.1501 25.5513C12.0432 24.7675 12.1849 23.9691 12.5539 23.2752C12.9229 22.5812 13.4995 22.0287 14.1977 21.7002C14.896 21.3717 15.6785 21.2847 16.4286 21.4521L34.9184 2.396C34.9683 2.34113 35.0286 2.29739 35.0956 2.26749C35.1626 2.23759 35.2348 2.22217 35.3077 2.22217C35.3807 2.22217 35.4529 2.23759 35.5199 2.26749C35.5869 2.29739 35.6472 2.34113 35.6971 2.396L37.6217 4.3693C37.7244 4.47846 37.7818 4.62454 37.7818 4.77658C37.7818 4.92862 37.7244 5.0747 37.6217 5.18386L19.132 24.24C19.2489 24.7762 19.2473 25.3326 19.1271 25.8681C19.007 26.4035 18.7715 26.9042 18.438 27.3329C18.1046 27.7616 17.6818 28.1074 17.201 28.3446C16.7203 28.5817 16.1939 28.7042 15.661 28.7028ZM15.661 22.5191C15.0197 22.5169 14.4037 22.7768 13.9477 23.2418C13.4885 23.7171 13.2306 24.3607 13.2306 25.0316C13.2306 25.7025 13.4885 26.3461 13.9477 26.8213C14.4135 27.2807 15.0332 27.537 15.6776 27.537C16.3221 27.537 16.9418 27.2807 17.4076 26.8213C17.7243 26.4895 17.9467 26.0744 18.0506 25.6213C18.1546 25.1683 18.1361 24.6945 17.9972 24.2514C17.9635 24.1509 17.9581 24.0425 17.9818 23.9389C18.0054 23.8354 18.057 23.7408 18.1307 23.6663L36.4425 4.77084L35.33 3.62358L16.9848 22.5076C16.9119 22.5824 16.8202 22.6349 16.72 22.6592C16.6199 22.6835 16.5151 22.6787 16.4175 22.6453C16.1704 22.5587 15.9108 22.516 15.6498 22.5191H15.661Z" fill="#210124"/>
</svg>
