<svg width="40" height="40" viewBox="0 0 40 40" fill="none" xmlns="http://www.w3.org/2000/svg">
<path d="M34.1685 9.57343L30.4008 5.82304C26.3937 1.80178 17.6405 4.0416 10.8649 10.8236C4.08931 17.6055 1.91404 26.1377 5.72337 30.2214L9.58474 34.1489C13.6022 38.1702 22.3554 35.9304 29.131 29.138C35.9066 22.3456 38.186 13.5947 34.1685 9.57343ZM19.8158 19.637C17.422 22.0435 14.872 23.3874 14.133 22.6477C13.3941 21.9081 14.7367 19.3557 17.1306 16.9596C19.5244 14.5635 22.0744 13.2092 22.8237 13.9489C23.5731 14.6886 22.2201 17.2409 19.8158 19.637Z" fill="#FFBD59"/>
<path d="M15.5902 13.5426C13.1964 15.9491 11.8537 18.491 12.5927 19.2307C13.1027 19.7516 14.4974 19.2307 16.0898 18.0952C16.4124 17.7201 16.7559 17.3347 17.1306 16.9596C17.8075 16.2798 18.5384 15.6561 19.3163 15.0948C21.0336 13.0738 21.9079 11.1673 21.2834 10.5423C20.6589 9.91721 17.9945 11.1465 15.5902 13.5426Z" fill="#D18652"/>
<path d="M34.4912 9.95891C35.2406 14.4385 32.7114 20.6475 27.6219 25.7314C20.8463 32.4925 12.0932 34.7532 8.07566 30.7319L4.17266 26.8253C4.11488 26.7603 4.06266 26.6906 4.01654 26.6169C4.21224 27.9634 4.80265 29.2214 5.71305 30.2319L9.58483 34.149C13.6023 38.1702 22.3555 35.9304 29.1311 29.138C35.7402 22.5644 38.0299 14.1364 34.4912 9.95891Z" fill="#D18652"/>
<path d="M10.8649 10.8236C4.17257 17.5222 1.91403 26.1377 5.72336 30.2215L6.4207 30.9194H6.46233L8.46067 32.9197C8.6666 33.1271 8.91745 33.2843 9.1938 33.3792C9.47016 33.474 9.76461 33.504 10.0544 33.4667C10.3441 33.4295 10.6215 33.326 10.8649 33.1643C11.1083 33.0026 11.3113 32.787 11.4582 32.5342L12.8216 30.211C13.0449 29.8304 13.3926 29.5386 13.806 29.3848C14.2194 29.2311 14.6731 29.2249 15.0906 29.3672L15.944 29.6901C16.4857 29.8952 17.0669 29.9739 17.6435 29.9203C18.2201 29.8667 18.777 29.6823 19.2717 29.381C19.7664 29.0796 20.1859 28.6694 20.4984 28.1814C20.8109 27.6934 21.0082 27.1406 21.0752 26.5648C21.1021 26.3108 21.1797 26.0648 21.3034 25.8414C21.4271 25.618 21.5944 25.4218 21.7954 25.2644C21.9963 25.1069 22.2269 24.9915 22.4732 24.925C22.7196 24.8585 22.9768 24.8422 23.2296 24.8771C23.6725 24.9333 24.1224 24.8834 24.5423 24.7317C24.9622 24.5799 25.3401 24.3305 25.6449 24.004C25.9497 23.6776 26.1728 23.2833 26.2957 22.8538C26.4186 22.4242 26.4379 21.9715 26.352 21.533L26.2896 21.2205C26.233 20.9404 26.2404 20.651 26.3112 20.3742C26.382 20.0973 26.5145 19.84 26.6987 19.6216C26.8829 19.4032 27.114 19.2293 27.3748 19.1129C27.6356 18.9965 27.9193 18.9406 28.2047 18.9494C28.6428 18.9503 29.0756 18.8537 29.4718 18.6666C29.868 18.4795 30.2178 18.2066 30.4957 17.8676C30.7736 17.5286 30.9728 17.132 31.0787 16.7065C31.1847 16.281 31.1949 15.8373 31.1085 15.4074L30.8275 14.0427C30.7341 13.5675 30.8238 13.0745 31.0787 12.6629C31.3336 12.2513 31.7347 11.9514 32.2013 11.8237C32.5162 11.7378 32.8038 11.5724 33.0365 11.3433C33.2691 11.1141 33.4391 10.829 33.53 10.5153C33.6209 10.2015 33.6297 9.86962 33.5556 9.55146C33.4815 9.2333 33.327 8.93953 33.1068 8.69835L31.0356 6.44811C29.4536 5.04172 27.8612 3.93743 26.2376 3.90618C21.7725 3.37487 15.8295 5.88555 10.8649 10.8236ZM19.8158 19.637C17.422 22.0435 14.872 23.3874 14.133 22.6477C13.3941 21.9081 14.7367 19.3557 17.1305 16.9596C19.5244 14.5636 22.0743 13.2092 22.8237 13.9489C23.5731 14.6886 22.2201 17.2409 19.8158 19.637Z" fill="#A882DD"/>
<path d="M6.46242 30.9403L8.46076 32.9405C8.6667 33.1479 8.91754 33.3051 9.1939 33.4C9.47025 33.4949 9.7647 33.5248 10.0545 33.4875C10.3442 33.4503 10.6216 33.3468 10.865 33.1851C11.1084 33.0234 11.3114 32.8078 11.4583 32.555C10.1913 32.2993 9.02439 31.6846 8.09648 30.784L4.17266 26.8253C4.11488 26.7603 4.06266 26.6906 4.01654 26.6169C4.12409 27.2938 4.3237 27.9527 4.6098 28.5754C4.6098 28.6275 4.67225 28.6796 4.69306 28.7317C4.81019 28.9758 4.94228 29.2124 5.08857 29.4401C5.27337 29.7217 5.48232 29.9866 5.71305 30.2319L6.41038 30.9299L6.46242 30.9403Z" fill="#7754AF"/>
<path d="M23.2401 10.6152C21.6164 8.99005 17.4949 10.4798 14.0186 13.9593C10.5423 17.4389 9.05396 21.5539 10.6776 23.179C12.3013 24.8042 16.4332 23.3041 19.8991 19.8349C23.365 16.3658 24.8637 12.2612 23.2401 10.6152ZM14.1331 22.6477C13.3941 21.9081 14.7367 19.3557 17.1306 16.9596C19.5244 14.5636 22.0744 13.2092 22.8238 13.9489C23.5731 14.6886 22.2201 17.2409 19.8158 19.637C17.4116 22.0331 14.872 23.3874 14.1331 22.6477Z" fill="#7754AF"/>
<path d="M15.0179 36.6593C13.9615 36.705 12.9066 36.5376 11.9161 36.1672C10.9256 35.7967 10.0195 35.2307 9.25187 34.5028L5.34887 30.6066C5.30851 30.5661 5.27353 30.5206 5.24479 30.4712C1.33138 26.0957 3.61073 17.3448 10.4488 10.4586C17.2869 3.57248 26.5604 1.2389 30.7756 5.40601L34.5642 9.20849C36.6458 11.292 37.239 14.5736 36.2503 18.4491C35.0305 22.6595 32.7261 26.475 29.5683 29.5127C26.5309 32.6704 22.7199 34.9764 18.515 36.2009C17.3732 36.5004 16.1982 36.6544 15.0179 36.6593ZM6.18151 29.9711L9.98043 33.7736C11.7914 35.5863 14.7161 36.0863 18.2236 35.1904C22.2515 34.0207 25.8994 31.8069 28.7981 28.7731C31.823 25.8708 34.0337 22.2246 35.2095 18.199C36.1045 14.6882 35.605 11.7504 33.794 9.94816L30.0471 6.18734C28.2361 4.36423 25.301 3.8746 21.8039 4.77053C17.7808 5.95106 14.1355 8.16323 11.2294 11.1879C4.80765 17.626 2.50748 26.0019 6.10865 29.8669C6.13537 29.8999 6.15972 29.9347 6.18151 29.9711Z" fill="#210124"/>
<path d="M14.4661 23.6374C14.3289 23.6355 14.1979 23.5793 14.1019 23.4812C12.7072 22.1373 13.748 19.0953 16.4437 16.4075C19.1393 13.7197 22.1577 12.6988 23.5107 14.0635C23.5595 14.1119 23.5982 14.1695 23.6246 14.233C23.651 14.2965 23.6646 14.3646 23.6646 14.4333C23.6646 14.5021 23.651 14.5702 23.6246 14.6336C23.5982 14.6971 23.5595 14.7547 23.5107 14.8032C23.4134 14.8986 23.2826 14.9521 23.1464 14.9521C23.0102 14.9521 22.8794 14.8986 22.7821 14.8032C22.0015 14.0322 19.514 14.8032 17.1722 17.1367C14.8304 19.4703 14.0498 21.981 14.8408 22.7519C14.9362 22.8493 14.9896 22.9802 14.9896 23.1165C14.9896 23.2529 14.9362 23.3838 14.8408 23.4812C14.7416 23.5809 14.6068 23.6371 14.4661 23.6374Z" fill="#210124"/>
<path d="M12.5823 24.0437C12.2029 24.0644 11.8231 24.0086 11.4656 23.8798C11.108 23.751 10.7799 23.5516 10.5007 23.2936C10.4047 23.1945 10.351 23.0619 10.351 22.9238C10.351 22.7857 10.4047 22.6531 10.5007 22.554C10.5491 22.5052 10.6067 22.4664 10.6701 22.44C10.7335 22.4135 10.8015 22.3999 10.8702 22.3999C10.9389 22.3999 11.0069 22.4135 11.0703 22.44C11.1338 22.4664 11.1913 22.5052 11.2397 22.554C12.4054 23.7208 15.9337 22.6894 19.3267 19.2932C22.7197 15.897 23.7501 12.3654 22.5844 11.1986C22.5356 11.1502 22.4969 11.0926 22.4705 11.0291C22.4441 10.9656 22.4305 10.8976 22.4305 10.8288C22.4305 10.76 22.4441 10.6919 22.4705 10.6285C22.4969 10.565 22.5356 10.5074 22.5844 10.459C22.6817 10.3635 22.8125 10.3101 22.9487 10.3101C23.0849 10.3101 23.2157 10.3635 23.313 10.459C25.0823 12.23 23.6564 16.4388 20.0657 20.0329C17.5157 22.5852 14.6535 24.0437 12.5823 24.0437Z" fill="#210124"/>
<path d="M9.75126 34.0239C9.43322 34.0242 9.11835 33.9607 8.8252 33.8372C8.53205 33.7138 8.26655 33.5329 8.04434 33.3051L6.04601 31.3049C5.99622 31.2581 5.95655 31.2017 5.92942 31.139C5.9023 31.0762 5.88831 31.0086 5.88831 30.9403C5.88831 30.872 5.9023 30.8043 5.92942 30.7416C5.95655 30.6789 5.99622 30.6224 6.04601 30.5757C6.09438 30.5268 6.15194 30.4881 6.21536 30.4616C6.27877 30.4352 6.34679 30.4216 6.41549 30.4216C6.48419 30.4216 6.55221 30.4352 6.61562 30.4616C6.67904 30.4881 6.7366 30.5268 6.78498 30.5757L8.78331 32.5759C8.93306 32.7259 9.11523 32.8396 9.31579 32.9081C9.51634 32.9766 9.72992 32.998 9.94008 32.9709C10.1502 32.9437 10.3514 32.8686 10.5279 32.7513C10.7045 32.6341 10.8519 32.4778 10.9586 32.2946L12.322 29.9714C12.6104 29.4743 13.0665 29.0963 13.6082 28.9054C14.1499 28.7145 14.7419 28.7231 15.2779 28.9297L16.121 29.2526C16.5911 29.4306 17.0957 29.4983 17.5961 29.4507C18.0965 29.403 18.5793 29.2412 19.0074 28.9776C19.4356 28.714 19.7977 28.3557 20.0659 27.9303C20.3341 27.5048 20.5014 27.0234 20.5548 26.5232C20.5879 26.199 20.6862 25.8849 20.8437 25.5997C21.0013 25.3145 21.2148 25.0641 21.4714 24.8637C21.7281 24.6632 22.0226 24.5168 22.3373 24.4331C22.652 24.3495 22.9803 24.3305 23.3025 24.3771C23.6661 24.4268 24.0363 24.389 24.3824 24.267C24.7285 24.145 25.0407 23.9422 25.2929 23.6755C25.5452 23.4087 25.7304 23.0856 25.8331 22.733C25.9358 22.3804 25.9532 22.0083 25.8837 21.6476L25.8212 21.3351C25.7502 20.9837 25.7582 20.6208 25.8446 20.2728C25.931 19.9248 26.0937 19.6005 26.3209 19.3232C26.5481 19.0459 26.834 18.8228 27.158 18.6698C27.4821 18.5169 27.836 18.438 28.1943 18.439C28.5537 18.4364 28.9082 18.3546 29.2324 18.1994C29.5567 18.0442 29.8428 17.8193 30.0704 17.5408C30.298 17.2623 30.4614 16.937 30.5491 16.588C30.6368 16.2391 30.6465 15.8751 30.5777 15.522L30.2967 14.1573C30.1784 13.5498 30.2955 12.92 30.6241 12.3958C30.9527 11.8715 31.4682 11.4919 32.066 11.3341C32.2966 11.2722 32.5072 11.1517 32.6775 10.9844C32.8478 10.817 32.972 10.6084 33.038 10.3788C33.104 10.1492 33.1095 9.90641 33.0541 9.67404C32.9987 9.44166 32.8842 9.22757 32.7217 9.05256L30.6401 6.80232C30.5441 6.7032 30.4904 6.57056 30.4904 6.43249C30.4904 6.29443 30.5441 6.16179 30.6401 6.06266C30.6885 6.01384 30.7461 5.97509 30.8095 5.94864C30.8729 5.9222 30.9409 5.90858 31.0096 5.90858C31.0783 5.90858 31.1463 5.9222 31.2098 5.94864C31.2732 5.97509 31.3307 6.01384 31.3791 6.06266L33.4607 8.32332C33.7411 8.63056 33.9378 9.00478 34.0321 9.41006C34.1263 9.81534 34.1149 10.2381 33.9989 10.6376C33.8829 11.0372 33.6662 11.4003 33.3696 11.6919C33.0731 11.9835 32.7066 12.1939 32.3054 12.3029C31.9583 12.3874 31.6569 12.6021 31.4633 12.9025C31.2696 13.2029 31.1985 13.5663 31.2646 13.9177L31.5456 15.2824C31.6473 15.7871 31.6357 16.3081 31.5119 16.8079C31.388 17.3076 31.1549 17.7736 30.8293 18.1722C30.5037 18.5709 30.0938 18.8922 29.6291 19.1131C29.1645 19.334 28.6566 19.4489 28.1422 19.4495C27.9425 19.4501 27.7454 19.4953 27.5654 19.5818C27.3853 19.6683 27.2268 19.794 27.1014 19.9495C26.9686 20.1076 26.8733 20.2939 26.8228 20.4942C26.7723 20.6945 26.768 20.9037 26.81 21.1059L26.8724 21.408C26.9815 21.9354 26.9621 22.4813 26.8158 22.9995C26.6696 23.5178 26.4009 23.9932 26.0324 24.3855C25.6639 24.7779 25.2064 25.0757 24.6986 25.2537C24.1909 25.4318 23.6477 25.4849 23.1151 25.4085C22.9317 25.3808 22.7444 25.3915 22.5653 25.4399C22.3862 25.4884 22.219 25.5734 22.0743 25.6897C21.9248 25.8012 21.8009 25.9435 21.7111 26.1071C21.6214 26.2707 21.5677 26.4516 21.5539 26.6378C21.4805 27.2948 21.2581 27.9265 20.9038 28.4845C20.5495 29.0426 20.0726 29.5123 19.5095 29.8579C18.9464 30.2036 18.3118 30.416 17.6543 30.479C16.9967 30.542 16.3335 30.4539 15.715 30.2215L14.8616 29.8985C14.5558 29.7821 14.2186 29.7778 13.91 29.8865C13.6013 29.9952 13.3411 30.2098 13.1755 30.4923L11.8537 32.8259C11.6659 33.1467 11.4066 33.4199 11.0961 33.6241C10.7856 33.8282 10.4323 33.958 10.0635 34.0031L9.75126 34.0239Z" fill="#210124"/>
<path d="M29.5473 7.20862L29.6306 9.2505L31.1085 9.86515L29.4953 11.1465L29.0789 13.3551L27.9861 12.0633L26.2375 12.803L27.2055 10.709L26.5602 8.99006L28.2255 8.97964L29.5473 7.20862Z" fill="#FEC803"/>
<path d="M29.0789 13.876C29.0028 13.8784 28.9273 13.8627 28.8585 13.8301C28.7897 13.7975 28.7297 13.7489 28.6834 13.6885L27.8299 12.6467L26.4457 13.2405C26.3472 13.2804 26.239 13.2899 26.1351 13.2676C26.0311 13.2453 25.9363 13.1923 25.8628 13.1155C25.79 13.0392 25.7421 12.9425 25.7253 12.8384C25.7086 12.7342 25.7239 12.6274 25.7691 12.5321L26.6434 10.6465L26.071 9.12547C26.0452 9.04597 26.0374 8.96171 26.0482 8.87881C26.059 8.79591 26.0881 8.71647 26.1334 8.64626C26.1824 8.57884 26.2466 8.5239 26.3207 8.4859C26.3948 8.44789 26.4769 8.42788 26.5602 8.42748H27.9652L29.1309 6.86482C29.1934 6.77888 29.2812 6.71461 29.382 6.681C29.4827 6.64738 29.5914 6.64609 29.693 6.6773C29.7969 6.70915 29.8886 6.77219 29.9556 6.8579C30.0227 6.9436 30.0618 7.04784 30.0677 7.15652L30.1405 8.86503L31.3062 9.35466C31.3902 9.38912 31.464 9.44456 31.5205 9.51569C31.577 9.58682 31.6143 9.67127 31.6289 9.76096C31.6395 9.85109 31.627 9.94246 31.5923 10.0263C31.5577 10.1102 31.5022 10.1839 31.4311 10.2402L29.9636 11.4382L29.5889 13.4488C29.5708 13.5449 29.5261 13.634 29.4599 13.7059C29.3936 13.7777 29.3085 13.8294 29.2142 13.8551L29.0789 13.876ZM27.9861 11.5424C28.0606 11.5431 28.1342 11.5591 28.2023 11.5896C28.2703 11.6201 28.3314 11.6643 28.3816 11.7195L28.7667 12.1779L28.9748 11.0528C29.0036 10.9292 29.0733 10.8191 29.1726 10.7402L30.0989 10.011L29.4328 9.74012C29.3408 9.69964 29.2619 9.63436 29.205 9.55156C29.148 9.46877 29.1151 9.37173 29.1101 9.27132V8.69834L28.673 9.29216C28.624 9.35626 28.561 9.40834 28.4889 9.44445C28.4167 9.48055 28.3373 9.49972 28.2567 9.50051H27.2783L27.6634 10.5423C27.7161 10.6726 27.7161 10.8183 27.6634 10.9486L27.2783 11.7924L27.7779 11.5841C27.8435 11.5554 27.9145 11.5412 27.9861 11.5424Z" fill="#210124"/>
<path d="M8.87709 21.8976L8.83546 23.7937L10.0948 24.3667L8.59607 25.5439L8.09649 27.5857L7.21181 26.3773L5.6402 27.0544L6.61855 25.1272L6.15019 23.5437H7.61772L8.87709 21.8976Z" fill="#FEC803"/>
<path d="M8.09639 28.0962C8.01574 28.0954 7.93633 28.0763 7.86419 28.0402C7.79206 28.004 7.72909 27.952 7.68007 27.8879L7.04518 27.0232L5.84826 27.5337C5.75132 27.5779 5.64298 27.5906 5.53844 27.5701C5.43391 27.5495 5.33843 27.4967 5.26541 27.4191C5.1904 27.3419 5.14112 27.2434 5.12435 27.137C5.10758 27.0307 5.12413 26.9218 5.17174 26.8252L6.05642 25.0751L5.6505 23.6895C5.62428 23.6123 5.61817 23.5297 5.63274 23.4495C5.64731 23.3693 5.68208 23.2941 5.73377 23.2311C5.78106 23.1652 5.84367 23.1117 5.9162 23.0754C5.98874 23.0391 6.06901 23.0211 6.15009 23.0228H7.35742L8.47107 21.5851C8.53524 21.4933 8.62784 21.4251 8.73456 21.3911C8.84128 21.3572 8.9562 21.3593 9.06158 21.3973C9.16696 21.4352 9.25694 21.5068 9.31763 21.601C9.37832 21.6952 9.40635 21.8068 9.39739 21.9185V23.4603L10.3445 23.8874C10.4238 23.9285 10.4924 23.9876 10.5448 24.06C10.5972 24.1323 10.632 24.2159 10.6463 24.3041C10.6562 24.3927 10.6432 24.4823 10.6086 24.5644C10.5739 24.6464 10.5189 24.7183 10.4486 24.7729L9.08515 25.8147L8.60638 27.7003C8.58361 27.7972 8.53306 27.8853 8.46095 27.9538C8.38883 28.0222 8.29829 28.0681 8.20047 28.0858L8.09639 28.0962ZM7.21171 25.8564C7.29484 25.8576 7.37659 25.878 7.45059 25.9159C7.5246 25.9538 7.58887 26.0083 7.63843 26.0752L7.857 26.3773L8.08598 25.4293C8.11551 25.3144 8.1812 25.2121 8.27332 25.1376L9.09556 24.4813L8.61679 24.2729C8.52399 24.23 8.44588 24.1607 8.3922 24.0736C8.33853 23.9865 8.31166 23.8855 8.31495 23.7833V23.4811L8.02353 23.8562C7.97612 23.9195 7.91493 23.9712 7.8446 24.0073C7.77427 24.0434 7.69664 24.0629 7.61762 24.0645H6.84742L7.11803 24.9813C7.16525 25.1054 7.16525 25.2426 7.11803 25.3668L6.79538 26.0127L7.05559 25.8981C7.10578 25.878 7.15819 25.864 7.21171 25.8564Z" fill="#210124"/>
<path d="M23.24 5.52094L23.2713 7.23987L24.5098 7.75034L23.1151 8.83378L22.73 10.6777L21.835 9.59428L20.3466 10.2193L21.2001 8.45874L20.6901 7.02109L22.0952 7.01068L23.24 5.52094Z" fill="#FEC803"/>
<path d="M22.7301 11.1986C22.6527 11.1995 22.5762 11.1831 22.506 11.1507C22.4358 11.1183 22.3736 11.0706 22.3242 11.0111L21.6789 10.2298L20.5548 10.6986C20.4629 10.7394 20.3612 10.7532 20.2617 10.7385C20.1622 10.7237 20.0689 10.681 19.9928 10.6152C19.92 10.5389 19.872 10.4423 19.8553 10.3381C19.8386 10.2339 19.8538 10.1271 19.8991 10.0318L20.6589 8.46915L20.2009 7.19818C20.1744 7.11879 20.1662 7.0344 20.177 6.95137C20.1878 6.86835 20.2173 6.78888 20.2634 6.71897C20.3129 6.65214 20.3772 6.59764 20.4512 6.5597C20.5252 6.52176 20.607 6.5014 20.6901 6.50019H21.8454L22.8342 5.20839C22.9003 5.12563 22.99 5.06503 23.0915 5.03466C23.1929 5.0043 23.3012 5.00562 23.4018 5.03845C23.5025 5.07128 23.5907 5.13405 23.6548 5.2184C23.7189 5.30274 23.7558 5.40465 23.7605 5.51051V6.89607L24.6764 7.27111C24.7604 7.30703 24.8335 7.36444 24.8883 7.43759C24.9431 7.51074 24.9777 7.59704 24.9886 7.68782C25.0026 7.77816 24.9915 7.8706 24.9566 7.95509C24.9218 8.03957 24.8644 8.11288 24.7909 8.16704L23.5523 9.12547L23.2088 10.7923C23.1871 10.8873 23.1397 10.9745 23.0718 11.0443C23.0038 11.1141 22.918 11.1639 22.8237 11.1882L22.7301 11.1986ZM21.835 9.11505C21.9104 9.11637 21.9847 9.13378 22.0529 9.16612C22.1211 9.19845 22.1817 9.24497 22.2305 9.30257L22.4386 9.56302L22.6052 8.77127C22.6312 8.64942 22.7017 8.54168 22.8029 8.46915L23.4795 7.93784L23.1152 7.71907C23.0225 7.67961 22.943 7.61458 22.8858 7.53157C22.8287 7.44857 22.7963 7.351 22.7925 7.25027V7.02108L22.5531 7.33361C22.4925 7.3973 22.417 7.44492 22.3334 7.47219C22.2499 7.49947 22.1609 7.50555 22.0744 7.48988H21.4083L21.6789 8.23996C21.7309 8.36678 21.7309 8.50902 21.6789 8.63584L21.4291 9.15672L21.6372 9.06296C21.7033 9.05754 21.7698 9.06104 21.835 9.07338V9.11505Z" fill="#210124"/>
<path d="M26.5706 15.7408L26.6226 17.5743L27.9028 18.1264L26.4769 19.2724L26.0918 21.2413L25.1551 20.085L23.6251 20.7309L24.489 18.8661L23.9478 17.3347L25.4049 17.3243L26.5706 15.7408Z" fill="#FEC803"/>
<path d="M26.0919 21.7622C26.0138 21.7611 25.937 21.7428 25.8668 21.7086C25.7967 21.6744 25.7349 21.6251 25.686 21.5643L24.999 20.71L23.8333 21.2101C23.7383 21.2551 23.6313 21.2683 23.5282 21.2476C23.425 21.227 23.3313 21.1736 23.2609 21.0955C23.185 21.0212 23.1343 20.925 23.1156 20.8205C23.097 20.7159 23.1114 20.6081 23.1568 20.5121L23.9374 18.8453L23.4586 17.5014C23.4322 17.4237 23.424 17.341 23.4349 17.2596C23.4457 17.1783 23.4752 17.1006 23.5211 17.0326C23.5743 16.9734 23.6406 16.9275 23.7147 16.8986C23.7888 16.8696 23.8686 16.8584 23.9478 16.8659H25.1343L26.1751 15.4907C26.2387 15.3996 26.3298 15.3311 26.435 15.2955C26.5402 15.2598 26.654 15.2588 26.7599 15.2926C26.8657 15.3263 26.958 15.3931 27.0232 15.4831C27.0884 15.5731 27.1231 15.6817 27.1223 15.7928V17.293L28.0902 17.7097C28.1732 17.7447 28.2457 17.8006 28.3006 17.872C28.3556 17.9433 28.391 18.0278 28.4036 18.117C28.4162 18.2062 28.4055 18.2972 28.3724 18.381C28.3394 18.4648 28.2852 18.5386 28.2151 18.5952L26.9349 19.637L26.5914 21.4184C26.5738 21.5164 26.528 21.607 26.4595 21.6792C26.3911 21.7514 26.3031 21.8019 26.2064 21.8247L26.0919 21.7622ZM25.1968 19.5537C25.2748 19.5548 25.3516 19.5731 25.4218 19.6073C25.492 19.6415 25.5537 19.6908 25.6027 19.7516L25.8317 20.0433L26.0086 19.1682C26.0293 19.0494 26.0921 18.9422 26.1855 18.8661L26.9453 18.2619L26.4561 18.0535C26.3639 18.0147 26.2851 17.9495 26.2296 17.8661C26.174 17.7828 26.1442 17.6849 26.1439 17.5847V17.2722L25.8733 17.6368C25.826 17.7027 25.7634 17.7562 25.6909 17.7925C25.6183 17.8288 25.5381 17.8468 25.457 17.8451H24.7388L25.0407 18.6994C25.0879 18.8235 25.0879 18.9607 25.0407 19.0849L24.7492 19.7203L25.0198 19.6057C25.0752 19.5778 25.1351 19.5601 25.1968 19.5537Z" fill="#210124"/>
<path d="M14.0186 12.1779L13.9978 13.9697L15.2364 14.501L13.7897 15.6262L13.3421 17.543L12.4678 16.4075L10.9379 17.0534L11.8642 15.2303L11.3854 13.7301H12.8113L14.0186 12.1779Z" fill="#FEC803"/>
<path d="M13.342 18.0639C13.267 18.0694 13.1917 18.0583 13.1216 18.0313C13.0514 18.0043 12.988 17.962 12.9361 17.9077L12.3012 17.0847L11.1459 17.5743C11.0477 17.6157 10.9391 17.6259 10.8348 17.6036C10.7306 17.5812 10.6357 17.5274 10.5631 17.4493C10.4919 17.3718 10.4459 17.2746 10.4311 17.1705C10.4162 17.0664 10.4332 16.9602 10.4798 16.8659L11.302 15.2407L10.8857 13.9385C10.8608 13.8618 10.8544 13.7802 10.8671 13.7005C10.8797 13.6209 10.9111 13.5453 10.9586 13.4801C11.0081 13.4133 11.0724 13.3588 11.1464 13.3208C11.2204 13.2829 11.3021 13.2625 11.3853 13.2613H12.551L13.5918 11.907C13.6483 11.8048 13.7376 11.7245 13.8452 11.6792C13.9528 11.6338 14.0725 11.626 14.185 11.657C14.2893 11.6922 14.3796 11.7596 14.4432 11.8494C14.5068 11.9393 14.5403 12.047 14.5389 12.1571V13.626L15.4548 14.0218C15.5377 14.0594 15.6097 14.1173 15.6643 14.1902C15.7188 14.263 15.7542 14.3484 15.7671 14.4385C15.7768 14.5286 15.7637 14.6197 15.7292 14.7034C15.6946 14.7871 15.6397 14.8608 15.5693 14.9178L14.2683 15.9595L13.8624 17.6993C13.8398 17.7956 13.7908 17.8837 13.721 17.9536C13.6511 18.0236 13.5631 18.0726 13.4669 18.0952L13.342 18.0639ZM12.4677 15.8866C12.5472 15.8857 12.6257 15.9042 12.6964 15.9405C12.7672 15.9768 12.828 16.0298 12.8736 16.095L13.0818 16.3658L13.29 15.5012C13.3148 15.3843 13.3814 15.2806 13.4773 15.2095L14.2267 14.6261L13.7479 14.449C13.6548 14.4054 13.576 14.3363 13.5207 14.2496C13.4654 14.1629 13.4359 14.0622 13.4357 13.9593V13.7406L13.1651 14.0843C13.1171 14.1463 13.0556 14.1964 12.9852 14.2307C12.9148 14.265 12.8374 14.2827 12.7591 14.2823H12.093L12.3532 15.1053C12.4053 15.2321 12.4053 15.3743 12.3532 15.5012L12.0722 16.0533L12.2908 15.9595C12.3464 15.9277 12.4058 15.9031 12.4677 15.8866Z" fill="#210124"/>
<path d="M18.5669 22.481L18.5773 24.5959L20.0032 25.2418L18.3691 26.5648L17.88 28.8463L16.8496 27.492L15.101 28.2525L16.1314 26.096L15.559 24.3146H17.2034L18.5669 22.481Z" fill="#FEC803"/>
<path d="M17.9112 29.3672C17.8301 29.3689 17.7498 29.3508 17.6773 29.3145C17.6047 29.2782 17.5421 29.2248 17.4948 29.1589L16.7142 28.1171L15.3404 28.7109C15.2429 28.7521 15.1353 28.7633 15.0314 28.7428C14.9276 28.7224 14.8322 28.6714 14.7575 28.5963C14.6847 28.52 14.6368 28.4234 14.6201 28.3192C14.6033 28.215 14.6186 28.1082 14.6639 28.0129L15.6006 26.0335L15.101 24.45C15.0768 24.3715 15.0708 24.2884 15.0834 24.2072C15.0961 24.126 15.127 24.0487 15.1739 23.9812C15.2211 23.9153 15.2838 23.8619 15.3563 23.8255C15.4288 23.7892 15.5091 23.7712 15.5902 23.7729H16.9744L18.1818 22.1477C18.2487 22.0612 18.3401 21.997 18.4442 21.9635C18.5482 21.93 18.6599 21.9289 18.7646 21.9602C18.8663 21.9961 18.9547 22.0623 19.0179 22.1497C19.0811 22.2372 19.1162 22.3419 19.1185 22.4498V24.2625L20.2426 24.7626C20.3238 24.7982 20.3944 24.8544 20.4473 24.9256C20.5003 24.9969 20.5337 25.0807 20.5444 25.1688C20.5545 25.2564 20.5426 25.3451 20.5099 25.4269C20.4772 25.5088 20.4247 25.5812 20.357 25.6376L18.8583 26.8565L18.4003 28.9401C18.3821 29.0366 18.3359 29.1257 18.2674 29.1961C18.1989 29.2665 18.1112 29.3151 18.0152 29.336L17.9112 29.3672ZM16.8704 26.9711C16.9498 26.9702 17.0283 26.9887 17.0991 27.025C17.1698 27.0613 17.2306 27.1144 17.2763 27.1795L17.6197 27.6274L17.9112 26.4502C17.9324 26.3346 17.9954 26.2307 18.0881 26.1585L19.0665 25.3668L18.4107 25.0751C18.3204 25.0318 18.2441 24.9639 18.1907 24.8791C18.1373 24.7943 18.1089 24.6961 18.1089 24.5959V24.0437L17.6718 24.6167C17.625 24.6839 17.5628 24.7389 17.4903 24.777C17.4178 24.8151 17.3373 24.8351 17.2555 24.8355H16.3291L16.683 25.9398C16.7088 25.9989 16.7221 26.0627 16.7221 26.1273C16.7221 26.1918 16.7088 26.2557 16.683 26.3148L16.2563 27.2211L16.7246 27.0232C16.7701 26.9981 16.8193 26.9805 16.8704 26.9711Z" fill="#210124"/>
</svg>
