<svg width="40" height="40" viewBox="0 0 40 40" fill="none" xmlns="http://www.w3.org/2000/svg">
<g clip-path="url(#clip0_417:2618)">
<path d="M36.7865 11.0557C36.7865 11.0557 14.672 6.46948 8.19519 10.659C1.71839 14.8485 2.08016 17.9643 15.1971 18.1394C28.3141 18.3144 36.5997 16.3072 37.2066 13.4714C37.8134 10.6356 36.7865 11.0557 36.7865 11.0557Z" fill="#79768E"/>
<path d="M16.6325 34.3255C16.6325 34.3255 19.1182 35.0841 18.6981 35.866C18.2849 36.5305 17.8164 37.159 17.2977 37.7448C17.2977 37.7448 20.9154 37.3247 21.1604 35.2941C21.4055 33.2636 19.9701 32.7734 19.9701 32.7734" fill="#43434F"/>
<path d="M22.4325 32.3767C22.4325 32.3767 17.076 33.0769 16.5975 34.3255C16.3746 33.9376 16.2837 33.4878 16.3384 33.0437C16.3931 32.5997 16.5905 32.1854 16.901 31.8632C17.5484 31.1652 18.4194 30.7152 19.3633 30.5912" fill="#4D4D60"/>
<path d="M15.4305 30.101C15.7106 28.934 17.8696 28.1872 19.7484 28.3505C21.1543 28.4654 22.5002 28.9706 23.6345 29.8093C24.1363 30.2644 23.7395 31.5364 23.1794 31.9215C22.9395 32.0878 22.6901 32.2397 22.4325 32.3767C22.3041 31.3964 20.2269 30.3578 15.4305 30.101Z" fill="#626177"/>
<path d="M19.9701 25.4097C18.0643 25.2444 16.1688 25.826 14.6837 27.0318C14.5128 27.1572 14.3698 27.3168 14.2639 27.5004C14.1579 27.6839 14.0913 27.8875 14.0683 28.0983C14.0452 28.309 14.0662 28.5221 14.13 28.7243C14.1937 28.9264 14.2988 29.1131 14.4386 29.2725C14.7174 29.5661 15.0136 29.8428 15.3255 30.101C15.6873 28.829 18.9198 27.4286 25.0932 29.0974C24.9415 27.3119 23.3427 26.0399 19.9701 25.4097Z" fill="#79768E"/>
<path d="M12.5831 24.8496C13.9835 23.2508 16.9943 22.3172 20.3902 22.6206C22.7253 22.7579 24.9618 23.6093 26.797 25.0596C27.0068 25.2596 27.1708 25.5026 27.2778 25.772C27.3847 26.0414 27.4321 26.3308 27.4166 26.6202C27.401 26.9096 27.323 27.1922 27.1879 27.4486C27.0527 27.705 26.8636 27.9291 26.6336 28.1055C26.1934 28.4055 25.7376 28.682 25.2683 28.934C25.0699 27.1836 21.1371 24.4061 12.5831 24.8496Z" fill="#9793AA"/>
<path d="M30.2863 22.9124C28.7926 20.3567 24.9882 18.2444 20.3552 17.6142C17.2252 17.0898 14.0096 17.572 11.171 18.9913C10.829 19.2032 10.5386 19.4886 10.3208 19.8269C10.103 20.1651 9.96326 20.5477 9.91185 20.9467C9.86043 21.3457 9.89859 21.7512 10.0235 22.1336C10.1485 22.516 10.3571 22.8658 10.6342 23.1574C11.144 23.6989 11.6857 24.2094 12.2563 24.6862C12.9682 22.3522 18.9082 19.7848 30.2863 22.9124Z" fill="#AFAAC1"/>
<path d="M8.19519 14.8718C10.2724 12.1177 14.9754 10.2038 20.4719 10.2038C24.7665 10.2038 30.1229 12.036 32.877 15.0118C34.2424 16.4823 34.6859 19.2363 33.1454 20.4967C32.5153 21.0102 31.0449 22.4339 30.2863 22.924C29.7728 20.0766 21.884 12.9346 8.19519 14.8718Z" fill="#D5D1E0"/>
<path d="M38.3852 10.0755C35.246 5.93266 28.1391 3.01518 19.8534 3.01518C13.365 3.01518 7.60003 4.76567 3.90067 7.57812C1.56669 9.36361 -0.0437561 15.747 6.89984 17.3692C7.69339 13.0863 14.4853 9.74872 22.7592 9.74872C28.8276 9.74872 34.0907 11.5342 36.7631 14.1716C37.5758 12.9303 38.1277 11.5367 38.3852 10.0755Z" fill="#F7F5FB"/>
<path d="M6.89981 17.9527H6.77144C2.79201 17.0307 1.7067 14.6384 1.42663 13.2847C1.20377 12.158 1.28286 10.9925 1.65587 9.90622C2.02888 8.81998 2.68254 7.85172 3.55055 7.09965C7.51832 4.12382 13.4583 2.43169 19.8884 2.43169C28.0574 2.43169 35.5378 5.29081 38.887 9.72538C38.9802 9.85753 39.0179 10.0209 38.9921 10.1805C38.7315 11.7155 38.1596 13.1809 37.3116 14.4867C37.2664 14.5603 37.2051 14.6226 37.1323 14.6691C37.0596 14.7156 36.9772 14.745 36.8915 14.7551C36.8049 14.761 36.7179 14.7496 36.6358 14.7216C36.5536 14.6935 36.4779 14.6494 36.413 14.5917C33.7289 11.966 28.5125 10.3322 22.7942 10.3322C14.9637 10.3322 8.24185 13.4597 7.51832 17.4742C7.48417 17.6272 7.39217 17.761 7.26158 17.8476C7.15717 17.9243 7.02902 17.9615 6.89981 17.9527ZM19.8534 3.59868C13.7034 3.59868 8.02012 5.22079 4.25074 8.04491C3.56016 8.65919 3.04188 9.44308 2.74715 10.3191C2.45242 11.1951 2.39146 12.1328 2.57028 13.0396C2.93204 14.7784 4.28575 16.0271 6.4797 16.6573C7.7984 12.3394 14.6486 9.16522 22.8176 9.16522C28.4775 9.16522 33.7056 10.7173 36.7164 13.2614C37.2409 12.3147 37.6112 11.2904 37.8134 10.2272C34.5575 6.1894 27.5672 3.59868 19.8534 3.59868Z" fill="#210124"/>
<path d="M30.2863 23.4959C30.2128 23.5067 30.1381 23.5067 30.0646 23.4959C29.9755 23.4578 29.897 23.3986 29.836 23.3234C29.775 23.2481 29.7333 23.1591 29.7145 23.0641C29.3061 20.6134 21.7323 13.5648 8.30022 15.4436C8.18594 15.4631 8.06844 15.4466 7.96393 15.3964C7.85942 15.3462 7.77305 15.2649 7.71672 15.1636C7.65398 15.0683 7.62054 14.9567 7.62054 14.8426C7.62054 14.7286 7.65398 14.617 7.71672 14.5217C9.98069 11.5342 14.9754 9.60868 20.4719 9.60868C24.5447 9.60868 30.263 11.3242 33.3088 14.6034C34.2713 15.6712 34.7707 17.0772 34.6975 18.5128C34.6821 18.9746 34.5704 19.428 34.3694 19.844C34.1684 20.26 33.8827 20.6294 33.5306 20.9285C33.3205 21.1035 33.0054 21.3836 32.667 21.6987C32.0147 22.3155 31.329 22.896 30.6131 23.4375C30.5108 23.4843 30.3984 23.5043 30.2863 23.4959ZM12.6648 13.9732C22.6659 13.9732 29.1077 18.8162 30.5781 21.9554C30.9865 21.617 31.465 21.1969 31.8734 20.7885L32.7837 19.9949C33.0099 19.7936 33.1921 19.5476 33.3186 19.2724C33.4451 18.9973 33.5133 18.6989 33.5189 18.3961C33.5691 17.2836 33.184 16.1953 32.4453 15.3619C29.9712 12.6779 24.9298 10.694 20.4719 10.694C16.014 10.694 12.0579 12.0477 9.71228 14.1016C10.7276 14.0082 11.7078 13.9732 12.6648 13.9732Z" fill="#210124"/>
<path d="M12.2563 25.2697C12.1187 25.2715 11.9854 25.2215 11.8829 25.1297C11.2952 24.643 10.7379 24.1207 10.2141 23.5659C9.86729 23.2019 9.60819 22.7635 9.45651 22.2842C9.30483 21.8049 9.26458 21.2973 9.33882 20.8001C9.39947 20.319 9.56994 19.8583 9.83704 19.4536C10.1041 19.0489 10.4607 18.711 10.8792 18.4661C13.8306 16.9809 17.1769 16.4702 20.4369 17.0074C25.1049 17.6142 29.1543 19.8082 30.7881 22.5856C30.8533 22.6821 30.8882 22.7959 30.8882 22.9124C30.8882 23.0288 30.8533 23.1426 30.7881 23.2391C30.7188 23.3331 30.6224 23.4036 30.5118 23.4412C30.4012 23.4787 30.2818 23.4815 30.1696 23.4492C19.1182 20.415 13.435 22.854 12.8515 24.8262C12.8221 24.9194 12.7708 25.0042 12.7017 25.0732C12.6326 25.1423 12.5479 25.1937 12.4547 25.223L12.2563 25.2697ZM17.8462 18.0227C15.6229 17.9625 13.4213 18.4728 11.4511 19.5048C11.1895 19.6601 10.9672 19.8735 10.8012 20.1284C10.6353 20.3834 10.5302 20.6731 10.4941 20.9752C10.4467 21.2958 10.4725 21.6229 10.5695 21.9321C10.6665 22.2414 10.8322 22.5246 11.0543 22.7607C11.3927 23.1108 11.7312 23.4375 12.0696 23.7526C13.6684 21.4186 19.3166 19.6681 28.7926 21.9204C26.4285 19.7988 23.4471 18.4901 20.2852 18.1861C19.4764 18.0805 18.6618 18.026 17.8462 18.0227Z" fill="#210124"/>
<path d="M25.2683 29.5525C25.1742 29.5531 25.0816 29.529 24.9998 29.4825C24.9059 29.4469 24.823 29.3872 24.7595 29.3093C24.696 29.2315 24.6541 29.1382 24.6381 29.0391C24.4864 27.6153 20.682 25.0129 12.5597 25.4331C12.445 25.4356 12.3321 25.4049 12.2344 25.3448C12.1367 25.2846 12.0585 25.1975 12.0092 25.0939C11.9599 24.9904 11.9416 24.8747 11.9564 24.761C11.9713 24.6473 12.0187 24.5402 12.0929 24.4528C13.6684 22.679 16.9243 21.7337 20.3902 22.0371C22.867 22.1616 25.2424 23.0595 27.1821 24.6045C27.4717 24.8604 27.6997 25.1784 27.8493 25.5347C27.9988 25.891 28.066 26.2765 28.0458 26.6624C28.0256 27.0483 27.9186 27.4247 27.7327 27.7635C27.5467 28.1022 27.2867 28.3947 26.9721 28.6189C26.5167 28.9312 26.0454 29.2194 25.56 29.4825C25.47 29.5295 25.3698 29.5535 25.2683 29.5525ZM14.3219 24.2194C20.9504 24.2194 24.6264 26.2383 25.595 28.1055L26.2952 27.6503C26.4585 27.5338 26.5937 27.382 26.6906 27.2063C26.7875 27.0306 26.8438 26.8354 26.8554 26.6351C26.8762 26.4185 26.8459 26.2 26.7668 25.9973C26.6878 25.7946 26.5622 25.6133 26.4002 25.4681C24.67 24.0768 22.5484 23.2608 20.3319 23.1341C18.2658 22.9085 16.1786 23.2854 14.3219 24.2194Z" fill="#210124"/>
<path d="M22.4324 32.9602C22.3384 32.9607 22.2458 32.9366 22.164 32.8901C22.0788 32.8482 22.0054 32.7857 21.9504 32.7083C21.8953 32.6309 21.8605 32.541 21.8489 32.4467C21.8489 31.9799 20.1568 30.9296 15.3955 30.6845C15.309 30.6802 15.2246 30.6571 15.148 30.6168C15.0714 30.5765 15.0045 30.5199 14.952 30.4511C14.8585 30.3061 14.825 30.1303 14.8587 29.961C15.2438 28.4439 17.7645 27.627 19.795 27.7671C21.3279 27.8901 22.7937 28.4488 24.0195 29.3775C24.1724 29.5282 24.2894 29.7113 24.3621 29.9133C24.4348 30.1152 24.4613 30.3309 24.4396 30.5445C24.4205 30.9051 24.3242 31.2574 24.157 31.5775C23.9899 31.8977 23.756 32.1782 23.471 32.4C23.226 32.5634 22.9459 32.7384 22.6658 32.8901C22.5934 32.9287 22.5141 32.9525 22.4324 32.9602ZM16.5975 29.5992C19.8417 29.8676 21.9423 30.5445 22.7125 31.5481C22.7715 31.516 22.8264 31.4768 22.8759 31.4314C23.1175 31.2003 23.2669 30.8892 23.296 30.5562C23.3307 30.458 23.3307 30.3509 23.296 30.2527C22.2722 29.5001 21.061 29.0439 19.795 28.934C18.6776 28.8001 17.547 29.0336 16.5741 29.5992H16.5975Z" fill="#210124"/>
<path d="M15.3021 30.6962C15.1645 30.698 15.0312 30.648 14.9287 30.5562C14.6014 30.2862 14.2897 29.9979 13.9951 29.6926C13.8091 29.5001 13.6654 29.271 13.5729 29.0198C13.4805 28.7686 13.4415 28.5009 13.4583 28.2338C13.4803 27.913 13.5684 27.6002 13.717 27.3151C13.8656 27.0299 14.0715 26.7785 14.3218 26.5767C15.9392 25.26 18.0111 24.6351 20.0868 24.8379C20.2399 24.8582 20.3787 24.9385 20.4727 25.061C20.5668 25.1835 20.6085 25.3383 20.5886 25.4914C20.5682 25.6445 20.488 25.7833 20.3655 25.8774C20.243 25.9714 20.0882 26.0131 19.9351 25.9932C18.1896 25.8407 16.4532 26.3721 15.0921 27.4753C14.9626 27.574 14.8552 27.6987 14.7768 27.8414C14.6985 27.9841 14.6508 28.1417 14.6369 28.3039C14.6305 28.4095 14.6471 28.5153 14.6853 28.614C14.7236 28.7127 14.7827 28.802 14.8587 28.8757C14.9637 28.9924 15.0804 29.0974 15.1971 29.2141C16.3641 27.9654 19.5383 27.0085 25.2449 28.5489C25.393 28.5899 25.5189 28.6876 25.5954 28.8209C25.6719 28.9542 25.6927 29.1123 25.6533 29.2608C25.6344 29.335 25.6008 29.4046 25.5545 29.4655C25.5082 29.5265 25.4502 29.5775 25.3838 29.6156C25.3174 29.6537 25.244 29.6781 25.1681 29.6873C25.0921 29.6965 25.015 29.6904 24.9415 29.6692C18.7331 28.0004 16.0957 29.5525 15.8739 30.2761C15.8499 30.3688 15.8016 30.4534 15.7339 30.5211C15.6661 30.5888 15.5815 30.6372 15.4888 30.6612L15.3021 30.6962Z" fill="#210124"/>
<path d="M16.6325 34.8974C16.5342 34.8994 16.4369 34.877 16.3493 34.8322C16.2617 34.7874 16.1866 34.7216 16.1307 34.6406C15.8343 34.1467 15.707 33.5696 15.7681 32.9968C15.8292 32.424 16.0753 31.8868 16.4691 31.4664C17.2169 30.6663 18.2192 30.1507 19.3049 30.0077C19.4602 30.001 19.6122 30.0542 19.7294 30.1562C19.8467 30.2583 19.9203 30.4014 19.9351 30.5562C19.9416 30.7102 19.8881 30.8608 19.7858 30.9762C19.6834 31.0915 19.5403 31.1627 19.3866 31.1747C18.5942 31.2896 17.8652 31.6726 17.321 32.26C17.0563 32.5237 16.9019 32.8784 16.8892 33.2519C18.604 32.4684 20.4385 31.9792 22.3158 31.8048C22.3918 31.7934 22.4694 31.7974 22.5439 31.8166C22.6184 31.8358 22.6882 31.8699 22.7493 31.9167C22.8103 31.9636 22.8612 32.0223 22.899 32.0893C22.9368 32.1563 22.9607 32.2302 22.9693 32.3066C22.9861 32.4593 22.9433 32.6125 22.8497 32.7343C22.7562 32.8561 22.6193 32.937 22.4675 32.9602C19.8767 33.2986 17.3327 34.0455 17.1343 34.5239C17.0947 34.6274 17.0265 34.7174 16.9377 34.7836C16.8488 34.8497 16.743 34.8892 16.6325 34.8974Z" fill="#210124"/>
<path d="M17.2977 38.3283C17.1861 38.3271 17.0771 38.2938 16.9838 38.2325C16.8905 38.1712 16.8168 38.0844 16.7713 37.9824C16.7259 37.8805 16.7106 37.7676 16.7274 37.6572C16.7442 37.5468 16.7922 37.4436 16.8659 37.3597C17.3234 36.8326 17.7445 36.2751 18.1263 35.6909C17.6272 35.3243 17.0657 35.0515 16.4692 34.8857C16.3227 34.8399 16.2002 34.7383 16.1282 34.6029C16.0561 34.4675 16.0402 34.3092 16.084 34.1622C16.1054 34.0888 16.1412 34.0204 16.1893 33.9611C16.2375 33.9018 16.2971 33.8528 16.3645 33.8169C16.432 33.781 16.5059 33.7589 16.582 33.7521C16.6581 33.7453 16.7348 33.7537 16.8076 33.777C17.4378 33.9638 18.9315 34.4889 19.2699 35.3058C19.3307 35.4375 19.3621 35.5809 19.3621 35.7259C19.3621 35.871 19.3307 36.0143 19.2699 36.146C19.1464 36.3677 19.01 36.5821 18.8615 36.7879C19.7134 36.4845 20.542 35.9827 20.6353 35.2241C20.8104 33.6954 19.9001 33.3686 19.8884 33.3686C19.7337 33.3206 19.6043 33.2131 19.5288 33.0698C19.4533 32.9264 19.4379 32.759 19.4858 32.6042C19.5338 32.4495 19.6413 32.3201 19.7846 32.2446C19.928 32.1691 20.0955 32.1536 20.2502 32.2016C20.8279 32.4591 21.2978 32.9099 21.579 33.4765C21.8602 34.0431 21.935 34.69 21.7906 35.3058C21.5106 37.7682 17.5895 38.2466 17.4261 38.27L17.2977 38.3283Z" fill="#210124"/>
<path d="M34.3124 16.3656C33.8912 16.36 33.4751 16.2729 33.0871 16.1088C32.9472 16.0471 32.8364 15.9338 32.7777 15.7926C32.719 15.6514 32.717 15.493 32.772 15.3503C32.8013 15.2786 32.8447 15.2135 32.8994 15.1587C32.9542 15.1039 33.0194 15.0606 33.0911 15.0313C33.1628 15.002 33.2396 14.9872 33.317 14.9879C33.3945 14.9885 33.471 15.0046 33.5422 15.0352C35.211 15.7354 36.238 13.9616 36.2846 13.8682C36.3221 13.8014 36.3726 13.7429 36.4331 13.696C36.4936 13.6491 36.563 13.6149 36.637 13.5953C36.711 13.5757 36.7882 13.5712 36.864 13.582C36.9397 13.5927 37.0126 13.6187 37.0782 13.6581C37.2126 13.7341 37.3115 13.8603 37.3531 14.0091C37.3946 14.1578 37.3755 14.317 37.2999 14.4517C37.003 14.9962 36.5737 15.457 36.0515 15.7915C35.5293 16.126 34.9311 16.3235 34.3124 16.3656Z" fill="#210124"/>
<path d="M13.1316 18.7696C8.33524 18.7112 6.80649 18.011 6.65478 17.9293C6.51086 17.8659 6.39804 17.7479 6.34113 17.6012C6.28423 17.4546 6.28791 17.2914 6.35136 17.1474C6.41481 17.0035 6.53283 16.8907 6.67946 16.8338C6.82609 16.7769 6.98932 16.7806 7.13324 16.844C7.13324 16.844 8.62699 17.4975 13.1199 17.5559C13.2747 17.5559 13.4231 17.6174 13.5325 17.7268C13.6419 17.8362 13.7034 17.9846 13.7034 18.1394C13.7034 18.2941 13.6419 18.4425 13.5325 18.552C13.4231 18.6614 13.2747 18.7229 13.1199 18.7229L13.1316 18.7696Z" fill="#210124"/>
</g>
<defs>
<clipPath id="clip0_417:2618">
<rect width="40" height="40" fill="white"/>
</clipPath>
</defs>
</svg>
