<svg width="34" height="38" viewBox="0 0 34 38" fill="none" xmlns="http://www.w3.org/2000/svg">
<g clip-path="url(#clip0)">
<path d="M26.3261 0.662109L24.0348 3.85801H10.0379L9.97568 3.84699L7.68434 0.662109L3.53711 3.21883L5.08195 8.38738H9.46764H24.5428H27.3733H28.9285L30.4733 3.21883L26.3261 0.662109Z" fill="#FFBD59"/>
<path d="M28.1101 4.33193L26.2956 5.78662L25.6321 5.24662L17.0059 5.3458V8.38742H28.5351L29.3439 6.35967L30.474 3.21887L28.1101 4.33193Z" fill="#A86538"/>
<path d="M5.90103 4.33193L7.72581 5.78662L8.38936 5.24662L17.0052 5.3458V8.38742H5.48631L4.6776 6.35967L3.53711 3.21887L5.90103 4.33193Z" fill="#A86538"/>
<path d="M28.9299 8.92739H24.5443C24.4068 8.92739 24.2749 8.86934 24.1777 8.766C24.0805 8.66267 24.0259 8.52251 24.0259 8.37638C24.0259 8.23024 24.0805 8.09008 24.1777 7.98675C24.2749 7.88341 24.4068 7.82536 24.5443 7.82536H28.5567L29.8527 3.41722L26.4623 1.37845L24.7101 3.82497L26.255 5.09231L27.2918 4.3319L26.7423 3.89109C26.6332 3.7998 26.5623 3.66658 26.5448 3.52019C26.5274 3.37379 26.5648 3.22597 26.649 3.10865C26.733 2.99343 26.8566 2.91831 26.9926 2.89972C27.1286 2.88113 27.266 2.92059 27.3747 3.00946L28.4738 3.89109C28.5345 3.94512 28.5836 4.01249 28.6176 4.08858C28.6516 4.16467 28.6698 4.24768 28.6707 4.3319C28.6724 4.41775 28.6544 4.50275 28.6183 4.57955C28.5822 4.65635 28.529 4.72265 28.4634 4.77272L26.6075 6.22741C26.5171 6.29729 26.4082 6.33493 26.2965 6.33493C26.1847 6.33493 26.0758 6.29729 25.9854 6.22741L23.6733 4.37599C23.6178 4.33299 23.5709 4.2787 23.5353 4.21627C23.4997 4.15384 23.4762 4.08451 23.466 4.01231C23.4563 3.93869 23.4606 3.86377 23.4783 3.79189C23.4961 3.72001 23.5272 3.65259 23.5697 3.59354L25.9128 0.287434C25.9893 0.180201 26.1001 0.10643 26.2243 0.0800376C26.3484 0.0536456 26.4773 0.0764574 26.5868 0.14417L30.734 2.70089C30.8374 2.76139 30.9178 2.85828 30.9613 2.97493C31.0048 3.09157 31.0088 3.22068 30.9725 3.34007L29.4276 8.51964C29.3966 8.63524 29.3315 8.73722 29.2419 8.81061C29.1524 8.884 29.043 8.92493 28.9299 8.92739Z" fill="#210124"/>
<path d="M9.42699 8.92735H5.0413C4.93173 8.92881 4.82455 8.89334 4.73514 8.82602C4.64573 8.7587 4.57868 8.663 4.54363 8.55266L2.99879 3.41717C2.96356 3.29889 2.96691 3.17144 3.00831 3.05544C3.0497 2.93944 3.12672 2.84168 3.22688 2.77799L7.37411 0.221268C7.47999 0.149918 7.60661 0.121767 7.73052 0.142029C7.85443 0.162291 7.96723 0.229593 8.04804 0.331472L10.4016 3.63758C10.4423 3.69744 10.4714 3.76524 10.4874 3.8371C10.5035 3.90895 10.506 3.98346 10.4949 4.05635C10.4891 4.12859 10.4684 4.19859 10.4344 4.26143C10.4003 4.32426 10.3538 4.3784 10.2979 4.42002L7.98583 6.22736C7.89544 6.29724 7.78655 6.33489 7.67479 6.33489C7.56302 6.33489 7.45413 6.29724 7.36374 6.22736L5.51823 4.77268C5.45443 4.72077 5.40259 4.6541 5.36666 4.57772C5.33073 4.50133 5.31165 4.41725 5.31087 4.33186C5.3138 4.2469 5.33383 4.1636 5.3696 4.08757C5.40536 4.01153 5.45605 3.94452 5.51823 3.89105L6.61724 3.00942C6.72595 2.92054 6.86337 2.88108 6.9994 2.89967C7.13543 2.91826 7.25898 2.99339 7.34301 3.1086C7.4235 3.22825 7.45763 3.37621 7.43833 3.52186C7.41903 3.6675 7.34778 3.79969 7.23933 3.89105L6.68982 4.33186L7.65405 5.09227L9.2611 3.82492L7.49853 1.37841L4.10817 3.47227L5.41455 7.82531H9.42699C9.56365 7.82814 9.69397 7.88709 9.79062 7.98983C9.88727 8.09256 9.94274 8.23108 9.94539 8.37633C9.94539 8.52247 9.89078 8.66262 9.79356 8.76596C9.69634 8.8693 9.56448 8.92735 9.42699 8.92735Z" fill="#210124"/>
<path d="M30.8376 11.5392H3.68359V28.8522H30.8376V11.5392Z" fill="#FFBD59"/>
<path d="M30.8272 14.5037L3.68359 15.1539V28.8522H12.7971L30.8272 15.4735V14.5037Z" fill="#A86538"/>
<path d="M26.794 11.5392H7.7168V26.1852H26.794V11.5392Z" fill="#4F345A"/>
<path d="M26.794 20.1131V14.636L7.7168 15.0217V26.1853H15.6898L26.794 20.1131Z" fill="#41294C"/>
<path d="M32.1131 37.3378H1.8902L0.6875 31.0122L3.68387 28.8522H30.8275L33.1499 31.8828L32.1131 37.3378Z" fill="#FFBD59"/>
<path d="M30.9202 36.0045H3.09235L2.37695 31.3208H31.7186L30.9202 36.0045Z" fill="#A86538"/>
<path d="M26.7929 26.7362H7.71567C7.57818 26.7362 7.44632 26.6782 7.3491 26.5749C7.25188 26.4715 7.19727 26.3314 7.19727 26.1852V11.5392C7.19727 11.393 7.25188 11.2529 7.3491 11.1495C7.44632 11.0462 7.57818 10.9882 7.71567 10.9882H26.7929C26.9304 10.9882 27.0623 11.0462 27.1595 11.1495C27.2567 11.2529 27.3113 11.393 27.3113 11.5392V26.1852C27.3113 26.3314 27.2567 26.4715 27.1595 26.5749C27.0623 26.6782 26.9304 26.7362 26.7929 26.7362ZM8.23407 25.6342H26.2538V12.0902H8.23407V25.6342Z" fill="#210124"/>
<path d="M30.8261 29.4032H3.68247C3.54498 29.4032 3.41312 29.3451 3.3159 29.2418C3.21868 29.1384 3.16406 28.9983 3.16406 28.8522V11.5392C3.16406 11.393 3.21868 11.2529 3.3159 11.1495C3.41312 11.0462 3.54498 10.9882 3.68247 10.9882H30.8261C30.9636 10.9882 31.0954 11.0462 31.1926 11.1495C31.2898 11.2529 31.3445 11.393 31.3445 11.5392V28.8522C31.3445 28.9983 31.2898 29.1384 31.1926 29.2418C31.0954 29.3451 30.9636 29.4032 30.8261 29.4032ZM4.20087 28.3011H30.3077V12.0902H4.20087V28.3011Z" fill="#210124"/>
<path d="M10.9297 18.7466C10.1616 18.6618 9.45074 18.2763 8.93525 17.6653C8.41976 17.0542 8.13654 16.2612 8.14067 15.4405V6.93274H14.0401V15.6168C14.0392 16.0426 13.9569 16.4638 13.7982 16.8547C13.6394 17.2457 13.4076 17.5982 13.1166 17.891C12.8257 18.1837 12.4818 18.4105 12.1059 18.5576C11.7299 18.7047 11.3297 18.769 10.9297 18.7466Z" fill="#F7F5FB"/>
<path d="M22.7187 18.7466C21.9507 18.6618 21.2398 18.2763 20.7243 17.6653C20.2088 17.0542 19.9256 16.2612 19.9297 15.4405V6.93274H25.8188V15.6168C25.8194 16.0421 25.7384 16.463 25.5808 16.8539C25.4231 17.2449 25.1922 17.5975 24.9021 17.8904C24.612 18.1833 24.2688 18.4103 23.8934 18.5575C23.518 18.7047 23.1183 18.769 22.7187 18.7466Z" fill="#F7F5FB"/>
<path d="M5.04101 18.7465C4.27297 18.6617 3.56207 18.2763 3.04658 17.6652C2.53109 17.0541 2.24787 16.2611 2.252 15.4404V8.17797C2.25335 8.01298 2.28527 7.8499 2.34592 7.69802C2.40658 7.54615 2.49478 7.40846 2.6055 7.29283C2.71622 7.17719 2.84729 7.08586 2.99121 7.02407C3.13514 6.96227 3.28911 6.93121 3.44433 6.93267H8.14106V15.6167C8.14162 16.042 8.06062 16.463 7.90302 16.8539C7.74541 17.2448 7.5145 17.5975 7.22439 17.8904C6.93427 18.1833 6.59104 18.4102 6.21565 18.5574C5.84025 18.7046 5.44057 18.769 5.04101 18.7465Z" fill="#BE1E2D"/>
<path d="M8.14067 14.7792V15.4404C8.13654 16.2611 8.41976 17.0542 8.93525 17.6652C9.45074 18.2763 10.1616 18.6617 10.9297 18.7465C11.3297 18.7689 11.7299 18.7046 12.1059 18.5575C12.4818 18.4105 12.8257 18.1837 13.1166 17.8909C13.4076 17.5982 13.6394 17.2456 13.7982 16.8547C13.9569 16.4637 14.0392 16.0425 14.0401 15.6167V14.7792H8.14067Z" fill="#B7CACE"/>
<path d="M19.9297 14.7792V15.4404C19.9256 16.2611 20.2088 17.0542 20.7243 17.6652C21.2398 18.2763 21.9507 18.6617 22.7187 18.7465C23.1192 18.7705 23.52 18.7073 23.8966 18.5608C24.2732 18.4143 24.6177 18.1876 24.9089 17.8946C25.2002 17.6015 25.432 17.2483 25.5903 16.8566C25.7485 16.4649 25.8298 16.043 25.8292 15.6167V14.7792H19.9297Z" fill="#B7CACE"/>
<path d="M2.252 14.7792V15.4404C2.24787 16.2611 2.53109 17.0542 3.04658 17.6652C3.56207 18.2763 4.27297 18.6617 5.04101 18.7465C5.44142 18.7705 5.84222 18.7073 6.21884 18.5608C6.59546 18.4143 6.93995 18.1876 7.23119 17.8946C7.52244 17.6015 7.75429 17.2483 7.91253 16.8566C8.07077 16.4649 8.15206 16.043 8.15143 15.6167V14.7792H2.252Z" fill="#931625"/>
<path d="M16.8301 18.7466C16.062 18.6618 15.3511 18.2763 14.8356 17.6653C14.3202 17.0542 14.0369 16.2612 14.0411 15.4405V6.93274H19.9301V15.6168C19.9292 16.0416 19.8472 16.4618 19.6891 16.852C19.531 17.2422 19.3 17.5942 19.0102 17.8868C18.7204 18.1794 18.3778 18.4064 18.0031 18.5542C17.6283 18.702 17.2293 18.7674 16.8301 18.7466Z" fill="#BE1E2D"/>
<path d="M14.0411 14.7792V15.4404C14.0369 16.2611 14.3202 17.0542 14.8356 17.6652C15.3511 18.2763 16.062 18.6617 16.8301 18.7465C17.2301 18.7689 17.6303 18.7046 18.0062 18.5575C18.3822 18.4105 18.7261 18.1837 19.017 17.8909C19.3079 17.5982 19.5398 17.2456 19.6986 16.8547C19.8573 16.4637 19.9396 16.0425 19.9405 15.6167V14.7792H14.0411Z" fill="#931625"/>
<path d="M28.6074 18.7466C27.8394 18.6618 27.1285 18.2763 26.613 17.6653C26.0975 17.0542 25.8143 16.2612 25.8184 15.4405V6.93274H30.5359C30.8476 6.93273 31.1466 7.06357 31.368 7.2968C31.5894 7.53003 31.7151 7.84676 31.7178 8.17804V15.6168C31.717 16.0426 31.6347 16.4638 31.4759 16.8547C31.3172 17.2457 31.0853 17.5982 30.7944 17.891C30.5034 18.1837 30.1595 18.4105 29.7836 18.5576C29.4076 18.7047 29.0075 18.769 28.6074 18.7466Z" fill="#BE1E2D"/>
<path d="M25.8184 14.7792V15.4404C25.8143 16.2611 26.0975 17.0542 26.613 17.6652C27.1285 18.2763 27.8394 18.6617 28.6074 18.7465C29.0075 18.7689 29.4076 18.7046 29.7836 18.5575C30.1595 18.4105 30.5034 18.1837 30.7944 17.8909C31.0853 17.5982 31.3172 17.2456 31.4759 16.8547C31.6347 16.4637 31.717 16.0425 31.7178 15.6167V14.7792H25.8184Z" fill="#931625"/>
<path d="M5.1976 19.2976H5.01097C4.10816 19.2116 3.26916 18.7665 2.66173 18.0514C2.0543 17.3363 1.72321 16.4038 1.73466 15.4405V8.17805C1.73465 7.94028 1.77904 7.70488 1.86526 7.48549C1.95148 7.26611 2.07783 7.06709 2.23696 6.9C2.39609 6.73291 2.58485 6.60105 2.79229 6.51209C2.99973 6.42312 3.22172 6.37881 3.44539 6.38173H8.14213C8.21021 6.38173 8.27762 6.39598 8.34051 6.42367C8.40341 6.45136 8.46056 6.49195 8.50869 6.54312C8.55683 6.59428 8.59502 6.65503 8.62107 6.72188C8.64712 6.78873 8.66053 6.86038 8.66053 6.93274V15.6168C8.66053 16.593 8.29569 17.5292 7.64626 18.2195C6.99683 18.9098 6.11602 19.2976 5.1976 19.2976ZM5.07318 18.1955C5.39955 18.2089 5.72509 18.1521 6.0303 18.0285C6.33551 17.9049 6.61409 17.717 6.84936 17.4762C7.08462 17.2354 7.27172 16.9466 7.39944 16.6271C7.52715 16.3076 7.59286 15.9639 7.59262 15.6168V7.48376H3.44539C3.27119 7.48374 3.10396 7.55653 2.97982 7.68643C2.85567 7.81633 2.78456 7.9929 2.78184 8.17805V15.4405C2.76833 16.1235 2.99792 16.7867 3.42468 17.2975C3.85143 17.8083 4.44389 18.1291 5.08355 18.1955H5.07318Z" fill="#210124"/>
<path d="M11.0964 19.2976H10.9098C9.99958 19.2221 9.15037 18.7817 8.5343 18.0654C7.91823 17.3492 7.58139 16.4108 7.59204 15.4404V6.93273C7.59204 6.78659 7.64666 6.64644 7.74388 6.5431C7.8411 6.43977 7.97296 6.38171 8.11045 6.38171H14.0099C14.1474 6.38171 14.2792 6.43977 14.3764 6.5431C14.4737 6.64644 14.5283 6.78659 14.5283 6.93273V15.6168C14.5283 16.593 14.1634 17.5292 13.514 18.2195C12.8646 18.9098 11.9838 19.2976 11.0653 19.2976H11.0964ZM10.9617 18.1955C11.2914 18.215 11.6215 18.1628 11.9315 18.0419C12.2416 17.9211 12.5252 17.7342 12.765 17.4928C13.0048 17.2514 13.1956 16.9605 13.3259 16.6379C13.4562 16.3153 13.5231 15.9678 13.5226 15.6168V7.48375H8.62885V15.4404C8.61776 16.1227 8.84819 16.7846 9.27448 17.2949C9.70078 17.8051 10.2918 18.1266 10.9306 18.1955H10.9617Z" fill="#210124"/>
<path d="M16.9847 19.2976H16.7981C15.8953 19.2116 15.0563 18.7665 14.4488 18.0514C13.8414 17.3363 13.5103 16.4038 13.5218 15.4404V6.93273C13.5218 6.78659 13.5764 6.64644 13.6736 6.5431C13.7708 6.43977 13.9027 6.38171 14.0402 6.38171H19.9292C20.0667 6.38171 20.1986 6.43977 20.2958 6.5431C20.393 6.64644 20.4476 6.78659 20.4476 6.93273V15.6168C20.4476 16.593 20.0828 17.5292 19.4334 18.2195C18.7839 18.9098 17.9031 19.2976 16.9847 19.2976ZM16.8499 18.1955C17.1797 18.215 17.5097 18.1628 17.8198 18.0419C18.1299 17.9211 18.4135 17.7342 18.6533 17.4928C18.893 17.2514 19.0839 16.9605 19.2141 16.6379C19.3444 16.3153 19.4113 15.9678 19.4108 15.6168V7.48375H14.5586V15.4404C14.5449 16.1217 14.773 16.7835 15.1976 17.294C15.6222 17.8046 16.2121 18.1264 16.8499 18.1955Z" fill="#210124"/>
<path d="M22.8734 19.2976H22.6868C21.7839 19.2116 20.9449 18.7665 20.3375 18.0514C19.7301 17.3363 19.399 16.4038 19.4104 15.4404V6.93273C19.4104 6.78659 19.4651 6.64644 19.5623 6.5431C19.6595 6.43977 19.7914 6.38171 19.9288 6.38171H25.8179C25.9554 6.38171 26.0873 6.43977 26.1845 6.5431C26.2817 6.64644 26.3363 6.78659 26.3363 6.93273V15.6168C26.3363 16.593 25.9715 17.5292 25.322 18.2195C24.6726 18.9098 23.7918 19.2976 22.8734 19.2976ZM22.7386 18.1955C23.0684 18.215 23.3984 18.1628 23.7085 18.0419C24.0186 17.9211 24.3022 17.7342 24.5419 17.4928C24.7817 17.2514 24.9726 16.9605 25.1028 16.6379C25.2331 16.3153 25.3 15.9678 25.2995 15.6168V7.48375H20.4473V15.4404C20.4335 16.1217 20.6617 16.7835 21.0863 17.294C21.5109 17.8046 22.1008 18.1264 22.7386 18.1955Z" fill="#210124"/>
<path d="M28.7744 19.2976H28.5774C27.6746 19.2116 26.8356 18.7665 26.2281 18.0514C25.6207 17.3363 25.2896 16.4038 25.3011 15.4404V6.93273C25.3011 6.78659 25.3557 6.64644 25.4529 6.5431C25.5501 6.43977 25.682 6.38171 25.8195 6.38171H30.5369C30.9861 6.3817 31.417 6.57061 31.7356 6.90717C32.0542 7.24373 32.2346 7.70061 32.2373 8.17803V15.6168C32.2319 16.5912 31.8653 17.5241 31.217 18.2131C30.5688 18.9021 29.6911 19.2918 28.7744 19.2976ZM28.6396 18.1955C28.9693 18.215 29.2994 18.1628 29.6095 18.0419C29.9196 17.9211 30.2032 17.7342 30.4429 17.4928C30.6827 17.2514 30.8736 16.9605 31.0038 16.6379C31.1341 16.3153 31.201 15.9678 31.2005 15.6168V8.17803C31.1978 7.99289 31.1267 7.81631 31.0025 7.68642C30.8784 7.55652 30.7111 7.48373 30.5369 7.48375H26.3379V15.4404C26.3268 16.1227 26.5572 16.7846 26.9835 17.2949C27.4098 17.8051 28.0009 18.1266 28.6396 18.1955Z" fill="#210124"/>
<path d="M32.1123 37.8889H1.88935C1.76606 37.8933 1.64547 37.8499 1.55008 37.7668C1.45469 37.6836 1.39102 37.5664 1.37095 37.437L0.33414 30.9681C0.316722 30.8637 0.327998 30.7562 0.366617 30.6585C0.405236 30.5608 0.469558 30.4769 0.55187 30.4171L3.37198 28.3673C3.46011 28.3019 3.56518 28.2672 3.67266 28.2681H30.8266C30.9489 28.2664 31.0673 28.3136 31.1584 28.4004L33.512 30.4832C33.5825 30.545 33.6369 30.6252 33.6696 30.716C33.7023 30.8068 33.7123 30.905 33.6986 31.0012L32.6618 37.437C32.639 37.5713 32.5703 37.6918 32.4688 37.7753C32.3673 37.8587 32.2402 37.8992 32.1123 37.8889ZM2.32481 36.7868H31.6768L32.5892 31.1334L30.64 29.4032H3.83855L1.42279 31.1665L2.32481 36.7868Z" fill="#210124"/>
<path d="M24.2837 4.40904H10.0379C9.90045 4.40904 9.76859 4.35099 9.67137 4.24765C9.57415 4.14432 9.51953 4.00416 9.51953 3.85802C9.51953 3.71189 9.57415 3.57173 9.67137 3.4684C9.76859 3.36506 9.90045 3.30701 10.0379 3.30701H24.2837C24.4203 3.30983 24.5506 3.36879 24.6473 3.47152C24.7439 3.57425 24.7994 3.71277 24.8021 3.85802C24.8021 4.00416 24.7474 4.14432 24.6502 4.24765C24.553 4.35099 24.4211 4.40904 24.2837 4.40904Z" fill="#210124"/>
</g>
<defs>
<clipPath id="clip0">
<rect width="33.3333" height="37.7778" fill="white" transform="translate(0.333984 0.111084)"/>
</clipPath>
</defs>
</svg>
