<svg width="37" height="35" viewBox="0 0 37 35" fill="none" xmlns="http://www.w3.org/2000/svg">
<path d="M34.1327 0.74939H5.25702C4.07738 0.74939 3.12109 1.74066 3.12109 2.96345V31.9255C3.12109 33.1483 4.07738 34.1395 5.25702 34.1395H34.1327C35.3123 34.1395 36.2686 33.1483 36.2686 31.9255V2.96345C36.2686 1.74066 35.3123 0.74939 34.1327 0.74939Z" fill="#4F345A"/>
<path d="M34.1342 0.74939H22.7324C23.2989 0.74939 23.8422 0.982656 24.2427 1.39787C24.6433 1.81309 24.8683 2.37624 24.8683 2.96345V31.9255C24.8683 32.2162 24.8131 32.5041 24.7058 32.7728C24.5984 33.0414 24.4411 33.2854 24.2427 33.491C24.0444 33.6966 23.8089 33.8597 23.5498 33.971C23.2907 34.0823 23.0129 34.1395 22.7324 34.1395H34.1342C34.4147 34.1395 34.6924 34.0823 34.9516 33.971C35.2107 33.8597 35.4462 33.6966 35.6445 33.491C35.8428 33.2854 36.0002 33.0414 36.1075 32.7728C36.2149 32.5041 36.2701 32.2162 36.2701 31.9255V2.96345C36.2701 2.6727 36.2149 2.38479 36.1075 2.11617C36.0002 1.84754 35.8428 1.60347 35.6445 1.39787C35.4462 1.19228 35.2107 1.02919 34.9516 0.917925C34.6924 0.806658 34.4147 0.74939 34.1342 0.74939Z" fill="#41294C"/>
<path d="M31.4574 5.84174C32.3562 5.84174 33.0848 5.11009 33.0848 4.20755C33.0848 3.30501 32.3562 2.57336 31.4574 2.57336C30.5587 2.57336 29.8301 3.30501 29.8301 4.20755C29.8301 5.11009 30.5587 5.84174 31.4574 5.84174Z" fill="#BE1E2D"/>
<path d="M3.16211 21.9727V31.9571C3.16609 32.2478 3.22528 32.5349 3.33632 32.802C3.44735 33.069 3.60804 33.3108 3.80922 33.5135C4.0104 33.7161 4.24812 33.8757 4.50881 33.9831C4.7695 34.0906 5.04804 34.1437 5.32855 34.1395H34.1025C34.383 34.1437 34.6615 34.0906 34.9222 33.9831C35.1829 33.8757 35.4206 33.7161 35.6218 33.5135C35.823 33.3108 35.9837 33.069 36.0947 32.802C36.2057 32.5349 36.2649 32.2478 36.2689 31.9571V21.9727H3.16211Z" fill="#A882DD"/>
<path d="M24.8672 21.9727V26.0318C26.8506 26.0318 28.2135 26.7909 28.4576 27.6344C28.8339 28.9523 26.8506 30.6076 24.8672 30.6076V31.9571C24.8592 32.5425 24.6278 33.1007 24.2237 33.5097C23.8196 33.9187 23.2757 34.1451 22.7109 34.1395H34.1025C34.383 34.1437 34.6616 34.0906 34.9223 33.9831C35.1829 33.8757 35.4207 33.7161 35.6218 33.5135C35.823 33.3108 35.9837 33.069 36.0948 32.802C36.2058 32.5349 36.265 32.2478 36.269 31.9571V21.9727H24.8672Z" fill="#7754AF"/>
<path d="M13.6392 28.9523C15.6221 28.9523 17.2296 28.2348 17.2296 27.3497C17.2296 26.4647 15.6221 25.7472 13.6392 25.7472C11.6563 25.7472 10.0488 26.4647 10.0488 27.3497C10.0488 28.2348 11.6563 28.9523 13.6392 28.9523Z" fill="#7754AF"/>
<path d="M14.3209 26.1267C16.3038 26.1267 17.9112 25.4093 17.9112 24.5242C17.9112 23.6391 16.3038 22.9216 14.3209 22.9216C12.3379 22.9216 10.7305 23.6391 10.7305 24.5242C10.7305 25.4093 12.3379 26.1267 14.3209 26.1267Z" fill="#7754AF"/>
<path d="M3.16211 30.6075V31.9571C3.16609 32.2478 3.22528 32.5349 3.33632 32.802C3.44735 33.069 3.60804 33.3108 3.80922 33.5134C4.0104 33.7161 4.24812 33.8757 4.50881 33.9831C4.7695 34.0906 5.04804 34.1437 5.32855 34.1395H34.1025C34.383 34.1437 34.6615 34.0906 34.9222 33.9831C35.1829 33.8757 35.4206 33.7161 35.6218 33.5134C35.823 33.3108 35.9837 33.069 36.0947 32.802C36.2057 32.5349 36.2649 32.2478 36.2689 31.9571V30.6075H3.16211Z" fill="#4F345A"/>
<path d="M24.8683 30.1859V31.9255C24.8683 32.2162 24.8131 32.5041 24.7058 32.7728C24.5984 33.0414 24.4411 33.2855 24.2427 33.491C24.0444 33.6966 23.8089 33.8597 23.5498 33.971C23.2907 34.0823 23.0129 34.1395 22.7324 34.1395H34.1342C34.4147 34.1395 34.6924 34.0823 34.9516 33.971C35.2107 33.8597 35.4462 33.6966 35.6445 33.491C35.8428 33.2855 36.0002 33.0414 36.1075 32.7728C36.2149 32.5041 36.2701 32.2162 36.2701 31.9255V30.1859H24.8683Z" fill="#41294C"/>
<path d="M35.9024 6.98041H3.12109V21.9833H35.9024V6.98041Z" fill="#7CFEF0"/>
<path d="M12.4083 22.4999H3.16285C3.02797 22.4999 2.89862 22.4443 2.80325 22.3455C2.70788 22.2466 2.6543 22.1125 2.6543 21.9727C2.6569 21.8337 2.71132 21.7012 2.80613 21.6029C2.90094 21.5047 3.02879 21.4483 3.16285 21.4456H12.449C12.5839 21.4456 12.7133 21.5011 12.8086 21.6C12.904 21.6988 12.9576 21.8329 12.9576 21.9727C12.9578 22.0456 12.9434 22.1178 12.9154 22.1847C12.8873 22.2516 12.8462 22.3117 12.7945 22.3612C12.7429 22.4108 12.6819 22.4487 12.6155 22.4725C12.549 22.4964 12.4785 22.5057 12.4083 22.4999Z" fill="#210124"/>
<path d="M36.2694 22.4999H26.3933C26.2584 22.4999 26.1291 22.4443 26.0337 22.3455C25.9383 22.2466 25.8848 22.1125 25.8848 21.9727C25.8848 21.8329 25.9383 21.6988 26.0337 21.6C26.1291 21.5011 26.2584 21.4456 26.3933 21.4456H36.2694C36.4035 21.4483 36.5313 21.5047 36.6261 21.6029C36.721 21.7012 36.7754 21.8337 36.778 21.9727C36.778 22.1125 36.7244 22.2466 36.629 22.3455C36.5336 22.4443 36.4043 22.4999 36.2694 22.4999Z" fill="#210124"/>
<path d="M25.5895 24.3133C24.723 25.98 23.2717 27.2378 21.5358 27.8265C19.7998 28.4152 17.912 28.2898 16.2627 27.4762C15.4573 27.0866 14.7348 26.5346 14.1374 25.8524C13.54 25.1702 13.0797 24.3715 12.7834 23.5029C12.487 22.6343 12.3605 21.7132 12.4113 20.7934C12.4621 19.8736 12.6891 18.9734 13.0791 18.1456C14.7777 14.6663 20.8397 9.39475 24.2673 11.1027C27.695 12.8107 27.2881 20.8341 25.5895 24.3133Z" fill="#DDD5CC"/>
<path d="M13.8937 19.1261C15.5922 15.6469 21.6542 10.3647 25.0818 12.0727C25.3277 12.1998 25.5568 12.3593 25.7633 12.5472C25.418 11.9117 24.8973 11.3976 24.2681 11.0711C20.8202 9.36314 14.7582 14.6347 13.08 18.1139C12.4483 19.4175 12.231 20.895 12.4594 22.3345C12.6878 23.774 13.3501 25.1015 14.3514 26.1267C13.6756 25.11 13.2765 23.9234 13.1959 22.6915C13.1154 21.4596 13.3564 20.228 13.8937 19.1261Z" fill="#F7F5FB"/>
<path d="M26.7081 15.3622C26.6036 17.1587 26.1831 18.9203 25.4672 20.56C24.6138 22.2401 23.163 23.5098 21.422 24.1002C19.6811 24.6906 17.7867 24.5553 16.1404 23.7229C15.2993 23.3095 14.5487 22.7221 13.9348 21.9968C13.3208 21.2716 12.8565 20.4238 12.5703 19.5056C12.2019 21.0704 12.3686 22.7191 13.0419 24.1707C13.7151 25.6223 14.8534 26.7868 16.2624 27.4657C17.9117 28.2793 19.7996 28.4046 21.5355 27.8159C23.2715 27.2272 24.7228 25.9695 25.5893 24.3028C26.7541 21.4876 27.1415 18.3923 26.7081 15.3622Z" fill="#ADABAA"/>
<path d="M19.3245 28.7625C18.1874 28.7658 17.0644 28.5027 16.0392 27.9929C15.1529 27.5595 14.3596 26.9461 13.7062 26.1891C13.0528 25.4321 12.5526 24.5469 12.2352 23.5858C11.9285 22.6562 11.8056 21.672 11.8737 20.6921C11.9419 19.7121 12.1997 18.7564 12.6319 17.882C14.3508 14.3395 20.7077 8.70946 24.5219 10.5967C25.0867 10.9135 25.5835 11.3461 25.9822 11.8681C26.3808 12.39 26.673 12.9905 26.8409 13.6331C27.7839 17.2606 27.5077 21.1127 26.0577 24.5558C25.4184 25.8321 24.4513 26.9005 23.2631 27.6429C22.0748 28.3852 20.7118 28.7727 19.3245 28.7625ZM22.7826 11.2609C19.5584 11.2609 14.9001 15.5625 13.5371 18.3564C13.1699 19.1076 12.951 19.9273 12.8933 20.7674C12.8357 21.6074 12.9405 22.4509 13.2015 23.2485C13.4746 24.0761 13.9052 24.8384 14.4678 25.4904C15.0304 26.1424 15.7134 26.6707 16.4766 27.044C18.0084 27.8093 19.7671 27.9281 21.3818 27.3754C22.9965 26.8227 24.3411 25.6417 25.1321 24.0814C26.4723 20.8791 26.7303 17.3016 25.8645 13.9283C25.7393 13.4199 25.5161 12.9429 25.2085 12.5262C24.9009 12.1095 24.5151 11.7616 24.0743 11.5034C23.6658 11.3264 23.2251 11.2436 22.7826 11.2609Z" fill="#210124"/>
<path opacity="0.38" d="M3.12109 31.0925V7.43372H36.2686L3.12109 31.0925Z" fill="#F7F5FB"/>
<path d="M31.4578 6.36889C31.1813 6.37167 30.907 6.31797 30.6505 6.21086C30.394 6.10375 30.1604 5.94531 29.963 5.74461C29.7657 5.54391 29.6083 5.30487 29.5001 5.04114C29.3918 4.77741 29.3347 4.49415 29.332 4.20755C29.3693 3.64811 29.6101 3.12419 30.0056 2.74158C30.4011 2.35897 30.9219 2.14618 31.4629 2.14618C32.0039 2.14618 32.5247 2.35897 32.9202 2.74158C33.3157 3.12419 33.5564 3.64811 33.5937 4.20755C33.5857 4.78733 33.3564 5.34021 32.9562 5.74526C32.5559 6.1503 32.0171 6.37453 31.4578 6.36889ZM31.4578 3.10052C31.1776 3.09447 30.9059 3.20071 30.6994 3.39711C30.4929 3.59351 30.3674 3.86493 30.3491 4.15483C30.3756 4.44198 30.5044 4.70859 30.7104 4.90261C30.9163 5.09662 31.1846 5.20412 31.4629 5.20412C31.7412 5.20412 32.0094 5.09662 32.2154 4.90261C32.4213 4.70859 32.5501 4.44198 32.5766 4.15483C32.5558 3.86401 32.4282 3.59254 32.22 3.39638C32.0119 3.20022 31.739 3.09432 31.4578 3.10052Z" fill="#210124"/>
<path d="M26.6975 4.73468H23.0359C22.901 4.73468 22.7717 4.67914 22.6763 4.58027C22.5809 4.48141 22.5273 4.34733 22.5273 4.20752C22.5273 4.06771 22.5809 3.93362 22.6763 3.83476C22.7717 3.7359 22.901 3.68036 23.0359 3.68036H26.6975C26.8324 3.68036 26.9617 3.7359 27.0571 3.83476C27.1524 3.93362 27.206 4.06771 27.206 4.20752C27.206 4.34733 27.1524 4.48141 27.0571 4.58027C26.9617 4.67914 26.8324 4.73468 26.6975 4.73468Z" fill="#210124"/>
<path d="M23.647 27.2549C23.5596 27.2534 23.4739 27.2296 23.3976 27.1854C23.3213 27.1413 23.2567 27.0782 23.2096 27.0018C23.1415 26.8811 23.1215 26.7376 23.1537 26.6017C23.186 26.4659 23.2681 26.3485 23.3825 26.2744C23.5351 26.1795 26.9933 24.0603 29.9937 25.1041C30.0579 25.1243 30.1175 25.1578 30.1689 25.2026C30.2204 25.2473 30.2625 25.3023 30.2929 25.3643C30.3233 25.4264 30.3413 25.4941 30.3458 25.5635C30.3503 25.6329 30.3413 25.7026 30.3192 25.7683C30.2773 25.901 30.1863 26.0111 30.0662 26.0744C29.946 26.1377 29.8066 26.1489 29.6784 26.1057C27.1153 25.2095 23.942 27.16 23.9114 27.16C23.8317 27.2128 23.7411 27.2453 23.647 27.2549Z" fill="#210124"/>
<path d="M15.6322 27.6871C15.5145 27.6856 15.4004 27.645 15.3067 27.5712C13.9602 26.6547 12.3695 26.201 10.7602 26.2744C10.6266 26.2777 10.4967 26.2284 10.3967 26.1365C10.2967 26.0445 10.234 25.9168 10.2212 25.7788C10.2155 25.6396 10.2622 25.5036 10.3513 25.3994C10.4405 25.2951 10.5652 25.2309 10.6992 25.22C12.5671 25.125 14.4137 25.6655 15.9576 26.7593C16.0363 26.8291 16.0926 26.9221 16.119 27.0259C16.1453 27.1297 16.1405 27.2393 16.1051 27.3402C16.0697 27.441 16.0055 27.5283 15.921 27.5903C15.8365 27.6523 15.7357 27.6861 15.6322 27.6871Z" fill="#210124"/>
<path d="M23.3727 29.743C23.2957 29.7396 23.2198 29.7217 23.1489 29.6903C21.9982 29.1723 20.7571 28.905 19.5026 28.905C18.2481 28.905 17.007 29.1723 15.8563 29.6903C15.7962 29.7208 15.7309 29.7387 15.6641 29.743C15.5973 29.7473 15.5304 29.7379 15.4671 29.7154C15.4038 29.6929 15.3454 29.6576 15.2953 29.6117C15.2451 29.5658 15.2042 29.5101 15.1748 29.4478C15.1454 29.3855 15.1282 29.3178 15.124 29.2486C15.1199 29.1794 15.1289 29.11 15.1506 29.0444C15.1724 28.9788 15.2063 28.9183 15.2506 28.8663C15.2949 28.8143 15.3486 28.7719 15.4088 28.7414C16.6969 28.1451 18.0918 27.8369 19.5026 27.8369C20.9134 27.8369 22.3083 28.1451 23.5965 28.7414C23.6566 28.7718 23.7105 28.8142 23.7548 28.8662C23.7992 28.9181 23.8332 28.9787 23.8549 29.0443C23.8766 29.1099 23.8857 29.1793 23.8815 29.2486C23.8773 29.3178 23.8599 29.3856 23.8304 29.4478C23.7905 29.5382 23.7258 29.6144 23.6444 29.6669C23.563 29.7194 23.4685 29.7459 23.3727 29.743Z" fill="#210124"/>
<path d="M36.2696 31.1347H3.16285C3.02879 31.132 2.90094 31.0756 2.80613 30.9773C2.71132 30.879 2.6569 30.7465 2.6543 30.6075C2.6543 30.4677 2.70788 30.3336 2.80325 30.2348C2.89862 30.1359 3.02797 30.0804 3.16285 30.0804H36.2696C36.4045 30.0804 36.5339 30.1359 36.6292 30.2348C36.7246 30.3336 36.7782 30.4677 36.7782 30.6075C36.7756 30.7465 36.7212 30.879 36.6264 30.9773C36.5316 31.0756 36.4037 31.132 36.2696 31.1347Z" fill="#210124"/>
<path d="M36.2696 7.96087H3.16285C3.02879 7.95817 2.90094 7.90176 2.80613 7.80348C2.71132 7.7052 2.6569 7.57268 2.6543 7.43371C2.6543 7.2939 2.70788 7.15982 2.80325 7.06096C2.89862 6.96209 3.02797 6.90656 3.16285 6.90656H36.2696C36.4045 6.90656 36.5339 6.96209 36.6292 7.06096C36.7246 7.15982 36.7782 7.2939 36.7782 7.43371C36.7756 7.57268 36.7212 7.7052 36.6264 7.80348C36.5316 7.90176 36.4037 7.95817 36.2696 7.96087Z" fill="#210124"/>
<path d="M34.1334 34.6667H5.25776C4.55722 34.6639 3.88615 34.3742 3.39079 33.8607C2.89543 33.3472 2.61596 32.6516 2.61328 31.9255V2.96345C2.61596 2.23728 2.89543 1.54166 3.39079 1.02818C3.88615 0.514704 4.55722 0.225006 5.25776 0.222229L34.1334 0.222229C34.8339 0.225006 35.505 0.514704 36.0004 1.02818C36.4957 1.54166 36.7752 2.23728 36.7779 2.96345V31.9255C36.7752 32.6516 36.4957 33.3472 36.0004 33.8607C35.505 34.3742 34.8339 34.6639 34.1334 34.6667ZM5.25776 1.27654C4.82615 1.27654 4.41222 1.45427 4.10703 1.77063C3.80184 2.08698 3.63039 2.51605 3.63039 2.96345V31.9255C3.63039 32.147 3.67248 32.3663 3.75426 32.571C3.83605 32.7757 3.95592 32.9616 4.10703 33.1183C4.25815 33.2749 4.43755 33.3992 4.63499 33.484C4.83243 33.5687 5.04405 33.6124 5.25776 33.6124H34.1334C34.3471 33.6124 34.5587 33.5687 34.7562 33.484C34.9536 33.3992 35.133 33.2749 35.2841 33.1183C35.4352 32.9616 35.5551 32.7757 35.6369 32.571C35.7187 32.3663 35.7608 32.147 35.7608 31.9255V2.96345C35.7608 2.51605 35.5893 2.08698 35.2841 1.77063C34.9789 1.45427 34.565 1.27654 34.1334 1.27654H5.25776Z" fill="#210124"/>
<path d="M11.0241 15.0037L5.81655 12.3785L0.619141 15.0037V11.9568L5.81655 9.32098L11.0241 11.9568V15.0037Z" fill="#00916E"/>
<path d="M11.0241 20.0855L5.81655 17.4497L0.619141 20.0855V17.0386L5.81655 14.4028L11.0241 17.0386V20.0855Z" fill="#00916E"/>
<path d="M11.0247 15.5309C10.9514 15.5515 10.8742 15.5515 10.8009 15.5309L5.81712 13.011L0.843476 15.4781C0.769259 15.5226 0.68507 15.5459 0.599371 15.5459C0.513672 15.5459 0.429483 15.5226 0.355265 15.4781C0.274045 15.4274 0.208144 15.354 0.165008 15.2665C0.121872 15.1789 0.10322 15.0806 0.11116 14.9826V11.9567C0.11213 11.8582 0.139207 11.7618 0.189431 11.6781C0.239655 11.5945 0.311096 11.5267 0.39595 11.4823L5.59336 8.8465C5.66279 8.81034 5.73942 8.7915 5.81712 8.7915C5.89483 8.7915 5.97146 8.81034 6.04089 8.8465L11.2993 11.4823C11.3842 11.5267 11.4556 11.5945 11.5058 11.6781C11.5561 11.7618 11.5831 11.8582 11.5841 11.9567V14.9826C11.5846 15.0736 11.5624 15.1632 11.5196 15.2426C11.4769 15.322 11.415 15.3887 11.34 15.436C11.2486 15.5044 11.1372 15.5379 11.0247 15.5309ZM5.81712 11.8197C5.89585 11.8195 5.97315 11.8414 6.04089 11.8829L10.5162 14.1392V12.2836L5.81712 9.91136L1.12827 12.2836V14.1602L5.59336 11.904C5.65968 11.8564 5.73677 11.8273 5.81712 11.8197Z" fill="#210124"/>
<path d="M0.619881 20.6126C0.525906 20.6104 0.434369 20.5812 0.355434 20.5283C0.281263 20.4827 0.219778 20.4179 0.176991 20.3403C0.134204 20.2627 0.111579 20.1749 0.111328 20.0855L0.111328 17.028C0.11185 16.9307 0.138855 16.8356 0.189237 16.7535C0.239619 16.6714 0.31133 16.6058 0.396118 16.5641L5.59353 13.9283C5.66296 13.8921 5.73959 13.8733 5.81729 13.8733C5.895 13.8733 5.97162 13.8921 6.04106 13.9283L11.2995 16.5641C11.3843 16.6058 11.456 16.6714 11.5064 16.7535C11.5568 16.8356 11.5838 16.9307 11.5843 17.028V20.0855C11.584 20.1749 11.5614 20.2627 11.5186 20.3403C11.4758 20.4179 11.4143 20.4827 11.3402 20.5283C11.2651 20.5698 11.1812 20.5916 11.0961 20.5916C11.0109 20.5916 10.9271 20.5698 10.852 20.5283L5.81729 18.0401L0.843644 20.5599C0.773469 20.5936 0.697218 20.6116 0.619881 20.6126ZM5.81729 16.9225C5.89463 16.9236 5.97088 16.9416 6.04106 16.9753L10.5163 19.1999V17.3654L5.81729 14.9826L1.12843 17.3654V19.1999L5.59353 16.9331C5.66682 16.915 5.74273 16.9115 5.81729 16.9225Z" fill="#210124"/>
<path d="M19.7408 15.1165C20.5205 14.525 20.8594 13.6303 20.4977 13.1182C20.1361 12.606 19.2109 12.6703 18.4312 13.2618C17.6516 13.8533 17.3127 14.748 17.6743 15.2602C18.0359 15.7724 18.9611 15.708 19.7408 15.1165Z" fill="#F7F5FB"/>
<path d="M19.5427 18.0953C20.1048 17.6688 20.3507 17.026 20.0919 16.6595C19.8332 16.293 19.1677 16.3416 18.6056 16.768C18.0436 17.1945 17.7977 17.8373 18.0564 18.2038C18.3152 18.5703 18.9807 18.5217 19.5427 18.0953Z" fill="#F7F5FB"/>
</svg>
