<svg width="40" height="40" viewBox="0 0 40 40" fill="none" xmlns="http://www.w3.org/2000/svg">
<g clip-path="url(#clip0)">
<path d="M8.33691 35.175V5.29814C8.33691 4.35706 8.69035 3.45453 9.31948 2.7891C9.9486 2.12366 10.8019 1.74982 11.6916 1.74982H31.6631V33.1051" fill="#00916E"/>
<path d="M13.5366 5.29814C13.5366 4.35706 13.8901 3.45453 14.5192 2.7891C15.1483 2.12366 16.0016 1.74982 16.8913 1.74982H11.7139C10.8242 1.74982 9.97094 2.12366 9.34182 2.7891C8.71269 3.45453 8.35925 4.35706 8.35925 5.29814V35.175L13.559 34.7137L13.5366 5.29814Z" fill="#036D6D"/>
<path d="M29.3819 38.2975H10.7746C10.1271 38.2944 9.50707 38.0201 9.05023 37.5347C8.59338 37.0492 8.33691 36.3922 8.33691 35.7072C8.33689 35.0212 8.593 34.3629 9.04954 33.8756C9.50607 33.3883 10.1261 33.1114 10.7746 33.1051H29.3819" fill="#F7F5FB"/>
<path d="M20.1342 23.1935C23.3765 23.1935 26.0049 20.3975 26.0049 16.9484C26.0049 13.4994 23.3765 10.7034 20.1342 10.7034C16.8919 10.7034 14.2635 13.4994 14.2635 16.9484C14.2635 20.3975 16.8919 23.1935 20.1342 23.1935Z" fill="#835BC4"/>
<path d="M8.33695 35.7664C8.18866 35.7664 8.04645 35.7041 7.94159 35.5932C7.83674 35.4823 7.77783 35.3318 7.77783 35.175V5.29813C7.77782 4.19175 8.1918 3.13034 8.92934 2.3458C9.66688 1.56125 10.668 1.11737 11.714 1.11111L31.6632 1.11111C31.8114 1.11111 31.9537 1.17342 32.0585 1.28433C32.1634 1.39523 32.2223 1.54566 32.2223 1.7025V33.1051C32.2223 33.262 32.1634 33.4124 32.0585 33.5233C31.9537 33.6342 31.8114 33.6965 31.6632 33.6965C31.5149 33.6965 31.3727 33.6342 31.2678 33.5233C31.163 33.4124 31.104 33.262 31.104 33.1051V2.29389H11.714C11.3425 2.29544 10.9749 2.37437 10.6322 2.52619C10.2895 2.67801 9.97844 2.89973 9.71677 3.1787C9.4551 3.45767 9.24795 3.78843 9.10713 4.15208C8.96631 4.51573 8.89459 4.90516 8.89606 5.29813V35.175C8.89606 35.3318 8.83715 35.4823 8.7323 35.5932C8.62744 35.7041 8.48523 35.7664 8.33695 35.7664Z" fill="#210124"/>
<path d="M31.6631 38.8889H10.7746C10.0071 38.8394 9.28635 38.482 8.75942 37.8897C8.23249 37.2973 7.93909 36.5146 7.93909 35.7013C7.93909 34.888 8.23249 34.1053 8.75942 33.5129C9.28635 32.9206 10.0071 32.5632 10.7746 32.5137H31.6631C31.8105 32.5168 31.9511 32.58 32.0553 32.6903C32.1595 32.8006 32.2194 32.9492 32.2222 33.1051C32.2222 33.262 32.1633 33.4124 32.0585 33.5233C31.9536 33.6342 31.8114 33.6965 31.6631 33.6965H10.7746C10.2971 33.7353 9.85101 33.9634 9.52557 34.3351C9.20014 34.7068 9.01935 35.1947 9.01935 35.7013C9.01935 36.2079 9.20014 36.6958 9.52557 37.0675C9.85101 37.4392 10.2971 37.6673 10.7746 37.7061H31.6631C31.8114 37.7061 31.9536 37.7684 32.0585 37.8793C32.1633 37.9902 32.2222 38.1406 32.2222 38.2975C32.2222 38.4543 32.1633 38.6048 32.0585 38.7157C31.9536 38.8266 31.8114 38.8889 31.6631 38.8889Z" fill="#210124"/>
<path d="M29.8628 36.204H12.4967C12.3484 36.204 12.2062 36.1417 12.1014 36.0308C11.9965 35.9199 11.9376 35.7694 11.9376 35.6126C11.9376 35.4558 11.9965 35.3053 12.1014 35.1944C12.2062 35.0835 12.3484 35.0212 12.4967 35.0212H29.8628C30.0102 35.0242 30.1507 35.0875 30.255 35.1978C30.3592 35.308 30.4191 35.4567 30.4219 35.6126C30.4219 35.7694 30.363 35.9199 30.2582 36.0308C30.1533 36.1417 30.0111 36.204 29.8628 36.204Z" fill="#210124"/>
<path d="M20.1343 23.7967C18.8518 23.8061 17.5957 23.4124 16.5251 22.6656C15.4545 21.9188 14.6177 20.8526 14.1208 19.6021C13.6239 18.3516 13.4892 16.9732 13.734 15.6416C13.9787 14.3101 14.5918 13.0855 15.4955 12.123C16.3992 11.1605 17.5527 10.5035 18.8099 10.2354C20.067 9.96734 21.3711 10.1002 22.5568 10.6171C23.7425 11.134 24.7563 12.0117 25.4697 13.1389C26.1832 14.2661 26.564 15.592 26.5641 16.9484C26.567 18.7575 25.892 20.494 24.6868 21.7777C23.4816 23.0613 21.8446 23.7873 20.1343 23.7967ZM20.1343 11.2948C19.0725 11.2854 18.0321 11.61 17.1452 12.2273C16.2583 12.8447 15.5648 13.7269 15.1528 14.7619C14.7409 15.797 14.6291 16.9382 14.8316 18.0406C15.0341 19.143 15.5418 20.1569 16.2902 20.9535C17.0386 21.7501 17.9939 22.2935 19.0349 22.5146C20.0758 22.7358 21.1554 22.6247 22.1366 22.1955C23.1178 21.7663 23.9562 21.0383 24.5454 20.1041C25.1346 19.1699 25.448 18.0715 25.4458 16.9484C25.4488 15.4542 24.8912 14.0197 23.8954 12.9598C22.8996 11.8998 21.547 11.301 20.1343 11.2948Z" fill="#210124"/>
<path d="M13.8722 21.3365C13.0568 21.3893 12.2411 21.2394 11.4904 20.8989C11.3323 20.8166 11.192 20.7006 11.0784 20.5581C10.9649 20.4156 10.8805 20.2497 10.8306 20.071C10.551 19.042 11.6134 17.871 13.9728 16.5936C14.0387 16.557 14.1109 16.5347 14.1851 16.528C14.2592 16.5213 14.3339 16.5304 14.4047 16.5546C14.4756 16.5788 14.5411 16.6178 14.5975 16.6692C14.6539 16.7206 14.7 16.7833 14.7332 16.8538C14.768 16.9244 14.7893 17.0016 14.7958 17.081C14.8022 17.1603 14.7938 17.2402 14.7709 17.3161C14.7481 17.392 14.7112 17.4623 14.6625 17.523C14.6138 17.5838 14.5542 17.6337 14.4872 17.67C12.2507 18.8527 11.8817 19.6452 11.9041 19.7753C12.0942 20.2721 15.3482 20.5914 20.8499 18.9355C26.3516 17.2796 28.9459 15.1743 28.8452 14.6539C28.8452 14.5119 27.9954 14.0388 25.2334 14.3464C25.1599 14.3545 25.0856 14.3472 25.0148 14.3248C24.944 14.3024 24.8781 14.2654 24.8209 14.2159C24.7637 14.1664 24.7164 14.1054 24.6816 14.0365C24.6468 13.9675 24.6253 13.8919 24.6183 13.8141C24.6106 13.7364 24.6175 13.6578 24.6387 13.5829C24.6599 13.508 24.6949 13.4383 24.7417 13.3778C24.7885 13.3173 24.8461 13.2673 24.9113 13.2305C24.9765 13.1937 25.048 13.171 25.1215 13.1636C28.0177 12.8442 29.5944 13.2346 29.9299 14.3464C30.5338 16.6173 24.4506 19.0774 21.1518 20.0946C18.7858 20.8379 16.3391 21.2553 13.8722 21.3365Z" fill="#210124"/>
<path d="M29.9634 38.8889C29.8151 38.8889 29.6729 38.8266 29.5681 38.7157C29.4632 38.6048 29.4043 38.4543 29.4043 38.2975V33.1051C29.4043 32.9483 29.4632 32.7979 29.5681 32.6869C29.6729 32.576 29.8151 32.5137 29.9634 32.5137C30.1117 32.5137 30.2539 32.576 30.3588 32.6869C30.4636 32.7979 30.5225 32.9483 30.5225 33.1051V38.2975C30.5225 38.4543 30.4636 38.6048 30.3588 38.7157C30.2539 38.8266 30.1117 38.8889 29.9634 38.8889Z" fill="#210124"/>
</g>
<defs>
<clipPath id="clip0">
<rect width="24.4444" height="37.7778" fill="white" transform="translate(7.77783 1.11111)"/>
</clipPath>
</defs>
</svg>
