<svg width="74" height="70" viewBox="0 0 74 70" fill="none" xmlns="http://www.w3.org/2000/svg">
<path d="M68.2673 1.49854H10.516C8.15671 1.49854 6.24414 3.48107 6.24414 5.92666V63.8507C6.24414 66.2963 8.15671 68.2788 10.516 68.2788H68.2673C70.6265 68.2788 72.5391 66.2963 72.5391 63.8507V5.92666C72.5391 3.48107 70.6265 1.49854 68.2673 1.49854Z" fill="#C1636C"/>
<path d="M68.2664 1.49854H45.4629C46.5959 1.49854 47.6824 1.96507 48.4835 2.7955C49.2847 3.62594 49.7347 4.75224 49.7347 5.92666V63.8507C49.7347 64.4322 49.6242 65.008 49.4096 65.5453C49.1949 66.0825 48.8802 66.5706 48.4835 66.9818C48.0869 67.393 47.6159 67.7192 47.0977 67.9417C46.5794 68.1643 46.0239 68.2788 45.4629 68.2788H68.2664C68.8274 68.2788 69.3829 68.1643 69.9012 67.9417C70.4194 67.7192 70.8904 67.393 71.287 66.9818C71.6837 66.5706 71.9984 66.0825 72.2131 65.5453C72.4277 65.008 72.5382 64.4322 72.5382 63.8507V5.92666C72.5382 5.34515 72.4277 4.76933 72.2131 4.23209C71.9984 3.69484 71.6837 3.20669 71.287 2.7955C70.8904 2.38431 70.4194 2.05814 69.9012 1.83561C69.3829 1.61307 68.8274 1.49854 68.2664 1.49854Z" fill="#BE1E2D"/>
<path d="M62.9168 11.6832C64.7144 11.6832 66.1716 10.2199 66.1716 8.41486C66.1716 6.60979 64.7144 5.14648 62.9168 5.14648C61.1193 5.14648 59.6621 6.60979 59.6621 8.41486C59.6621 10.2199 61.1193 11.6832 62.9168 11.6832Z" fill="#31978C"/>
<path d="M6.32422 43.9453V63.914C6.33218 64.4956 6.45057 65.0698 6.67263 65.6039C6.8947 66.1379 7.21608 66.6215 7.61844 67.0268C8.0208 67.4321 8.49624 67.7513 9.01761 67.9662C9.53899 68.181 10.0961 68.2873 10.6571 68.2789H68.2049C68.7659 68.2873 69.323 68.181 69.8444 67.9662C70.3658 67.7513 70.8412 67.4321 71.2436 67.0268C71.646 66.6215 71.9673 66.1379 72.1894 65.6039C72.4115 65.0698 72.5299 64.4956 72.5378 63.914V43.9453H6.32422Z" fill="#CA8288"/>
<path d="M49.7344 43.9453V52.0635C53.7011 52.0635 56.427 53.5817 56.9152 55.2686C57.6678 57.9044 53.7011 61.215 49.7344 61.215V63.914C49.7183 65.0848 49.2556 66.2013 48.4474 67.0193C47.6392 67.8373 46.5514 68.2902 45.4219 68.2789H68.205C68.766 68.2873 69.3231 68.181 69.8445 67.9662C70.3659 67.7513 70.8413 67.4321 71.2437 67.0268C71.646 66.6215 71.9674 66.1379 72.1895 65.6039C72.4116 65.0698 72.53 64.4956 72.5379 63.914V43.9453H49.7344Z" fill="#B62E3B"/>
<path d="M27.2765 57.9044C31.2423 57.9044 34.4572 56.4694 34.4572 54.6993C34.4572 52.9291 31.2423 51.4941 27.2765 51.4941C23.3106 51.4941 20.0957 52.9291 20.0957 54.6993C20.0957 56.4694 23.3106 57.9044 27.2765 57.9044Z" fill="#B62E3B"/>
<path d="M28.6398 52.2535C32.6056 52.2535 35.8205 50.8185 35.8205 49.0484C35.8205 47.2782 32.6056 45.8433 28.6398 45.8433C24.6739 45.8433 21.459 47.2782 21.459 49.0484C21.459 50.8185 24.6739 52.2535 28.6398 52.2535Z" fill="#B62E3B"/>
<path d="M6.32422 61.2148V63.9139C6.33218 64.4954 6.45057 65.0696 6.67263 65.6037C6.8947 66.1378 7.21608 66.6213 7.61844 67.0267C8.0208 67.432 8.49624 67.7512 9.01761 67.966C9.53899 68.1809 10.0961 68.2871 10.6571 68.2788H68.2049C68.7659 68.2871 69.323 68.1809 69.8444 67.966C70.3658 67.7512 70.8412 67.432 71.2436 67.0267C71.646 66.6213 71.9673 66.1378 72.1894 65.6037C72.4115 65.0696 72.5299 64.4954 72.5378 63.9139V61.2148H6.32422Z" fill="#C1636C"/>
<path d="M49.7347 60.3716V63.8508C49.7347 64.4323 49.6242 65.0081 49.4096 65.5454C49.1949 66.0826 48.8802 66.5708 48.4835 66.982C48.0869 67.3932 47.6159 67.7193 47.0977 67.9419C46.5794 68.1644 46.0239 68.2789 45.4629 68.2789H68.2664C68.8274 68.2789 69.3829 68.1644 69.9012 67.9419C70.4194 67.7193 70.8904 67.3932 71.287 66.982C71.6837 66.5708 71.9984 66.0826 72.2131 65.5454C72.4277 65.0081 72.5382 64.4323 72.5382 63.8508V60.3716H49.7347Z" fill="#BE1E2D"/>
<path d="M71.8068 13.9604H6.24414V43.9662H71.8068V13.9604Z" fill="#E9878F"/>
<path d="M24.8167 44.9997H6.3257C6.05595 44.9997 5.79724 44.8887 5.6065 44.6909C5.41575 44.4932 5.30859 44.225 5.30859 43.9454C5.3138 43.6675 5.42263 43.4025 5.61226 43.2059C5.80189 43.0093 6.05758 42.8965 6.3257 42.8911H24.8981C25.1678 42.8911 25.4265 43.0022 25.6173 43.1999C25.808 43.3976 25.9152 43.6658 25.9152 43.9454C25.9156 44.0913 25.8869 44.2356 25.8307 44.3694C25.7746 44.5031 25.6923 44.6233 25.5891 44.7224C25.4858 44.8215 25.3639 44.8973 25.2309 44.945C25.098 44.9928 24.9569 45.0114 24.8167 44.9997Z" fill="#210124"/>
<path d="M72.5388 44.9997H52.7866C52.5169 44.9997 52.2582 44.8887 52.0674 44.6909C51.8767 44.4932 51.7695 44.225 51.7695 43.9454C51.7695 43.6658 51.8767 43.3976 52.0674 43.1999C52.2582 43.0022 52.5169 42.8911 52.7866 42.8911H72.5388C72.8069 42.8965 73.0626 43.0093 73.2523 43.2059C73.4419 43.4025 73.5507 43.6675 73.5559 43.9454C73.5559 44.225 73.4488 44.4932 73.258 44.6909C73.0673 44.8887 72.8086 44.9997 72.5388 44.9997Z" fill="#210124"/>
<path d="M51.1791 48.6266C49.4461 51.96 46.5435 54.4755 43.0715 55.653C39.5996 56.8304 35.8239 56.5796 32.5254 54.9525C30.9145 54.1732 29.4696 53.0692 28.2748 51.7048C27.0801 50.3404 26.1595 48.743 25.5668 47.0058C24.974 45.2686 24.7211 43.4264 24.8226 41.5868C24.9242 39.7471 25.3783 37.9469 26.1583 36.2911C29.5554 29.3327 41.6793 18.7895 48.5346 22.2055C55.3899 25.6215 54.5762 41.6681 51.1791 48.6266Z" fill="#DDD5CC"/>
<path d="M27.7854 38.2519C31.1825 31.2935 43.3064 20.7292 50.1617 24.1452C50.6535 24.3994 51.1116 24.7183 51.5246 25.0941C50.834 23.8231 49.7927 22.7951 48.5343 22.142C41.6383 18.726 29.5144 29.2692 26.158 36.2276C24.8946 38.8348 24.4601 41.7898 24.9169 44.6688C25.3737 47.5478 26.6983 50.2028 28.7008 52.2532C27.3492 50.2198 26.551 47.8465 26.3899 45.3828C26.2288 42.919 26.7109 40.4558 27.7854 38.2519Z" fill="#F7F5FB"/>
<path d="M53.4162 30.7241C53.2073 34.3172 52.3662 37.8403 50.9345 41.1197C49.2277 44.4799 46.326 47.0194 42.844 48.2002C39.3621 49.381 35.5735 49.1103 32.2808 47.4455C30.5986 46.6187 29.0975 45.4439 27.8696 43.9934C26.6417 42.5429 25.713 40.8473 25.1407 39.011C24.4038 42.1405 24.7371 45.438 26.0837 48.3412C27.4303 51.2444 29.7067 53.5734 32.5249 54.9312C35.8234 56.5583 39.5991 56.809 43.071 55.6316C46.543 54.4542 49.4456 51.9387 51.1786 48.6053C53.5082 42.9749 54.2829 36.7843 53.4162 30.7241Z" fill="#ADABAA"/>
<path d="M38.6489 57.5248C36.3749 57.5313 34.1288 57.0051 32.0784 55.9855C30.3059 55.1187 28.7192 53.892 27.4124 52.378C26.1056 50.864 25.1052 49.0935 24.4705 47.1714C23.8571 45.3121 23.6112 43.3438 23.7475 41.3839C23.8838 39.424 24.3995 37.5126 25.2638 35.7637C28.7016 28.6788 41.4155 17.4187 49.0437 21.1931C50.1734 21.8268 51.1671 22.6919 51.9643 23.7359C52.7616 24.7798 53.3459 25.9808 53.6818 27.266C55.5679 34.5209 55.0155 42.2252 52.1154 49.1114C50.8369 51.664 48.9025 53.8007 46.5261 55.2855C44.1497 56.7702 41.4236 57.5452 38.6489 57.5248ZM45.5652 22.5216C39.1168 22.5216 29.8001 31.1248 27.0743 36.7126C26.3397 38.215 25.902 39.8544 25.7867 41.5345C25.6714 43.2146 25.8809 44.9016 26.403 46.4967C26.9493 48.1519 27.8105 49.6766 28.9356 50.9806C30.0607 52.2845 31.4269 53.3411 32.9531 54.0877C36.0168 55.6183 39.5341 55.856 42.7636 54.7506C45.993 53.6452 48.6822 51.2832 50.2643 48.1625C52.9446 41.7579 53.4606 34.6029 51.7289 27.8564C51.4785 26.8395 51.0323 25.8856 50.417 25.0522C49.8017 24.2187 49.0301 23.5229 48.1487 23.0065C47.3317 22.6525 46.4501 22.487 45.5652 22.5216Z" fill="#210124"/>
<path opacity="0.38" d="M6.24414 62.1848V14.8672H72.5391L6.24414 62.1848Z" fill="#F7F5FB"/>
<path d="M62.9175 12.7374C62.3645 12.743 61.8159 12.6356 61.303 12.4214C60.79 12.2071 60.3228 11.8903 59.928 11.4889C59.5333 11.0875 59.2186 10.6094 59.0021 10.0819C58.7855 9.55445 58.6713 8.98793 58.666 8.41473C58.7406 7.29585 59.2221 6.24801 60.0131 5.48279C60.8041 4.71757 61.8457 4.29199 62.9277 4.29199C64.0097 4.29199 65.0513 4.71757 65.8423 5.48279C66.6333 6.24801 67.1147 7.29585 67.1894 8.41473C67.1733 9.57429 66.7148 10.6801 65.9143 11.4901C65.1137 12.3002 64.0362 12.7487 62.9175 12.7374ZM62.9175 6.20067C62.3571 6.18857 61.8138 6.40105 61.4008 6.79385C60.9877 7.18665 60.7368 7.72949 60.7002 8.30929C60.7532 8.8836 61.0108 9.41681 61.4227 9.80484C61.8345 10.1929 62.3711 10.4079 62.9277 10.4079C63.4843 10.4079 64.0208 10.1929 64.4327 9.80484C64.8446 9.41681 65.1022 8.8836 65.1552 8.30929C65.1136 7.72766 64.8584 7.18471 64.442 6.79239C64.0257 6.40007 63.48 6.18827 62.9175 6.20067Z" fill="#210124"/>
<path d="M53.3969 9.46947H46.0737C45.804 9.46947 45.5453 9.35839 45.3545 9.16067C45.1638 8.96295 45.0566 8.69478 45.0566 8.41516C45.0566 8.13553 45.1638 7.86736 45.3545 7.66964C45.5453 7.47192 45.804 7.36084 46.0737 7.36084H53.3969C53.6667 7.36084 53.9254 7.47192 54.1161 7.66964C54.3069 7.86736 54.414 8.13553 54.414 8.41516C54.414 8.69478 54.3069 8.96295 54.1161 9.16067C53.9254 9.35839 53.6667 9.46947 53.3969 9.46947Z" fill="#210124"/>
<path d="M47.294 54.5095C47.1192 54.5066 46.9478 54.4589 46.7952 54.3706C46.6425 54.2823 46.5134 54.1561 46.4193 54.0034C46.283 53.7619 46.2429 53.4749 46.3075 53.2032C46.372 52.9316 46.5362 52.6967 46.7651 52.5485C47.0702 52.3587 53.9865 48.1204 59.9875 50.2079C60.1159 50.2484 60.2351 50.3154 60.3379 50.4049C60.4407 50.4943 60.5251 50.6044 60.5859 50.7284C60.6466 50.8525 60.6826 50.988 60.6917 51.1268C60.7007 51.2656 60.6826 51.4049 60.6384 51.5363C60.5546 51.8019 60.3726 52.0221 60.1323 52.1486C59.892 52.2751 59.6131 52.2976 59.3569 52.2111C54.2306 50.4188 47.8839 54.3197 47.8229 54.3197C47.6635 54.4253 47.4822 54.4903 47.294 54.5095Z" fill="#210124"/>
<path d="M31.2643 55.374C31.029 55.371 30.8008 55.2897 30.6134 55.1421C27.9204 53.3091 24.739 52.4017 21.5205 52.5485C21.2532 52.5551 20.9934 52.4565 20.7934 52.2727C20.5934 52.0888 20.468 51.8333 20.4423 51.5574C20.431 51.279 20.5243 51.007 20.7026 50.7985C20.881 50.59 21.1304 50.4615 21.3984 50.4399C25.1341 50.2497 28.8274 51.3308 31.9153 53.5185C32.0727 53.6579 32.1852 53.8439 32.2379 54.0515C32.2906 54.2591 32.2809 54.4784 32.2102 54.6801C32.1394 54.8818 32.0109 55.0563 31.8419 55.1803C31.6729 55.3044 31.4714 55.3719 31.2643 55.374Z" fill="#210124"/>
<path d="M46.7454 59.4857C46.5913 59.4788 46.4397 59.4431 46.2979 59.3803C43.9965 58.3443 41.5142 57.8097 39.0052 57.8097C36.4962 57.8097 34.0139 58.3443 31.7126 59.3803C31.5923 59.4412 31.4617 59.477 31.3282 59.4856C31.1946 59.4942 31.0608 59.4754 30.9342 59.4304C30.8076 59.3854 30.6909 59.3149 30.5906 59.2231C30.4903 59.1313 30.4084 59.0199 30.3496 58.8953C30.2909 58.7707 30.2563 58.6353 30.2481 58.4969C30.2398 58.3584 30.2579 58.2197 30.3013 58.0885C30.3447 57.9573 30.4127 57.8362 30.5013 57.7323C30.5898 57.6283 30.6973 57.5434 30.8175 57.4825C33.3938 56.2898 36.1837 55.6733 39.0052 55.6733C41.8268 55.6733 44.6166 56.2898 47.1929 57.4825C47.3133 57.5433 47.4209 57.628 47.5096 57.732C47.5983 57.8359 47.6664 57.957 47.7098 58.0882C47.7533 58.2195 47.7713 58.3583 47.7629 58.4968C47.7545 58.6353 47.7198 58.7707 47.6608 58.8953C47.581 59.076 47.4516 59.2284 47.2888 59.3333C47.126 59.4383 46.937 59.4913 46.7454 59.4857Z" fill="#210124"/>
<path d="M72.5393 62.2693H6.3257C6.05758 62.2639 5.80189 62.1511 5.61226 61.9545C5.42263 61.7579 5.3138 61.4929 5.30859 61.215C5.30859 60.9353 5.41575 60.6672 5.6065 60.4694C5.79724 60.2717 6.05595 60.1606 6.3257 60.1606H72.5393C72.809 60.1606 73.0677 60.2717 73.2585 60.4694C73.4492 60.6672 73.5564 60.9353 73.5564 61.215C73.5512 61.4929 73.4424 61.7579 73.2527 61.9545C73.0631 62.1511 72.8074 62.2639 72.5393 62.2693Z" fill="#210124"/>
<path d="M72.5393 15.9216H6.3257C6.05758 15.9162 5.80189 15.8034 5.61226 15.6068C5.42263 15.4103 5.3138 15.1452 5.30859 14.8673C5.30859 14.5877 5.41575 14.3195 5.6065 14.1218C5.79724 13.9241 6.05595 13.813 6.3257 13.813H72.5393C72.809 13.813 73.0677 13.9241 73.2585 14.1218C73.4492 14.3195 73.5564 14.5877 73.5564 14.8673C73.5512 15.1452 73.4424 15.4103 73.2527 15.6068C73.0631 15.8034 72.8074 15.9162 72.5393 15.9216Z" fill="#210124"/>
<path d="M68.2668 69.3332H10.5155C9.11445 69.3277 7.77229 68.7483 6.78158 67.7213C5.79087 66.6944 5.23192 65.3031 5.22656 63.8508V5.92677C5.23192 4.47445 5.79087 3.08319 6.78158 2.05624C7.77229 1.02929 9.11445 0.44989 10.5155 0.444336L68.2668 0.444336C69.6679 0.44989 71.01 1.02929 72.0007 2.05624C72.9914 3.08319 73.5504 4.47445 73.5557 5.92677V63.8508C73.5504 65.3031 72.9914 66.6944 72.0007 67.7213C71.01 68.7483 69.6679 69.3277 68.2668 69.3332ZM10.5155 2.55296C9.6523 2.55296 8.82445 2.90842 8.21407 3.54113C7.60368 4.17384 7.26077 5.03198 7.26077 5.92677V63.8508C7.26077 64.2938 7.34496 64.7326 7.50853 65.1419C7.67209 65.5512 7.91183 65.9231 8.21407 66.2364C8.5163 66.5497 8.8751 66.7982 9.26998 66.9678C9.66486 67.1373 10.0881 67.2246 10.5155 67.2246H68.2668C68.6942 67.2246 69.1174 67.1373 69.5123 66.9678C69.9072 66.7982 70.266 66.5497 70.5682 66.2364C70.8705 65.9231 71.1102 65.5512 71.2738 65.1419C71.4373 64.7326 71.5215 64.2938 71.5215 63.8508V5.92677C71.5215 5.03198 71.1786 4.17384 70.5682 3.54113C69.9579 2.90842 69.13 2.55296 68.2668 2.55296H10.5155Z" fill="#210124"/>
<path d="M22.0502 30.0071L11.6351 24.7566L1.24023 30.0071V23.9132L11.6351 18.6416L22.0502 23.9132V30.0071Z" fill="#BE1E2D"/>
<path d="M22.0502 40.1707L11.6351 34.8991L1.24023 40.1707V34.0767L11.6351 28.8052L22.0502 34.0767V40.1707Z" fill="#BE1E2D"/>
<path d="M22.0494 31.0617C21.9029 31.1029 21.7484 31.1029 21.6019 31.0617L11.6342 26.0221L1.68695 30.9563C1.53852 31.0451 1.37014 31.0919 1.19874 31.0919C1.02734 31.0919 0.858966 31.0451 0.710531 30.9563C0.548091 30.8547 0.416289 30.7081 0.330017 30.533C0.243744 30.3578 0.206441 30.1612 0.22232 29.9652V23.9135C0.224261 23.7164 0.278413 23.5236 0.378862 23.3563C0.479311 23.189 0.622192 23.0535 0.791899 22.9646L11.1867 17.693C11.3256 17.6207 11.4788 17.583 11.6342 17.583C11.7897 17.583 11.9429 17.6207 12.0818 17.693L22.5986 22.9646C22.7684 23.0535 22.9112 23.189 23.0117 23.3563C23.1121 23.5236 23.1663 23.7164 23.1682 23.9135V29.9652C23.1693 30.1472 23.1248 30.3263 23.0393 30.4852C22.9537 30.6441 22.83 30.7773 22.68 30.8719C22.4973 31.0088 22.2744 31.0758 22.0494 31.0617ZM11.6342 23.6393C11.7917 23.639 11.9463 23.6827 12.0818 23.7659L21.0323 28.2783V24.5671L11.6342 19.8227L2.25653 24.5671V28.3205L11.1867 23.808C11.3194 23.7127 11.4735 23.6546 11.6342 23.6393Z" fill="#210124"/>
<path d="M1.23976 41.2253C1.05181 41.2208 0.868737 41.1624 0.710867 41.0566C0.562525 40.9654 0.439556 40.8358 0.353982 40.6806C0.268409 40.5254 0.223159 40.3498 0.222656 40.171L0.222656 34.0559C0.223699 33.8614 0.27771 33.6711 0.378473 33.507C0.479237 33.3428 0.622659 33.2115 0.792236 33.1281L11.1871 27.8566C11.3259 27.7842 11.4792 27.7466 11.6346 27.7466C11.79 27.7466 11.9432 27.7842 12.0821 27.8566L22.599 33.1281C22.7686 33.2115 22.912 33.3428 23.0127 33.507C23.1135 33.6711 23.1675 33.8614 23.1686 34.0559V40.171C23.1681 40.3498 23.1228 40.5254 23.0372 40.6806C22.9517 40.8358 22.8287 40.9654 22.6804 41.0566C22.5301 41.1397 22.3624 41.1831 22.1921 41.1831C22.0219 41.1831 21.8542 41.1397 21.7039 41.0566L11.6346 36.0802L1.68729 41.1199C1.54694 41.1873 1.39444 41.2232 1.23976 41.2253ZM11.6346 33.8451C11.7893 33.8472 11.9418 33.8831 12.0821 33.9505L21.0326 38.3997V34.7307L11.6346 29.9652L2.25687 34.7307V38.3997L11.1871 33.8662C11.3336 33.8301 11.4855 33.8229 11.6346 33.8451Z" fill="#210124"/>
<path d="M39.4816 30.2329C41.0409 29.0499 41.7187 27.2605 40.9955 26.2362C40.2722 25.2118 38.4218 25.3405 36.8625 26.5235C35.3032 27.7065 34.6254 29.4959 35.3486 30.5202C36.0718 31.5446 37.9222 31.416 39.4816 30.2329Z" fill="#F7F5FB"/>
<path d="M39.0855 36.1903C40.2097 35.3374 40.7014 34.0518 40.1839 33.3188C39.6663 32.5858 38.3354 32.683 37.2113 33.5358C36.0871 34.3887 35.5953 35.6743 36.1129 36.4073C36.6304 37.1403 37.9613 37.0432 39.0855 36.1903Z" fill="#F7F5FB"/>
</svg>
