<svg width="40" height="40" viewBox="0 0 40 40" fill="none" xmlns="http://www.w3.org/2000/svg">
<path d="M5.00476 11.6694V29.4302L20.002 38.3163L34.9992 29.4302V11.6694L20.002 2.79478L5.00476 11.6694Z" fill="#BE1E2D"/>
<path d="M34.9992 11.7611L27.7295 15.5514V24.4719L34.9992 29.2699V11.7611Z" fill="#FE9494"/>
<path d="M19.7674 38.3965L20.0243 30.0371L12.3861 25.743L4.79254 29.9799L19.7674 38.3965Z" fill="#FD1918"/>
<path d="M4.92657 11.3832L11.6937 16.0781L19.3096 11.7725L19.8791 2.92075L4.92657 11.3832Z" fill="#FE9494"/>
<path d="M10.2755 14.7956V26.3155L20.0019 32.0754L29.7283 26.3155V14.7956L20.0019 9.03568L10.2755 14.7956Z" fill="#FD1918"/>
<path d="M10.2755 14.7956V26.3155L20.0019 32.0754L29.7283 26.3155V14.7956L20.0019 9.03568L10.2755 14.7956Z" fill="#FD1918"/>
<path d="M24.3794 11.7954L24.6809 11.9672L15.122 29.1668L10.9009 26.6934L20.4598 9.49373L24.3794 11.7954Z" fill="#FE9494"/>
<path d="M28.2543 13.765L28.3995 13.8452L18.5502 31.5601L16.5178 30.3807L26.3782 12.6657L28.2543 13.765Z" fill="#FE9494"/>
<path d="M20.0017 38.8656C19.903 38.8675 19.8059 38.8397 19.7225 38.7854L4.72534 29.9336C4.64082 29.881 4.57081 29.8071 4.52195 29.7189C4.47309 29.6307 4.44701 29.5312 4.44617 29.4298V11.669C4.44888 11.5695 4.47585 11.4724 4.52462 11.3864C4.57339 11.3003 4.6424 11.2282 4.72534 11.1766L19.7225 2.30194C19.8074 2.25169 19.9037 2.22523 20.0017 2.22523C20.0997 2.22523 20.196 2.25169 20.2809 2.30194L35.2781 11.1766C35.3625 11.2266 35.4327 11.2983 35.4816 11.3847C35.5306 11.4711 35.5567 11.5691 35.5573 11.669V29.4298C35.5587 29.5316 35.5335 29.632 35.4844 29.7206C35.4354 29.8092 35.3641 29.8827 35.2781 29.9336L20.2809 38.8656C20.1897 38.8926 20.0929 38.8926 20.0017 38.8656ZM5.56286 29.0977L20.0017 37.6517L34.4406 29.0977V12.0011L20.0017 3.45851L5.56286 12.0011V29.0977Z" fill="#210124"/>
<path d="M20.0019 32.648C19.904 32.6445 19.8082 32.617 19.7227 32.5678L10.0298 26.8079C9.93236 26.759 9.85087 26.6821 9.79535 26.5865C9.73982 26.491 9.71265 26.3809 9.71716 26.2697V14.8185C9.71695 14.7112 9.74615 14.606 9.80144 14.5149C9.85672 14.4238 9.93586 14.3504 10.0298 14.3032L19.7562 8.57762C19.8411 8.52737 19.9374 8.50092 20.0354 8.50092C20.1334 8.50092 20.2297 8.52737 20.3146 8.57762L30.041 14.3032C30.127 14.3513 30.1984 14.4226 30.2476 14.5094C30.2969 14.5962 30.3219 14.6952 30.3202 14.7956V26.2697C30.3219 26.3701 30.2969 26.4691 30.2476 26.5559C30.1984 26.6427 30.127 26.714 30.041 26.7621L20.3146 32.4877C20.2277 32.571 20.1191 32.6267 20.0019 32.648ZM10.8339 25.9834L20.0019 31.4113L29.17 25.9834V15.1277L20.0019 9.69984L10.8339 15.1277V25.9834Z" fill="#210124"/>
<path d="M20.0019 9.60824C19.8539 9.60824 19.7118 9.54791 19.6071 9.44054C19.5024 9.33316 19.4436 9.18753 19.4436 9.03568V2.79479C19.4436 2.64294 19.5024 2.4973 19.6071 2.38993C19.7118 2.28255 19.8539 2.22223 20.0019 2.22223C20.15 2.22223 20.292 2.28255 20.3968 2.38993C20.5015 2.4973 20.5603 2.64294 20.5603 2.79479V9.09293C20.5464 9.23466 20.4815 9.36598 20.3783 9.46127C20.275 9.55655 20.1408 9.60895 20.0019 9.60824Z" fill="#210124"/>
<path d="M29.7284 15.3682C29.6065 15.3669 29.4884 15.3248 29.3921 15.2482C29.2958 15.1717 29.2265 15.065 29.1949 14.9443C29.1632 14.8236 29.171 14.6956 29.2169 14.5799C29.2628 14.4641 29.3444 14.367 29.4492 14.3032L34.72 11.177C34.8475 11.1019 34.9988 11.0814 35.141 11.12C35.2832 11.1586 35.4048 11.2532 35.4793 11.3832C35.5532 11.5157 35.5735 11.6726 35.5359 11.8202C35.4983 11.9679 35.4059 12.0946 35.2783 12.1733L30.0075 15.288C29.9242 15.3423 29.8271 15.3702 29.7284 15.3682Z" fill="#210124"/>
<path d="M34.9992 30.0028C34.9022 30.002 34.8067 29.9785 34.72 29.9341L29.4492 26.8079C29.3204 26.732 29.2262 26.6067 29.1875 26.4596C29.1487 26.3125 29.1686 26.1556 29.2426 26.0235C29.3166 25.8914 29.4388 25.7948 29.5823 25.7551C29.7257 25.7154 29.8787 25.7357 30.0075 25.8117L35.2783 28.9378C35.3831 29.0016 35.4647 29.0987 35.5106 29.2145C35.5566 29.3302 35.5643 29.4582 35.5327 29.5789C35.501 29.6996 35.4318 29.8063 35.3354 29.8829C35.2391 29.9594 35.121 30.0015 34.9992 30.0028Z" fill="#210124"/>
<path d="M20.0019 38.866C19.8539 38.866 19.7118 38.8057 19.6071 38.6983C19.5024 38.5909 19.4436 38.4453 19.4436 38.2934V32.0754C19.4436 31.9236 19.5024 31.778 19.6071 31.6706C19.7118 31.5632 19.8539 31.5029 20.0019 31.5029C20.15 31.5029 20.292 31.5632 20.3968 31.6706C20.5015 31.778 20.5603 31.9236 20.5603 32.0754V38.3163C20.5545 38.4642 20.4932 38.604 20.3891 38.7065C20.285 38.8089 20.1462 38.8661 20.0019 38.866Z" fill="#210124"/>
<path d="M5.00472 30.0028C4.90618 30.001 4.80985 29.9726 4.72551 29.9203C4.64117 29.868 4.57183 29.7937 4.52454 29.705C4.48676 29.6407 4.46197 29.5692 4.45164 29.4948C4.4413 29.4205 4.44564 29.3447 4.46439 29.2721C4.48313 29.1995 4.51591 29.1315 4.56077 29.0721C4.60563 29.0127 4.66166 28.9631 4.72555 28.9264L10.0298 25.8117C10.1587 25.7357 10.3116 25.7154 10.4551 25.7551C10.5986 25.7948 10.7207 25.8914 10.7948 26.0235C10.8688 26.1556 10.8887 26.3125 10.8499 26.4596C10.8112 26.6067 10.717 26.732 10.5882 26.8079L5.28389 29.9341C5.19759 29.9797 5.10182 30.0033 5.00472 30.0028Z" fill="#210124"/>
<path d="M10.2755 15.3682C10.1884 15.3628 10.104 15.3353 10.0299 15.288L4.72556 12.1733C4.66176 12.1357 4.60582 12.0856 4.56091 12.0258C4.51601 11.9661 4.48302 11.8978 4.46384 11.825C4.4251 11.6779 4.44493 11.521 4.51897 11.3889C4.59301 11.2568 4.7152 11.1602 4.85865 11.1205C5.0021 11.0808 5.15507 11.1011 5.2839 11.1771L10.5547 14.3032C10.6595 14.367 10.7411 14.4641 10.787 14.5799C10.8329 14.6956 10.8407 14.8236 10.809 14.9443C10.7774 15.065 10.7081 15.1717 10.6118 15.2483C10.5155 15.3248 10.3974 15.3669 10.2755 15.3682Z" fill="#210124"/>
</svg>
