<svg width="40" height="40" viewBox="0 0 40 40" fill="none" xmlns="http://www.w3.org/2000/svg">
<path d="M5.00299 11.671V29.4349L20.0002 38.3226L34.9974 29.4349V11.671L20.0002 2.79478L5.00299 11.671Z" fill="#166AB5"/>
<path d="M34.9974 11.7627L27.7277 15.5537V24.4758L34.9974 29.2746V11.7627Z" fill="#7CFEF0"/>
<path d="M19.7658 38.4028L20.0226 30.0306L12.3956 25.7471L4.79089 29.9847L19.7658 38.4028Z" fill="#1AA1FC"/>
<path d="M4.92487 11.3732L11.692 16.0804L19.3079 11.7741L19.8774 2.92075L4.92487 11.3732Z" fill="#7CFEF0"/>
<path d="M10.2738 14.7978V26.3197L20.0002 32.0807L29.7266 26.3197V14.7978L20.0002 9.03687L10.2738 14.7978Z" fill="#FD1918"/>
<path d="M10.2738 14.7978V26.3197L20.0002 32.0807L29.7266 26.3197V14.7978L20.0002 9.03687L10.2738 14.7978Z" fill="#1AA1FC"/>
<path d="M24.3776 11.7971L24.6791 11.9689L15.1202 29.1716L10.8991 26.6977L20.458 9.495L24.3776 11.7971Z" fill="#7CFEF0"/>
<path d="M28.2526 13.7556L28.3977 13.8472L18.5485 31.5653L16.5161 30.3856L26.3765 12.6675L28.2526 13.7556Z" fill="#7CFEF0"/>
<path d="M20.0002 38.872C19.9022 38.8685 19.8065 38.841 19.721 38.7918L4.72381 29.9385C4.63929 29.8858 4.56928 29.8119 4.52042 29.7237C4.47157 29.6355 4.44548 29.536 4.44464 29.4345V11.6707C4.44735 11.5712 4.47432 11.474 4.52309 11.388C4.57186 11.3019 4.64087 11.2298 4.72381 11.1782L19.721 2.30196C19.8059 2.2517 19.9022 2.22523 20.0002 2.22523C20.0982 2.22523 20.1945 2.2517 20.2794 2.30196L35.2766 11.1782C35.361 11.2281 35.4311 11.2999 35.4801 11.3863C35.5291 11.4727 35.5552 11.5707 35.5558 11.6707V29.4345C35.5571 29.5364 35.532 29.6368 35.4829 29.7254C35.4338 29.814 35.3626 29.8876 35.2766 29.9385L20.2794 38.872C20.1875 38.8939 20.092 38.8939 20.0002 38.872ZM5.56134 29.1024L20.0002 37.6579L34.4391 29.1024V12.0028L20.0002 3.45873L5.56134 12.0028V29.1024Z" fill="#210124"/>
<path d="M20.0002 32.6522C19.9022 32.6487 19.8065 32.6212 19.721 32.5721L10.0281 26.8111C9.93065 26.7622 9.84917 26.6853 9.79364 26.5897C9.73811 26.4941 9.71094 26.384 9.71545 26.2728V14.8196C9.71524 14.7123 9.74444 14.6071 9.79973 14.5159C9.85501 14.4248 9.93415 14.3515 10.0281 14.3042L19.7545 8.57764C19.8394 8.52738 19.9357 8.50092 20.0337 8.50092C20.1317 8.50092 20.228 8.52738 20.3129 8.57764L30.0393 14.3042C30.1252 14.3523 30.1967 14.4237 30.2459 14.5105C30.2951 14.5973 30.3202 14.6963 30.3185 14.7967V26.2728C30.3202 26.3732 30.2951 26.4722 30.2459 26.559C30.1967 26.6459 30.1252 26.7172 30.0393 26.7653L20.3129 32.4919C20.226 32.5753 20.1174 32.631 20.0002 32.6522ZM10.8321 25.9865L20.0002 31.4153L29.1683 25.9865V15.1289L20.0002 9.70005L10.8321 15.1289V25.9865Z" fill="#210124"/>
<path d="M20.0002 9.60953C19.8522 9.60953 19.7101 9.5492 19.6054 9.4418C19.5007 9.33441 19.4419 9.18875 19.4419 9.03687V2.79489C19.4419 2.64301 19.5007 2.49735 19.6054 2.38996C19.7101 2.28256 19.8522 2.22223 20.0002 2.22223C20.1483 2.22223 20.2903 2.28256 20.395 2.38996C20.4998 2.49735 20.5586 2.64301 20.5586 2.79489V9.09414C20.5447 9.23588 20.4798 9.36723 20.3766 9.46253C20.2733 9.55783 20.1391 9.61024 20.0002 9.60953Z" fill="#210124"/>
<path d="M29.7267 15.3697C29.6048 15.3685 29.4867 15.3263 29.3904 15.2498C29.2941 15.1733 29.2248 15.0665 29.1932 14.9459C29.1615 14.8252 29.1693 14.6972 29.2152 14.5815C29.2611 14.4657 29.3427 14.3685 29.4475 14.3048L34.7183 11.1786C34.8475 11.1029 35.0005 11.0821 35.1445 11.1206C35.2885 11.1592 35.4121 11.2539 35.4888 11.3847C35.5588 11.5192 35.5758 11.6762 35.5364 11.8232C35.4969 11.9702 35.4039 12.0961 35.2766 12.1749L30.0058 15.2896C29.9225 15.3438 29.8254 15.3717 29.7267 15.3697Z" fill="#210124"/>
<path d="M34.9974 30.0069C34.9004 30.0061 34.805 29.9826 34.7182 29.9382L29.4474 26.812C29.3186 26.7361 29.2244 26.6108 29.1857 26.4637C29.147 26.3166 29.1668 26.1597 29.2408 26.0276C29.3149 25.8955 29.4371 25.799 29.5805 25.7592C29.724 25.7195 29.8769 25.7398 30.0058 25.8158L35.2766 28.9419C35.4031 29.0186 35.4958 29.1424 35.5353 29.2875C35.5748 29.4326 35.5582 29.5878 35.4887 29.7206C35.4374 29.8073 35.3653 29.8791 35.2793 29.9292C35.1933 29.9793 35.0963 30.006 34.9974 30.0069Z" fill="#210124"/>
<path d="M20.0002 38.8724C19.8522 38.8724 19.7101 38.8121 19.6054 38.7047C19.5007 38.5973 19.4419 38.4516 19.4419 38.2997V32.0807C19.4419 31.9288 19.5007 31.7831 19.6054 31.6757C19.7101 31.5683 19.8522 31.508 20.0002 31.508C20.1483 31.508 20.2903 31.5683 20.395 31.6757C20.4998 31.7831 20.5586 31.9288 20.5586 32.0807V38.3226C20.5528 38.4705 20.4914 38.6104 20.3874 38.7128C20.2833 38.8153 20.1445 38.8725 20.0002 38.8724Z" fill="#210124"/>
<path d="M5.00301 30.0069C4.90447 30.0051 4.80814 29.9767 4.7238 29.9244C4.63946 29.8721 4.57013 29.7978 4.52283 29.7092C4.48505 29.6448 4.46026 29.5733 4.44993 29.4989C4.4396 29.4246 4.44393 29.3488 4.46268 29.2762C4.48142 29.2036 4.5142 29.1356 4.55906 29.0762C4.60392 29.0168 4.65995 28.9672 4.72384 28.9305L10.0281 25.8158C10.157 25.7398 10.3099 25.7195 10.4534 25.7592C10.5968 25.799 10.719 25.8955 10.7931 26.0276C10.8671 26.1597 10.8869 26.3166 10.8482 26.4637C10.8095 26.6108 10.7153 26.7361 10.5865 26.812L5.28219 29.9382C5.19588 29.9838 5.10011 30.0074 5.00301 30.0069Z" fill="#210124"/>
<path d="M10.2738 15.3697C10.1867 15.3644 10.1023 15.3368 10.0282 15.2896L4.72387 12.1749C4.59633 12.0962 4.50389 11.9695 4.46632 11.8218C4.42875 11.6741 4.44905 11.5172 4.52286 11.3847C4.55872 11.3192 4.60703 11.2618 4.66495 11.2158C4.72286 11.1698 4.7892 11.1361 4.86001 11.1169C4.93083 11.0977 5.00469 11.0932 5.07722 11.1038C5.14974 11.1144 5.21945 11.1399 5.28222 11.1786L10.553 14.3048C10.6578 14.3685 10.7394 14.4657 10.7853 14.5814C10.8312 14.6972 10.839 14.8252 10.8073 14.9458C10.7757 15.0665 10.7064 15.1733 10.6101 15.2498C10.5138 15.3263 10.3957 15.3685 10.2738 15.3697Z" fill="#210124"/>
</svg>
