<svg width="40" height="40" viewBox="0 0 40 40" fill="none" xmlns="http://www.w3.org/2000/svg">
<g clip-path="url(#clip0_417:2619)">
<g clip-path="url(#clip1_417:2619)">
<path d="M3.97687 11.8553V30.0317L19.9936 39.1137L36.0231 30.0317V11.8553L19.9936 2.77331L3.97687 11.8553Z" fill="#1AA1FC"/>
<path d="M19.841 32.83C27.0216 32.83 32.8426 27.1139 32.8426 20.0628C32.8426 13.0116 27.0216 7.29556 19.841 7.29556C12.6603 7.29556 6.83929 13.0116 6.83929 20.0628C6.83929 27.1139 12.6603 32.83 19.841 32.83Z" fill="#1FD2E5"/>
<path d="M19.8409 29.7943C25.3142 29.7943 29.7512 25.4374 29.7512 20.0628C29.7512 14.6882 25.3142 10.3312 19.8409 10.3312C14.3676 10.3312 9.93066 14.6882 9.93066 20.0628C9.93066 25.4374 14.3676 29.7943 19.8409 29.7943Z" fill="#7CFEF0"/>
<path d="M19.841 31.131C26.0661 31.131 31.1125 26.1756 31.1125 20.0628C31.1125 13.9499 26.0661 8.99451 19.841 8.99451C13.6159 8.99451 8.56946 13.9499 8.56946 20.0628C8.56946 26.1756 13.6159 31.131 19.841 31.131Z" fill="#7CFEF0"/>
<path d="M19.841 31.131C26.0661 31.131 31.1125 26.1756 31.1125 20.0628C31.1125 13.9499 26.0661 8.99451 19.841 8.99451C13.6159 8.99451 8.56946 13.9499 8.56946 20.0628C8.56946 26.1756 13.6159 31.131 19.841 31.131Z" fill="#7CFEF0"/>
<path d="M19.841 29.457C25.1246 29.457 29.4077 25.2511 29.4077 20.0628C29.4077 14.8745 25.1246 10.6685 19.841 10.6685C14.5574 10.6685 10.2742 14.8745 10.2742 20.0628C10.2742 25.2511 14.5574 29.457 19.841 29.457Z" fill="#CFFFFE"/>
<path d="M19.841 27.8205C24.2041 27.8205 27.7412 24.3473 27.7412 20.0628C27.7412 15.7783 24.2041 12.305 19.841 12.305C15.4778 12.305 11.9407 15.7783 11.9407 20.0628C11.9407 24.3473 15.4778 27.8205 19.841 27.8205Z" fill="white"/>
<path d="M37.1807 14.3288H35.4124V27.7706H37.1807V14.3288Z" fill="#4F345A"/>
<path d="M37.1808 28.3952H35.4125C35.2438 28.3952 35.082 28.3294 34.9627 28.2122C34.8434 28.0951 34.7764 27.9362 34.7764 27.7706V14.3288C34.7764 14.1631 34.8434 14.0042 34.9627 13.8871C35.082 13.77 35.2438 13.7041 35.4125 13.7041H37.1808C37.3495 13.7041 37.5113 13.77 37.6306 13.8871C37.7499 14.0042 37.8169 14.1631 37.8169 14.3288V27.7706C37.8169 27.9362 37.7499 28.0951 37.6306 28.2122C37.5113 28.3294 37.3495 28.3952 37.1808 28.3952ZM36.0485 27.146H36.5447V14.9909H36.0485V27.146Z" fill="#210124"/>
<path d="M2.8065 27.7706H4.57483L4.57483 14.3288H2.8065L2.8065 27.7706Z" fill="#4F345A"/>
<path d="M4.58752 28.3952H2.8192C2.65049 28.3952 2.4887 28.3294 2.36941 28.2122C2.25012 28.0951 2.18311 27.9362 2.18311 27.7706V14.3288C2.18311 14.1631 2.25012 14.0042 2.36941 13.8871C2.4887 13.77 2.65049 13.7041 2.8192 13.7041H4.58752C4.75623 13.7041 4.91802 13.77 5.03731 13.8871C5.1566 14.0042 5.22361 14.1631 5.22361 14.3288V27.7706C5.22036 27.9352 5.15229 28.0923 5.0337 28.2087C4.91511 28.3252 4.75521 28.392 4.58752 28.3952ZM3.45528 27.146H3.95143V14.9909H3.45528V27.146Z" fill="#210124"/>
<path d="M20.8842 23.2733H19.1158V36.7151H20.8842V23.2733Z" fill="#4F345A"/>
<path d="M20.8842 37.3397H19.1158C18.9471 37.3397 18.7853 37.2739 18.666 37.1568C18.5468 37.0396 18.4797 36.8808 18.4797 36.7151V23.2733C18.4797 23.1076 18.5468 22.9488 18.666 22.8316C18.7853 22.7145 18.9471 22.6487 19.1158 22.6487H20.8842C20.9677 22.6487 21.0504 22.6648 21.1276 22.6962C21.2048 22.7276 21.2749 22.7736 21.3339 22.8316C21.393 22.8896 21.4399 22.9585 21.4718 23.0343C21.5038 23.1101 21.5202 23.1913 21.5202 23.2733V36.7151C21.5202 36.7971 21.5038 36.8784 21.4718 36.9541C21.4399 37.0299 21.393 37.0988 21.3339 37.1568C21.2749 37.2148 21.2048 37.2608 21.1276 37.2922C21.0504 37.3236 20.9677 37.3397 20.8842 37.3397ZM19.7519 36.0905H20.2481V23.8979H19.7519V36.0905Z" fill="#210124"/>
<path d="M36.7846 29.7485L35.9257 28.2307L23.9602 34.7597L24.8192 36.2776L36.7846 29.7485Z" fill="#4F345A"/>
<path d="M24.8279 36.9025H24.6625C24.5813 36.881 24.5055 36.8433 24.4398 36.7917C24.3742 36.7401 24.32 36.6758 24.2809 36.6027L23.4158 35.0786C23.3755 35.0065 23.3501 34.9272 23.3411 34.8454C23.3321 34.7636 23.3396 34.6809 23.3632 34.6019C23.3869 34.523 23.4262 34.4494 23.4789 34.3855C23.5315 34.3215 23.5966 34.2684 23.6702 34.2291L35.6287 27.7081C35.777 27.631 35.9486 27.6089 36.1122 27.6456C36.2699 27.701 36.4042 27.8065 36.4938 27.9455L37.3462 29.4695C37.4286 29.6137 37.4494 29.7841 37.4041 29.9433C37.3588 30.1026 37.251 30.2377 37.1045 30.319L25.1714 36.815C25.0665 36.8727 24.9482 36.9028 24.8279 36.9025ZM24.8279 35.0037L25.0696 35.4284L35.9213 29.507L35.6796 29.0823L24.8279 35.0037Z" fill="#210124"/>
<path d="M15.1589 36.2687L16.0178 34.7509L4.05242 28.2218L3.19349 29.7397L15.1589 36.2687Z" fill="#4F345A"/>
<path d="M15.1594 36.9025C15.0521 36.8968 14.9476 36.8668 14.8541 36.8151L2.89557 30.294C2.74928 30.2125 2.64097 30.0783 2.5935 29.9198C2.54603 29.7613 2.56311 29.5909 2.64113 29.4446L3.54438 27.9205C3.62796 27.7764 3.7645 27.6691 3.92603 27.6207C4.08931 27.579 4.26272 27.6014 4.40946 27.6831L16.3679 34.2041C16.5142 34.2857 16.6225 34.4199 16.67 34.5784C16.7175 34.7369 16.7004 34.9073 16.6224 35.0536L15.7573 36.5777C15.7181 36.6508 15.664 36.7151 15.5984 36.7667C15.5327 36.8183 15.4569 36.856 15.3756 36.8775L15.1594 36.9025ZM4.06597 29.507L14.9177 35.4284L15.1594 35.0037L4.30768 29.0823L4.06597 29.507Z" fill="#210124"/>
<path d="M4.45614 10.2124L5.31506 11.7302L18.8039 4.36991L17.945 2.85207L4.45614 10.2124Z" fill="#4F345A"/>
<path d="M5.29992 12.355C5.19993 12.3442 5.10398 12.3102 5.01995 12.2559C4.93591 12.2016 4.86619 12.1285 4.81649 12.0427L3.8878 10.5186C3.82418 10.3665 3.82418 10.1959 3.8878 10.0439C3.90967 9.96413 3.94808 9.88968 4.00062 9.82519C4.05316 9.7607 4.11869 9.70756 4.19313 9.66911L16.7495 2.82328C16.8439 2.7683 16.9515 2.73929 17.0612 2.73929C17.1709 2.73929 17.2786 2.7683 17.3729 2.82328L19.1667 3.83516C19.263 3.89261 19.3427 3.97325 19.3984 4.06944C19.454 4.16564 19.4838 4.2742 19.4847 4.38483C19.4841 4.49535 19.453 4.60364 19.3948 4.69822C19.3366 4.7928 19.2533 4.87013 19.154 4.922L5.61797 12.28C5.51964 12.3298 5.41054 12.3555 5.29992 12.355ZM5.29992 10.4561L5.54164 10.8934L17.5383 4.35984L17.0421 4.08501L5.29992 10.4561Z" fill="#210124"/>
<path d="M22.0617 2.85966L21.2028 4.37751L34.6917 11.7378L35.5506 10.22L22.0617 2.85966Z" fill="#4F345A"/>
<path d="M34.6873 12.355C34.5809 12.354 34.4763 12.3283 34.382 12.28L20.8969 4.922C20.7975 4.87013 20.7143 4.7928 20.656 4.69822C20.5978 4.60364 20.5667 4.49535 20.5661 4.38483C20.5645 4.27371 20.5932 4.16419 20.6491 4.06757C20.705 3.97094 20.7861 3.89072 20.8841 3.83516L22.627 2.82328C22.7237 2.76846 22.8334 2.7396 22.9451 2.7396C23.0567 2.7396 23.1664 2.76846 23.2631 2.82328L35.8577 9.66911C36.0053 9.75017 36.1149 9.88465 36.163 10.0439C36.1878 10.1228 36.1949 10.2061 36.184 10.288C36.173 10.37 36.1441 10.4486 36.0994 10.5186L35.2471 12.0427C35.1905 12.1389 35.1088 12.2186 35.0104 12.2735C34.912 12.3284 34.8005 12.3565 34.6873 12.355ZM22.4871 4.35984L34.4456 10.8934L34.6873 10.4561L22.996 4.08501L22.4871 4.35984Z" fill="#210124"/>
<path d="M36.7909 12.1359L35.9319 10.618L23.9665 17.147L24.8255 18.6649L36.7909 12.1359Z" fill="#4F345A"/>
<path d="M24.8279 19.2882H24.6625C24.5813 19.2668 24.5055 19.2291 24.4398 19.1775C24.3742 19.1259 24.32 19.0615 24.2809 18.9884L23.4158 17.4893C23.3755 17.4172 23.3501 17.338 23.3411 17.2562C23.3321 17.1744 23.3396 17.0916 23.3632 17.0127C23.3869 16.9337 23.4262 16.8602 23.4789 16.7962C23.5315 16.7322 23.5966 16.6791 23.6702 16.6399L35.6287 10.1063C35.7836 10.0439 35.9573 10.0439 36.1122 10.1063C36.2716 10.1517 36.4078 10.2543 36.4938 10.3937L37.3462 11.9177C37.3887 11.9887 37.4162 12.0674 37.4271 12.149C37.4379 12.2307 37.4319 12.3137 37.4093 12.393C37.3868 12.4723 37.3481 12.5463 37.2957 12.6106C37.2434 12.6749 37.1783 12.7282 37.1045 12.7672L25.1714 19.2008C25.0692 19.2649 24.949 19.2956 24.8279 19.2882ZM24.8279 17.3894L25.0696 17.8141L35.9213 11.8927L35.6796 11.468L24.8279 17.3894Z" fill="#210124"/>
<path d="M15.1652 18.6528L16.0242 17.135L4.05876 10.606L3.19984 12.1238L15.1652 18.6528Z" fill="#4F345A"/>
<path d="M15.1594 19.2882C15.0511 19.2887 14.9451 19.2583 14.8541 19.2008L2.89557 12.6798C2.74928 12.5982 2.64097 12.464 2.5935 12.3055C2.54603 12.147 2.56311 11.9766 2.64113 11.8303L3.54438 10.3062C3.57729 10.2341 3.62468 10.1693 3.6837 10.1157C3.74272 10.062 3.81216 10.0206 3.88787 9.99391C4.04273 9.93143 4.21643 9.93143 4.37129 9.99391L16.3298 16.5274C16.4034 16.5666 16.4685 16.6198 16.5212 16.6838C16.5738 16.7477 16.6131 16.8213 16.6368 16.9002C16.6604 16.9792 16.6679 17.0619 16.6589 17.1437C16.6499 17.2255 16.6245 17.3048 16.5842 17.3769L15.7191 18.8885C15.68 18.9616 15.6259 19.0259 15.5602 19.0775C15.4945 19.1291 15.4187 19.1668 15.3375 19.1883L15.1594 19.2882ZM4.06597 11.8927L14.9177 17.8141L15.1594 17.3894L4.30768 11.468L4.06597 11.8927Z" fill="#210124"/>
<path d="M1.63605 25.9467V30.6188L5.75791 32.9674V28.2828L1.63605 25.9467Z" fill="#7E6789"/>
<path d="M24.777 3.33547L19.9936 0.624619L15.223 3.33547" fill="#7E6789"/>
<path d="M15.223 3.33547L19.9936 6.04632L24.777 3.33547" fill="#7E6789"/>
<path d="M19.9936 14.6411L15.223 17.3519V22.7736L19.9936 25.4845L24.777 22.7736V17.3519L19.9936 14.6411Z" fill="#7E6789"/>
<path d="M19.9937 20.0628V25.4845L24.777 22.7736V17.3519L19.9937 20.0628Z" fill="#41294C"/>
<path d="M19.9936 20.0628V25.4845L15.223 22.7736V17.3519L19.9936 20.0628Z" fill="#4F345A"/>
<path d="M19.9937 26.1091C19.8823 26.1035 19.7737 26.0736 19.6756 26.0216L14.9049 23.3108C14.807 23.2583 14.7256 23.1805 14.6695 23.0858C14.6135 22.9911 14.5849 22.8831 14.5869 22.7736V17.3519C14.5853 17.2408 14.614 17.1313 14.6699 17.0347C14.7258 16.938 14.8069 16.8578 14.9049 16.8023L19.6756 14.0914C19.7741 14.0421 19.8831 14.0163 19.9937 14.0163C20.1042 14.0163 20.2132 14.0421 20.3117 14.0914L25.0951 16.8023C25.1931 16.8578 25.2743 16.938 25.3302 17.0347C25.3861 17.1313 25.4147 17.2408 25.4131 17.3519V22.7736C25.4151 22.8831 25.3866 22.9911 25.3305 23.0858C25.2744 23.1805 25.193 23.2583 25.0951 23.3108L20.3117 26.0216C20.2149 26.0767 20.1055 26.1068 19.9937 26.1091ZM15.8591 22.3614L19.9937 24.7099L24.141 22.3614V17.7142L19.9937 15.3531L15.8591 17.7142V22.3614Z" fill="#210124"/>
<path d="M19.9936 20.6874C19.8823 20.6818 19.7737 20.6519 19.6756 20.5999L14.9049 17.8891C14.7583 17.8077 14.6506 17.6726 14.6053 17.5134C14.5599 17.3542 14.5808 17.1838 14.6632 17.0396C14.7507 16.8972 14.8906 16.7932 15.0539 16.7491C15.2172 16.7049 15.3915 16.7239 15.541 16.8023L19.9936 19.3007L24.459 16.8023C24.6058 16.7213 24.7793 16.7009 24.9415 16.7454C25.1036 16.7899 25.2412 16.8957 25.324 17.0396C25.3671 17.1098 25.3953 17.1878 25.4071 17.2689C25.4189 17.3501 25.4139 17.4327 25.3926 17.5119C25.3712 17.5911 25.3339 17.6654 25.2828 17.7301C25.2317 17.7949 25.1678 17.849 25.0951 17.8891L20.3117 20.5999C20.2149 20.655 20.1055 20.6851 19.9936 20.6874Z" fill="#210124"/>
<path d="M19.9936 26.1091C19.826 26.1059 19.666 26.039 19.5475 25.9226C19.4289 25.8061 19.3608 25.6491 19.3575 25.4845V20.0628C19.3575 19.8971 19.4246 19.7382 19.5438 19.6211C19.6631 19.504 19.8249 19.4381 19.9936 19.4381C20.1623 19.4381 20.3241 19.504 20.4434 19.6211C20.5627 19.7382 20.6297 19.8971 20.6297 20.0628V25.4845C20.6297 25.6501 20.5627 25.809 20.4434 25.9261C20.3241 26.0433 20.1623 26.1091 19.9936 26.1091Z" fill="#210124"/>
<path d="M5.75791 7.99512L1.63605 10.3312V15.0158L5.75791 17.3519V12.6673L9.89249 10.3312L5.75791 7.99512Z" fill="#7E6789"/>
<path d="M5.75791 12.6673V17.3519L1.63605 15.0158V10.3312L5.75791 12.6673Z" fill="#4F345A"/>
<path d="M5.75793 17.9765C5.64565 17.9773 5.53543 17.947 5.43988 17.8891L1.31802 15.553C1.21988 15.4945 1.13895 15.4119 1.08319 15.3133C1.02742 15.2147 0.998747 15.1036 0.999977 14.9909V10.3312C1.00065 10.2222 1.03036 10.1153 1.08615 10.021C1.14195 9.92679 1.22188 9.84853 1.31802 9.79403L5.43988 7.49543C5.53808 7.43826 5.65013 7.40809 5.76429 7.40809C5.87845 7.40809 5.9905 7.43826 6.08869 7.49543L10.1978 9.79403C10.3444 9.87538 10.4522 10.0105 10.4975 10.1697C10.5428 10.329 10.522 10.4993 10.4395 10.6435C10.3522 10.7862 10.2114 10.8896 10.0473 10.9316C9.88326 10.9737 9.70897 10.951 9.56174 10.8684L5.75793 8.74467L2.27216 10.6935V14.6536L6.08869 16.8023C6.23371 16.8882 6.33961 17.0255 6.38459 17.1859C6.42956 17.3463 6.41017 17.5175 6.33041 17.6642C6.27079 17.7606 6.18666 17.8401 6.08629 17.8948C5.98591 17.9496 5.87275 17.9777 5.75793 17.9765Z" fill="#210124"/>
<path d="M5.75791 13.2919C5.64747 13.291 5.53869 13.2654 5.43987 13.2169L1.31801 10.8684C1.24169 10.8284 1.17467 10.7733 1.12122 10.7066C1.06776 10.6398 1.02903 10.5629 1.00749 10.4806C0.985958 10.3984 0.982083 10.3126 0.996118 10.2289C1.01015 10.1451 1.04179 10.065 1.08902 9.99391C1.12986 9.92244 1.1849 9.85976 1.25088 9.80957C1.31686 9.75938 1.39243 9.72272 1.47311 9.70175C1.55379 9.68078 1.63793 9.67593 1.72055 9.68749C1.80318 9.69905 1.88259 9.72678 1.9541 9.76904L5.77064 11.9302L9.58717 9.76904C9.73194 9.69404 9.90022 9.67553 10.0583 9.71723C10.2164 9.75893 10.3525 9.85776 10.4395 9.99391C10.4821 10.0649 10.5096 10.1435 10.5204 10.2252C10.5313 10.3069 10.5253 10.3898 10.5027 10.4691C10.4801 10.5484 10.4415 10.6225 10.3891 10.6868C10.3367 10.7511 10.2717 10.8044 10.1978 10.8434L6.08868 13.2169C5.98715 13.2703 5.87299 13.2962 5.75791 13.2919Z" fill="#210124"/>
<path d="M5.75792 17.9765C5.59023 17.9733 5.43033 17.9065 5.31174 17.7901C5.19314 17.6736 5.12508 17.5166 5.12183 17.3519V12.6673C5.12508 12.5026 5.19314 12.3456 5.31174 12.2291C5.43033 12.1127 5.59023 12.0459 5.75792 12.0427C5.92662 12.0427 6.08841 12.1085 6.2077 12.2256C6.32699 12.3427 6.394 12.5016 6.394 12.6673V17.3519C6.394 17.5176 6.32699 17.6765 6.2077 17.7936C6.08841 17.9107 5.92662 17.9765 5.75792 17.9765Z" fill="#210124"/>
<path d="M5.75793 33.592C5.64662 33.5864 5.53797 33.5565 5.43989 33.5046L1.31802 31.231C1.21203 31.1683 1.12604 31.0778 1.06982 30.9696C1.0136 30.8614 0.989407 30.7399 0.999979 30.6188V25.9467C0.999979 25.781 1.067 25.6221 1.18629 25.505C1.30558 25.3879 1.46737 25.3221 1.63607 25.3221C1.80477 25.3221 1.96656 25.3879 2.08585 25.505C2.20514 25.6221 2.27216 25.781 2.27216 25.9467V30.2566L6.0887 32.4802C6.23371 32.5662 6.33962 32.7035 6.38459 32.8639C6.42956 33.0242 6.41017 33.1954 6.33041 33.3422C6.26344 33.427 6.1761 33.4943 6.0762 33.5379C5.9763 33.5815 5.86695 33.6001 5.75793 33.592Z" fill="#210124"/>
<path d="M5.75794 28.9074C5.64567 28.9081 5.53545 28.8778 5.43989 28.8199L1.31803 26.4839C1.23693 26.4479 1.16442 26.3956 1.10519 26.3303C1.04596 26.2651 1.00134 26.1884 0.9742 26.1051C0.947061 26.0219 0.938013 25.934 0.947642 25.8471C0.95727 25.7602 0.985359 25.6763 1.03009 25.6007C1.07483 25.5252 1.13521 25.4597 1.20734 25.4085C1.27947 25.3573 1.36174 25.3215 1.44884 25.3035C1.53593 25.2854 1.6259 25.2856 1.71294 25.3038C1.79998 25.3221 1.88214 25.3581 1.95412 25.4095L6.08871 27.7456C6.23281 27.8292 6.33842 27.9643 6.38346 28.1226C6.42851 28.2809 6.4095 28.4502 6.33042 28.5951C6.27081 28.6914 6.18667 28.7709 6.0863 28.8257C5.98592 28.8804 5.87276 28.9086 5.75794 28.9074Z" fill="#210124"/>
<path d="M5.75792 33.592C5.6466 33.5864 5.53796 33.5565 5.43987 33.5046C5.34538 33.4483 5.26676 33.3696 5.2112 33.2758C5.15564 33.1819 5.12492 33.0759 5.12183 32.9674V28.2828C5.12508 28.1181 5.19314 27.9611 5.31174 27.8446C5.43033 27.7282 5.59023 27.6613 5.75792 27.6581C5.92662 27.6581 6.08841 27.724 6.2077 27.8411C6.32699 27.9582 6.394 28.1171 6.394 28.2828V31.8681L7.05554 31.4933C7.20124 31.4096 7.37442 31.385 7.53831 31.4246C7.7022 31.4643 7.8439 31.5651 7.93334 31.7057C8.01744 31.8502 8.04056 32.0214 7.99776 32.1825C7.95496 32.3436 7.84965 32.4818 7.70435 32.5676L6.08868 33.5046C5.98676 33.5584 5.87356 33.5883 5.75792 33.592Z" fill="#210124"/>
<path d="M38.3639 25.9467V30.6188L34.2293 32.9674V28.2828L38.3639 25.9467Z" fill="#4F345A"/>
<path d="M34.2293 7.99512L38.3639 10.3312V15.0158L34.2293 17.3519V12.6673L30.1074 10.3312L34.2293 7.99512Z" fill="#7E6789"/>
<path d="M34.2293 12.6673V17.3519L38.3639 15.0158V10.3312L34.2293 12.6673Z" fill="#4F345A"/>
<path d="M34.2293 17.9765C34.1183 17.9759 34.0094 17.9467 33.9135 17.8919C33.8175 17.8371 33.7378 17.7586 33.6823 17.6642C33.5982 17.5197 33.5751 17.3485 33.6179 17.1874C33.6607 17.0263 33.766 16.8881 33.9113 16.8023L37.7278 14.6536V10.6935L34.2293 8.74467L30.4128 10.8934C30.3408 10.9448 30.2587 10.9808 30.1716 10.999C30.0846 11.0173 29.9946 11.0174 29.9075 10.9994C29.8204 10.9814 29.7382 10.9456 29.666 10.8944C29.5939 10.8432 29.5335 10.7777 29.4888 10.7021C29.444 10.6266 29.4159 10.5427 29.4063 10.4558C29.3967 10.3689 29.4057 10.281 29.4329 10.1977C29.46 10.1145 29.5046 10.0378 29.5639 9.97255C29.6231 9.90731 29.6956 9.85501 29.7767 9.81901L33.9113 7.49543C34.008 7.44061 34.1177 7.41175 34.2293 7.41175C34.341 7.41175 34.4507 7.44061 34.5474 7.49543L38.682 9.83151C38.7781 9.88601 38.858 9.96426 38.9138 10.0585C38.9696 10.1527 38.9993 10.2597 39 10.3687V14.9909C38.9969 15.0994 38.9662 15.2054 38.9106 15.2992C38.8551 15.393 38.7765 15.4717 38.682 15.528L34.5474 17.8641C34.4561 17.9336 34.3448 17.973 34.2293 17.9765Z" fill="#210124"/>
<path d="M34.2293 13.2919C34.1189 13.291 34.0101 13.2654 33.9113 13.2169L29.7894 10.8684C29.7083 10.8324 29.6358 10.7801 29.5766 10.7148C29.5173 10.6496 29.4727 10.5729 29.4456 10.4896C29.4184 10.4064 29.4094 10.3185 29.419 10.2316C29.4286 10.1447 29.4567 10.0608 29.5015 9.98524C29.5462 9.90968 29.6066 9.84419 29.6787 9.79298C29.7509 9.74178 29.8331 9.70601 29.9202 9.68799C30.0073 9.66997 30.0973 9.6701 30.1843 9.68836C30.2714 9.70663 30.3535 9.74263 30.4255 9.79403L34.242 11.9552L38.0586 9.79403C38.2021 9.73035 38.3645 9.7212 38.5145 9.76835C38.6645 9.81549 38.7913 9.91559 38.8704 10.0493C38.9496 10.183 38.9754 10.3407 38.943 10.492C38.9105 10.6433 38.822 10.7774 38.6947 10.8684L34.5601 13.2169C34.4586 13.2703 34.3444 13.2962 34.2293 13.2919Z" fill="#210124"/>
<path d="M34.2293 17.9765C34.0616 17.9733 33.9017 17.9065 33.7831 17.7901C33.6645 17.6736 33.5965 17.5166 33.5932 17.3519V12.6673C33.5965 12.5026 33.6645 12.3456 33.7831 12.2291C33.9017 12.1127 34.0616 12.0459 34.2293 12.0427C34.398 12.0427 34.5598 12.1085 34.6791 12.2256C34.7984 12.3427 34.8654 12.5016 34.8654 12.6673V17.3519C34.8654 17.5176 34.7984 17.6765 34.6791 17.7936C34.5598 17.9107 34.398 17.9765 34.2293 17.9765Z" fill="#210124"/>
<path d="M24.777 3.96009C24.6647 3.96084 24.5545 3.93053 24.459 3.87264L19.9936 1.37416L15.541 3.87264C15.3938 3.95522 15.2195 3.97792 15.0554 3.9359C14.8913 3.89387 14.7506 3.79045 14.6632 3.64778C14.6206 3.57681 14.5931 3.49814 14.5823 3.41648C14.5714 3.33483 14.5775 3.25186 14.6 3.17255C14.6226 3.09324 14.6612 3.01921 14.7136 2.95491C14.766 2.8906 14.8311 2.83733 14.9049 2.7983L19.6756 0.0874482C19.7723 0.0326264 19.882 0.00376511 19.9936 0.00376511C20.1053 0.00376511 20.215 0.0326264 20.3117 0.0874482L25.0951 2.7983C25.2144 2.86785 25.3074 2.97385 25.3597 3.10012C25.412 3.22639 25.4208 3.366 25.3848 3.49765C25.3488 3.6293 25.2698 3.74576 25.1601 3.82925C25.0504 3.91275 24.9158 3.9587 24.777 3.96009Z" fill="#210124"/>
<path d="M19.9936 6.67093C19.8813 6.67168 19.7711 6.64138 19.6756 6.58349L14.9049 3.87264C14.7583 3.79129 14.6506 3.65619 14.6053 3.49695C14.5599 3.33772 14.5808 3.16734 14.6632 3.02316C14.7506 2.88048 14.8914 2.77706 15.0554 2.73504C15.2195 2.69301 15.3938 2.71572 15.541 2.79829L19.9936 5.29677L24.459 2.79829C24.6025 2.73461 24.7649 2.72546 24.9149 2.77261C25.0649 2.81976 25.1917 2.91986 25.2708 3.05354C25.35 3.18722 25.3758 3.34497 25.3433 3.49628C25.3109 3.64759 25.2224 3.78169 25.0951 3.87264L20.3117 6.58349C20.2174 6.64412 20.1063 6.67466 19.9936 6.67093Z" fill="#210124"/>
<path d="M19.9937 34.9662V40.3879L24.777 37.677V32.2553L19.9937 34.9662Z" fill="#41294C"/>
<path d="M19.9936 34.9662V40.3879L15.223 37.677V32.2553L19.9936 34.9662Z" fill="#4F345A"/>
<path d="M19.9936 41C19.8832 40.9991 19.7744 40.9735 19.6756 40.925L14.9049 38.2142C14.8088 38.1597 14.7288 38.0814 14.673 37.9872C14.6172 37.893 14.5875 37.786 14.5869 37.677V32.2553C14.5869 32.0897 14.6539 31.9308 14.7732 31.8137C14.8924 31.6965 15.0542 31.6307 15.2229 31.6307C15.3916 31.6307 15.5534 31.6965 15.6727 31.8137C15.792 31.9308 15.859 32.0897 15.859 32.2553V37.3148L19.9936 39.6633L24.1409 37.3148V32.2553C24.1409 32.0897 24.2079 31.9308 24.3272 31.8137C24.4465 31.6965 24.6083 31.6307 24.777 31.6307C24.9457 31.6307 25.1075 31.6965 25.2268 31.8137C25.3461 31.9308 25.4131 32.0897 25.4131 32.2553V37.677C25.4124 37.786 25.3827 37.893 25.3269 37.9872C25.2711 38.0814 25.1912 38.1597 25.0951 38.2142L20.3117 40.925C20.2139 40.9763 20.1044 41.0021 19.9936 41Z" fill="#210124"/>
<path d="M19.9936 35.5908C19.8823 35.5852 19.7737 35.5553 19.6756 35.5034L14.9049 32.7925C14.7583 32.7112 14.6506 32.5761 14.6053 32.4168C14.5599 32.2576 14.5808 32.0872 14.6632 31.943C14.7485 31.7982 14.8883 31.6922 15.0526 31.6478C15.2168 31.6034 15.3922 31.6242 15.541 31.7057L19.9936 34.2041L24.459 31.7057C24.6057 31.6228 24.78 31.6007 24.9434 31.644C25.1069 31.6873 25.2461 31.7927 25.3304 31.9368C25.4148 32.0809 25.4373 32.252 25.3932 32.4125C25.3491 32.573 25.2418 32.7097 25.0951 32.7925L20.3117 35.5034C20.2149 35.5584 20.1055 35.5885 19.9936 35.5908Z" fill="#210124"/>
<path d="M19.9936 41C19.8249 41 19.6631 40.9342 19.5438 40.817C19.4246 40.6999 19.3575 40.541 19.3575 40.3754V34.9787C19.3575 34.813 19.4246 34.6541 19.5438 34.537C19.6631 34.4199 19.8249 34.354 19.9936 34.354C20.1623 34.354 20.3241 34.4199 20.4434 34.537C20.5627 34.6541 20.6297 34.813 20.6297 34.9787V40.3879C20.6264 40.5514 20.5579 40.707 20.439 40.8215C20.32 40.9359 20.1602 41 19.9936 41Z" fill="#210124"/>
<path d="M19.9936 41C19.8832 40.9991 19.7744 40.9735 19.6756 40.925L14.9049 38.2142C14.8088 38.1597 14.7288 38.0814 14.673 37.9872C14.6172 37.893 14.5875 37.786 14.5869 37.677V32.2553C14.5869 32.0897 14.6539 31.9308 14.7732 31.8137C14.8924 31.6965 15.0542 31.6307 15.2229 31.6307C15.3916 31.6307 15.5534 31.6965 15.6727 31.8137C15.792 31.9308 15.859 32.0897 15.859 32.2553V37.3148L19.9936 39.6633L24.1409 37.3148V32.2553C24.1409 32.0897 24.2079 31.9308 24.3272 31.8137C24.4465 31.6965 24.6083 31.6307 24.777 31.6307C24.9457 31.6307 25.1075 31.6965 25.2268 31.8137C25.3461 31.9308 25.4131 32.0897 25.4131 32.2553V37.677C25.4124 37.786 25.3827 37.893 25.3269 37.9872C25.2711 38.0814 25.1912 38.1597 25.0951 38.2142L20.3117 40.925C20.2139 40.9763 20.1044 41.0021 19.9936 41Z" fill="#210124"/>
<path d="M19.9936 35.5908C19.8823 35.5852 19.7737 35.5553 19.6756 35.5034L14.9049 32.7925C14.7583 32.7112 14.6506 32.5761 14.6053 32.4168C14.5599 32.2576 14.5808 32.0872 14.6632 31.943C14.7485 31.7982 14.8883 31.6922 15.0526 31.6478C15.2168 31.6034 15.3922 31.6242 15.541 31.7057L19.9936 34.2041L24.459 31.7057C24.6057 31.6228 24.78 31.6007 24.9434 31.644C25.1069 31.6873 25.2461 31.7927 25.3304 31.9368C25.4148 32.0809 25.4373 32.252 25.3932 32.4125C25.3491 32.573 25.2418 32.7097 25.0951 32.7925L20.3117 35.5034C20.2149 35.5584 20.1055 35.5885 19.9936 35.5908Z" fill="#210124"/>
<path d="M19.9936 41C19.8249 41 19.6631 40.9342 19.5438 40.817C19.4246 40.6999 19.3575 40.541 19.3575 40.3754V34.9787C19.3575 34.813 19.4246 34.6541 19.5438 34.537C19.6631 34.4199 19.8249 34.354 19.9936 34.354C20.1623 34.354 20.3241 34.4199 20.4434 34.537C20.5627 34.6541 20.6297 34.813 20.6297 34.9787V40.3879C20.6264 40.5514 20.5579 40.707 20.439 40.8215C20.32 40.9359 20.1602 41 19.9936 41Z" fill="#210124"/>
<path d="M34.2293 33.592C34.1183 33.5914 34.0094 33.5622 33.9135 33.5074C33.8175 33.4526 33.7378 33.3741 33.6823 33.2797C33.5982 33.1351 33.5751 32.964 33.6179 32.8029C33.6607 32.6418 33.766 32.5035 33.9113 32.4177L37.7278 30.2565V25.9467C37.7278 25.781 37.7948 25.6221 37.9141 25.505C38.0334 25.3879 38.1952 25.3221 38.3639 25.3221C38.5326 25.3221 38.6944 25.3879 38.8137 25.505C38.933 25.6221 39 25.781 39 25.9467V30.6188C38.999 30.7295 38.9693 30.838 38.9137 30.9342C38.858 31.0304 38.7782 31.1111 38.682 31.1685L34.5474 33.5046C34.4506 33.5597 34.3412 33.5897 34.2293 33.592Z" fill="#210124"/>
<path d="M34.2293 28.9074C34.0905 28.906 33.956 28.86 33.8462 28.7765C33.7365 28.693 33.6576 28.5766 33.6215 28.4449C33.5855 28.3133 33.5943 28.1737 33.6466 28.0474C33.6989 27.9211 33.7919 27.8151 33.9113 27.7456L38.0459 25.4095C38.1894 25.3458 38.3518 25.3367 38.5018 25.3838C38.6518 25.431 38.7786 25.5311 38.8577 25.6648C38.9369 25.7984 38.9627 25.9562 38.9303 26.1075C38.8978 26.2588 38.8093 26.3929 38.682 26.4839L34.5474 28.8199C34.4531 28.8806 34.342 28.9111 34.2293 28.9074Z" fill="#210124"/>
<path d="M34.2293 33.592C34.118 33.5864 34.0093 33.5565 33.9112 33.5046L32.2956 32.5676C32.2145 32.5317 32.142 32.4793 32.0827 32.4141C32.0235 32.3489 31.9789 32.2721 31.9517 32.1889C31.9246 32.1057 31.9156 32.0178 31.9252 31.9309C31.9348 31.844 31.9629 31.7601 32.0076 31.6845C32.0524 31.609 32.1128 31.5435 32.1849 31.4923C32.257 31.4411 32.3393 31.4053 32.4264 31.3873C32.5135 31.3692 32.6034 31.3694 32.6905 31.3876C32.7775 31.4059 32.8597 31.4419 32.9317 31.4933L33.5932 31.8681V28.2828C33.5965 28.1181 33.6645 27.9611 33.7831 27.8446C33.9017 27.7282 34.0616 27.6613 34.2293 27.6581C34.398 27.6581 34.5598 27.724 34.6791 27.8411C34.7984 27.9582 34.8654 28.1171 34.8654 28.2828V32.9674C34.8647 33.0764 34.835 33.1833 34.7792 33.2776C34.7234 33.3718 34.6435 33.4501 34.5473 33.5046C34.4506 33.5597 34.3411 33.5897 34.2293 33.592Z" fill="#210124"/>
</g>
</g>
<defs>
<clipPath id="clip0_417:2619">
<rect width="40" height="40" fill="white"/>
</clipPath>
<clipPath id="clip1_417:2619">
<rect width="38" height="41" fill="white" transform="translate(1)"/>
</clipPath>
</defs>
</svg>
