<svg width="40" height="40" viewBox="0 0 40 40" fill="none" xmlns="http://www.w3.org/2000/svg">
<g clip-path="url(#clip0)">
<path d="M29.4849 15.9665H22.2136L28.0804 2.793H16.1316L8.55457 19.7793H15.8371L11.7711 38.3067L29.4849 15.9665Z" fill="#FFBD59"/>
<path d="M15.8371 19.2314H20.1863L11.7711 38.3067L15.8371 19.2314Z" fill="#DD883C"/>
<path d="M23.7766 2.793L17.3888 16.4688L22.1004 16.5145L28.0805 2.793H23.7766Z" fill="#DD883C"/>
<path d="M11.7711 38.8889C11.689 38.9061 11.6041 38.9061 11.522 38.8889C11.4031 38.8234 11.3114 38.7172 11.2636 38.5894C11.2158 38.4616 11.2151 38.3208 11.2615 38.1926L15.1802 20.3501H8.55457C8.46021 20.3479 8.36774 20.323 8.28496 20.2773C8.20217 20.2316 8.13149 20.1665 8.07888 20.0875C8.03426 20.0032 8.01093 19.9091 8.01093 19.8136C8.01093 19.718 8.03426 19.6239 8.07888 19.5396L15.6106 2.55328C15.6576 2.45418 15.7315 2.37051 15.8237 2.31193C15.9159 2.25335 16.0226 2.22225 16.1316 2.22223H28.0804C28.1752 2.22239 28.2684 2.24651 28.3515 2.29238C28.4346 2.33825 28.505 2.40441 28.5561 2.48479C28.6007 2.56911 28.6241 2.6632 28.6241 2.75876C28.6241 2.85432 28.6007 2.94841 28.5561 3.03273L23.0857 15.3957H29.4849C29.591 15.3962 29.6949 15.4268 29.7847 15.4839C29.8744 15.5411 29.9464 15.6225 29.9925 15.7189C30.0385 15.8153 30.0568 15.9228 30.0451 16.0292C30.0335 16.1355 29.9924 16.2365 29.9266 16.3204L12.2128 38.672C12.159 38.7381 12.0917 38.7917 12.0155 38.8291C11.9393 38.8665 11.8559 38.8869 11.7711 38.8889ZM9.43799 19.2085H15.7918C15.8756 19.2098 15.9582 19.2288 16.0343 19.2641C16.1103 19.2995 16.1782 19.3506 16.2335 19.414C16.285 19.4835 16.3217 19.563 16.3412 19.6475C16.3607 19.732 16.3626 19.8196 16.3468 19.9049L12.8471 36.035L28.307 16.5373H22.2136C22.1189 16.5371 22.0257 16.513 21.9426 16.4671C21.8595 16.4213 21.7891 16.3551 21.7379 16.2747C21.6933 16.1904 21.67 16.0963 21.67 16.0008C21.67 15.9052 21.6933 15.8111 21.7379 15.7268L27.2083 3.36378H16.494L9.43799 19.2085Z" fill="#210124"/>
<path d="M28.0804 26.9597L28.1937 27.3022C28.8066 29.3276 29.9214 31.1623 31.4329 32.6332C29.9397 34.1042 28.8442 35.9353 28.2503 37.9528L28.137 38.2953L28.0351 37.9528C27.425 35.9294 26.3097 34.0977 24.7959 32.6332C26.2819 31.1655 27.3765 29.3437 27.9785 27.3364L28.0804 26.9597Z" fill="#FFBD59"/>
<path d="M28.0804 38.8661C27.9627 38.8652 27.8481 38.8273 27.7527 38.7578C27.6573 38.6882 27.5858 38.5904 27.5481 38.478L27.4348 38.1355C26.8586 36.2 25.7977 34.4466 24.3542 33.0442C24.2976 32.9895 24.2524 32.9239 24.2213 32.8514C24.1902 32.7789 24.1738 32.7008 24.173 32.6218C24.1731 32.5427 24.1893 32.4644 24.2204 32.3918C24.2516 32.3192 24.2971 32.2537 24.3542 32.1994C25.7961 30.8002 26.8569 29.0509 27.4348 27.1195L27.5481 26.777C27.5944 26.6722 27.6699 26.5832 27.7654 26.5207C27.8608 26.4582 27.9722 26.425 28.0861 26.425C28.1999 26.425 28.3113 26.4582 28.4068 26.5207C28.5023 26.5832 28.5777 26.6722 28.6241 26.777L28.7373 27.1195C29.3157 29.0481 30.3721 30.7964 31.8066 32.1994C31.866 32.2519 31.9131 32.317 31.9445 32.39C31.9758 32.4631 31.9906 32.5422 31.9879 32.6218C31.9891 32.7011 31.9736 32.7798 31.9423 32.8526C31.9111 32.9255 31.8648 32.9907 31.8066 33.0442C30.3721 34.4472 29.3157 36.1955 28.7373 38.1241L28.6241 38.4665C28.5862 38.582 28.5134 38.6827 28.4159 38.7543C28.3184 38.826 28.2011 38.8651 28.0804 38.8661ZM25.5547 32.6332C26.638 33.7891 27.4949 35.1408 28.0804 36.6172C28.6741 35.1424 29.5343 33.7914 30.6174 32.6332C29.5368 31.473 28.6768 30.1226 28.0804 28.6492C27.4949 30.1256 26.638 31.4773 25.5547 32.6332Z" fill="#210124"/>
<path d="M5.80235 5.07611L5.87031 5.27017C6.21457 6.42037 6.84639 7.46207 7.7051 8.29529C6.84544 9.1413 6.21395 10.1942 5.87031 11.3547L5.80235 11.5487L5.7344 11.3547C5.39075 10.1942 4.75927 9.1413 3.8996 8.29529C4.75831 7.46207 5.39013 6.42037 5.7344 5.27017L5.80235 5.07611Z" fill="#FFBD59"/>
<path d="M5.80236 12.0967C5.68127 12.0974 5.56313 12.059 5.46529 11.9871C5.36744 11.9152 5.29504 11.8135 5.25872 11.6971L5.20209 11.5031C4.88165 10.446 4.30112 9.48781 3.51453 8.71766C3.45743 8.66336 3.41192 8.59791 3.38076 8.52529C3.3496 8.45267 3.33346 8.37441 3.33331 8.29529C3.34476 8.15453 3.40967 8.02367 3.51453 7.92999C4.3081 7.14287 4.88899 6.16444 5.20209 5.08753L5.25872 4.89346C5.29995 4.77526 5.37657 4.67287 5.47801 4.60044C5.57945 4.52801 5.7007 4.48911 5.82501 4.48911C5.94933 4.48911 6.07058 4.52801 6.17201 4.60044C6.27345 4.67287 6.35008 4.77526 6.39131 4.89346V5.08753C6.7034 6.1675 7.28887 7.14707 8.0902 7.92999C8.14677 7.98469 8.19195 8.05023 8.22306 8.12276C8.25418 8.19529 8.27062 8.27335 8.27141 8.35237C8.27127 8.43148 8.25512 8.50974 8.22396 8.58237C8.19281 8.65499 8.14729 8.72044 8.0902 8.77474C7.31161 9.52881 6.73163 10.4665 6.40264 11.5031V11.6971C6.36399 11.8235 6.28301 11.9324 6.17353 12.0053C6.06404 12.0782 5.93285 12.1105 5.80236 12.0967ZM4.66977 8.29529C5.12304 8.79872 5.50426 9.36355 5.80236 9.97337C6.10047 9.36355 6.48169 8.79872 6.93495 8.29529C6.48174 7.79602 6.10047 7.23496 5.80236 6.62862C5.51124 7.23359 5.13765 7.79458 4.69242 8.29529H4.66977Z" fill="#210124"/>
<path d="M32.7807 4.50534L32.86 4.73365C33.2731 6.09033 34.0259 7.31693 35.0459 8.2953C33.9961 9.27272 33.2157 10.5077 32.7807 11.8798V12.1195L32.7127 11.8798C32.292 10.5173 31.5362 9.2842 30.5155 8.2953C31.522 7.3031 32.2624 6.06983 32.6674 4.71082L32.7807 4.50534Z" fill="#FFBD59"/>
<path d="M32.7807 12.6903C32.6606 12.6923 32.5433 12.6542 32.447 12.5819C32.3507 12.5096 32.2808 12.4072 32.2483 12.2907L32.1691 12.0624C31.7864 10.7919 31.0887 9.64071 30.1417 8.71767C30.0846 8.66337 30.0391 8.59791 30.008 8.52529C29.9768 8.45267 29.9607 8.37441 29.9605 8.29529C29.9637 8.16157 30.0116 8.03285 30.0964 7.93C31.0591 6.98787 31.7583 5.80664 32.1238 4.50534L32.203 4.27703C32.2382 4.15299 32.3125 4.04386 32.4147 3.96618C32.5168 3.88849 32.6413 3.84647 32.7693 3.84647C32.8973 3.84647 33.0218 3.88849 33.124 3.96618C33.2262 4.04386 33.3005 4.15299 33.3356 4.27703L33.4036 4.50534C33.7529 5.80061 34.4323 6.98124 35.3743 7.93C35.4309 7.9847 35.476 8.05023 35.5072 8.12276C35.5383 8.19529 35.5547 8.27335 35.5555 8.35237C35.5554 8.43149 35.5392 8.50975 35.5081 8.58237C35.4769 8.65499 35.4314 8.72045 35.3743 8.77474C34.4354 9.68175 33.7382 10.8124 33.347 12.0624L33.279 12.2907C33.2453 12.4 33.1797 12.4965 33.0908 12.5678C33.002 12.639 32.8939 12.6817 32.7807 12.6903ZM31.2856 8.29529C31.8948 8.9552 32.3991 9.70608 32.7807 10.5213C33.1525 9.71142 33.6411 8.96132 34.2304 8.29529C33.6386 7.63538 33.1498 6.88865 32.7807 6.08068C32.4018 6.89404 31.8972 7.64156 31.2856 8.29529Z" fill="#210124"/>
</g>
<defs>
<clipPath id="clip0">
<rect width="32.2222" height="36.6667" fill="white" transform="translate(3.33331 2.22223)"/>
</clipPath>
</defs>
</svg>
