<svg width="40" height="40" viewBox="0 0 40 40" fill="none" xmlns="http://www.w3.org/2000/svg">
<g clip-path="url(#clip0)">
<path d="M5.15179 21.6483L16.4356 4.478C16.6046 4.21602 16.8621 4.02772 17.1584 3.94949C17.4546 3.87127 17.7686 3.90867 18.0396 4.05447L27.8975 9.34293C28.0545 9.42698 28.1921 9.54467 28.301 9.68806C28.4098 9.83145 28.4875 9.99719 28.5287 10.1741C28.5699 10.351 28.5736 10.5349 28.5397 10.7134C28.5057 10.8919 28.4349 11.0608 28.332 11.2088L22.5843 19.6222C23.1809 19.8774 23.7224 20.2516 24.1774 20.7232C24.6324 21.1947 24.992 21.7543 25.2353 22.3695C25.7143 23.663 36.909 20.5151 36.3743 31.9162H23.9321L5.15179 21.6483Z" fill="#F7F5FB"/>
<path d="M5.15179 21.6483L16.4356 4.478C16.6046 4.21602 16.8621 4.02772 17.1584 3.94949C17.4546 3.87127 17.7686 3.90867 18.0396 4.05447L27.8975 9.34293C28.0545 9.42698 28.1921 9.54467 28.301 9.68806C28.4098 9.83145 28.4875 9.99719 28.5287 10.1741C28.5699 10.351 28.5736 10.5349 28.5397 10.7134C28.5057 10.8919 28.4349 11.0608 28.332 11.2088L22.5843 19.6222C23.1809 19.8774 23.7224 20.2516 24.1774 20.7232C24.6324 21.1947 24.992 21.7543 25.2353 22.3695C25.7143 23.663 36.909 20.5151 36.3743 31.9162H23.9321L5.15179 21.6483Z" fill="#F7F5FB"/>
<path d="M27.4297 29.5581L13.9961 22.2207C13.4862 21.9444 13.0387 21.5607 12.6829 21.0947C12.3271 20.6287 12.0709 20.0907 11.9311 19.516C11.7913 18.9414 11.771 18.3428 11.8715 17.7595C11.9721 17.1762 12.1912 16.6213 12.5146 16.1309L19.8218 5.00456L18.0396 4.05447C17.7686 3.90867 17.4546 3.87127 17.1584 3.94949C16.8621 4.02772 16.6046 4.21602 16.4356 4.478L5.15179 21.6483L23.9321 31.9505H36.3297C36.3635 31.4055 36.3635 30.8587 36.3297 30.3136H30.2367C29.2551 30.3005 28.2915 30.0412 27.4297 29.5581Z" fill="#B7CACE"/>
<path d="M22.5843 19.6223L13.9182 26.3988L18.0062 28.6081L25.6141 22.69C24.6895 19.794 22.5843 19.6223 22.5843 19.6223Z" fill="#4F345A"/>
<path d="M17.1262 23.9377L21.6486 26.3988L18.4072 28.8255L13.9182 26.3759L17.1262 23.9377Z" fill="#41294C"/>
<path d="M14.787 7.62592L13.5394 9.82372L24.9346 15.9135L26.1933 13.7042L14.787 7.62592Z" fill="#4F345A"/>
<path d="M17.3155 8.81637L15.6447 11.369L13.3946 9.8237L14.4751 7.45419L17.3155 8.81637Z" fill="#41294C"/>
<path d="M13.9182 21.9917C15.6899 21.9917 17.1262 20.5158 17.1262 18.695C17.1262 16.8743 15.6899 15.3983 13.9182 15.3983C12.1464 15.3983 10.7101 16.8743 10.7101 18.695C10.7101 20.5158 12.1464 21.9917 13.9182 21.9917Z" fill="#BE1E2D"/>
<path d="M37.2208 35.1786C37.2208 35.2988 37.1978 35.4179 37.153 35.529C37.1082 35.6401 37.0426 35.7411 36.9598 35.8261C36.8771 35.9111 36.7788 35.9786 36.6707 36.0246C36.5626 36.0706 36.4467 36.0943 36.3297 36.0943H23.6313C23.3011 36.0964 22.9757 36.0138 22.6845 35.8539L3.25812 25.3571C3.15459 25.3027 3.06258 25.2277 2.98741 25.1366C2.91224 25.0454 2.85541 24.9398 2.82019 24.8259C2.78497 24.712 2.77207 24.5921 2.78224 24.473C2.7924 24.354 2.82542 24.2382 2.87939 24.1323L3.99329 22.049C4.10224 21.845 4.28184 21.6906 4.49644 21.6164C4.71104 21.5421 4.94495 21.5536 5.15174 21.6483L23.932 31.8017C24.0595 31.8692 24.2008 31.9046 24.3442 31.9047H36.3297C36.4462 31.9032 36.5618 31.9255 36.6699 31.9703C36.7779 32.015 36.8762 32.0814 36.9591 32.1655C37.042 32.2497 37.1079 32.3499 37.1528 32.4603C37.1977 32.5708 37.2208 32.6893 37.2208 32.8091V35.1786Z" fill="#4F345A"/>
<path d="M37.2208 35.1786C37.2208 35.2988 37.1978 35.4179 37.153 35.529C37.1082 35.6401 37.0426 35.7411 36.9598 35.8261C36.8771 35.9111 36.7788 35.9786 36.6707 36.0246C36.5626 36.0706 36.4467 36.0943 36.3297 36.0943H23.6313C23.3011 36.0964 22.9757 36.0138 22.6845 35.8539L3.25812 25.3571C3.15459 25.3027 3.06258 25.2277 2.98741 25.1366C2.91224 25.0454 2.85541 24.9398 2.82019 24.8259C2.78497 24.712 2.77207 24.5921 2.78224 24.473C2.7924 24.354 2.82542 24.2382 2.87939 24.1323L3.99329 22.049C4.10224 21.845 4.28184 21.6906 4.49644 21.6164C4.71104 21.5421 4.94495 21.5536 5.15174 21.6483L23.932 31.8017C24.0595 31.8692 24.2008 31.9046 24.3442 31.9047H36.3297C36.4462 31.9032 36.5618 31.9255 36.6699 31.9703C36.7779 32.015 36.8762 32.0814 36.9591 32.1655C37.042 32.2497 37.1079 32.3499 37.1528 32.4603C37.1977 32.5708 37.2208 32.6893 37.2208 32.8091V35.1786Z" fill="#4F345A"/>
<path d="M23.9321 31.8132L22.6845 35.8539H36.1961C36.3306 35.8539 36.4639 35.8267 36.5882 35.7738C36.7126 35.7208 36.8255 35.6433 36.9207 35.5455C37.0159 35.4477 37.0913 35.3316 37.1428 35.2038C37.1943 35.0761 37.2208 34.9391 37.2208 34.8008V32.9579C37.2209 32.6805 37.1144 32.4144 36.9246 32.2172C36.7349 32.02 36.4771 31.9078 36.2072 31.9047L23.9321 31.8132Z" fill="#41294C"/>
<path d="M36.3297 36.6666H23.6202C23.2006 36.6664 22.7875 36.5603 22.4172 36.3576L2.99082 25.8722C2.65287 25.6852 2.40023 25.3689 2.28764 24.9918C2.17505 24.6147 2.21158 24.2072 2.38932 23.8576L3.50321 21.7742C3.68303 21.4277 3.98883 21.1683 4.35397 21.0525C4.71911 20.9368 5.11398 20.974 5.45253 21.1561L24.2328 31.2981C24.2837 31.3133 24.3378 31.3133 24.3888 31.2981H36.3297C36.7119 31.298 37.0785 31.4533 37.3497 31.7299C37.621 32.0065 37.7748 32.382 37.7778 32.7747V35.1328C37.7838 35.332 37.7507 35.5304 37.6806 35.7163C37.6105 35.9022 37.5048 36.0717 37.3697 36.2147C37.2347 36.3578 37.073 36.4715 36.8944 36.5492C36.7157 36.6268 36.5237 36.6667 36.3297 36.6666ZM4.7285 22.1291H4.63939C4.55487 22.1601 4.48381 22.221 4.43888 22.3008L3.33613 24.3956C3.29702 24.4762 3.29029 24.5693 3.31737 24.655C3.34446 24.7406 3.4032 24.8119 3.48093 24.8535L22.9407 35.3846C23.1503 35.4976 23.3835 35.5565 23.6202 35.5563H36.3297C36.374 35.5579 36.4182 35.5501 36.4594 35.5334C36.5007 35.5167 36.5381 35.4915 36.5695 35.4593C36.6008 35.4271 36.6254 35.3886 36.6416 35.3462C36.6579 35.3038 36.6655 35.2584 36.6639 35.2129V32.8205C36.6639 32.7759 36.6552 32.7318 36.6383 32.6908C36.6214 32.6497 36.5966 32.6126 36.5654 32.5816C36.5342 32.5506 36.4973 32.5264 36.4568 32.5104C36.4163 32.4944 36.3731 32.487 36.3297 32.4885H24.3442C24.1111 32.4888 23.8815 32.4298 23.6759 32.3168L4.88444 22.1634C4.83565 22.14 4.78234 22.1283 4.7285 22.1291Z" fill="#210124"/>
<path d="M36.3297 32.4885C36.181 32.4797 36.0416 32.4111 35.9416 32.2976C35.8416 32.1841 35.789 32.0348 35.7951 31.8819C36.1961 23.869 30.582 23.5714 27.2292 23.3768C25.8257 23.2852 25.0014 23.2395 24.7341 22.5755C24.2911 21.4954 23.4619 20.6309 22.4172 20.1602C22.3362 20.1306 22.263 20.082 22.2033 20.0184C22.1436 19.9547 22.0991 19.8778 22.0732 19.7935C22.0473 19.7092 22.0407 19.62 22.054 19.5327C22.0673 19.4453 22.1001 19.3624 22.1498 19.2903L27.8419 10.8768C27.9002 10.7957 27.9404 10.7023 27.9597 10.6034C27.9789 10.5045 27.9767 10.4024 27.9532 10.3045C27.9319 10.2052 27.8887 10.1123 27.8269 10.0329C27.7651 9.95352 27.6864 9.88978 27.5968 9.8466L17.8168 4.55814C17.6668 4.47738 17.4931 4.45609 17.3288 4.49829C17.1645 4.5405 17.0211 4.64328 16.9257 4.78708L5.56393 21.9803C5.52363 22.0427 5.47156 22.0962 5.4108 22.1376C5.35005 22.179 5.28184 22.2075 5.2102 22.2214C5.13855 22.2352 5.06494 22.2342 4.99368 22.2184C4.92243 22.2025 4.85499 22.1722 4.79534 22.1291C4.67325 22.0452 4.58837 21.9151 4.55916 21.7672C4.52995 21.6193 4.55879 21.4655 4.6394 21.3393L15.9789 4.14605C16.2249 3.76983 16.5972 3.49997 17.0246 3.38805C17.452 3.27613 17.9046 3.33 18.2958 3.53937L28.1537 8.82783C28.3814 8.95057 28.5809 9.12189 28.7389 9.33031C28.8969 9.53873 29.0098 9.77944 29.0699 10.0363C29.13 10.2932 29.136 10.5603 29.0875 10.8198C29.039 11.0792 28.9371 11.325 28.7887 11.5407L23.3863 19.359C24.4198 19.9575 25.2307 20.8915 25.692 22.0146C26.2058 22.1201 26.7277 22.1775 27.2515 22.1863C30.5263 22.3695 37.2766 22.7701 36.8644 31.8933C36.8674 31.9685 36.8559 32.0435 36.8307 32.1141C36.8054 32.1848 36.7668 32.2496 36.7172 32.3048C36.6675 32.3601 36.6077 32.4048 36.5413 32.4363C36.4748 32.4679 36.4029 32.4856 36.3297 32.4885Z" fill="#210124"/>
<path d="M13.9182 26.9711C13.8013 26.9711 13.6873 26.9334 13.5925 26.8631C13.4977 26.7929 13.4268 26.6938 13.3898 26.5798C13.3528 26.4658 13.3517 26.3428 13.3865 26.2281C13.4214 26.1135 13.4905 26.013 13.584 25.9409L22.2724 19.1644C22.3905 19.0718 22.5397 19.0312 22.6869 19.0516C22.8342 19.072 22.9676 19.1517 23.0577 19.2731C23.1478 19.3946 23.1872 19.5478 23.1674 19.6991C23.1476 19.8505 23.07 19.9875 22.9518 20.0801L14.2523 26.8567C14.1571 26.9334 14.0391 26.9738 13.9182 26.9711Z" fill="#210124"/>
<path d="M18.0061 29.1804C17.9198 29.1795 17.8348 29.1584 17.7576 29.1188C17.6804 29.0791 17.613 29.0219 17.5606 28.9514C17.4719 28.83 17.4339 28.6774 17.4548 28.5271C17.4756 28.3768 17.5538 28.2412 17.6719 28.1502L25.2242 22.2321C25.3423 22.1395 25.4914 22.099 25.6387 22.1194C25.786 22.1398 25.9193 22.2194 26.0094 22.3409C26.0996 22.4623 26.139 22.6155 26.1192 22.7669C26.0993 22.9182 26.0218 23.0553 25.9036 23.1479L18.3403 29.0545C18.2453 29.1329 18.1279 29.1771 18.0061 29.1804Z" fill="#210124"/>
<path d="M26.1933 14.2766C26.1045 14.2806 26.0162 14.2609 25.9371 14.2193L14.5308 8.12957C14.3993 8.05975 14.3002 7.93911 14.2553 7.79421C14.2104 7.64931 14.2234 7.49201 14.2913 7.35691C14.3592 7.22181 14.4766 7.11998 14.6176 7.07383C14.7586 7.02768 14.9117 7.04097 15.0432 7.1108L26.4495 13.2005C26.5177 13.2326 26.5791 13.2782 26.6301 13.3348C26.6811 13.3913 26.7207 13.4577 26.7466 13.5301C26.7725 13.6025 26.7842 13.6794 26.781 13.7564C26.7778 13.8335 26.7597 13.9091 26.7279 13.9789C26.6776 14.0774 26.5999 14.1583 26.5047 14.2113C26.4095 14.2643 26.3011 14.287 26.1933 14.2766Z" fill="#210124"/>
<path d="M24.9346 16.4858C24.845 16.4849 24.757 16.4613 24.6784 16.4171L13.2832 10.3274C13.2097 10.2987 13.1428 10.2542 13.0872 10.197C13.0315 10.1399 12.9883 10.0712 12.9604 9.99559C12.9324 9.91999 12.9204 9.83915 12.9251 9.75842C12.9297 9.67768 12.951 9.59888 12.9874 9.5272C13.0239 9.45553 13.0747 9.39261 13.1366 9.34259C13.1984 9.29257 13.2699 9.25659 13.3462 9.23701C13.4226 9.21744 13.5021 9.21472 13.5796 9.22904C13.657 9.24335 13.7307 9.27437 13.7956 9.32005L25.1908 15.3984C25.3385 15.4333 25.4667 15.527 25.5471 15.6591C25.6275 15.7911 25.6536 15.9505 25.6196 16.1023C25.5856 16.2541 25.4944 16.3858 25.3659 16.4685C25.2374 16.5511 25.0823 16.578 24.9346 16.543V16.4858Z" fill="#210124"/>
<path d="M13.9181 22.5641C13.1735 22.5641 12.4455 22.3372 11.8264 21.912C11.2073 21.4869 10.7247 20.8826 10.4397 20.1757C10.1548 19.4687 10.0802 18.6907 10.2255 17.9402C10.3708 17.1897 10.7293 16.5003 11.2559 15.9592C11.7824 15.4181 12.4533 15.0496 13.1836 14.9003C13.9139 14.751 14.6709 14.8277 15.3589 15.1205C16.0469 15.4133 16.6349 15.9092 17.0486 16.5455C17.4623 17.1818 17.6831 17.9298 17.6831 18.695C17.6831 19.7212 17.2864 20.7053 16.5803 21.4309C15.8743 22.1565 14.9166 22.5641 13.9181 22.5641ZM13.9181 15.9707C13.3938 15.9707 12.8812 16.1305 12.4453 16.4298C12.0093 16.7292 11.6695 17.1547 11.4688 17.6525C11.2682 18.1503 11.2157 18.6981 11.318 19.2265C11.4203 19.755 11.6728 20.2404 12.0435 20.6214C12.4143 21.0025 12.8867 21.2619 13.4009 21.367C13.9152 21.4722 14.4482 21.4182 14.9326 21.212C15.417 21.0058 15.8311 20.6566 16.1224 20.2086C16.4137 19.7606 16.5692 19.2339 16.5692 18.695C16.5736 18.3338 16.5084 17.9753 16.3772 17.6402C16.2461 17.305 16.0517 16.9999 15.8053 16.7424C15.5588 16.4848 15.2651 16.28 14.9412 16.1397C14.6173 15.9994 14.2696 15.9264 13.9181 15.9249V15.9707Z" fill="#210124"/>
<path d="M25.291 36.6667H2.77918C2.63147 36.6667 2.4898 36.6064 2.38536 36.499C2.28091 36.3917 2.22223 36.2461 2.22223 36.0943C2.22223 35.9425 2.28091 35.7969 2.38536 35.6896C2.4898 35.5823 2.63147 35.522 2.77918 35.522H25.291C25.4387 35.522 25.5804 35.5823 25.6848 35.6896C25.7893 35.7969 25.848 35.9425 25.848 36.0943C25.8451 36.2452 25.7855 36.3891 25.6817 36.4958C25.5778 36.6025 25.4378 36.6637 25.291 36.6667Z" fill="#210124"/>
</g>
<defs>
<clipPath id="clip0">
<rect width="35.5556" height="33.3333" fill="white" transform="translate(2.22223 3.33333)"/>
</clipPath>
</defs>
</svg>
