<svg width="40" height="40" viewBox="0 0 40 40" fill="none" xmlns="http://www.w3.org/2000/svg">
<g clip-path="url(#clip0)">
<path d="M8.15186 10.3541C8.15186 10.3541 13.8358 2.20126 19.8101 2.20126C25.7845 2.20126 31.8481 10.3541 31.8481 10.3541" fill="#A882DD"/>
<path d="M16.2368 10.3541H31.8705C31.8705 10.3541 31.3568 9.65526 30.4858 8.67692C28.1631 6.44072 24.5003 3.29607 21.5522 2.46914C21.1028 2.38156 20.647 2.33479 20.1899 2.32938C19.6427 2.58561 15.7231 4.51899 17.6215 6.35919C19.0732 7.68693 17.3758 9.43397 16.2368 10.3541Z" fill="#7956B2"/>
<path d="M33.1435 10.3541H6.86769C6.3003 10.3541 5.84033 10.8338 5.84033 11.4256V14.8963C5.84033 15.4881 6.3003 15.9679 6.86769 15.9679H33.1435C33.7109 15.9679 34.1709 15.4881 34.1709 14.8963V11.4256C34.1709 10.8338 33.7109 10.3541 33.1435 10.3541Z" fill="#FFBD59"/>
<path d="M33.1435 10.3541H18.9615C19.232 10.3571 19.4905 10.4714 19.6807 10.672C19.871 10.8726 19.9777 11.1434 19.9777 11.4256V14.9196C19.9777 15.2018 19.871 15.4726 19.6807 15.6732C19.4905 15.8738 19.232 15.9881 18.9615 15.9911H33.1435C33.416 15.9911 33.6773 15.8783 33.87 15.6773C34.0626 15.4764 34.1709 15.2038 34.1709 14.9196V11.4256C34.1709 11.1414 34.0626 10.8689 33.87 10.6679C33.6773 10.467 33.416 10.3541 33.1435 10.3541Z" fill="#A86538"/>
<path d="M33.6125 34.9406C35.7901 26.7878 33.1323 16.0261 33.1323 16.0261H6.86767C6.86767 16.0261 4.2211 26.683 6.39866 34.9406C6.39866 34.9406 4.94696 36.9555 5.00279 37.9106C5.05863 38.8656 7.05751 38.1551 8.35287 37.2117C8.35287 37.2117 13.5902 37.8407 19.9553 37.9106C26.3205 37.9804 31.569 37.2117 31.569 37.2117C32.8978 38.1551 34.919 38.854 34.919 37.9106C34.919 36.9672 33.6125 34.9406 33.6125 34.9406Z" fill="#FFBD59"/>
<path d="M8.39757 37.1652C8.39757 37.1652 13.6349 37.7941 20 37.864C26.3652 37.9338 31.6137 37.1652 31.6137 37.1652C32.9425 38.1086 34.9637 38.8074 34.9637 37.864C34.9637 36.9206 33.6125 34.9406 33.6125 34.9406C35.7901 26.7878 33.1324 16.0261 33.1324 16.0261H15.9688C15.9688 16.0261 24.0201 24.6448 19.5422 31.959C15.6673 38.2716 9.54777 34.2884 6.30935 34.533C6.30935 34.6727 6.36519 34.8125 6.39869 34.9406C6.43219 35.0687 4.94698 36.9089 5.00282 37.864C5.05865 38.819 7.05754 38.1086 8.39757 37.1652Z" fill="#A86538"/>
<path d="M33.1435 16.5619H6.85652C6.4379 16.5588 6.03744 16.3832 5.74247 16.0733C5.4475 15.7635 5.28197 15.3446 5.28198 14.908V11.4139C5.28491 10.9793 5.45173 10.5634 5.74639 10.2561C6.04104 9.94878 6.43983 9.77478 6.85652 9.77173H33.1435C33.5621 9.7748 33.9626 9.9504 34.2576 10.2602C34.5525 10.5701 34.7181 10.989 34.7181 11.4256V14.9196C34.7151 15.3542 34.5483 15.7702 34.2537 16.0775C33.959 16.3848 33.5602 16.5588 33.1435 16.5619ZM6.85652 10.9364C6.73408 10.9395 6.61763 10.9923 6.53208 11.0837C6.44652 11.1752 6.39864 11.2978 6.39868 11.4256V14.9196C6.39864 15.0474 6.44652 15.1701 6.53208 15.2615C6.61763 15.3529 6.73408 15.4058 6.85652 15.4088H33.1435C33.2046 15.4088 33.2651 15.3961 33.3213 15.3714C33.3776 15.3467 33.4286 15.3104 33.4713 15.2649C33.5139 15.2193 33.5474 15.1652 33.5698 15.106C33.5921 15.0467 33.6028 14.9833 33.6014 14.9196V11.4256C33.6028 11.3619 33.5921 11.2986 33.5698 11.2393C33.5474 11.18 33.5139 11.126 33.4713 11.0804C33.4286 11.0348 33.3776 10.9986 33.3213 10.9738C33.2651 10.9491 33.2046 10.9364 33.1435 10.9364H6.85652Z" fill="#210124"/>
<path d="M34.383 38.8889C33.3333 38.7614 32.3311 38.3609 31.4685 37.7242C30.4411 37.8407 25.6393 38.3415 20.0112 38.3997C14.383 38.458 9.55892 37.8407 8.53156 37.7242C7.51537 38.3997 5.86266 39.1568 4.99164 38.7142C4.84023 38.6398 4.71008 38.5254 4.6141 38.3824C4.51812 38.2394 4.45964 38.0727 4.44446 37.8989C4.62261 36.7544 5.08456 35.6784 5.78449 34.7775C3.71861 26.5549 6.22 16.3056 6.33167 15.8281C6.35988 15.7029 6.42859 15.5917 6.52622 15.5132C6.62386 15.4347 6.74445 15.3937 6.86769 15.3972H33.1323C33.2565 15.3953 33.3777 15.4367 33.4768 15.5147C33.5759 15.5927 33.6472 15.703 33.6795 15.8281C33.78 16.2707 36.2814 26.5549 34.2155 34.7775C34.92 35.6755 35.3825 36.7528 35.5556 37.8989C35.5481 38.0809 35.4932 38.2573 35.3968 38.4091C35.3004 38.561 35.1661 38.6826 35.0084 38.7608C34.8122 38.8532 34.5982 38.897 34.383 38.8889ZM31.6136 36.5595C31.7259 36.5587 31.8355 36.5954 31.9263 36.6643C32.6648 37.2308 33.5296 37.5915 34.4389 37.7126C34.1699 36.8051 33.7379 35.9592 33.1658 35.2201C33.1121 35.151 33.0749 35.0695 33.0574 34.9824C33.04 34.8953 33.0427 34.8051 33.0653 34.7193C34.9414 27.7312 33.1547 18.6117 32.6968 16.5385H7.3032C6.85652 18.6117 5.06981 27.6846 6.93469 34.7193C6.95715 34.8044 6.96078 34.8937 6.94531 34.9804C6.92983 35.0672 6.89565 35.1492 6.84535 35.2201C6.26821 35.9662 5.8324 36.8199 5.56115 37.7358C6.47135 37.6184 7.33692 37.2573 8.07372 36.6876C8.18515 36.6086 8.31908 36.5717 8.45339 36.5828C8.50923 36.5828 13.7465 37.2117 20.0112 37.2816C26.2758 37.3515 31.4908 36.5945 31.5466 36.5828L31.6136 36.5595Z" fill="#210124"/>
<path d="M8.15189 10.9364C8.02499 10.9432 7.89946 10.9064 7.79455 10.8316C7.67676 10.7388 7.59812 10.6019 7.5752 10.4498C7.55229 10.2977 7.58689 10.1423 7.67171 10.0163C7.90622 9.6669 13.5902 1.65385 19.7767 1.65385C25.9632 1.65385 32.0603 9.6669 32.2613 10.0047C32.3517 10.1282 32.3912 10.2841 32.3713 10.4381C32.3514 10.5921 32.2737 10.7316 32.1552 10.8258C32.0368 10.92 31.8873 10.9612 31.7396 10.9405C31.592 10.9197 31.4583 10.8387 31.368 10.7151C31.3121 10.6336 25.5053 2.81854 19.7767 2.81854C14.048 2.81854 8.60973 10.6219 8.60973 10.7035C8.55599 10.7767 8.48664 10.8359 8.40717 10.8763C8.32771 10.9167 8.2403 10.9373 8.15189 10.9364Z" fill="#210124"/>
<path d="M11.368 0.582336L11.435 0.815274C11.8403 2.20444 12.5782 3.46305 13.579 4.47239C12.5749 5.48827 11.8368 6.75527 11.435 8.1528L11.368 8.38574L11.2898 8.1528C10.888 6.75527 10.1499 5.48827 9.14575 4.47239C10.1466 3.46305 10.8845 2.20444 11.2898 0.815274L11.368 0.582336Z" fill="#7CFEF0"/>
<path d="M11.368 8.94479C11.2504 8.94459 11.1357 8.90642 11.0397 8.83552C10.9437 8.76461 10.8712 8.66445 10.832 8.5488L10.7538 8.31586C10.3806 7.02039 9.69643 5.84576 8.76607 4.90333C8.70978 4.84793 8.6649 4.78115 8.63418 4.70706C8.60346 4.63297 8.58755 4.55312 8.5874 4.4724C8.58818 4.39178 8.60439 4.31214 8.63507 4.23814C8.66575 4.16414 8.71029 4.09727 8.76607 4.04146C9.69835 3.10525 10.383 1.9338 10.7538 0.640578L10.832 0.395994C10.8712 0.28034 10.9437 0.180183 11.0397 0.109279C11.1357 0.0383743 11.2504 0.000200323 11.368 0V0C11.4855 0.00171188 11.5994 0.0420325 11.6937 0.115222C11.7879 0.188412 11.8576 0.29074 11.8928 0.40764L11.971 0.640578C12.3417 1.9338 13.0264 3.10525 13.9587 4.04146C14.0145 4.09727 14.059 4.16414 14.0897 4.23814C14.1204 4.31214 14.1366 4.39178 14.1374 4.4724C14.1372 4.55312 14.1213 4.63297 14.0906 4.70706C14.0599 4.78115 14.015 4.84793 13.9587 4.90333C13.0283 5.84576 12.3442 7.02039 11.971 8.31586L11.8928 8.5488C11.8543 8.66261 11.7834 8.76146 11.6896 8.8322C11.5959 8.90295 11.4837 8.94222 11.368 8.94479ZM9.92744 4.4724C10.5157 5.14421 11.0015 5.90626 11.368 6.73189C11.7265 5.90443 12.209 5.14173 12.7973 4.4724C12.2065 3.80507 11.7238 3.04193 11.368 2.2129C11.0042 3.04011 10.5181 3.80257 9.92744 4.4724Z" fill="#210124"/>
<path d="M31.2451 6.98811L31.3121 7.18611C31.6602 8.38054 32.2944 9.46278 33.1547 10.3308C32.2943 11.2033 31.6603 12.2893 31.3121 13.4871L31.2451 13.6851L31.1781 13.4871C30.8345 12.2872 30.1998 11.2 29.3356 10.3308C30.1998 9.46607 30.8346 8.38268 31.1781 7.18611L31.2451 6.98811Z" fill="#7CFEF0"/>
<path d="M31.2451 14.2907C31.1268 14.2927 31.0111 14.2539 30.9161 14.1801C30.8212 14.1064 30.7523 14.0019 30.7203 13.8831L30.6533 13.6851C30.3332 12.5835 29.749 11.5854 28.9559 10.785C28.8996 10.7296 28.8547 10.6628 28.824 10.5887C28.7933 10.5146 28.7774 10.4348 28.7772 10.3541C28.778 10.2734 28.7942 10.1938 28.8249 10.1198C28.8556 10.0458 28.9001 9.97894 28.9559 9.92312C29.7513 9.11291 30.3322 8.1018 30.6421 6.98811L30.7091 6.77847C30.7548 6.67154 30.8292 6.5807 30.9233 6.51695C31.0175 6.45321 31.1273 6.41928 31.2395 6.41928C31.3518 6.41928 31.4616 6.45321 31.5557 6.51695C31.6499 6.5807 31.7243 6.67154 31.77 6.77847L31.8258 6.97647C32.1205 8.09236 32.6903 9.10829 33.4785 9.92312C33.5343 9.97894 33.5788 10.0458 33.6095 10.1198C33.6402 10.1938 33.6564 10.2734 33.6572 10.3541C33.657 10.4348 33.6411 10.5146 33.6104 10.5887C33.5797 10.6628 33.5348 10.7296 33.4785 10.785C32.6854 11.5854 32.1012 12.5835 31.7811 13.6851L31.7253 13.8831C31.6927 13.9928 31.6298 14.0901 31.5443 14.1627C31.4589 14.2352 31.3548 14.2797 31.2451 14.2907ZM30.1284 10.3541C30.5747 10.8853 30.9503 11.4769 31.2451 12.1127C31.5399 11.4769 31.9155 10.8853 32.3618 10.3541C31.9131 9.82478 31.5372 9.23286 31.2451 8.59538C30.953 9.23286 30.5772 9.82478 30.1284 10.3541Z" fill="#210124"/>
<path d="M22.4679 7.44235C22.6776 7.44235 22.8476 7.26506 22.8476 7.04635C22.8476 6.82765 22.6776 6.65036 22.4679 6.65036C22.2582 6.65036 22.0883 6.82765 22.0883 7.04635C22.0883 7.26506 22.2582 7.44235 22.4679 7.44235Z" fill="#A882DD"/>
<path d="M15.8571 7.29093C16.0668 7.29093 16.2368 7.11364 16.2368 6.89494C16.2368 6.67624 16.0668 6.49895 15.8571 6.49895C15.6474 6.49895 15.4774 6.67624 15.4774 6.89494C15.4774 7.11364 15.6474 7.29093 15.8571 7.29093Z" fill="#7956B2"/>
<path d="M24.5897 8.36245C24.7685 8.36245 24.9135 8.21123 24.9135 8.02469C24.9135 7.83816 24.7685 7.68694 24.5897 7.68694C24.4108 7.68694 24.2658 7.83816 24.2658 8.02469C24.2658 8.21123 24.4108 8.36245 24.5897 8.36245Z" fill="#A882DD"/>
<path d="M24.2658 6.03308C24.4447 6.03308 24.5896 5.88186 24.5896 5.69532C24.5896 5.50878 24.4447 5.35756 24.2658 5.35756C24.0869 5.35756 23.942 5.50878 23.942 5.69532C23.942 5.88186 24.0869 6.03308 24.2658 6.03308Z" fill="#A882DD"/>
<path d="M14.0145 8.36245C14.1934 8.36245 14.3384 8.21123 14.3384 8.02469C14.3384 7.83816 14.1934 7.68694 14.0145 7.68694C13.8357 7.68694 13.6907 7.83816 13.6907 8.02469C13.6907 8.21123 13.8357 8.36245 14.0145 8.36245Z" fill="#7956B2"/>
</g>
<defs>
<clipPath id="clip0">
<rect width="31.1111" height="38.8889" fill="white" transform="translate(4.44446)"/>
</clipPath>
</defs>
</svg>
