<svg width="32" height="38" viewBox="0 0 32 38" fill="none" xmlns="http://www.w3.org/2000/svg">
<path d="M29.042 7.68459L27.0352 5.56219L23.5212 9.27842L25.5281 11.4008L29.042 7.68459Z" fill="#4F345A"/>
<path d="M25.5306 11.9677C25.4593 11.9686 25.3886 11.9537 25.323 11.924C25.2575 11.8943 25.1985 11.8504 25.15 11.7952L23.1491 9.67917C23.0981 9.62572 23.0577 9.56212 23.0301 9.49205C23.0025 9.42199 22.9883 9.34683 22.9883 9.27092C22.9883 9.19501 23.0025 9.11986 23.0301 9.04979C23.0577 8.97972 23.0981 8.91612 23.1491 8.86267L26.6506 5.14814C26.7541 5.04205 26.8925 4.98273 27.0366 4.98273C27.1808 4.98273 27.3192 5.04205 27.4227 5.14814L29.4344 7.27566C29.534 7.38314 29.5898 7.52765 29.5898 7.67816C29.5898 7.82867 29.534 7.97318 29.4344 8.08066L25.922 11.7952C25.8714 11.8508 25.8106 11.8947 25.7432 11.9244C25.6759 11.9541 25.6035 11.9688 25.5306 11.9677ZM24.3018 9.31117L25.5306 10.5762L28.2709 7.67816L27.0421 6.36715L24.3018 9.31117Z" fill="#210124"/>
<path d="M14.625 5.5621V3.18158H17.3762V5.5621" fill="#4F345A"/>
<path d="M20.1046 0.686096H11.8945V3.18162H20.1046V0.686096Z" fill="#4F345A"/>
<path d="M15.9947 37.3024C24.2825 37.3024 31.0011 30.1971 31.0011 21.4323C31.0011 12.6674 24.2825 5.56213 15.9947 5.56213C7.70688 5.56213 0.988281 12.6674 0.988281 21.4323C0.988281 30.1971 7.70688 37.3024 15.9947 37.3024Z" fill="#F7F5FB"/>
<path d="M15.9944 35.6579C23.4234 35.6579 29.4458 29.2889 29.4458 21.4323C29.4458 13.5757 23.4234 7.20667 15.9944 7.20667C8.56536 7.20667 2.54297 13.5757 2.54297 21.4323C2.54297 29.2889 8.56536 35.6579 15.9944 35.6579Z" fill="#93B1A7"/>
<path d="M15.9946 33.9788C22.5468 33.9788 27.8584 28.3615 27.8584 21.4322C27.8584 14.5029 22.5468 8.88562 15.9946 8.88562C9.44245 8.88562 4.13086 14.5029 4.13086 21.4322C4.13086 28.3615 9.44245 33.9788 15.9946 33.9788Z" fill="#F7F5FB"/>
<path d="M21.7136 15.3832L15.9938 21.4323V12.8877C14.1247 12.891 12.3146 13.5795 10.8717 14.8359C9.42875 16.0924 8.44237 17.839 8.08057 19.7782C7.71876 21.7175 8.00391 23.7294 8.88743 25.4713C9.77095 27.2132 11.1982 28.5772 12.926 29.331C14.6538 30.0849 16.5753 30.1819 18.3632 29.6055C20.151 29.0291 21.6946 27.8151 22.731 26.1701C23.7674 24.5252 24.2324 22.5511 24.0469 20.5842C23.8614 18.6173 23.0368 16.7793 21.7136 15.3832Z" fill="#82DDF0"/>
<path d="M15.9946 37.8888C12.9169 37.8888 9.90836 36.9237 7.34937 35.1154C4.79038 33.3071 2.79589 30.7369 1.61811 27.7299C0.440336 24.7228 0.132177 21.414 0.732601 18.2217C1.33303 15.0294 2.81507 12.0971 4.99131 9.79563C7.16755 7.49413 9.94026 5.92679 12.9588 5.2918C15.9773 4.65682 19.1061 4.98272 21.9495 6.22828C24.7929 7.47384 27.2232 9.58313 28.9331 12.2894C30.643 14.9957 31.5556 18.1774 31.5556 21.4322C31.5527 25.7958 29.9123 29.9799 26.9947 33.0654C24.0771 36.151 20.1207 37.8858 15.9946 37.8888ZM15.9946 6.1371C13.1315 6.1371 10.3328 7.03511 7.95238 8.71753C5.57198 10.4 3.71687 12.7912 2.62172 15.5888C1.52657 18.3864 1.24058 21.4646 1.79993 24.4341C2.35928 27.4036 3.73883 30.131 5.76408 32.2712C7.78934 34.4114 10.3693 35.8683 13.1776 36.4576C15.9859 37.0469 18.8964 36.7422 21.5409 35.5819C24.1854 34.4216 26.4451 32.4579 28.0342 29.9392C29.6233 27.4206 30.4703 24.4601 30.4682 21.4322C30.4624 17.3756 28.9353 13.487 26.2219 10.6196C23.5086 7.7522 19.8305 6.14014 15.9946 6.1371Z" fill="#210124"/>
<path d="M15.9941 34.6114C13.543 34.6091 11.1473 33.839 9.10957 32.3983C7.07179 30.9576 5.48318 28.9109 4.54417 26.5164C3.60517 24.1219 3.35786 21.4869 3.83344 18.9439C4.30902 16.4009 5.48619 14.0638 7.2164 12.2276C8.94662 10.3914 11.1523 9.13834 13.5553 8.6265C15.9582 8.11465 18.4506 8.36699 20.7181 9.35166C22.9856 10.3363 24.9264 12.0092 26.2958 14.1592C27.6652 16.3092 28.4017 18.84 28.4125 21.4323C28.4182 23.1608 28.1012 24.8735 27.4797 26.4722C26.8582 28.0709 25.9444 29.5241 24.7907 30.7485C23.6369 31.9729 22.266 32.9444 20.7565 33.6073C19.247 34.2702 17.6286 34.6114 15.9941 34.6114ZM15.9941 9.51817C13.7534 9.52048 11.5637 10.226 9.70241 11.5454C7.84111 12.8648 6.39194 14.7387 5.53844 16.9298C4.68494 19.1209 4.46552 21.5305 4.90796 23.8536C5.3504 26.1766 6.43479 28.3086 8.02381 29.9794C9.61282 31.6501 11.635 32.7846 13.8341 33.2391C16.0332 33.6936 18.3105 33.4476 20.3773 32.5324C22.4442 31.6171 24.2077 30.0737 25.4445 28.0977C26.6814 26.1217 27.3358 23.8019 27.3251 21.4323C27.3222 18.2561 26.1271 15.2111 24.0025 12.9664C21.8778 10.7216 18.9974 9.46067 15.9941 9.46067V9.51817Z" fill="#210124"/>
<path d="M15.9943 22.8928C16.757 22.8928 17.3753 22.2389 17.3753 21.4323C17.3753 20.6256 16.757 19.9717 15.9943 19.9717C15.2316 19.9717 14.6133 20.6256 14.6133 21.4323C14.6133 22.2389 15.2316 22.8928 15.9943 22.8928Z" fill="#210124"/>
<path d="M20.1053 3.75661H11.8953C11.7511 3.75661 11.6128 3.69603 11.5108 3.5882C11.4088 3.48036 11.3516 3.33411 11.3516 3.18161V0.686088C11.3516 0.533588 11.4088 0.387333 11.5108 0.279499C11.6128 0.171665 11.7511 0.111084 11.8953 0.111084L20.1053 0.111084C20.2495 0.111084 20.3878 0.171665 20.4898 0.279499C20.5917 0.387333 20.649 0.533588 20.649 0.686088V3.18161C20.649 3.33411 20.5917 3.48036 20.4898 3.5882C20.3878 3.69603 20.2495 3.75661 20.1053 3.75661ZM12.4934 2.6066H19.616V1.26109H12.4064L12.4934 2.6066Z" fill="#210124"/>
<path d="M17.375 6.13715C17.2316 6.13421 17.095 6.07269 16.9936 5.96548C16.8922 5.85828 16.834 5.71373 16.8313 5.56215V3.75664H15.1675V5.56215C15.1647 5.71373 15.1065 5.85828 15.0052 5.96548C14.9038 6.07269 14.7671 6.13421 14.6238 6.13715C14.4796 6.13715 14.3413 6.07657 14.2393 5.96874C14.1374 5.86091 14.0801 5.71465 14.0801 5.56215V3.18163C14.0801 3.02913 14.1374 2.88288 14.2393 2.77504C14.3413 2.66721 14.4796 2.60663 14.6238 2.60663H17.375C17.4464 2.60663 17.5171 2.6215 17.583 2.6504C17.649 2.67929 17.7089 2.72165 17.7594 2.77504C17.8099 2.82844 17.85 2.89183 17.8773 2.96159C17.9046 3.03135 17.9187 3.10612 17.9187 3.18163V5.56215C17.9187 5.71465 17.8614 5.86091 17.7594 5.96874C17.6575 6.07657 17.5192 6.13715 17.375 6.13715Z" fill="#210124"/>
<path d="M15.9949 11.6112C15.8507 11.6112 15.7124 11.5506 15.6104 11.4427C15.5085 11.3349 15.4512 11.1886 15.4512 11.0361V8.93163C15.4512 8.77913 15.5085 8.63288 15.6104 8.52504C15.7124 8.41721 15.8507 8.35663 15.9949 8.35663C16.1391 8.35663 16.2774 8.41721 16.3793 8.52504C16.4813 8.63288 16.5386 8.77913 16.5386 8.93163V11.0591C16.533 11.2076 16.4732 11.348 16.3719 11.4509C16.2705 11.5539 16.1354 11.6113 15.9949 11.6112Z" fill="#210124"/>
<path d="M15.8308 34.5078C15.6866 34.5078 15.5483 34.4472 15.4464 34.3394C15.3444 34.2316 15.2871 34.0853 15.2871 33.9328V31.8053C15.2871 31.6528 15.3444 31.5065 15.4464 31.3987C15.5483 31.2909 15.6866 31.2303 15.8308 31.2303C15.975 31.2303 16.1133 31.2909 16.2153 31.3987C16.3172 31.5065 16.3745 31.6528 16.3745 31.8053V33.9328C16.3745 34.0853 16.3172 34.2316 16.2153 34.3394C16.1133 34.4472 15.975 34.5078 15.8308 34.5078Z" fill="#210124"/>
<path d="M27.739 22.0992H25.7273C25.5831 22.0992 25.4448 22.0386 25.3428 21.9308C25.2409 21.823 25.1836 21.6767 25.1836 21.5242C25.1836 21.3717 25.2409 21.2255 25.3428 21.1176C25.4448 21.0098 25.5831 20.9492 25.7273 20.9492H27.739C27.8832 20.9492 28.0215 21.0098 28.1235 21.1176C28.2255 21.2255 28.2827 21.3717 28.2827 21.5242C28.2827 21.6767 28.2255 21.823 28.1235 21.9308C28.0215 22.0386 27.8832 22.0992 27.739 22.0992Z" fill="#210124"/>
<path d="M6.11013 21.9612H4.0984C3.9542 21.9612 3.8159 21.9006 3.71394 21.7928C3.61197 21.685 3.55469 21.5387 3.55469 21.3862C3.55469 21.2337 3.61197 21.0875 3.71394 20.9796C3.8159 20.8718 3.9542 20.8112 4.0984 20.8112H6.11013C6.25433 20.8112 6.39262 20.8718 6.49459 20.9796C6.59655 21.0875 6.65384 21.2337 6.65384 21.3862C6.65384 21.5387 6.59655 21.685 6.49459 21.7928C6.39262 21.9006 6.25433 21.9612 6.11013 21.9612Z" fill="#210124"/>
<path d="M22.9106 14.7392C22.8393 14.7401 22.7686 14.7252 22.703 14.6955C22.6375 14.6658 22.5785 14.6219 22.53 14.5667C22.479 14.5132 22.4386 14.4496 22.411 14.3796C22.3834 14.3095 22.3691 14.2343 22.3691 14.1584C22.3691 14.0825 22.3834 14.0074 22.411 13.9373C22.4386 13.8672 22.479 13.8036 22.53 13.7502L23.9545 12.2437C24.0561 12.1383 24.1928 12.0793 24.3351 12.0793C24.4774 12.0793 24.614 12.1383 24.7157 12.2437C24.7666 12.2971 24.8071 12.3607 24.8347 12.4308C24.8623 12.5008 24.8765 12.576 24.8765 12.6519C24.8765 12.7278 24.8623 12.803 24.8347 12.873C24.8071 12.9431 24.7666 13.0067 24.7157 13.0602L23.2803 14.5667C23.1832 14.6733 23.0504 14.7352 22.9106 14.7392Z" fill="#210124"/>
<path d="M7.50101 30.7818C7.42892 30.7838 7.35719 30.7706 7.28998 30.7429C7.22277 30.7153 7.16143 30.6738 7.10954 30.6208C7.00922 30.5114 6.95313 30.365 6.95312 30.2126C6.95313 30.0602 7.00922 29.9137 7.10954 29.8043L8.53406 28.2978C8.63753 28.1917 8.77598 28.1324 8.92009 28.1324C9.06421 28.1324 9.20266 28.1917 9.30613 28.2978C9.35709 28.3513 9.39754 28.4148 9.42514 28.4849C9.45274 28.555 9.46696 28.6301 9.46696 28.7061C9.46696 28.782 9.45274 28.8571 9.42514 28.9272C9.39754 28.9973 9.35709 29.0609 9.30613 29.1143L7.88161 30.6208C7.83211 30.674 7.77274 30.7157 7.70724 30.7434C7.64174 30.7711 7.57152 30.7842 7.50101 30.7818Z" fill="#210124"/>
<path d="M24.2159 30.9083C24.0745 30.9069 23.9387 30.8494 23.8353 30.7473L22.4108 29.2408C22.3599 29.1874 22.3194 29.1238 22.2918 29.0537C22.2642 28.9836 22.25 28.9085 22.25 28.8326C22.25 28.7567 22.2642 28.6815 22.2918 28.6114C22.3194 28.5414 22.3599 28.4778 22.4108 28.4243C22.4596 28.3693 22.5186 28.3255 22.5841 28.2955C22.6495 28.2655 22.7201 28.2501 22.7914 28.2501C22.8628 28.2501 22.9333 28.2655 22.9988 28.2955C23.0643 28.3255 23.1232 28.3693 23.172 28.4243L24.5965 29.9308C24.6711 30.0112 24.7216 30.1129 24.742 30.2234C24.7623 30.3339 24.7516 30.4482 24.7111 30.5523C24.6705 30.6564 24.602 30.7456 24.514 30.8089C24.426 30.8722 24.3224 30.9067 24.2159 30.9083Z" fill="#210124"/>
<path d="M9.04563 14.6127C8.89869 14.6123 8.75789 14.5503 8.65416 14.4402L7.22964 12.9337C7.13002 12.8262 7.07422 12.6817 7.07422 12.5312C7.07422 12.3807 7.13002 12.2362 7.22964 12.1287C7.28019 12.0748 7.34032 12.032 7.40658 12.0028C7.47283 11.9736 7.5439 11.9586 7.61568 11.9586C7.68745 11.9586 7.75852 11.9736 7.82477 12.0028C7.89103 12.032 7.95117 12.0748 8.00171 12.1287L9.42623 13.6352C9.50074 13.7156 9.55131 13.8173 9.57167 13.9278C9.59203 14.0383 9.58128 14.1526 9.54075 14.2567C9.50023 14.3608 9.43172 14.45 9.3437 14.5133C9.25569 14.5766 9.15205 14.6111 9.04563 14.6127Z" fill="#210124"/>
<path d="M15.9944 21.9612C15.8772 21.9582 15.7636 21.9181 15.6681 21.8462C15.5678 21.7368 15.5117 21.5904 15.5117 21.438C15.5117 21.2856 15.5678 21.1392 15.6681 21.0297L20.9421 15.4522C20.9927 15.3983 21.0528 15.3555 21.1191 15.3263C21.1853 15.2971 21.2564 15.2821 21.3282 15.2821C21.3999 15.2821 21.471 15.2971 21.5373 15.3263C21.6035 15.3555 21.6636 15.3983 21.7142 15.4522C21.7662 15.5038 21.8077 15.5662 21.836 15.6354C21.8643 15.7046 21.879 15.7793 21.879 15.8547C21.879 15.9301 21.8643 16.0048 21.836 16.074C21.8077 16.1432 21.7662 16.2056 21.7142 16.2572L16.3858 21.8462C16.2724 21.9326 16.1336 21.9734 15.9944 21.9612Z" fill="#210124"/>
</svg>
