<svg width="40" height="40" viewBox="0 0 40 40" fill="none" xmlns="http://www.w3.org/2000/svg">
<g clip-path="url(#clip0)">
<path d="M19.4499 2.79729L8.31769 13.0106L11.2006 34.1158L15.2713 38.3138H18.4349H19.2339H23.6177L27.6883 34.1158L30.5713 13.0106L19.4499 2.79729Z" fill="#A882DD"/>
<path d="M19.4499 2.79729L8.31769 13.0106C8.31769 13.0106 15.3684 17.0246 15.5304 16.461L19.4499 2.79729Z" fill="#835BC4"/>
<path d="M23.6177 16.4725V38.3138L27.7315 33.8052L30.5712 13.0106L23.6177 16.4725Z" fill="#835BC4"/>
<path d="M15.2713 16.4725L8.31769 13.0106L11.2006 34.1158L15.2713 38.3138V16.4725Z" fill="#D4BBFC"/>
<path d="M15.2712 16.4725H23.6177L19.4499 2.79729L15.2712 16.4725Z" fill="#D4BBFC"/>
<path d="M23.6177 38.8889H15.2712C15.2031 38.8891 15.1356 38.8749 15.0726 38.8473C15.0096 38.8197 14.9524 38.7791 14.9041 38.7279L10.8335 34.5298C10.7467 34.4452 10.6896 34.3316 10.6715 34.2078L7.7778 13.0911C7.76294 12.9953 7.77209 12.8969 7.80432 12.8061C7.83655 12.7152 7.89072 12.635 7.96136 12.5735L19.0935 2.36024C19.1913 2.27114 19.3158 2.22218 19.4445 2.22218C19.5731 2.22218 19.6976 2.27114 19.7954 2.36024L30.9276 12.5735C30.9958 12.6371 31.0482 12.7175 31.0802 12.8078C31.1123 12.8981 31.1229 12.9954 31.1111 13.0911L28.2174 34.2078C28.2079 34.3319 28.1537 34.4472 28.0662 34.5298L23.974 38.7279C23.878 38.8266 23.7511 38.884 23.6177 38.8889ZM15.498 37.7387H23.4017L27.2132 33.8397L29.999 13.2406L19.4499 3.55639L8.85755 13.2406L11.7081 33.8397L15.498 37.7387Z" fill="#210124"/>
<path d="M23.6177 38.8889C23.4745 38.8889 23.3372 38.8283 23.2359 38.7205C23.1347 38.6126 23.0778 38.4663 23.0778 38.3138V16.5646L18.9316 2.96982C18.9078 2.89659 18.898 2.81907 18.9025 2.74175C18.907 2.66442 18.9259 2.58882 18.9581 2.51931C18.9902 2.4498 19.0349 2.38776 19.0897 2.33677C19.1444 2.28578 19.2081 2.24685 19.2771 2.22223C19.3451 2.19911 19.4168 2.19061 19.488 2.19722C19.5591 2.20382 19.6284 2.2254 19.6916 2.2607C19.7549 2.296 19.811 2.34433 19.8566 2.40287C19.9022 2.46142 19.9364 2.52903 19.9573 2.60178L24.136 16.2655C24.1419 16.3267 24.1419 16.3884 24.136 16.4495V38.3023C24.1389 38.4529 24.0863 38.5987 23.9893 38.7084C23.8924 38.8181 23.759 38.8829 23.6177 38.8889Z" fill="#210124"/>
<path d="M15.2712 38.8889C15.128 38.8889 14.9907 38.8283 14.8895 38.7205C14.7882 38.6126 14.7313 38.4663 14.7313 38.3138V16.461C14.72 16.4003 14.72 16.3378 14.7313 16.277L18.9316 2.62478C18.9509 2.54552 18.9857 2.47146 19.0335 2.40737C19.0814 2.34328 19.1413 2.29058 19.2095 2.25266C19.2776 2.21474 19.3525 2.19244 19.4292 2.1872C19.5059 2.18196 19.5829 2.19389 19.655 2.22222C19.791 2.2696 19.9037 2.37251 19.9685 2.50837C20.0333 2.64423 20.0448 2.80192 20.0005 2.94682L15.8111 16.5646V38.3138C15.8111 38.4663 15.7542 38.6126 15.653 38.7205C15.5517 38.8283 15.4144 38.8889 15.2712 38.8889Z" fill="#210124"/>
<path d="M23.6177 17.0476H15.2712C15.1928 17.0449 15.1156 17.0253 15.0445 16.9901L8.0909 13.5397C8.02645 13.5088 7.96847 13.4644 7.92038 13.4092C7.87228 13.354 7.83506 13.2891 7.81091 13.2184C7.78675 13.1476 7.77615 13.0724 7.77973 12.9972C7.78331 12.922 7.80101 12.8484 7.83176 12.7806C7.86078 12.7119 7.90243 12.6502 7.95423 12.5989C8.00603 12.5477 8.06695 12.508 8.13338 12.4823C8.19981 12.4566 8.2704 12.4453 8.341 12.4491C8.41159 12.4529 8.48075 12.4718 8.54439 12.5045L15.4008 15.955H23.4989L30.3445 12.5045C30.4089 12.4716 30.4789 12.4525 30.5503 12.4486C30.6216 12.4446 30.6931 12.4558 30.7604 12.4815C30.8277 12.5072 30.8895 12.5468 30.9423 12.5982C30.9951 12.6495 31.0378 12.7115 31.0679 12.7806C31.1271 12.918 31.133 13.0747 31.0845 13.2167C31.036 13.3588 30.937 13.4748 30.8088 13.5397L23.8444 16.9901C23.7737 17.0266 23.6963 17.0463 23.6177 17.0476Z" fill="#210124"/>
<path d="M19.4498 22.1773C18.5511 22.1798 17.6768 22.4885 16.9546 23.0583C16.2324 23.6281 15.7003 24.4291 15.4361 25.3441C15.1719 26.2591 15.1894 27.2401 15.4861 28.1438C15.7828 29.0474 16.3432 29.8262 17.0852 30.3663V31.85H21.8145V30.3663C22.5558 29.8268 23.1157 29.049 23.4127 28.1465C23.7097 27.244 23.7281 26.264 23.4652 25.3496C23.2024 24.4351 22.6721 23.6341 21.9516 23.0634C21.2312 22.4927 20.3584 22.1822 19.4606 22.1773H19.4498Z" fill="#F7F5FB"/>
<path d="M19.4499 22.1773C18.9598 22.18 18.4739 22.2734 18.0138 22.4533C18.7434 22.7323 19.3862 23.2209 19.8712 23.8651C20.3562 24.5092 20.6644 25.2837 20.7616 26.1029C20.8589 26.9221 20.7414 27.754 20.4222 28.5065C20.103 29.2589 19.5946 29.9026 18.9532 30.3663V31.85H21.8145V30.3663C22.5558 29.8268 23.1158 29.049 23.4127 28.1465C23.7097 27.244 23.7281 26.264 23.4653 25.3496C23.2024 24.4351 22.6721 23.6341 21.9517 23.0634C21.2312 22.4927 20.3584 22.1822 19.4607 22.1773H19.4499Z" fill="#B7CACE"/>
<path d="M21.8145 32.4251H17.0852C16.9421 32.4251 16.8047 32.3645 16.7035 32.2566C16.6022 32.1488 16.5454 32.0025 16.5454 31.85V30.6999C15.7595 30.0551 15.1829 29.1645 14.8963 28.153C14.6096 27.1415 14.6274 26.0598 14.9471 25.0596C15.2669 24.0594 15.8724 23.1908 16.679 22.5758C17.4855 21.9607 18.4526 21.63 19.4445 21.63C20.4364 21.63 21.4034 21.9607 22.21 22.5758C23.0165 23.1908 23.6221 24.0594 23.9418 25.0596C24.2615 26.0598 24.2793 27.1415 23.9927 28.153C23.7061 29.1645 23.1294 30.0551 22.3436 30.6999V31.85C22.3436 32.0005 22.2882 32.1451 22.1893 32.2526C22.0904 32.3601 21.9558 32.4221 21.8145 32.4251ZM17.6359 31.2749H21.2747V30.3663C21.2754 30.2731 21.2974 30.1815 21.3388 30.0993C21.3802 30.0172 21.4397 29.947 21.5122 29.8948C22.1631 29.4258 22.6555 28.7467 22.9171 27.9574C23.1786 27.1681 23.1955 26.3102 22.9653 25.5099C22.7351 24.7096 22.2698 24.0091 21.638 23.5115C21.0062 23.0138 20.2411 22.7452 19.4553 22.7452C18.6695 22.7452 17.9044 23.0138 17.2726 23.5115C16.6408 24.0091 16.1755 24.7096 15.9453 25.5099C15.715 26.3102 15.7319 27.1681 15.9935 27.9574C16.2551 28.7467 16.7475 29.4258 17.3984 29.8948C17.4723 29.9455 17.5328 30.0153 17.5744 30.0978C17.6159 30.1803 17.6371 30.2727 17.6359 30.3663V31.2749Z" fill="#210124"/>
<path d="M18.7588 32.4251C18.6156 32.4251 18.4783 32.3645 18.3771 32.2566C18.2758 32.1488 18.2189 32.0025 18.2189 31.85V30.3548C18.2189 30.2023 18.2758 30.056 18.3771 29.9482C18.4783 29.8403 18.6156 29.7797 18.7588 29.7797C18.9011 29.7827 19.0368 29.8442 19.1375 29.9514C19.2381 30.0586 19.2959 30.2032 19.2987 30.3548V31.85C19.2987 32.0025 19.2418 32.1488 19.1406 32.2566C19.0393 32.3645 18.902 32.4251 18.7588 32.4251Z" fill="#210124"/>
<path d="M20.1409 32.4251C19.9977 32.4251 19.8604 32.3645 19.7591 32.2566C19.6579 32.1488 19.601 32.0025 19.601 31.85V30.3548C19.601 30.2023 19.6579 30.056 19.7591 29.9482C19.8604 29.8403 19.9977 29.7797 20.1409 29.7797C20.2832 29.7827 20.4189 29.8442 20.5196 29.9514C20.6202 30.0586 20.678 30.2032 20.6808 30.3548V31.85C20.6808 32.0025 20.6239 32.1488 20.5226 32.2566C20.4214 32.3645 20.2841 32.4251 20.1409 32.4251Z" fill="#210124"/>
<path d="M17.8303 27.8705C18.516 27.8705 19.072 27.2783 19.072 26.5478C19.072 25.8173 18.516 25.2252 17.8303 25.2252C17.1445 25.2252 16.5886 25.8173 16.5886 26.5478C16.5886 27.2783 17.1445 27.8705 17.8303 27.8705Z" fill="#210124"/>
<path d="M21.0587 27.8705C21.7444 27.8705 22.3004 27.2783 22.3004 26.5478C22.3004 25.8173 21.7444 25.2252 21.0587 25.2252C20.3729 25.2252 19.817 25.8173 19.817 26.5478C19.817 27.2783 20.3729 27.8705 21.0587 27.8705Z" fill="#210124"/>
<path d="M19.655 27.7785C19.6311 27.7356 19.5971 27.7 19.5564 27.6753C19.5157 27.6506 19.4697 27.6377 19.4229 27.6377C19.376 27.6377 19.33 27.6506 19.2893 27.6753C19.2486 27.7 19.2146 27.7356 19.1907 27.7785L18.7588 28.5721C18.7211 28.644 18.7017 28.7253 18.7026 28.8077C18.7035 28.8901 18.7247 28.9708 18.764 29.0418C18.8033 29.1128 18.8594 29.1715 18.9267 29.2122C18.994 29.2529 19.0702 29.2741 19.1475 29.2737H19.709C19.7868 29.2757 19.8636 29.2553 19.9313 29.2146C19.9991 29.1739 20.0553 29.1146 20.094 29.0427C20.1327 28.9708 20.1525 28.8892 20.1512 28.8063C20.15 28.7235 20.1278 28.6426 20.0869 28.5721L19.655 27.7785Z" fill="#210124"/>
</g>
<defs>
<clipPath id="clip0">
<rect width="23.3333" height="36.6667" fill="white" transform="translate(7.77777 2.22222)"/>
</clipPath>
</defs>
</svg>
