<svg width="40" height="40" viewBox="0 0 40 40" fill="none" xmlns="http://www.w3.org/2000/svg">
<g clip-path="url(#clip0)">
<path d="M20 39.418L39.4444 14.123L32.0222 6.13759H7.97776L0.555542 14.123L20 39.418Z" fill="#BDEEFF"/>
<path d="M20 6.13759L26.8222 13.704L32.0222 6.13759H20Z" fill="#77ACC9"/>
<path d="M13.1778 13.704L20 39.418L26.8222 13.704H13.1778Z" fill="#77ACC9"/>
<path d="M0.344421 13.704L20 39.418L13.3889 14.3442L0.344421 13.704Z" fill="white"/>
<path d="M32.0222 6.13759L26.4778 14.123H39.4445L32.0222 6.13759Z" fill="white"/>
<path d="M7.97778 6.13759L13.1778 13.704L20 6.13759H7.97778Z" fill="white"/>
<path d="M20 40C19.9174 40.001 19.8357 39.9827 19.7608 39.9465C19.6858 39.9102 19.6195 39.8569 19.5667 39.7905L0.122211 14.4839C0.0345299 14.3727 -0.0106072 14.2313 -0.00444838 14.0872C0.00171048 13.9431 0.0587265 13.8065 0.155544 13.704L7.58888 5.73017C7.69213 5.62154 7.83148 5.55898 7.97777 5.55556H32.0222C32.1685 5.55898 32.3078 5.62154 32.4111 5.73017L39.8444 13.704C39.9335 13.8102 39.9826 13.9467 39.9826 14.0881C39.9826 14.2295 39.9335 14.366 39.8444 14.4722L20.4333 39.7905C20.3805 39.8569 20.3142 39.9102 20.2392 39.9465C20.1643 39.9827 20.0825 40.001 20 40ZM1.29999 14.1579L20 38.4984L38.7 14.1579L31.7778 6.71961H8.22221L1.29999 14.1579Z" fill="#210124"/>
<path d="M39.4444 14.705H0.555556C0.408213 14.705 0.266905 14.6437 0.162718 14.5346C0.0585316 14.4254 0 14.2774 0 14.123C0 13.9686 0.0585316 13.8206 0.162718 13.7115C0.266905 13.6023 0.408213 13.541 0.555556 13.541H39.4444C39.5918 13.541 39.7331 13.6023 39.8373 13.7115C39.9415 13.8206 40 13.9686 40 14.123C40 14.2774 39.9415 14.4254 39.8373 14.5346C39.7331 14.6437 39.5918 14.705 39.4444 14.705Z" fill="#210124"/>
<path d="M26.8222 14.286C26.7468 14.2864 26.6721 14.2699 26.6032 14.2378C26.5342 14.2057 26.4725 14.1587 26.4222 14.0997L19.6 6.53337C19.538 6.48135 19.4873 6.41599 19.4514 6.34171C19.4156 6.26743 19.3953 6.18595 19.3921 6.10278C19.3888 6.0196 19.4026 5.93666 19.4326 5.85955C19.4625 5.78245 19.5079 5.71297 19.5657 5.65581C19.6235 5.59865 19.6923 5.55514 19.7675 5.52821C19.8426 5.50129 19.9225 5.49157 20.0016 5.49972C20.0806 5.50787 20.1571 5.5337 20.2259 5.57546C20.2946 5.61722 20.354 5.67395 20.4 5.74181L26.7667 12.796L31.5667 5.81165C31.6088 5.7487 31.6624 5.69512 31.7243 5.65398C31.7863 5.61285 31.8555 5.58498 31.9278 5.572C32.0001 5.55901 32.0741 5.56116 32.1457 5.57831C32.2172 5.59547 32.2847 5.6273 32.3445 5.67196C32.4617 5.76471 32.5399 5.90151 32.5627 6.05351C32.5855 6.20552 32.5511 6.36087 32.4667 6.4868L27.2778 14.0532C27.2296 14.122 27.168 14.1793 27.0972 14.2215C27.0263 14.2636 26.9478 14.2895 26.8667 14.2976L26.8222 14.286Z" fill="#210124"/>
<path d="M13.1778 14.286C13.0967 14.2779 13.0181 14.2519 12.9472 14.2098C12.8764 14.1677 12.8148 14.1103 12.7666 14.0415L7.53331 6.47516C7.44892 6.34923 7.41449 6.19388 7.43729 6.04187C7.46009 5.88986 7.53834 5.75307 7.65554 5.66032C7.71525 5.61566 7.78281 5.58383 7.85433 5.56667C7.92585 5.54952 7.9999 5.54737 8.07221 5.56035C8.14452 5.57334 8.21367 5.60121 8.27564 5.64234C8.33762 5.68347 8.39121 5.73706 8.43331 5.80001L13.2333 12.7843L19.6 5.74181C19.7046 5.65408 19.836 5.60893 19.9699 5.61468C20.1038 5.62042 20.2312 5.67668 20.3286 5.77307C20.426 5.86947 20.4869 5.99951 20.5 6.13923C20.5131 6.27895 20.4776 6.41892 20.4 6.53336L13.5778 14.0997C13.5275 14.1587 13.4658 14.2057 13.3968 14.2378C13.3279 14.2699 13.2532 14.2863 13.1778 14.286Z" fill="#210124"/>
<path d="M20 40C19.8798 40 19.7628 39.9592 19.6666 39.8836C19.5705 39.808 19.5003 39.7018 19.4666 39.5809L12.6444 13.8553C12.6241 13.7827 12.6178 13.7066 12.6259 13.6314C12.634 13.5562 12.6562 13.4835 12.6914 13.4174C12.7265 13.3513 12.7739 13.2932 12.8307 13.2465C12.8875 13.1997 12.9526 13.1653 13.0222 13.1452C13.1636 13.102 13.3157 13.1194 13.4449 13.1936C13.5741 13.2678 13.6698 13.3928 13.7111 13.541L20 37.2528L26.2889 13.541C26.3093 13.4676 26.3433 13.3992 26.389 13.3396C26.4347 13.28 26.4911 13.2304 26.5551 13.1936C26.619 13.1569 26.6893 13.1337 26.7618 13.1254C26.8343 13.1171 26.9077 13.1238 26.9778 13.1452C27.0474 13.1653 27.1125 13.1997 27.1693 13.2465C27.2261 13.2932 27.2734 13.3513 27.3086 13.4174C27.3437 13.4835 27.366 13.5562 27.374 13.6314C27.3821 13.7066 27.3758 13.7827 27.3555 13.8553L20.5333 39.5809C20.4996 39.7018 20.4295 39.808 20.3333 39.8836C20.2371 39.9592 20.1202 40 20 40Z" fill="#210124"/>
</g>
<defs>
<clipPath id="clip0">
<rect width="40" height="34.4444" fill="white" transform="translate(0 5.55556)"/>
</clipPath>
</defs>
</svg>
