<svg width="40" height="40" viewBox="0 0 40 40" fill="none" xmlns="http://www.w3.org/2000/svg">
<path d="M33.4589 22.8168C33.437 26.413 32.0863 29.8589 29.693 32.4245C27.2997 34.9901 24.0518 36.4737 20.6375 36.561C18.9701 36.6372 17.3052 36.3596 15.7417 35.7445C14.1782 35.1295 12.7482 34.1897 11.5367 32.981C10.3251 31.7723 9.35678 30.3193 8.68927 28.7085C8.02176 27.0978 7.6687 25.3621 7.65108 23.6048C7.61807 16.1764 13.2749 1.91073 20.4284 1.69054C27.582 1.47036 33.4149 15.4463 33.4589 22.8168Z" fill="#DDD5CC"/>
<path d="M27.9561 6.75482C29.2583 9.86801 30.0044 13.2072 30.1572 16.6052C30.119 20.1941 28.7644 23.6285 26.3769 26.1901C23.9894 28.7516 20.7538 30.242 17.3468 30.3494C15.6175 30.4114 13.8945 30.0999 12.2838 29.4343C10.6731 28.7686 9.20884 27.7628 7.9812 26.4788C8.65656 29.4421 10.2873 32.067 12.5954 33.9056C14.9034 35.7442 17.7457 36.6827 20.6375 36.561C24.0518 36.4737 27.2996 34.9901 29.693 32.4245C32.0863 29.859 33.437 26.413 33.4588 22.8168C33.4368 18.3435 31.2577 11.4367 27.9561 6.75482Z" fill="#ADABAA"/>
<path opacity="0.61" d="M22.6075 2.66399C23.1188 2.65171 23.6294 2.71015 24.1263 2.83782C23.0259 2.08481 21.7408 1.6861 20.4284 1.69054C13.2749 1.91073 7.61807 16.1764 7.65108 23.6048C7.67915 26.3563 8.53623 29.0275 10.0988 31.2331C11.6613 33.4387 13.8486 35.0649 16.3454 35.8772C14.3881 34.7784 12.7493 33.1428 11.6024 31.1436C10.4555 29.1444 9.84315 26.8559 9.83016 24.5203C10.0293 20.3139 11.0482 16.1956 12.8236 12.4217C12.9667 12.7099 13.1945 12.9416 13.473 13.0822C14.5735 13.569 15.9822 12.5723 16.7746 10.8572C17.567 9.14208 17.3469 7.3806 16.3014 6.88228C16.2411 6.85608 16.1784 6.83665 16.1143 6.82434C18.0072 4.37912 20.2303 2.73353 22.6075 2.66399Z" fill="#F7F5FB"/>
<path opacity="0.61" d="M19.3766 14.0334C19.8667 13.0034 19.7617 11.9035 19.1422 11.5766C18.5227 11.2498 17.6232 11.8199 17.1332 12.8499C16.6431 13.8799 16.7481 14.9799 17.3676 15.3067C17.9871 15.6335 18.8866 15.0634 19.3766 14.0334Z" fill="#F7F5FB"/>
<path d="M20.2413 37.152C16.8222 37.1631 13.5336 35.7705 11.0738 33.2698C9.82883 32.0225 8.83539 30.5238 8.15277 28.8632C7.47016 27.2026 7.11238 25.4142 7.10079 23.6048C7.06777 16.2344 12.7906 1.34289 20.4174 1.11111C21.5633 1.14011 22.6917 1.41391 23.7341 1.91592C24.7764 2.41792 25.7111 3.13765 26.4814 4.03147C30.9606 8.58583 33.9981 17.4164 34.0311 22.8168C34.0036 26.5668 32.5916 30.1584 30.0939 32.8317C27.5963 35.505 24.2089 37.0502 20.6485 37.1404L20.2413 37.152ZM20.5935 2.26999H20.4504C13.6821 2.47858 8.16832 16.5125 8.20134 23.5932C8.21146 25.239 8.53409 26.866 9.15024 28.3786C9.76639 29.8911 10.6636 31.2586 11.7891 32.4006C12.9532 33.5871 14.3335 34.513 15.8467 35.1225C17.3598 35.732 18.9746 36.0124 20.5935 35.9468C23.863 35.8687 26.9756 34.4554 29.2736 32.0052C31.5717 29.5551 32.8752 26.2602 32.9086 22.8168C32.9086 17.7641 29.9151 9.15368 25.689 4.86586C24.3824 3.32636 22.5508 2.39325 20.5935 2.26999Z" fill="#210124"/>
<path d="M33.5139 32.5745C33.5945 32.4153 33.6293 32.2348 33.6139 32.0551C33.5986 31.8754 33.5338 31.7043 33.4275 31.5629C33.3212 31.4214 33.178 31.3157 33.0154 31.2586C32.8529 31.2016 32.6781 31.1957 32.5124 31.2418C29.0701 32.1334 25.4396 31.7232 22.2553 30.0829C17.2808 27.4638 15.575 20.696 15.1238 18.3088C15.0756 18.0546 14.955 17.822 14.778 17.6418C14.601 17.4617 14.3761 17.3426 14.1333 17.3005C13.966 17.2693 13.7944 17.2751 13.6294 17.3176C13.4645 17.3602 13.3097 17.4385 13.1751 17.5475C13.0404 17.6566 12.9289 17.794 12.8475 17.951C12.7662 18.108 12.7168 18.2812 12.7026 18.4594L12.4825 21.3798L8.87268 19.653C8.76448 19.596 8.64617 19.5634 8.5253 19.5572C8.40444 19.5511 8.28368 19.5716 8.17077 19.6174C8.05786 19.6632 7.95527 19.7333 7.86957 19.8233C7.78387 19.9132 7.71695 20.021 7.67308 20.1398C6.93731 22.8494 7.11224 25.7434 8.16833 28.333C10.1493 33.7101 29.2548 42.8305 33.5139 32.5745Z" fill="#F7F5FB"/>
<path d="M7.66209 20.1745C7.7319 20.0257 7.83795 19.899 7.96941 19.8074C8.10088 19.7158 8.25307 19.6625 8.41046 19.653C8.31969 21.6309 8.63112 23.6065 9.32392 25.4474C11.1618 30.3494 27.582 38.4268 33.4259 31.6589C33.516 31.7898 33.5716 31.9434 33.5871 32.1042C33.6025 32.265 33.5773 32.4272 33.5139 32.5745C29.2548 42.7725 10.1493 33.7333 8.20136 28.3678C7.13068 25.7836 6.94019 22.8895 7.66209 20.1745Z" fill="#B7CACE"/>
<path d="M25.612 37.7778H25.2818C18.0402 37.6271 9.07076 32.4006 7.65106 28.5764C6.53813 25.8506 6.36298 22.8015 7.15581 19.9544C7.22899 19.7619 7.33909 19.5875 7.47922 19.4419C7.61935 19.2964 7.7865 19.1828 7.97022 19.1084C8.14782 19.039 8.33695 19.0084 8.52614 19.0183C8.71533 19.0283 8.90062 19.0786 9.07076 19.1663L11.9982 20.5801L12.1743 18.4942C12.1906 18.2347 12.2588 17.9819 12.3745 17.7522C12.4902 17.5225 12.6508 17.3212 12.8456 17.1615C13.0404 16.9986 13.2654 16.8804 13.5061 16.8146C13.7468 16.7487 13.9979 16.7366 14.2433 16.7791C14.5974 16.8404 14.9253 17.0143 15.1829 17.2773C15.4406 17.5404 15.6158 17.88 15.685 18.2508C16.0702 20.2788 17.71 27.093 22.5194 29.6193C25.5894 31.2185 29.0959 31.6288 32.4243 30.7782C32.6799 30.7134 32.9476 30.7257 33.1968 30.8139C33.446 30.902 33.6665 31.0624 33.833 31.2765C34.0081 31.4924 34.1216 31.756 34.1605 32.0369C34.1995 32.3178 34.1622 32.6046 34.0532 32.8642C32.6555 36.0627 29.783 37.7778 25.612 37.7778ZM8.47647 20.1745H8.36641C8.2807 20.2159 8.21361 20.2907 8.17932 20.3831C7.49679 22.9548 7.67158 25.6951 8.67457 28.1476C9.77511 31.2302 18.0732 36.4567 25.3148 36.6073C28.0112 36.6769 31.4889 35.9699 33.0186 32.3311C33.0541 32.2743 33.0731 32.2078 33.0731 32.1399C33.0731 32.0719 33.0541 32.0054 33.0186 31.9487C32.9806 31.9008 32.9303 31.8655 32.8737 31.847C32.817 31.8285 32.7566 31.8276 32.6995 31.8444C29.1321 32.7747 25.3683 32.3648 22.0572 30.6855C16.8846 27.9506 15.1128 21.2291 14.5845 18.4942C14.5441 18.3388 14.4546 18.2026 14.3307 18.1081C14.2068 18.0136 14.0559 17.9665 13.9031 17.9746C13.7503 17.9827 13.6048 18.0455 13.4905 18.1527C13.3762 18.2598 13.3002 18.4048 13.2748 18.5637L13.0547 21.4957C13.0452 21.5898 13.0154 21.6804 12.9678 21.7607C12.9201 21.841 12.8558 21.9089 12.7796 21.9592C12.7014 22.0019 12.6146 22.0241 12.5265 22.0241C12.4384 22.0241 12.3516 22.0019 12.2734 21.9592L8.63055 20.2093C8.58234 20.1856 8.52966 20.1737 8.47647 20.1745Z" fill="#210124"/>
<path d="M15.3879 33.6638L16.8296 31.0332C16.8434 31.2142 16.8974 31.3892 16.9872 31.5442C17.0771 31.6992 17.2003 31.8298 17.3469 31.9255L18.8986 32.8758C19.1556 33.0195 19.4562 33.0502 19.7346 32.9611C20.0131 32.8721 20.2467 32.6706 20.3844 32.4006L22.1452 29.1906C22.1761 29.4225 22.1336 29.6587 22.0242 29.8627L18.8216 35.6571C18.6765 35.919 18.4396 36.1107 18.1618 36.1908C17.8841 36.271 17.5875 36.2333 17.3359 36.0858L15.7841 35.1356C15.5596 34.9828 15.3955 34.7491 15.3226 34.4783C15.2497 34.2075 15.2729 33.9179 15.3879 33.6638Z" fill="#B7CACE"/>
<path d="M7.59602 32.5744C7.51539 32.4153 7.48062 32.2348 7.49597 32.0551C7.51133 31.8754 7.57613 31.7043 7.68244 31.5629C7.78876 31.4214 7.93196 31.3157 8.0945 31.2586C8.25704 31.2016 8.43186 31.1957 8.59751 31.2417C12.0434 32.1342 15.6776 31.7241 18.8656 30.0829C23.8401 27.4638 25.5349 20.696 25.9971 18.3087C26.0453 18.0546 26.166 17.8219 26.3429 17.6418C26.5199 17.4617 26.7448 17.3426 26.9876 17.3005C27.1543 17.2692 27.3253 17.2751 27.4897 17.3177C27.654 17.3603 27.8081 17.4388 27.9419 17.548C28.0757 17.6572 28.1862 17.7947 28.2664 17.9517C28.3466 18.1087 28.3946 18.2817 28.4073 18.4594L28.6825 21.4493L32.2482 19.653C32.3564 19.596 32.4748 19.5633 32.5956 19.5572C32.7165 19.5511 32.8372 19.5715 32.9502 19.6174C33.0631 19.6632 33.1657 19.7333 33.2514 19.8233C33.3371 19.9132 33.404 20.021 33.4478 20.1398C34.1836 22.8494 34.0087 25.7434 32.9526 28.333C30.9606 33.7101 11.8551 42.8305 7.59602 32.5744Z" fill="#F7F5FB"/>
<path d="M33.4479 20.1745C33.3861 20.0179 33.2846 19.8822 33.1546 19.782C33.0246 19.6819 32.871 19.6213 32.7105 19.6067C32.7978 21.5854 32.4826 23.561 31.7861 25.401C29.9592 30.3494 13.572 38.4268 7.69511 31.6589C7.60321 31.7887 7.54563 31.9418 7.52823 32.1026C7.51083 32.2634 7.53424 32.4263 7.59606 32.5745C11.8552 42.7725 30.9606 33.7333 32.9086 28.3678C33.9793 25.7836 34.1698 22.8895 33.4479 20.1745Z" fill="#B7CACE"/>
<path d="M15.4759 37.7778C11.3379 37.7778 8.43244 36.0626 7.07877 32.8062C6.96925 32.5501 6.92988 32.2669 6.96512 31.9886C7.00035 31.7102 7.10878 31.4477 7.27817 31.2308C7.44756 31.0138 7.67116 30.8511 7.92374 30.7609C8.17631 30.6707 8.44781 30.6566 8.70758 30.7203C12.0358 31.5738 15.5434 31.1635 18.6125 29.5614C23.4329 27.035 25.0727 20.2209 25.4579 18.1929C25.5264 17.8237 25.7 17.4852 25.9555 17.2223C26.2111 16.9594 26.5365 16.7846 26.8886 16.7211C27.134 16.6787 27.3851 16.6908 27.6259 16.7566C27.8666 16.8225 28.0915 16.9407 28.2863 17.1035C28.488 17.2695 28.6526 17.4801 28.7686 17.7203C28.8846 17.9606 28.9491 18.2248 28.9576 18.4942L29.1227 20.5801L31.9841 19.1547C32.3365 19.0015 32.7323 19.0015 33.0847 19.1547C33.4518 19.312 33.7447 19.6163 33.8991 20.0007C34.6919 22.8478 34.5168 25.897 33.4038 28.6227C31.9841 32.4238 23.0037 37.6735 15.7951 37.8241L15.4759 37.7778ZM8.10228 32.4006C9.62103 36.0395 13.1098 36.7348 15.8061 36.6768C23.0477 36.5262 31.2908 31.2997 32.4353 28.2171C33.4394 25.7653 33.618 23.0259 32.9416 20.4527C32.9038 20.3626 32.8378 20.2889 32.7545 20.2441C32.713 20.2242 32.668 20.2139 32.6224 20.2139C32.5769 20.2139 32.5318 20.2242 32.4904 20.2441L28.8696 21.9708C28.7914 22.0135 28.7045 22.0357 28.6165 22.0357C28.5284 22.0357 28.4415 22.0135 28.3633 21.9708C28.2854 21.9226 28.2197 21.8552 28.1718 21.7745C28.1239 21.6938 28.0952 21.6021 28.0882 21.5072L27.8681 18.5869C27.8597 18.4857 27.832 18.3873 27.7866 18.2977C27.7412 18.2081 27.6791 18.1291 27.604 18.0654C27.5307 18.0033 27.4455 17.9587 27.3543 17.9347C27.2631 17.9107 27.1681 17.9079 27.0757 17.9263C26.9441 17.9491 26.8221 18.0134 26.7259 18.1106C26.6296 18.2078 26.5635 18.3335 26.5364 18.471C26.0082 21.2407 24.2253 27.9621 19.1077 30.6623C15.8022 32.3475 12.0398 32.7576 8.47646 31.8212C8.41947 31.8029 8.35856 31.803 8.30164 31.8216C8.24473 31.8402 8.19444 31.8764 8.15731 31.9255C8.09631 31.9851 8.05732 32.0655 8.04724 32.1524C8.03717 32.2394 8.05667 32.3273 8.10228 32.4006Z" fill="#210124"/>
<path d="M20.9677 27.4478L19.5666 28.2996C19.0034 28.642 18.8104 29.4004 19.1356 29.9935L22.2502 35.6739C22.5753 36.267 23.2955 36.4702 23.8588 36.1278L25.2598 35.276C25.823 34.9336 26.016 34.1752 25.6908 33.5821L22.5763 27.9017C22.2511 27.3086 21.5309 27.1054 20.9677 27.4478Z" fill="#F7F5FB"/>
<path d="M25.733 33.6638L24.2803 31.0332C24.2653 31.2152 24.2096 31.391 24.1178 31.546C24.026 31.7011 23.9007 31.8311 23.7521 31.9255L22.2113 32.8758C21.9543 33.0195 21.6537 33.0502 21.3753 32.9611C21.0969 32.8721 20.8632 32.6706 20.7256 32.4006L18.9647 29.1906C18.9399 29.4223 18.9821 29.6566 19.0857 29.8627L22.2883 35.657C22.4335 35.9221 22.6724 36.116 22.9528 36.1963C23.2332 36.2766 23.5324 36.2369 23.7851 36.0858L25.3258 35.1356C25.5523 34.9845 25.7186 34.7517 25.7936 34.4807C25.8685 34.2097 25.847 33.9192 25.733 33.6638Z" fill="#B7CACE"/>
<path d="M23.2678 36.8739C23.1159 36.8717 22.9646 36.8523 22.8166 36.8159C22.3761 36.6894 22.0006 36.3855 21.7711 35.9699L18.6565 30.2799C18.537 30.0725 18.4582 29.8419 18.4251 29.6018C18.3919 29.3617 18.405 29.117 18.4636 28.8824C18.5221 28.6477 18.6249 28.4279 18.7658 28.2359C18.9067 28.044 19.0829 27.8839 19.2838 27.7651L20.6925 26.9076C20.8862 26.7868 21.101 26.7082 21.324 26.6764C21.5471 26.6445 21.7739 26.6601 21.9912 26.7222C22.2195 26.7773 22.4348 26.8807 22.624 27.0261C22.8132 27.1715 22.9723 27.3559 23.0917 27.5681L26.2063 33.2698C26.3203 33.4749 26.3946 33.7017 26.4248 33.9373C26.455 34.1728 26.4405 34.4123 26.3822 34.6419C26.3238 34.8715 26.2228 35.0866 26.0849 35.2748C25.947 35.463 25.7751 35.6205 25.579 35.7382L24.1703 36.5957C23.9001 36.7756 23.5874 36.872 23.2678 36.8739ZM21.551 27.8578C21.4421 27.8585 21.3355 27.8905 21.2428 27.9506L19.8781 28.7965C19.7356 28.886 19.6317 29.0304 19.5886 29.1992C19.5454 29.3679 19.5664 29.5477 19.647 29.7005L22.7726 35.3905C22.8545 35.5392 22.9891 35.6475 23.1468 35.6918C23.3057 35.7375 23.4753 35.7168 23.62 35.6339L25.0287 34.7763C25.1705 34.689 25.2741 34.5467 25.3173 34.3798C25.3605 34.213 25.3399 34.035 25.2598 33.884L22.0792 28.1823C21.9947 28.0361 21.8612 27.9286 21.705 27.881L21.551 27.8578Z" fill="#210124"/>
</svg>
