<svg width="80" height="80" viewBox="0 0 80 80" fill="none" xmlns="http://www.w3.org/2000/svg">
<g clip-path="url(#clip0_692:7497)">
<path d="M70.2673 5.49854H12.516C10.1567 5.49854 8.24414 7.48107 8.24414 9.92666V67.8507C8.24414 70.2963 10.1567 72.2788 12.516 72.2788H70.2673C72.6265 72.2788 74.5391 70.2963 74.5391 67.8507V9.92666C74.5391 7.48107 72.6265 5.49854 70.2673 5.49854Z" fill="#31978C"/>
<path d="M70.2664 5.49854H47.4629C48.5959 5.49854 49.6824 5.96507 50.4835 6.7955C51.2847 7.62594 51.7347 8.75224 51.7347 9.92666V67.8507C51.7347 68.4322 51.6242 69.008 51.4096 69.5453C51.1949 70.0825 50.8802 70.5706 50.4835 70.9818C50.0869 71.393 49.6159 71.7192 49.0977 71.9417C48.5794 72.1643 48.0239 72.2788 47.4629 72.2788H70.2664C70.8274 72.2788 71.3829 72.1643 71.9012 71.9417C72.4194 71.7192 72.8904 71.393 73.287 70.9818C73.6837 70.5706 73.9984 70.0825 74.2131 69.5453C74.4277 69.008 74.5382 68.4322 74.5382 67.8507V9.92666C74.5382 9.34515 74.4277 8.76933 74.2131 8.23209C73.9984 7.69484 73.6837 7.20669 73.287 6.7955C72.8904 6.38431 72.4194 6.05814 71.9012 5.83561C71.3829 5.61307 70.8274 5.49854 70.2664 5.49854Z" fill="#196961"/>
<path d="M64.9168 15.6832C66.7144 15.6832 68.1716 14.2199 68.1716 12.4149C68.1716 10.6098 66.7144 9.14648 64.9168 9.14648C63.1193 9.14648 61.6621 10.6098 61.6621 12.4149C61.6621 14.2199 63.1193 15.6832 64.9168 15.6832Z" fill="#BE1E2D"/>
<path d="M8.32422 47.9453V67.914C8.33218 68.4956 8.45057 69.0698 8.67263 69.6039C8.8947 70.1379 9.21608 70.6215 9.61844 71.0268C10.0208 71.4321 10.4962 71.7513 11.0176 71.9662C11.539 72.181 12.0961 72.2873 12.6571 72.2789H70.2049C70.7659 72.2873 71.323 72.181 71.8444 71.9662C72.3658 71.7513 72.8412 71.4321 73.2436 71.0268C73.646 70.6215 73.9673 70.1379 74.1894 69.6039C74.4115 69.0698 74.5299 68.4956 74.5378 67.914V47.9453H8.32422Z" fill="#5FBCB4"/>
<path d="M51.7344 47.9453V56.0635C55.7011 56.0635 58.427 57.5817 58.9152 59.2686C59.6678 61.9044 55.7011 65.215 51.7344 65.215V67.914C51.7183 69.0848 51.2556 70.2013 50.4474 71.0193C49.6392 71.8373 48.5514 72.2902 47.4219 72.2789H70.205C70.766 72.2873 71.3231 72.181 71.8445 71.9662C72.3659 71.7513 72.8413 71.4321 73.2437 71.0268C73.646 70.6215 73.9674 70.1379 74.1895 69.6039C74.4116 69.0698 74.53 68.4956 74.5379 67.914V47.9453H51.7344Z" fill="#31978C"/>
<path d="M29.2765 61.9044C33.2423 61.9044 36.4572 60.4694 36.4572 58.6993C36.4572 56.9291 33.2423 55.4941 29.2765 55.4941C25.3106 55.4941 22.0957 56.9291 22.0957 58.6993C22.0957 60.4694 25.3106 61.9044 29.2765 61.9044Z" fill="#4EC0B4"/>
<path d="M30.6398 56.2535C34.6056 56.2535 37.8205 54.8185 37.8205 53.0484C37.8205 51.2782 34.6056 49.8433 30.6398 49.8433C26.6739 49.8433 23.459 51.2782 23.459 53.0484C23.459 54.8185 26.6739 56.2535 30.6398 56.2535Z" fill="#4EC0B4"/>
<path d="M8.32422 65.2148V67.9139C8.33218 68.4954 8.45057 69.0696 8.67263 69.6037C8.8947 70.1378 9.21608 70.6213 9.61844 71.0267C10.0208 71.432 10.4962 71.7512 11.0176 71.966C11.539 72.1809 12.0961 72.2871 12.6571 72.2788H70.2049C70.7659 72.2871 71.323 72.1809 71.8444 71.966C72.3658 71.7512 72.8412 71.432 73.2436 71.0267C73.646 70.6213 73.9673 70.1378 74.1894 69.6037C74.4115 69.0696 74.5299 68.4954 74.5378 67.9139V65.2148H8.32422Z" fill="#31978C"/>
<path d="M51.7347 64.3716V67.8508C51.7347 68.4323 51.6242 69.0081 51.4096 69.5454C51.1949 70.0826 50.8802 70.5708 50.4835 70.982C50.0869 71.3932 49.6159 71.7193 49.0977 71.9419C48.5794 72.1644 48.0239 72.2789 47.4629 72.2789H70.2664C70.8274 72.2789 71.3829 72.1644 71.9012 71.9419C72.4194 71.7193 72.8904 71.3932 73.287 70.982C73.6837 70.5708 73.9984 70.0826 74.2131 69.5454C74.4277 69.0081 74.5382 68.4323 74.5382 67.8508V64.3716H51.7347Z" fill="#196961"/>
<path d="M73.8068 17.9604H8.24414V47.9662H73.8068V17.9604Z" fill="#7CFEF0"/>
<path d="M26.8167 48.9997H8.3257C8.05595 48.9997 7.79724 48.8887 7.6065 48.6909C7.41575 48.4932 7.30859 48.225 7.30859 47.9454C7.3138 47.6675 7.42263 47.4025 7.61226 47.2059C7.80189 47.0093 8.05758 46.8965 8.3257 46.8911H26.8981C27.1678 46.8911 27.4265 47.0022 27.6173 47.1999C27.808 47.3976 27.9152 47.6658 27.9152 47.9454C27.9156 48.0913 27.8869 48.2356 27.8307 48.3694C27.7746 48.5031 27.6923 48.6233 27.5891 48.7224C27.4858 48.8215 27.3639 48.8973 27.2309 48.945C27.098 48.9928 26.9569 49.0114 26.8167 48.9997Z" fill="#210124"/>
<path d="M74.5388 48.9997H54.7866C54.5169 48.9997 54.2582 48.8887 54.0674 48.6909C53.8767 48.4932 53.7695 48.225 53.7695 47.9454C53.7695 47.6658 53.8767 47.3976 54.0674 47.1999C54.2582 47.0022 54.5169 46.8911 54.7866 46.8911H74.5388C74.8069 46.8965 75.0626 47.0093 75.2523 47.2059C75.4419 47.4025 75.5507 47.6675 75.5559 47.9454C75.5559 48.225 75.4488 48.4932 75.258 48.6909C75.0673 48.8887 74.8086 48.9997 74.5388 48.9997Z" fill="#210124"/>
<path d="M53.1791 52.6266C51.4461 55.96 48.5435 58.4755 45.0715 59.653C41.5996 60.8304 37.8239 60.5796 34.5254 58.9525C32.9145 58.1732 31.4696 57.0692 30.2748 55.7048C29.0801 54.3404 28.1595 52.743 27.5668 51.0058C26.974 49.2686 26.7211 47.4264 26.8226 45.5868C26.9242 43.7471 27.3783 41.9469 28.1583 40.2911C31.5554 33.3327 43.6793 22.7895 50.5346 26.2055C57.3899 29.6215 56.5762 45.6681 53.1791 52.6266Z" fill="#DDD5CC"/>
<path d="M29.7854 42.2519C33.1825 35.2935 45.3064 24.7292 52.1617 28.1452C52.6535 28.3994 53.1116 28.7183 53.5246 29.0941C52.834 27.8231 51.7927 26.7951 50.5343 26.142C43.6383 22.726 31.5144 33.2692 28.158 40.2276C26.8946 42.8348 26.4601 45.7898 26.9169 48.6688C27.3737 51.5478 28.6983 54.2028 30.7008 56.2532C29.3492 54.2198 28.551 51.8465 28.3899 49.3828C28.2288 46.919 28.7109 44.4558 29.7854 42.2519Z" fill="#F7F5FB"/>
<path d="M55.4162 34.7241C55.2073 38.3172 54.3662 41.8403 52.9345 45.1197C51.2277 48.4799 48.326 51.0194 44.844 52.2002C41.3621 53.381 37.5735 53.1103 34.2808 51.4455C32.5986 50.6187 31.0975 49.4439 29.8696 47.9934C28.6417 46.5429 27.713 44.8473 27.1407 43.011C26.4038 46.1405 26.7371 49.438 28.0837 52.3412C29.4303 55.2444 31.7067 57.5734 34.5249 58.9312C37.8234 60.5583 41.5991 60.809 45.071 59.6316C48.543 58.4542 51.4456 55.9387 53.1786 52.6053C55.5082 46.9749 56.2829 40.7843 55.4162 34.7241Z" fill="#ADABAA"/>
<path d="M40.6489 61.5248C38.3749 61.5313 36.1288 61.0051 34.0784 59.9855C32.3059 59.1187 30.7192 57.892 29.4124 56.378C28.1056 54.864 27.1052 53.0935 26.4705 51.1714C25.8571 49.3121 25.6112 47.3438 25.7475 45.3839C25.8838 43.424 26.3995 41.5126 27.2638 39.7637C30.7016 32.6788 43.4155 21.4187 51.0437 25.1931C52.1734 25.8268 53.1671 26.6919 53.9643 27.7359C54.7616 28.7798 55.3459 29.9808 55.6818 31.266C57.5679 38.5209 57.0155 46.2252 54.1154 53.1114C52.8369 55.664 50.9025 57.8007 48.5261 59.2855C46.1497 60.7702 43.4236 61.5452 40.6489 61.5248ZM47.5652 26.5216C41.1168 26.5216 31.8001 35.1248 29.0743 40.7126C28.3397 42.215 27.902 43.8544 27.7867 45.5345C27.6714 47.2146 27.8809 48.9016 28.403 50.4967C28.9493 52.1519 29.8105 53.6766 30.9356 54.9806C32.0607 56.2845 33.4269 57.3411 34.9531 58.0877C38.0168 59.6183 41.5341 59.856 44.7636 58.7506C47.993 57.6452 50.6822 55.2832 52.2643 52.1625C54.9446 45.7579 55.4606 38.6029 53.7289 31.8564C53.4785 30.8395 53.0323 29.8856 52.417 29.0522C51.8017 28.2187 51.0301 27.5229 50.1487 27.0065C49.3317 26.6525 48.4501 26.487 47.5652 26.5216Z" fill="#210124"/>
<path opacity="0.38" d="M8.24414 66.1848V18.8672H74.5391L8.24414 66.1848Z" fill="#F7F5FB"/>
<path d="M64.9175 16.7374C64.3645 16.743 63.8159 16.6356 63.303 16.4214C62.79 16.2071 62.3228 15.8903 61.928 15.4889C61.5333 15.0875 61.2186 14.6094 61.0021 14.0819C60.7855 13.5544 60.6713 12.9879 60.666 12.4147C60.7406 11.2958 61.2221 10.248 62.0131 9.48279C62.8041 8.71757 63.8457 8.29199 64.9277 8.29199C66.0097 8.29199 67.0513 8.71757 67.8423 9.48279C68.6333 10.248 69.1147 11.2958 69.1894 12.4147C69.1733 13.5743 68.7148 14.6801 67.9143 15.4901C67.1137 16.3002 66.0362 16.7487 64.9175 16.7374ZM64.9175 10.2007C64.3571 10.1886 63.8138 10.401 63.4008 10.7939C62.9877 11.1867 62.7368 11.7295 62.7002 12.3093C62.7532 12.8836 63.0108 13.4168 63.4227 13.8048C63.8345 14.1929 64.3711 14.4079 64.9277 14.4079C65.4843 14.4079 66.0208 14.1929 66.4327 13.8048C66.8446 13.4168 67.1022 12.8836 67.1552 12.3093C67.1136 11.7277 66.8584 11.1847 66.442 10.7924C66.0257 10.4001 65.48 10.1883 64.9175 10.2007Z" fill="#210124"/>
<path d="M55.3969 13.4695H48.0737C47.804 13.4695 47.5453 13.3584 47.3545 13.1607C47.1638 12.9629 47.0566 12.6948 47.0566 12.4152C47.0566 12.1355 47.1638 11.8674 47.3545 11.6696C47.5453 11.4719 47.804 11.3608 48.0737 11.3608H55.3969C55.6667 11.3608 55.9254 11.4719 56.1161 11.6696C56.3069 11.8674 56.414 12.1355 56.414 12.4152C56.414 12.6948 56.3069 12.9629 56.1161 13.1607C55.9254 13.3584 55.6667 13.4695 55.3969 13.4695Z" fill="#210124"/>
<path d="M49.294 58.5095C49.1192 58.5066 48.9478 58.4589 48.7952 58.3706C48.6425 58.2823 48.5134 58.1561 48.4193 58.0034C48.283 57.7619 48.2429 57.4749 48.3075 57.2032C48.372 56.9316 48.5362 56.6967 48.7651 56.5485C49.0702 56.3587 55.9865 52.1204 61.9875 54.2079C62.1159 54.2484 62.2351 54.3154 62.3379 54.4049C62.4407 54.4943 62.5251 54.6044 62.5859 54.7284C62.6466 54.8525 62.6826 54.988 62.6917 55.1268C62.7007 55.2656 62.6826 55.4049 62.6384 55.5363C62.5546 55.8019 62.3726 56.0221 62.1323 56.1486C61.892 56.2751 61.6131 56.2976 61.3569 56.2111C56.2306 54.4188 49.8839 58.3197 49.8229 58.3197C49.6635 58.4253 49.4822 58.4903 49.294 58.5095Z" fill="#210124"/>
<path d="M33.2643 59.374C33.029 59.371 32.8008 59.2897 32.6134 59.1421C29.9204 57.3091 26.739 56.4017 23.5205 56.5485C23.2532 56.5551 22.9934 56.4565 22.7934 56.2727C22.5934 56.0888 22.468 55.8333 22.4423 55.5574C22.431 55.279 22.5243 55.007 22.7026 54.7985C22.881 54.59 23.1304 54.4615 23.3984 54.4399C27.1341 54.2497 30.8274 55.3308 33.9153 57.5185C34.0727 57.6579 34.1852 57.8439 34.2379 58.0515C34.2906 58.2591 34.2809 58.4784 34.2102 58.6801C34.1394 58.8818 34.0109 59.0563 33.8419 59.1803C33.6729 59.3044 33.4714 59.3719 33.2643 59.374Z" fill="#210124"/>
<path d="M48.7454 63.4857C48.5913 63.4788 48.4397 63.4431 48.2979 63.3803C45.9965 62.3443 43.5142 61.8097 41.0052 61.8097C38.4962 61.8097 36.0139 62.3443 33.7126 63.3803C33.5923 63.4412 33.4617 63.477 33.3282 63.4856C33.1946 63.4942 33.0608 63.4754 32.9342 63.4304C32.8076 63.3854 32.6909 63.3149 32.5906 63.2231C32.4903 63.1313 32.4084 63.0199 32.3496 62.8953C32.2909 62.7707 32.2563 62.6353 32.2481 62.4969C32.2398 62.3584 32.2579 62.2197 32.3013 62.0885C32.3447 61.9573 32.4127 61.8362 32.5013 61.7323C32.5898 61.6283 32.6973 61.5434 32.8175 61.4825C35.3938 60.2898 38.1837 59.6733 41.0052 59.6733C43.8268 59.6733 46.6166 60.2898 49.1929 61.4825C49.3133 61.5433 49.4209 61.628 49.5096 61.732C49.5983 61.8359 49.6664 61.957 49.7098 62.0882C49.7533 62.2195 49.7713 62.3583 49.7629 62.4968C49.7545 62.6353 49.7198 62.7707 49.6608 62.8953C49.581 63.076 49.4516 63.2284 49.2888 63.3333C49.126 63.4383 48.937 63.4913 48.7454 63.4857Z" fill="#210124"/>
<path d="M74.5393 66.2693H8.3257C8.05758 66.2639 7.80189 66.1511 7.61226 65.9545C7.42263 65.7579 7.3138 65.4929 7.30859 65.215C7.30859 64.9353 7.41575 64.6672 7.6065 64.4694C7.79724 64.2717 8.05595 64.1606 8.3257 64.1606H74.5393C74.809 64.1606 75.0677 64.2717 75.2585 64.4694C75.4492 64.6672 75.5564 64.9353 75.5564 65.215C75.5512 65.4929 75.4424 65.7579 75.2527 65.9545C75.0631 66.1511 74.8074 66.2639 74.5393 66.2693Z" fill="#210124"/>
<path d="M74.5393 19.9216H8.3257C8.05758 19.9162 7.80189 19.8034 7.61226 19.6068C7.42263 19.4103 7.3138 19.1452 7.30859 18.8673C7.30859 18.5877 7.41575 18.3195 7.6065 18.1218C7.79724 17.9241 8.05595 17.813 8.3257 17.813H74.5393C74.809 17.813 75.0677 17.9241 75.2585 18.1218C75.4492 18.3195 75.5564 18.5877 75.5564 18.8673C75.5512 19.1452 75.4424 19.4103 75.2527 19.6068C75.0631 19.8034 74.8074 19.9162 74.5393 19.9216Z" fill="#210124"/>
<path d="M70.2668 73.3332H12.5155C11.1144 73.3277 9.77229 72.7483 8.78158 71.7213C7.79087 70.6944 7.23192 69.3031 7.22656 67.8508V9.92677C7.23192 8.47445 7.79087 7.08319 8.78158 6.05624C9.77229 5.02929 11.1144 4.44989 12.5155 4.44434H70.2668C71.6679 4.44989 73.01 5.02929 74.0007 6.05624C74.9914 7.08319 75.5504 8.47445 75.5557 9.92677V67.8508C75.5504 69.3031 74.9914 70.6944 74.0007 71.7213C73.01 72.7483 71.6679 73.3277 70.2668 73.3332ZM12.5155 6.55296C11.6523 6.55296 10.8244 6.90842 10.2141 7.54113C9.60368 8.17384 9.26077 9.03198 9.26077 9.92677V67.8508C9.26077 68.2938 9.34496 68.7326 9.50853 69.1419C9.67209 69.5512 9.91183 69.9231 10.2141 70.2364C10.5163 70.5497 10.8751 70.7982 11.27 70.9678C11.6649 71.1373 12.0881 71.2246 12.5155 71.2246H70.2668C70.6942 71.2246 71.1174 71.1373 71.5123 70.9678C71.9072 70.7982 72.266 70.5497 72.5682 70.2364C72.8705 69.9231 73.1102 69.5512 73.2738 69.1419C73.4373 68.7326 73.5215 68.2938 73.5215 67.8508V9.92677C73.5215 9.03198 73.1786 8.17384 72.5682 7.54113C71.9579 6.90842 71.13 6.55296 70.2668 6.55296H12.5155Z" fill="#210124"/>
<path d="M24.0502 34.0071L13.6351 28.7566L3.24023 34.0071V27.9132L13.6351 22.6416L24.0502 27.9132V34.0071Z" fill="#00916E"/>
<path d="M24.0502 44.1707L13.6351 38.8991L3.24023 44.1707V38.0767L13.6351 32.8052L24.0502 38.0767V44.1707Z" fill="#00916E"/>
<path d="M24.0494 35.0617C23.9029 35.1029 23.7484 35.1029 23.6019 35.0617L13.6342 30.0221L3.68695 34.9563C3.53852 35.0451 3.37014 35.0919 3.19874 35.0919C3.02734 35.0919 2.85897 35.0451 2.71053 34.9563C2.54809 34.8547 2.41629 34.7081 2.33002 34.533C2.24374 34.3578 2.20644 34.1612 2.22232 33.9652V27.9135C2.22426 27.7164 2.27841 27.5236 2.37886 27.3563C2.47931 27.189 2.62219 27.0535 2.7919 26.9646L13.1867 21.693C13.3256 21.6207 13.4788 21.583 13.6342 21.583C13.7897 21.583 13.9429 21.6207 14.0818 21.693L24.5986 26.9646C24.7684 27.0535 24.9112 27.189 25.0117 27.3563C25.1121 27.5236 25.1663 27.7164 25.1682 27.9135V33.9652C25.1693 34.1472 25.1248 34.3263 25.0393 34.4852C24.9537 34.6441 24.83 34.7773 24.68 34.8719C24.4973 35.0088 24.2744 35.0758 24.0494 35.0617ZM13.6342 27.6393C13.7917 27.639 13.9463 27.6827 14.0818 27.7659L23.0323 32.2783V28.5671L13.6342 23.8227L4.25653 28.5671V32.3205L13.1867 27.808C13.3194 27.7127 13.4735 27.6546 13.6342 27.6393Z" fill="#210124"/>
<path d="M3.23976 45.2253C3.05181 45.2208 2.86874 45.1624 2.71087 45.0566C2.56253 44.9654 2.43956 44.8358 2.35398 44.6806C2.26841 44.5254 2.22316 44.3498 2.22266 44.171V38.0559C2.2237 37.8614 2.27771 37.6711 2.37847 37.507C2.47924 37.3428 2.62266 37.2115 2.79224 37.1281L13.1871 31.8566C13.3259 31.7842 13.4792 31.7466 13.6346 31.7466C13.79 31.7466 13.9432 31.7842 14.0821 31.8566L24.599 37.1281C24.7686 37.2115 24.912 37.3428 25.0127 37.507C25.1135 37.6711 25.1675 37.8614 25.1686 38.0559V44.171C25.1681 44.3498 25.1228 44.5254 25.0372 44.6806C24.9517 44.8358 24.8287 44.9654 24.6804 45.0566C24.5301 45.1397 24.3624 45.1831 24.1921 45.1831C24.0219 45.1831 23.8542 45.1397 23.7039 45.0566L13.6346 40.0802L3.68729 45.1199C3.54694 45.1873 3.39444 45.2232 3.23976 45.2253ZM13.6346 37.8451C13.7893 37.8472 13.9418 37.8831 14.0821 37.9505L23.0326 42.3997V38.7307L13.6346 33.9652L4.25687 38.7307V42.3997L13.1871 37.8662C13.3336 37.8301 13.4855 37.8229 13.6346 37.8451Z" fill="#210124"/>
<path d="M41.4816 34.2329C43.0409 33.0499 43.7187 31.2605 42.9955 30.2362C42.2722 29.2118 40.4218 29.3405 38.8625 30.5235C37.3032 31.7065 36.6254 33.4959 37.3486 34.5202C38.0718 35.5446 39.9222 35.416 41.4816 34.2329Z" fill="#F7F5FB"/>
<path d="M41.0855 40.1903C42.2097 39.3374 42.7014 38.0518 42.1839 37.3188C41.6663 36.5858 40.3354 36.683 39.2113 37.5358C38.0871 38.3887 37.5953 39.6743 38.1129 40.4073C38.6304 41.1403 39.9613 41.0432 41.0855 40.1903Z" fill="#F7F5FB"/>
</g>
<defs>
<clipPath id="clip0_692:7497">
<rect width="73.3333" height="68.8889" fill="white" transform="translate(2.22266 4.44434)"/>
</clipPath>
</defs>
</svg>
