<svg width="40" height="40" viewBox="0 0 40 40" fill="none" xmlns="http://www.w3.org/2000/svg">
<g clip-path="url(#clip0)">
<path d="M33.074 15.93C30.0164 12.3067 24.5479 7.66065 20 12.8943C15.4411 7.66065 9.98356 12.3067 6.92602 15.93C5.59286 17.5444 3.93094 18.8608 2.04931 19.7926L1.09589 20.1408C1.44782 20.2923 1.81527 20.4054 2.19178 20.4781L2.57534 20.5978H2.41095C2.41095 20.5978 4.71233 28.9651 20.0329 28.2905C35.3753 28.9651 37.6548 20.5978 37.6548 20.5978L38.3562 20.3367C38.5292 20.2848 38.6977 20.2193 38.8603 20.1408C36.6013 19.2502 34.6094 17.8007 33.074 15.93Z" fill="#BE1E2D"/>
<path d="M33.074 15.93C30.0164 12.3067 24.5479 7.66065 20 12.8943C15.4411 7.66065 9.98356 12.3067 6.92602 15.93C5.59286 17.5444 3.93094 18.8608 2.04931 19.7926L1.09589 20.1408C1.44782 20.2923 1.81527 20.4054 2.19178 20.4781L2.57534 20.5978H2.41095C2.41095 20.5978 4.71233 28.9651 20.0329 28.2905C35.3753 28.9651 37.6548 20.5978 37.6548 20.5978L38.3562 20.3367C38.5292 20.2848 38.6977 20.2193 38.8603 20.1408C36.6013 19.2502 34.6094 17.8007 33.074 15.93Z" fill="#BE1E2D"/>
<path d="M6.09315 17.0942C9.38082 13.4818 15.1562 8.82488 20 14.0585C24.8438 8.82488 30.6849 13.4818 33.8959 17.0942C35.0949 18.4394 36.5185 19.5694 38.1041 20.4346L38.3562 20.3367C38.5292 20.2847 38.6977 20.2193 38.8603 20.1408C36.5973 19.2519 34.6015 17.8022 33.063 15.93C30.0055 12.3067 24.537 7.66065 19.989 12.8943C15.4411 7.66065 9.98356 12.3067 6.92602 15.93C5.59286 17.5444 3.93094 18.8608 2.04931 19.7926L1.09589 20.1408C1.35712 20.2591 1.62853 20.3537 1.90685 20.4237C3.4821 19.5572 4.89767 18.4314 6.09315 17.0942Z" fill="white"/>
<path d="M20 27.1371C5.75342 27.7682 2.7726 20.6087 2.46575 19.575L2.04931 19.7926L1.09589 20.1408C1.44782 20.2923 1.81527 20.4054 2.19178 20.4781L2.57534 20.5978H2.41095C2.41095 20.5978 4.71233 28.9651 20.0329 28.2905C35.3753 28.9651 37.6548 20.5978 37.6548 20.5978L38.3562 20.3367C38.5292 20.2848 38.6977 20.2193 38.8603 20.1408C38.4162 19.9786 37.9841 19.786 37.5671 19.5641C37.2603 20.5869 34.2246 27.7682 20 27.1371Z" fill="white"/>
<path d="M18.9809 15.7777C13.7863 12.8399 4.50415 20.674 4.50415 20.674L20 20.3258L35.485 20.674C35.485 20.674 26.2028 12.8399 21.0192 15.7777C20.7073 15.9491 20.3566 16.0391 20 16.0391C19.6435 16.0391 19.2928 15.9491 18.9809 15.7777Z" fill="#931625"/>
<path d="M24.6575 19.0201C24.4384 19.0201 20 19.8797 20 19.8797C20 19.8797 15.5617 19.0201 15.3425 19.0201C15.1233 19.0201 6.46576 20.6196 6.46576 20.6196C6.46576 20.6196 7.3096 25.6791 20 25.0915C32.6904 25.6791 33.5343 20.6196 33.5343 20.6196C33.5343 20.6196 24.8767 19.0201 24.6575 19.0201Z" fill="#931625"/>
<path d="M0.549081 20.8807C0.422417 20.8838 0.298594 20.8432 0.198689 20.7658C0.0987846 20.6884 0.0289723 20.5791 0.00113571 20.4563C-0.0166712 20.3856 -0.019958 20.312 -0.00852905 20.2399C0.00289989 20.1678 0.0288111 20.0988 0.067663 20.0368C0.106515 19.9749 0.157514 19.9214 0.217626 19.8794C0.277739 19.8375 0.345736 19.808 0.417574 19.7926C2.81686 19.0056 4.93134 17.5379 6.49977 15.5709C8.64771 13.0466 11.9135 10 15.3436 10C16.3199 10.0209 17.2789 10.2597 18.1496 10.6985C19.0204 11.1374 19.7805 11.7651 20.3737 12.5352C20.4682 12.6449 20.5149 12.7873 20.5036 12.9311C20.4923 13.075 20.4239 13.2085 20.3135 13.3023C20.203 13.3961 20.0596 13.4425 19.9147 13.4312C19.7698 13.42 19.6353 13.3521 19.5409 13.2424C19.0455 12.5982 18.414 12.0695 17.6907 11.6935C16.9675 11.3175 16.1701 11.1035 15.3546 11.0663C12.1874 11.0881 8.97648 14.3523 7.3436 16.2782C5.63953 18.4429 3.31737 20.047 0.680588 20.8807H0.549081Z" fill="#210124"/>
<path d="M39.4521 20.8807H39.3206C36.6838 20.047 34.3616 18.4429 32.6575 16.2782C31.0247 14.3523 27.8137 11.0881 24.6027 11.0881C23.7913 11.1225 22.9977 11.3356 22.2793 11.712C21.561 12.0883 20.9359 12.6185 20.4493 13.2642C20.345 13.3646 20.2055 13.4207 20.0603 13.4207C19.915 13.4207 19.7755 13.3646 19.6712 13.2642C19.6165 13.2183 19.5715 13.162 19.539 13.0985C19.5066 13.0351 19.4872 12.9658 19.4821 12.8949C19.477 12.8239 19.4862 12.7526 19.5093 12.6852C19.5324 12.6178 19.5688 12.5557 19.6164 12.5026C20.208 11.7516 20.958 11.1385 21.8138 10.7061C22.6695 10.2738 23.6103 10.0327 24.5699 10V10C28.0329 10 31.3096 13.0466 33.4466 15.5709C35.0312 17.5402 37.1603 19.0074 39.5726 19.7926C39.7179 19.8085 39.851 19.881 39.9424 19.9943C40.0339 20.1075 40.0763 20.2522 40.0603 20.3965C40.0443 20.5408 39.9712 20.6729 39.8572 20.7637C39.7431 20.8545 39.5974 20.8966 39.4521 20.8807Z" fill="#210124"/>
<path d="M4.61371 21.2724C3.33213 21.3333 2.05272 21.1141 0.865766 20.6304C0.737851 20.5612 0.642214 20.4451 0.599227 20.3069C0.55624 20.1687 0.569302 20.0193 0.635629 19.8905C0.703227 19.7643 0.818156 19.6696 0.95556 19.6268C1.09296 19.5841 1.2418 19.5967 1.36988 19.6621C1.36988 19.6621 3.85755 20.848 8.95344 19.6621C14.3452 18.3564 15.6274 18.2584 17.5452 18.9439C18.2857 19.2694 19.0926 19.4184 19.9014 19.3792C20.0467 19.3532 20.1965 19.3856 20.3177 19.4693C20.439 19.5529 20.5218 19.681 20.548 19.8253C20.5741 19.9695 20.5415 20.1182 20.4572 20.2386C20.3729 20.359 20.244 20.4413 20.0986 20.4672C19.0944 20.5368 18.0879 20.369 17.1617 19.9776C15.5945 19.4118 14.674 19.4118 9.21645 20.7284C7.70925 21.0897 6.16422 21.2723 4.61371 21.2724Z" fill="#210124"/>
<path d="M35.3863 21.2724C33.8336 21.2552 32.2884 21.0543 30.7836 20.674C25.3041 19.3574 24.3945 19.3574 22.8274 19.9232C21.905 20.3145 20.902 20.4824 19.9014 20.4128C19.7592 20.3864 19.6333 20.3052 19.5512 20.187C19.4691 20.0687 19.4374 19.9231 19.463 19.7817C19.4898 19.6399 19.5711 19.5141 19.6897 19.4308C19.8084 19.3475 19.9551 19.3134 20.0986 19.3356C20.9069 19.3672 21.712 19.2184 22.4548 18.9004C24.3726 18.204 25.6548 18.3129 31.0356 19.6185C36.1534 20.8481 38.5973 19.6729 38.6192 19.6185C38.7502 19.5535 38.9017 19.5422 39.0411 19.5869C39.1804 19.6317 39.2965 19.729 39.3644 19.8579C39.4294 19.9864 39.4405 20.1352 39.3953 20.2718C39.3501 20.4084 39.2523 20.5217 39.1233 20.5869C37.9439 21.0867 36.6677 21.3208 35.3863 21.2724Z" fill="#210124"/>
<path d="M18.2466 28.8889C4.25209 28.8889 1.93976 21.1092 1.80826 20.761C1.76902 20.6167 1.78912 20.4629 1.86413 20.3333C1.93915 20.2037 2.06293 20.109 2.20826 20.0701C2.35358 20.0311 2.50854 20.0511 2.63905 20.1256C2.76955 20.2 2.86491 20.3229 2.90415 20.4672C2.99182 20.7936 5.31511 28.3884 19.9781 27.7682C20.0506 27.7587 20.1242 27.7649 20.194 27.7865C20.2637 27.8081 20.3279 27.8444 20.3821 27.8931C20.4363 27.9417 20.4792 28.0015 20.5079 28.0682C20.5365 28.1349 20.5502 28.2071 20.548 28.2796C20.5509 28.351 20.5396 28.4224 20.5148 28.4895C20.4899 28.5566 20.452 28.6182 20.4031 28.6708C20.3543 28.7233 20.2955 28.7658 20.23 28.7957C20.1646 28.8257 20.0939 28.8426 20.022 28.8454C19.4083 28.878 18.8165 28.8889 18.2466 28.8889Z" fill="#210124"/>
<path d="M21.7534 28.8889C21.1726 28.8889 20.5808 28.8889 19.9781 28.8889C19.9061 28.8861 19.8354 28.8692 19.77 28.8393C19.7046 28.8093 19.6458 28.7668 19.5969 28.7143C19.5481 28.6617 19.5101 28.6001 19.4853 28.533C19.4604 28.4659 19.4491 28.3946 19.4521 28.3231C19.4578 28.1836 19.5184 28.0519 19.6208 27.9563C19.7233 27.8606 19.8594 27.8087 20 27.8117C34.6521 28.4319 36.9863 20.8372 37.074 20.5108C37.1147 20.3722 37.2091 20.2554 37.3365 20.1861C37.464 20.1167 37.6139 20.1004 37.7534 20.1408C37.8221 20.1596 37.8863 20.1918 37.9423 20.2355C37.9983 20.2791 38.045 20.3334 38.0797 20.3952C38.1144 20.457 38.1363 20.525 38.1443 20.5953C38.1522 20.6655 38.146 20.7367 38.126 20.8045C38.0603 21.1092 35.737 28.8889 21.7534 28.8889Z" fill="#210124"/>
</g>
<defs>
<clipPath id="clip0">
<rect width="40" height="18.8889" fill="white" transform="translate(0 10)"/>
</clipPath>
</defs>
</svg>
