<svg width="40" height="40" viewBox="0 0 40 40" fill="none" xmlns="http://www.w3.org/2000/svg">
<g clip-path="url(#clip0)">
<path d="M29.3261 1.66211L27.0348 4.85801H13.0379L12.9757 4.84699L10.6843 1.66211L6.53711 4.21883L8.08195 9.38738H12.4676H27.5428H30.3733H31.9285L33.4733 4.21883L29.3261 1.66211Z" fill="white"/>
<path d="M31.1101 5.33193L29.2956 6.78662L28.6321 6.24662L20.0059 6.3458V9.38742H31.5351L32.3439 7.35967L33.474 4.21887L31.1101 5.33193Z" fill="#D1D1D1"/>
<path d="M8.90103 5.33193L10.7258 6.78662L11.3894 6.24662L20.0052 6.3458V9.38742H8.48631L7.6776 7.35967L6.53711 4.21887L8.90103 5.33193Z" fill="#D1D1D1"/>
<path d="M31.9299 9.92739H27.5443C27.4068 9.92739 27.2749 9.86934 27.1777 9.766C27.0805 9.66267 27.0259 9.52251 27.0259 9.37638C27.0259 9.23024 27.0805 9.09008 27.1777 8.98675C27.2749 8.88341 27.4068 8.82536 27.5443 8.82536H31.5567L32.8527 4.41722L29.4623 2.37845L27.7101 4.82497L29.255 6.09231L30.2918 5.3319L29.7423 4.89109C29.6332 4.7998 29.5623 4.66658 29.5448 4.52019C29.5274 4.37379 29.5648 4.22597 29.649 4.10865C29.733 3.99343 29.8566 3.91831 29.9926 3.89972C30.1286 3.88113 30.266 3.92059 30.3747 4.00946L31.4738 4.89109C31.5345 4.94512 31.5836 5.01249 31.6176 5.08858C31.6516 5.16467 31.6698 5.24768 31.6707 5.3319C31.6724 5.41775 31.6544 5.50275 31.6183 5.57955C31.5822 5.65635 31.529 5.72265 31.4634 5.77272L29.6075 7.22741C29.5171 7.29729 29.4082 7.33493 29.2965 7.33493C29.1847 7.33493 29.0758 7.29729 28.9854 7.22741L26.6733 5.37599C26.6178 5.33299 26.5709 5.2787 26.5353 5.21627C26.4997 5.15384 26.4762 5.08451 26.466 5.01231C26.4563 4.93869 26.4606 4.86377 26.4783 4.79189C26.4961 4.72001 26.5272 4.65259 26.5697 4.59354L28.9128 1.28743C28.9893 1.1802 29.1001 1.10643 29.2243 1.08004C29.3484 1.05365 29.4773 1.07646 29.5868 1.14417L33.734 3.70089C33.8374 3.76139 33.9178 3.85828 33.9613 3.97493C34.0048 4.09157 34.0088 4.22068 33.9725 4.34007L32.4276 9.51964C32.3966 9.63524 32.3315 9.73722 32.2419 9.81061C32.1524 9.884 32.043 9.92493 31.9299 9.92739Z" fill="#210124"/>
<path d="M12.427 9.92741H8.0413C7.93173 9.92887 7.82455 9.8934 7.73514 9.82608C7.64573 9.75876 7.57868 9.66306 7.54363 9.55272L5.99879 4.41723C5.96356 4.29895 5.96691 4.1715 6.00831 4.0555C6.0497 3.9395 6.12672 3.84174 6.22688 3.77805L10.3741 1.22133C10.48 1.14998 10.6066 1.12183 10.7305 1.14209C10.8544 1.16235 10.9672 1.22965 11.048 1.33153L13.4016 4.63764C13.4423 4.6975 13.4714 4.7653 13.4874 4.83716C13.5035 4.90901 13.506 4.98352 13.4949 5.05641C13.4891 5.12865 13.4684 5.19865 13.4344 5.26149C13.4003 5.32432 13.3538 5.37846 13.2979 5.42008L10.9858 7.22742C10.8954 7.29731 10.7866 7.33495 10.6748 7.33495C10.563 7.33495 10.4541 7.29731 10.3637 7.22742L8.51823 5.77274C8.45443 5.72083 8.40259 5.65416 8.36666 5.57778C8.33073 5.5014 8.31165 5.41732 8.31087 5.33192C8.3138 5.24697 8.33383 5.16366 8.3696 5.08763C8.40536 5.01159 8.45605 4.94458 8.51823 4.89111L9.61724 4.00948C9.72595 3.92061 9.86337 3.88114 9.9994 3.89973C10.1354 3.91832 10.259 3.99345 10.343 4.10866C10.4235 4.22831 10.4576 4.37627 10.4383 4.52192C10.419 4.66757 10.3478 4.79975 10.2393 4.89111L9.68982 5.33192L10.654 6.09233L12.2611 4.82499L10.4985 2.37847L7.10817 4.47233L8.41455 8.82538H12.427C12.5636 8.8282 12.694 8.88716 12.7906 8.98989C12.8873 9.09262 12.9427 9.23114 12.9454 9.37639C12.9454 9.52253 12.8908 9.66269 12.7936 9.76602C12.6963 9.86936 12.5645 9.92741 12.427 9.92741Z" fill="#210124"/>
<path d="M33.8376 12.5392H6.68359V29.8522H33.8376V12.5392Z" fill="white"/>
<path d="M33.8272 15.5037L6.68359 16.1539V29.8522H15.7971L33.8272 16.4735V15.5037Z" fill="#D1D1D1"/>
<path d="M29.794 12.5392H10.7168V27.1853H29.794V12.5392Z" fill="#4F345A"/>
<path d="M29.794 21.113V15.6359L10.7168 16.0216V27.1853H18.6898L29.794 21.113Z" fill="#41294C"/>
<path d="M35.1131 38.3378H4.8902L3.6875 32.0122L6.68387 29.8522H33.8275L36.1499 32.8828L35.1131 38.3378Z" fill="white"/>
<path d="M33.9202 37.0044H6.09235L5.37695 32.3207H34.7186L33.9202 37.0044Z" fill="#D1D1D1"/>
<path d="M29.7929 27.7363H10.7157C10.5782 27.7363 10.4463 27.6783 10.3491 27.5749C10.2519 27.4716 10.1973 27.3314 10.1973 27.1853V12.5392C10.1973 12.3931 10.2519 12.2529 10.3491 12.1496C10.4463 12.0463 10.5782 11.9882 10.7157 11.9882H29.7929C29.9304 11.9882 30.0623 12.0463 30.1595 12.1496C30.2567 12.2529 30.3113 12.3931 30.3113 12.5392V27.1853C30.3113 27.3314 30.2567 27.4716 30.1595 27.5749C30.0623 27.6783 29.9304 27.7363 29.7929 27.7363ZM11.2341 26.6343H29.2538V13.0903H11.2341V26.6343Z" fill="#210124"/>
<path d="M33.8261 30.4032H6.68247C6.54498 30.4032 6.41312 30.3452 6.3159 30.2418C6.21868 30.1385 6.16406 29.9984 6.16406 29.8522V12.5392C6.16406 12.3931 6.21868 12.2529 6.3159 12.1496C6.41312 12.0463 6.54498 11.9882 6.68247 11.9882H33.8261C33.9636 11.9882 34.0954 12.0463 34.1926 12.1496C34.2898 12.2529 34.3445 12.3931 34.3445 12.5392V29.8522C34.3445 29.9984 34.2898 30.1385 34.1926 30.2418C34.0954 30.3452 33.9636 30.4032 33.8261 30.4032ZM7.20087 29.3012H33.3077V13.0903H7.20087V29.3012Z" fill="#210124"/>
<path d="M13.9297 19.7466C13.1616 19.6618 12.4507 19.2763 11.9353 18.6653C11.4198 18.0542 11.1365 17.2612 11.1407 16.4405V7.93274H17.0401V16.6168C17.0392 17.0426 16.9569 17.4638 16.7982 17.8547C16.6394 18.2457 16.4076 18.5982 16.1166 18.891C15.8257 19.1837 15.4818 19.4105 15.1059 19.5576C14.7299 19.7047 14.3297 19.769 13.9297 19.7466Z" fill="#F7F5FB"/>
<path d="M25.7187 19.7466C24.9507 19.6618 24.2398 19.2763 23.7243 18.6653C23.2088 18.0542 22.9256 17.2612 22.9297 16.4405V7.93274H28.8188V16.6168C28.8194 17.0421 28.7384 17.463 28.5808 17.8539C28.4231 18.2449 28.1922 18.5975 27.9021 18.8904C27.612 19.1833 27.2688 19.4103 26.8934 19.5575C26.518 19.7047 26.1183 19.769 25.7187 19.7466Z" fill="#F7F5FB"/>
<path d="M8.04101 19.7465C7.27297 19.6618 6.56207 19.2763 6.04658 18.6653C5.53109 18.0542 5.24787 17.2612 5.252 16.4404V9.17803C5.25335 9.01304 5.28527 8.84996 5.34592 8.69809C5.40658 8.54621 5.49478 8.40853 5.6055 8.29289C5.71622 8.17725 5.84729 8.08593 5.99121 8.02413C6.13514 7.96233 6.28911 7.93127 6.44433 7.93273H11.1411V16.6168C11.1416 17.0421 11.0606 17.463 10.903 17.8539C10.7454 18.2448 10.5145 18.5975 10.2244 18.8904C9.93427 19.1833 9.59104 19.4103 9.21565 19.5575C8.84025 19.7047 8.44057 19.769 8.04101 19.7465Z" fill="#BE1E2D"/>
<path d="M11.1407 15.7792V16.4404C11.1365 17.2611 11.4198 18.0542 11.9353 18.6652C12.4507 19.2763 13.1616 19.6617 13.9297 19.7465C14.3297 19.7689 14.7299 19.7046 15.1059 19.5575C15.4818 19.4105 15.8257 19.1837 16.1166 18.8909C16.4076 18.5982 16.6394 18.2456 16.7982 17.8547C16.9569 17.4637 17.0392 17.0425 17.0401 16.6167V15.7792H11.1407Z" fill="#B7CACE"/>
<path d="M22.9297 15.7792V16.4404C22.9256 17.2611 23.2088 18.0542 23.7243 18.6652C24.2398 19.2763 24.9507 19.6617 25.7187 19.7465C26.1192 19.7705 26.52 19.7073 26.8966 19.5608C27.2732 19.4143 27.6177 19.1876 27.9089 18.8946C28.2002 18.6015 28.432 18.2483 28.5903 17.8566C28.7485 17.4649 28.8298 17.043 28.8292 16.6167V15.7792H22.9297Z" fill="#B7CACE"/>
<path d="M5.252 15.7792V16.4404C5.24787 17.2611 5.53109 18.0542 6.04658 18.6652C6.56207 19.2763 7.27297 19.6617 8.04101 19.7465C8.44142 19.7705 8.84222 19.7073 9.21884 19.5608C9.59546 19.4143 9.93995 19.1876 10.2312 18.8946C10.5224 18.6015 10.7543 18.2483 10.9125 17.8566C11.0708 17.4649 11.1521 17.043 11.1514 16.6167V15.7792H5.252Z" fill="#931625"/>
<path d="M19.8301 19.7466C19.062 19.6618 18.3511 19.2763 17.8356 18.6653C17.3202 18.0542 17.0369 17.2612 17.0411 16.4405V7.93274H22.9301V16.6168C22.9292 17.0416 22.8472 17.4618 22.6891 17.852C22.531 18.2422 22.3 18.5942 22.0102 18.8868C21.7204 19.1794 21.3778 19.4064 21.0031 19.5542C20.6283 19.702 20.2293 19.7674 19.8301 19.7466Z" fill="#BE1E2D"/>
<path d="M17.0411 15.7792V16.4404C17.0369 17.2611 17.3202 18.0542 17.8356 18.6652C18.3511 19.2763 19.062 19.6617 19.8301 19.7465C20.2301 19.7689 20.6303 19.7046 21.0062 19.5575C21.3822 19.4105 21.7261 19.1837 22.017 18.8909C22.3079 18.5982 22.5398 18.2456 22.6986 17.8547C22.8573 17.4637 22.9396 17.0425 22.9405 16.6167V15.7792H17.0411Z" fill="#931625"/>
<path d="M31.6074 19.7466C30.8394 19.6618 30.1285 19.2763 29.613 18.6653C29.0975 18.0542 28.8143 17.2612 28.8184 16.4405V7.93274H33.5359C33.8476 7.93273 34.1466 8.06357 34.368 8.2968C34.5894 8.53003 34.7151 8.84676 34.7178 9.17804V16.6168C34.717 17.0426 34.6347 17.4638 34.4759 17.8547C34.3172 18.2457 34.0853 18.5982 33.7944 18.891C33.5034 19.1837 33.1595 19.4105 32.7836 19.5576C32.4076 19.7047 32.0075 19.769 31.6074 19.7466Z" fill="#BE1E2D"/>
<path d="M28.8184 15.7792V16.4404C28.8143 17.2611 29.0975 18.0542 29.613 18.6652C30.1285 19.2763 30.8394 19.6617 31.6074 19.7465C32.0075 19.7689 32.4076 19.7046 32.7836 19.5575C33.1595 19.4105 33.5034 19.1837 33.7944 18.8909C34.0853 18.5982 34.3172 18.2456 34.4759 17.8547C34.6347 17.4637 34.717 17.0425 34.7178 16.6167V15.7792H28.8184Z" fill="#931625"/>
<path d="M8.1976 20.2975H8.01097C7.10816 20.2115 6.26916 19.7665 5.66173 19.0514C5.0543 18.3363 4.72321 17.4038 4.73466 16.4404V9.17798C4.73465 8.94022 4.77904 8.70482 4.86526 8.48543C4.95148 8.26605 5.07783 8.06703 5.23696 7.89994C5.39609 7.73284 5.58485 7.60099 5.79229 7.51202C5.99973 7.42306 6.22172 7.37875 6.44539 7.38167H11.1421C11.2102 7.38167 11.2776 7.39592 11.3405 7.42361C11.4034 7.4513 11.4606 7.49189 11.5087 7.54306C11.5568 7.59422 11.595 7.65497 11.6211 7.72182C11.6471 7.78867 11.6605 7.86032 11.6605 7.93268V16.6167C11.6605 17.5929 11.2957 18.5292 10.6463 19.2194C9.99683 19.9097 9.11602 20.2975 8.1976 20.2975ZM8.07318 19.1955C8.39955 19.2088 8.72509 19.152 9.0303 19.0284C9.33551 18.9048 9.61409 18.717 9.84936 18.4762C10.0846 18.2354 10.2717 17.9465 10.3994 17.627C10.5272 17.3075 10.5929 16.9639 10.5926 16.6167V8.4837H6.44539C6.27119 8.48368 6.10396 8.55647 5.97982 8.68637C5.85567 8.81626 5.78456 8.99284 5.78184 9.17798V16.4404C5.76833 17.1234 5.99792 17.7866 6.42468 18.2974C6.85143 18.8083 7.44389 19.129 8.08355 19.1955H8.07318Z" fill="#210124"/>
<path d="M14.0964 20.2976H13.9098C12.9996 20.2221 12.1504 19.7817 11.5343 19.0654C10.9182 18.3492 10.5814 17.4108 10.592 16.4404V7.93273C10.592 7.78659 10.6467 7.64644 10.7439 7.5431C10.8411 7.43977 10.973 7.38171 11.1104 7.38171H17.0099C17.1474 7.38171 17.2792 7.43977 17.3764 7.5431C17.4737 7.64644 17.5283 7.78659 17.5283 7.93273V16.6168C17.5283 17.593 17.1634 18.5292 16.514 19.2195C15.8646 19.9098 14.9838 20.2976 14.0653 20.2976H14.0964ZM13.9617 19.1955C14.2914 19.215 14.6215 19.1628 14.9315 19.0419C15.2416 18.9211 15.5252 18.7342 15.765 18.4928C16.0048 18.2514 16.1956 17.9605 16.3259 17.6379C16.4562 17.3153 16.5231 16.9678 16.5226 16.6168V8.48375H11.6288V16.4404C11.6178 17.1227 11.8482 17.7846 12.2745 18.2949C12.7008 18.8051 13.2918 19.1266 13.9306 19.1955H13.9617Z" fill="#210124"/>
<path d="M19.9847 20.2976H19.7981C18.8953 20.2116 18.0563 19.7665 17.4488 19.0514C16.8414 18.3363 16.5103 17.4038 16.5218 16.4404V7.93273C16.5218 7.78659 16.5764 7.64644 16.6736 7.5431C16.7708 7.43977 16.9027 7.38171 17.0402 7.38171H22.9292C23.0667 7.38171 23.1986 7.43977 23.2958 7.5431C23.393 7.64644 23.4476 7.78659 23.4476 7.93273V16.6168C23.4476 17.593 23.0828 18.5292 22.4334 19.2195C21.7839 19.9098 20.9031 20.2976 19.9847 20.2976ZM19.8499 19.1955C20.1797 19.215 20.5097 19.1628 20.8198 19.0419C21.1299 18.9211 21.4135 18.7342 21.6533 18.4928C21.893 18.2514 22.0839 17.9605 22.2141 17.6379C22.3444 17.3153 22.4113 16.9678 22.4108 16.6168V8.48375H17.5586V16.4404C17.5449 17.1217 17.773 17.7835 18.1976 18.294C18.6222 18.8046 19.2121 19.1264 19.8499 19.1955Z" fill="#210124"/>
<path d="M25.8734 20.2976H25.6868C24.7839 20.2116 23.9449 19.7665 23.3375 19.0514C22.7301 18.3363 22.399 17.4038 22.4104 16.4404V7.93273C22.4104 7.78659 22.4651 7.64644 22.5623 7.5431C22.6595 7.43977 22.7914 7.38171 22.9288 7.38171H28.8179C28.9554 7.38171 29.0873 7.43977 29.1845 7.5431C29.2817 7.64644 29.3363 7.78659 29.3363 7.93273V16.6168C29.3363 17.593 28.9715 18.5292 28.322 19.2195C27.6726 19.9098 26.7918 20.2976 25.8734 20.2976ZM25.7386 19.1955C26.0684 19.215 26.3984 19.1628 26.7085 19.0419C27.0186 18.9211 27.3022 18.7342 27.5419 18.4928C27.7817 18.2514 27.9726 17.9605 28.1028 17.6379C28.2331 17.3153 28.3 16.9678 28.2995 16.6168V8.48375H23.4473V16.4404C23.4335 17.1217 23.6617 17.7835 24.0863 18.294C24.5109 18.8046 25.1008 19.1264 25.7386 19.1955Z" fill="#210124"/>
<path d="M31.7744 20.2976H31.5774C30.6746 20.2116 29.8356 19.7665 29.2281 19.0514C28.6207 18.3363 28.2896 17.4038 28.3011 16.4404V7.93273C28.3011 7.78659 28.3557 7.64644 28.4529 7.5431C28.5501 7.43977 28.682 7.38171 28.8195 7.38171H33.5369C33.9861 7.3817 34.417 7.57061 34.7356 7.90717C35.0542 8.24373 35.2346 8.70061 35.2373 9.17803V16.6168C35.2319 17.5912 34.8653 18.5241 34.217 19.2131C33.5688 19.9021 32.6911 20.2918 31.7744 20.2976ZM31.6396 19.1955C31.9693 19.215 32.2994 19.1628 32.6095 19.0419C32.9196 18.9211 33.2032 18.7342 33.4429 18.4928C33.6827 18.2514 33.8736 17.9605 34.0038 17.6379C34.1341 17.3153 34.201 16.9678 34.2005 16.6168V9.17803C34.1978 8.99289 34.1267 8.81631 34.0025 8.68642C33.8784 8.55652 33.7111 8.48373 33.5369 8.48375H29.3379V16.4404C29.3268 17.1227 29.5572 17.7846 29.9835 18.2949C30.4098 18.8051 31.0009 19.1266 31.6396 19.1955Z" fill="#210124"/>
<path d="M35.1123 38.8889H4.88935C4.76606 38.8933 4.64547 38.8499 4.55008 38.7668C4.45469 38.6836 4.39102 38.5664 4.37095 38.437L3.33414 31.9681C3.31672 31.8637 3.328 31.7562 3.36662 31.6585C3.40524 31.5608 3.46956 31.4769 3.55187 31.4171L6.37198 29.3673C6.46011 29.3019 6.56518 29.2672 6.67266 29.2681H33.8266C33.9489 29.2664 34.0673 29.3136 34.1584 29.4004L36.512 31.4832C36.5825 31.545 36.6369 31.6252 36.6696 31.716C36.7023 31.8068 36.7123 31.905 36.6986 32.0012L35.6618 38.437C35.639 38.5713 35.5703 38.6918 35.4688 38.7753C35.3673 38.8587 35.2402 38.8992 35.1123 38.8889ZM5.32481 37.7868H34.6768L35.5892 32.1334L33.64 30.4032H6.83855L4.42279 32.1665L5.32481 37.7868Z" fill="#210124"/>
<path d="M27.2837 5.40904H13.0379C12.9004 5.40904 12.7686 5.35099 12.6714 5.24765C12.5741 5.14432 12.5195 5.00416 12.5195 4.85802C12.5195 4.71189 12.5741 4.57173 12.6714 4.4684C12.7686 4.36506 12.9004 4.30701 13.0379 4.30701H27.2837C27.4203 4.30983 27.5506 4.36879 27.6473 4.47152C27.7439 4.57425 27.7994 4.71277 27.8021 4.85802C27.8021 5.00416 27.7474 5.14432 27.6502 5.24765C27.553 5.35099 27.4211 5.40904 27.2837 5.40904Z" fill="#210124"/>
</g>
<defs>
<clipPath id="clip0">
<rect width="33.3333" height="37.7778" fill="white" transform="translate(3.33398 1.11108)"/>
</clipPath>
</defs>
</svg>
