<svg width="40" height="40" viewBox="0 0 40 40" fill="none" xmlns="http://www.w3.org/2000/svg">
<path d="M29.1941 11.6931C28.8684 11.6915 28.5456 11.7582 28.2442 11.8893C27.9429 12.0203 27.6689 12.2132 27.438 12.4569C27.2072 12.7005 27.024 12.9901 26.899 13.3089C26.7741 13.6278 26.7097 13.9697 26.7097 14.3151V13.6096C26.6676 12.943 26.3882 12.3183 25.9279 11.862C25.4677 11.4056 24.8611 11.1517 24.2309 11.1517C23.6007 11.1517 22.9941 11.4056 22.5339 11.862C22.0736 12.3183 21.7942 12.943 21.7521 13.6096V12.5514C21.71 11.8848 21.4305 11.2601 20.9703 10.8038C20.5101 10.3474 19.9034 10.0935 19.2732 10.0935C18.6431 10.0935 18.0364 10.3474 17.5762 10.8038C17.116 11.2601 16.8365 11.8848 16.7944 12.5514V4.32094C16.7944 3.62243 16.5327 2.95252 16.0668 2.4586C15.6009 1.96468 14.9689 1.68719 14.3101 1.68719C13.6512 1.68719 13.0192 1.96468 12.5533 2.4586C12.0874 2.95252 11.8257 3.62243 11.8257 4.32094V18.1128C10.8971 18.119 10.0085 18.5145 9.35394 19.2128C8.69938 19.9111 8.33201 20.8556 8.33203 21.84V25.92C8.34769 29.1017 9.51926 32.1546 11.6033 34.4442C13.6872 36.7339 16.5234 38.0841 19.5221 38.2143C22.5209 38.3445 25.4517 37.2446 27.7053 35.1433C29.9589 33.042 31.362 30.1008 31.623 26.9312C31.6402 26.7631 31.6402 26.5936 31.623 26.4256V14.268C31.6116 13.5889 31.3521 12.9409 30.899 12.4606C30.4459 11.9803 29.8347 11.7051 29.1941 11.6931Z" fill="#F7F5FB"/>
<path d="M29.1947 11.6931C28.8689 11.6915 28.5461 11.7582 28.2448 11.8893C27.9434 12.0204 27.6695 12.2132 27.4386 12.4569C27.2078 12.7005 27.0246 12.9901 26.8996 13.309C26.7746 13.6278 26.7103 13.9698 26.7103 14.3151V23.3333C26.7217 23.5016 26.7217 23.6706 26.7103 23.8389C26.5751 25.673 26.0551 27.4519 25.1881 29.0455C24.321 30.6392 23.129 32.0072 21.6992 33.0497C20.2693 34.0922 18.6378 34.7827 16.9238 35.0708C15.2099 35.3589 13.4569 35.2373 11.793 34.7148C13.3675 36.3728 15.3558 37.5199 17.5241 38.0211C19.6924 38.5224 21.9507 38.357 24.0334 37.5445C26.1161 36.732 27.9368 35.306 29.2813 33.4342C30.6259 31.5625 31.4385 29.3227 31.6236 26.9782C31.6407 26.8102 31.6407 26.6407 31.6236 26.4726V14.268C31.6122 13.5889 31.3526 12.9409 30.8996 12.4606C30.4465 11.9803 29.8353 11.7052 29.1947 11.6931Z" fill="#B7CACE"/>
<path d="M19.9774 38.8889C16.7417 38.8889 13.6386 37.5262 11.3507 35.1007C9.0627 32.6752 7.77734 29.3855 7.77734 25.9553V21.8401C7.78272 20.8035 8.13798 19.8033 8.77883 19.0204C9.41967 18.2375 10.3037 17.7237 11.271 17.572V4.33272C11.271 3.47829 11.5912 2.65885 12.1611 2.05468C12.731 1.45051 13.5039 1.11108 14.3099 1.11108C15.1159 1.11108 15.8888 1.45051 16.4588 2.05468C17.0287 2.65885 17.3488 3.47829 17.3488 4.33272V10.0705C17.8879 9.59627 18.5671 9.33821 19.2676 9.34154C19.8644 9.33902 20.4485 9.52424 20.946 9.87376C21.4436 10.2233 21.8321 10.7214 22.0625 11.3051C22.4023 10.9428 22.8184 10.671 23.2764 10.512C23.7345 10.3531 24.2216 10.3115 24.6978 10.3906C25.1739 10.4698 25.6256 10.6675 26.0158 10.9674C26.406 11.2674 26.7236 11.6612 26.9425 12.1164C27.3555 11.6501 27.8904 11.3252 28.4787 11.1834C29.067 11.0416 29.6819 11.0894 30.2444 11.3206C30.807 11.5519 31.2915 11.956 31.6359 12.4811C31.9803 13.0063 32.1689 13.6285 32.1774 14.2681V26.4256C32.1757 26.6307 32.1572 26.8353 32.122 27.037C31.854 30.2613 30.4604 33.2634 28.2141 35.4555C25.9678 37.6477 23.0305 38.8721 19.9774 38.8889ZM14.3099 2.28686C13.7981 2.28686 13.3072 2.50241 12.9453 2.88608C12.5834 3.26975 12.3801 3.79012 12.3801 4.33272V18.1128C12.3774 18.2659 12.3196 18.412 12.2185 18.5213C12.1175 18.6306 11.9809 18.6948 11.8366 18.7007C11.0532 18.7038 10.3028 19.036 9.74985 19.6244C9.1969 20.2128 8.88643 21.0095 8.88644 21.8401V25.92C8.76584 29.0384 9.81868 32.0798 11.8134 34.3752C13.808 36.6706 16.5812 38.032 19.5227 38.1599C22.4642 38.2877 25.3331 37.1716 27.4983 35.057C29.6636 32.9424 30.9477 30.0025 31.0683 26.8842C31.0816 26.7316 31.0816 26.5781 31.0683 26.4256V14.2681C31.0315 13.7538 30.8127 13.2732 30.4559 12.9226C30.0991 12.572 29.6306 12.3772 29.144 12.3772C28.6575 12.3772 28.189 12.572 27.8322 12.9226C27.4754 13.2732 27.2566 13.7538 27.2198 14.2681C27.2198 14.424 27.1613 14.5735 27.0573 14.6838C26.9533 14.794 26.8123 14.8559 26.6652 14.8559C26.5181 14.8559 26.3771 14.794 26.2731 14.6838C26.1691 14.5735 26.1107 14.424 26.1107 14.2681V13.5626C26.0738 13.0483 25.8551 12.5677 25.4983 12.2171C25.1415 11.8665 24.6729 11.6717 24.1864 11.6717C23.6999 11.6717 23.2313 11.8665 22.8745 12.2171C22.5177 12.5677 22.299 13.0483 22.2621 13.5626C22.2621 13.7185 22.2037 13.868 22.0997 13.9783C21.9957 14.0885 21.8546 14.1505 21.7076 14.1505C21.5605 14.1505 21.4194 14.0885 21.3154 13.9783C21.2114 13.868 21.153 13.7185 21.153 13.5626V12.5514C21.1162 12.0371 20.8974 11.5566 20.5406 11.206C20.1838 10.8553 19.7153 10.6605 19.2287 10.6605C18.7422 10.6605 18.2737 10.8553 17.9169 11.206C17.56 11.5566 17.3413 12.0371 17.3045 12.5514C17.3045 12.7073 17.246 12.8569 17.142 12.9671C17.038 13.0774 16.897 13.1393 16.7499 13.1393C16.6028 13.1393 16.4618 13.0774 16.3578 12.9671C16.2538 12.8569 16.1954 12.7073 16.1954 12.5514V4.32096C16.1926 3.78845 15.9941 3.27807 15.6421 2.89825C15.29 2.51842 14.8121 2.2991 14.3099 2.28686Z" fill="#210124"/>
<path d="M11.826 25.438C11.6798 25.4349 11.5404 25.372 11.437 25.2624C11.3337 25.1528 11.2743 25.005 11.2715 24.8501V18.1129C11.2715 17.9569 11.3299 17.8074 11.4339 17.6972C11.5379 17.5869 11.679 17.525 11.826 17.525C11.8989 17.525 11.971 17.5402 12.0382 17.5697C12.1055 17.5993 12.1667 17.6426 12.2182 17.6972C12.2697 17.7517 12.3105 17.8166 12.3384 17.8879C12.3662 17.9592 12.3806 18.0357 12.3806 18.1129V24.8501C12.3806 24.9273 12.3662 25.0037 12.3384 25.075C12.3105 25.1464 12.2697 25.2112 12.2182 25.2658C12.1667 25.3204 12.1055 25.3637 12.0382 25.3932C11.971 25.4228 11.8989 25.438 11.826 25.438Z" fill="#210124"/>
<path d="M16.7948 20.1352C16.6477 20.1352 16.5067 20.0732 16.4027 19.963C16.2987 19.8527 16.2402 19.7032 16.2402 19.5473V12.5514C16.2402 12.3955 16.2987 12.2459 16.4027 12.1357C16.5067 12.0254 16.6477 11.9635 16.7948 11.9635C16.941 11.9665 17.0804 12.0294 17.1838 12.139C17.2872 12.2486 17.3465 12.3964 17.3493 12.5514V19.5473C17.3493 19.7032 17.2909 19.8527 17.1869 19.963C17.0829 20.0732 16.9419 20.1352 16.7948 20.1352Z" fill="#210124"/>
<path d="M21.7518 20.1352C21.6047 20.1352 21.4637 20.0732 21.3597 19.963C21.2557 19.8527 21.1973 19.7032 21.1973 19.5473V13.5626C21.1973 13.4066 21.2557 13.2571 21.3597 13.1469C21.4637 13.0366 21.6047 12.9747 21.7518 12.9747C21.8989 12.9747 22.0399 13.0366 22.1439 13.1469C22.2479 13.2571 22.3064 13.4066 22.3064 13.5626V19.5473C22.3064 19.7032 22.2479 19.8527 22.1439 19.963C22.0399 20.0732 21.8989 20.1352 21.7518 20.1352Z" fill="#210124"/>
<path d="M26.7088 20.1352C26.5618 20.1352 26.4207 20.0733 26.3167 19.963C26.2127 19.8528 26.1543 19.7032 26.1543 19.5473V14.2681C26.1543 14.1121 26.2127 13.9626 26.3167 13.8524C26.4207 13.7421 26.5618 13.6802 26.7088 13.6802C26.8559 13.6802 26.997 13.7421 27.101 13.8524C27.205 13.9626 27.2634 14.1121 27.2634 14.2681V19.5473C27.2634 19.7032 27.205 19.8528 27.101 19.963C26.997 20.0733 26.8559 20.1352 26.7088 20.1352Z" fill="#210124"/>
</svg>
