<svg width="35" height="32" viewBox="0 0 35 32" fill="none" xmlns="http://www.w3.org/2000/svg">
<path d="M32.5114 11.2386L34.1711 27.6729C34.1977 28.1147 34.1357 28.5574 33.989 28.9729C33.8422 29.3883 33.6139 29.7674 33.3187 30.0859C33.0235 30.4045 32.6678 30.6555 32.2742 30.8231C31.8807 30.9906 31.4579 31.071 31.0328 31.0591H3.84739C3.42235 31.071 2.99959 30.9906 2.60603 30.8231C2.21247 30.6555 1.85675 30.4045 1.56152 30.0859C1.26629 29.7674 1.03803 29.3883 0.891281 28.9729C0.744527 28.5574 0.682498 28.1147 0.709143 27.6729L2.36889 11.0598" fill="white"/>
<path d="M0.899402 28.0602C0.899402 26.4563 1.51143 24.9181 2.60085 23.784C3.69027 22.6499 5.16784 22.0128 6.70851 22.0128H28.3615C29.8881 22.01 31.3543 22.634 32.4418 23.7494C33.5293 24.8648 34.1505 26.3817 34.1706 27.9708C34.1754 27.8782 34.1754 27.7854 34.1706 27.6928L32.5108 11.2386L2.36837 11.0598L0.708627 27.6729C0.670962 28.2151 0.77652 28.7577 1.01387 29.2419C0.93723 28.8531 0.898876 28.4571 0.899402 28.0602Z" fill="#D7CECF"/>
<path d="M28.0171 17.3257H5.05737C4.58108 17.3257 4.10952 17.2273 3.67009 17.036C3.23065 16.8448 2.83208 16.5646 2.49752 16.2117C2.16296 15.8588 1.89907 15.4402 1.72118 14.9803C1.54329 14.5203 1.45494 14.0281 1.46125 13.5324V2.87733C1.46076 2.62646 1.51157 2.37835 1.6103 2.14951C1.70904 1.92066 1.85343 1.71632 2.03389 1.55006C2.21435 1.3838 2.42674 1.25943 2.65694 1.18523C2.88714 1.11103 3.12987 1.08869 3.36901 1.11969C12.1578 1.96374 21.0026 1.96374 29.7914 1.11969C30.023 1.1034 30.2553 1.13672 30.4741 1.2176C30.6928 1.29848 30.8933 1.42519 31.0632 1.58992C31.233 1.75464 31.3686 1.95387 31.4616 2.17531C31.5546 2.39674 31.6029 2.63567 31.6037 2.87733V13.5324C31.6113 14.0277 31.5242 14.5196 31.3473 14.9795C31.1705 15.4394 30.9075 15.8581 30.5737 16.2111C30.2399 16.5642 29.8419 16.8445 29.403 17.0359C28.9641 17.2272 28.493 17.3257 28.0171 17.3257Z" fill="white"/>
<path d="M30.6496 1.1197C21.8608 1.96375 13.016 1.96375 4.22725 1.1197C3.99183 1.09619 3.7543 1.12413 3.52986 1.20174C3.30542 1.27935 3.09904 1.40491 2.92392 1.57038C2.74881 1.73585 2.60883 1.93758 2.51296 2.16265C2.41709 2.38771 2.36744 2.63114 2.36719 2.87733V5.63791C2.3667 5.38704 2.41751 5.13894 2.51624 4.91009C2.61497 4.68125 2.75937 4.4769 2.93983 4.31064C3.12029 4.14438 3.33268 4.02002 3.56288 3.94582C3.79307 3.87161 4.03581 3.84927 4.27494 3.88028C13.0637 4.72433 21.9085 4.72433 30.6973 3.88028C30.9364 3.84927 31.1792 3.87161 31.4094 3.94582C31.6396 4.02002 31.852 4.14438 32.0324 4.31064C32.2129 4.4769 32.3573 4.68125 32.456 4.91009C32.5547 5.13894 32.6055 5.38704 32.6051 5.63791V2.87733C32.6065 2.62166 32.5547 2.3687 32.4531 2.1359C32.3516 1.90311 32.2027 1.69602 32.0168 1.52893C31.8309 1.36184 31.6124 1.23872 31.3764 1.16807C31.1403 1.09741 30.8924 1.08091 30.6496 1.1197Z" fill="#D7CECF"/>
<path d="M31.032 31.5556H3.84655C3.33414 31.556 2.8272 31.4459 2.35768 31.2323C1.88815 31.0186 1.46622 30.7061 1.11847 30.3143C0.792337 29.959 0.543469 29.5347 0.388758 29.0704C0.234047 28.6061 0.177113 28.1125 0.221822 27.6232L1.8911 11.0101C1.90375 10.8784 1.96613 10.7574 2.06452 10.6736C2.11324 10.6321 2.16933 10.601 2.22959 10.5821C2.28985 10.5631 2.3531 10.5567 2.41574 10.5633C2.47837 10.5698 2.53915 10.5891 2.59462 10.6201C2.65009 10.651 2.69915 10.6931 2.73901 10.7438C2.77887 10.7945 2.80874 10.8529 2.82693 10.9156C2.84511 10.9784 2.85124 11.0442 2.84498 11.1094L1.1757 27.7225C1.14643 28.0724 1.18821 28.4247 1.29832 28.7566C1.40842 29.0885 1.5844 29.3925 1.81479 29.649C2.07335 29.9379 2.38641 30.1682 2.73437 30.3254C3.08232 30.4826 3.4577 30.5633 3.83701 30.5626H31.032C31.4129 30.5647 31.7901 30.4846 32.1398 30.3274C32.4895 30.1701 32.8041 29.9391 33.0638 29.649C33.2927 29.3915 33.4677 29.0873 33.5777 28.7557C33.6877 28.424 33.7303 28.0722 33.7029 27.7225L32.0336 11.2981C32.0256 11.2326 32.0306 11.1661 32.0481 11.1027C32.0656 11.0392 32.0954 10.9802 32.1355 10.9291C32.1757 10.878 32.2254 10.8359 32.2817 10.8055C32.3379 10.775 32.3996 10.7568 32.4628 10.7519C32.5879 10.738 32.7133 10.7761 32.8116 10.8579C32.9098 10.9398 32.9731 11.0587 32.9874 11.1889L34.6472 27.6232C34.6901 28.1108 34.6342 28.6022 34.483 29.0658C34.3318 29.5294 34.0888 29.9547 33.7696 30.3143C33.4215 30.7083 32.9982 31.0222 32.5268 31.236C32.0553 31.4497 31.5462 31.5586 31.032 31.5556Z" fill="#210124"/>
<path d="M28.9232 17.7725H5.94437C4.86578 17.7699 3.83224 17.322 3.07045 16.5271C2.30867 15.7322 1.88086 14.6552 1.88086 13.5324V2.87732C1.88064 2.5606 1.94426 2.24736 2.0676 1.95783C2.19094 1.66831 2.37126 1.40894 2.59691 1.1965C2.82255 0.984055 3.0885 0.82326 3.37757 0.724505C3.66664 0.625751 3.9724 0.591233 4.27509 0.623183C13.0356 1.4573 21.851 1.4573 30.6116 0.623183C30.9128 0.594181 31.2165 0.630899 31.5032 0.730991C31.79 0.831083 32.0536 0.992348 32.2771 1.20448C32.5006 1.41662 32.6792 1.67496 32.8014 1.963C32.9236 2.25104 32.9867 2.56245 32.9867 2.87732V13.5324C32.9867 14.6552 32.5589 15.7322 31.7971 16.5271C31.0354 17.322 30.0018 17.7699 28.9232 17.7725ZM4.03662 1.60627C3.72919 1.60694 3.43314 1.72738 3.20675 1.94389C3.08234 2.06224 2.98323 2.2065 2.91585 2.36731C2.84848 2.52812 2.81434 2.70189 2.81566 2.87732V13.5324C2.81818 14.3945 3.14893 15.2204 3.7354 15.829C4.32188 16.4377 5.11623 16.7795 5.94437 16.7795H28.9232C29.7488 16.7769 30.5398 16.4336 31.1227 15.8249C31.7056 15.2163 32.0329 14.3918 32.0329 13.5324V2.87732C32.0332 2.70481 31.9995 2.53406 31.9339 2.37563C31.8683 2.2172 31.7722 2.07447 31.6515 1.95627C31.5308 1.83806 31.3881 1.74689 31.2322 1.6884C31.0763 1.6299 30.9105 1.60533 30.7451 1.6162C21.924 2.45031 13.0485 2.45031 4.22739 1.6162L4.03662 1.60627Z" fill="#210124"/>
<path d="M28.9248 18.1698H5.94592C4.76614 18.1671 3.63555 17.6774 2.80221 16.808C1.96887 15.9386 1.50086 14.7606 1.50086 13.5324V1.84461C1.48813 1.71866 1.50097 1.59133 1.53855 1.47088C1.57613 1.35042 1.63761 1.23954 1.71901 1.14541C1.8004 1.05129 1.89989 0.97603 2.01103 0.924513C2.12217 0.872996 2.24246 0.846375 2.36412 0.846375C2.48578 0.846375 2.60607 0.872996 2.71721 0.924513C2.82835 0.97603 2.92784 1.05129 3.00924 1.14541C3.09063 1.23954 3.15211 1.35042 3.18969 1.47088C3.22727 1.59133 3.24011 1.71866 3.22738 1.84461V13.5324C3.23738 14.277 3.5279 14.9877 4.03638 15.5115C4.54486 16.0352 5.23061 16.3302 5.94592 16.3327H28.9248C29.6492 16.3433 30.3482 16.0545 30.8685 15.5296C31.3888 15.0047 31.688 14.2865 31.7006 13.5324V1.84461C31.6878 1.71866 31.7007 1.59133 31.7382 1.47088C31.7758 1.35042 31.8373 1.23954 31.9187 1.14541C32.0001 1.05129 32.0996 0.97603 32.2107 0.924513C32.3219 0.872996 32.4422 0.846375 32.5638 0.846375C32.6855 0.846375 32.8058 0.872996 32.9169 0.924513C33.028 0.97603 33.1275 1.05129 33.2089 1.14541C33.2903 1.23954 33.3518 1.35042 33.3894 1.47088C33.427 1.59133 33.4398 1.71866 33.4271 1.84461V13.5324C33.4258 14.1452 33.3082 14.7517 33.0809 15.317C32.8536 15.8823 32.5212 16.3952 32.1027 16.8262C31.6843 17.2572 31.188 17.5978 30.6426 17.8284C30.0972 18.059 29.5134 18.175 28.9248 18.1698Z" fill="#FFBD59"/>
<path d="M28.9234 18.6663H5.94457C4.63996 18.661 3.3905 18.1178 2.46978 17.1556C1.54906 16.1934 1.0321 14.8905 1.03211 13.5324V1.84462C1.01645 1.65151 1.03947 1.45711 1.09971 1.27374C1.15995 1.09036 1.2561 0.922007 1.38207 0.779321C1.50805 0.636635 1.66111 0.522728 1.83156 0.44481C2.00201 0.366892 2.18615 0.32666 2.37231 0.32666C2.55847 0.32666 2.7426 0.366892 2.91306 0.44481C3.08351 0.522728 3.23657 0.636635 3.36254 0.779321C3.48852 0.922007 3.58467 1.09036 3.64491 1.27374C3.70515 1.45711 3.72817 1.65151 3.7125 1.84462V13.5324C3.71248 14.1505 3.94704 14.7436 4.36509 15.1825C4.78314 15.6214 5.35084 15.8707 5.94457 15.8759H28.9234C29.5205 15.8759 30.0931 15.629 30.5152 15.1895C30.9374 14.75 31.1746 14.1539 31.1746 13.5324V1.84462C31.1589 1.65151 31.1819 1.45711 31.2422 1.27374C31.3024 1.09036 31.3986 0.922007 31.5245 0.779321C31.6505 0.636635 31.8036 0.522728 31.974 0.44481C32.1445 0.366892 32.3286 0.32666 32.5148 0.32666C32.7009 0.32666 32.8851 0.366892 33.0555 0.44481C33.226 0.522728 33.379 0.636635 33.505 0.779321C33.631 0.922007 33.7271 1.09036 33.7874 1.27374C33.8476 1.45711 33.8706 1.65151 33.855 1.84462V13.5324C33.8524 14.8932 33.3321 16.1975 32.4078 17.1597C31.4835 18.1219 30.2306 18.6636 28.9234 18.6663ZM2.36754 1.43748C2.31662 1.43747 2.26621 1.44806 2.21929 1.46864C2.17236 1.48922 2.12987 1.51937 2.09431 1.55731C2.05876 1.59525 2.03085 1.64022 2.01225 1.68956C1.99364 1.73891 1.98472 1.79163 1.98599 1.84462V13.5324C1.98598 14.6272 2.40243 15.6774 3.14427 16.4534C3.8861 17.2294 4.89294 17.668 5.94457 17.6733H28.9234C29.4458 17.6733 29.963 17.5661 30.4456 17.358C30.9282 17.15 31.3667 16.8449 31.7361 16.4604C32.1054 16.0759 32.3984 15.6194 32.5983 15.117C32.7982 14.6146 32.9011 14.0762 32.9011 13.5324V1.84462C32.9011 1.73664 32.8599 1.63308 32.7865 1.55673C32.7132 1.48038 32.6137 1.43748 32.51 1.43748C32.4591 1.43747 32.4087 1.44806 32.3618 1.46864C32.3148 1.48922 32.2723 1.51937 32.2368 1.55731C32.2012 1.59525 32.1733 1.64022 32.1547 1.68956C32.1361 1.73891 32.1272 1.79163 32.1285 1.84462V13.5324C32.1285 14.4173 31.7908 15.2659 31.1897 15.8917C30.5887 16.5174 29.7735 16.8689 28.9234 16.8689H5.94457C5.52413 16.8689 5.10782 16.7825 4.71951 16.6147C4.33119 16.4469 3.9785 16.201 3.68165 15.8911C3.38479 15.5811 3.14961 15.2132 2.98959 14.8085C2.82956 14.4037 2.74783 13.9701 2.74909 13.5324V1.84462C2.74912 1.73834 2.70923 1.63626 2.63793 1.56018C2.56664 1.48411 2.4696 1.44008 2.36754 1.43748Z" fill="#210124"/>
<path d="M20.6726 26.0444L17.6107 27.6828L14.2149 26.0444V1.7056C14.2136 1.60566 14.2315 1.50646 14.2673 1.41375C14.3032 1.32103 14.3564 1.23666 14.4238 1.16553C14.4913 1.09439 14.5716 1.03791 14.6602 0.999366C14.7488 0.96082 14.8438 0.940976 14.9399 0.940984H19.9382C20.035 0.939649 20.1311 0.958515 20.2207 0.996468C20.3104 1.03442 20.3919 1.09069 20.4604 1.16196C20.5288 1.23323 20.5829 1.31805 20.6193 1.41142C20.6558 1.5048 20.6739 1.60482 20.6726 1.7056V26.0444Z" fill="#4F345A"/>
<path d="M17.5917 28.0701C17.3873 28.0689 17.1855 28.0215 17.0003 27.9311L14.5298 26.7296C14.2913 26.6118 14.0895 26.4263 13.9477 26.1944C13.806 25.9625 13.73 25.6936 13.7285 25.4188V1.89429C13.7273 1.70353 13.7624 1.51441 13.832 1.33792C13.9015 1.16143 14.004 1.00108 14.1336 0.866186C14.2632 0.731296 14.4172 0.624555 14.5868 0.552163C14.7563 0.479771 14.938 0.443172 15.1212 0.444492H19.757C20.1264 0.444492 20.4806 0.597239 20.7418 0.869129C21.003 1.14102 21.1497 1.50978 21.1497 1.89429V25.4486C21.1495 25.7136 21.0791 25.9734 20.9461 26.1995C20.8131 26.4255 20.6228 26.6089 20.3961 26.7296L18.2308 27.9013C18.034 28.0104 17.8147 28.0683 17.5917 28.0701ZM15.1212 1.43751C15.064 1.43749 15.0074 1.44937 14.9547 1.47245C14.902 1.49552 14.8542 1.52933 14.8143 1.57188C14.7743 1.61443 14.7429 1.66487 14.7219 1.72024C14.7009 1.7756 14.6907 1.83478 14.692 1.89429V25.4188C14.6904 25.5045 14.713 25.5888 14.7571 25.6612C14.8012 25.7336 14.8648 25.7909 14.94 25.8259L17.3914 27.0374C17.4528 27.0668 17.5195 27.082 17.587 27.082C17.6545 27.082 17.7212 27.0668 17.7825 27.0374L19.9478 25.8557C20.0183 25.8181 20.0777 25.7613 20.1197 25.6913C20.1617 25.6214 20.1847 25.541 20.1863 25.4585V1.89429C20.1863 1.77485 20.1414 1.66014 20.0612 1.57476C19.9809 1.48937 19.8718 1.4401 19.757 1.43751H15.1212Z" fill="#210124"/>
<path d="M17.4393 22.0127C16.1744 22.0127 14.9613 21.4896 14.0668 20.5585C13.1724 19.6274 12.6699 18.3645 12.6699 17.0477V14.2672C12.6699 13.6562 12.9031 13.0702 13.3181 12.6382C13.7331 12.2062 14.296 11.9634 14.8829 11.9634H20.0052C20.5921 11.9634 21.155 12.2062 21.57 12.6382C21.9851 13.0702 22.2182 13.6562 22.2182 14.2672V17.0477C22.2182 17.7005 22.0945 18.347 21.8543 18.95C21.614 19.5531 21.2618 20.1008 20.8179 20.562C20.374 21.0232 19.8471 21.3887 19.2674 21.6376C18.6876 21.8866 18.0664 22.014 17.4393 22.0127ZM14.8829 13.88C14.7868 13.88 14.6946 13.9197 14.6266 13.9905C14.5586 14.0612 14.5204 14.1572 14.5204 14.2573V17.0377C14.4977 17.4521 14.5565 17.8668 14.6931 18.2567C14.8297 18.6465 15.0414 19.0032 15.3151 19.3049C15.5888 19.6066 15.9189 19.847 16.2849 20.0112C16.651 20.1755 17.0454 20.2602 17.4441 20.2602C17.8427 20.2602 18.2371 20.1755 18.6032 20.0112C18.9693 19.847 19.2993 19.6066 19.573 19.3049C19.8467 19.0032 20.0584 18.6465 20.195 18.2567C20.3317 17.8668 20.3904 17.4521 20.3677 17.0377V14.2573C20.3677 14.1572 20.3295 14.0612 20.2615 13.9905C20.1936 13.9197 20.1014 13.88 20.0052 13.88H14.8829Z" fill="#FFBD59"/>
<path d="M17.4397 22.5092C16.0474 22.5066 14.713 21.929 13.7294 20.9031C12.7458 19.8773 12.1934 18.4871 12.1934 17.0377V14.2573C12.1934 13.5146 12.4768 12.8023 12.9812 12.2772C13.4857 11.752 14.1699 11.457 14.8833 11.457H20.0056C20.7182 11.4596 21.401 11.7555 21.9049 12.28C22.4088 12.8046 22.693 13.5154 22.6955 14.2573V17.0377C22.6955 17.7562 22.5596 18.4677 22.2955 19.1316C22.0313 19.7954 21.6442 20.3986 21.1561 20.9066C20.6681 21.4147 20.0887 21.8177 19.451 22.0927C18.8133 22.3677 18.1299 22.5092 17.4397 22.5092ZM14.8833 12.45C14.4236 12.4526 13.9835 12.6438 13.6585 12.9822C13.3334 13.3206 13.1497 13.7788 13.1472 14.2573V17.0377C13.108 17.6496 13.1899 18.2633 13.3879 18.8409C13.5859 19.4184 13.8957 19.9475 14.2981 20.3953C14.7005 20.8432 15.187 21.2002 15.7274 21.4443C16.2678 21.6883 16.8506 21.8143 17.4397 21.8143C18.0287 21.8143 18.6115 21.6883 19.1519 21.4443C19.6923 21.2002 20.1788 20.8432 20.5812 20.3953C20.9837 19.9475 21.2935 19.4184 21.4914 18.8409C21.6894 18.2633 21.7713 17.6496 21.7321 17.0377V14.2573C21.7296 13.7788 21.5459 13.3206 21.2209 12.9822C20.8958 12.6438 20.4557 12.4526 19.9961 12.45H14.8833ZM17.4397 20.5828C16.5382 20.5801 15.6745 20.2055 15.0379 19.5409C14.4013 18.8764 14.0439 17.9762 14.0439 17.0377V14.2573C14.0439 14.0255 14.1323 13.8032 14.2897 13.6394C14.4472 13.4755 14.6607 13.3834 14.8833 13.3834H20.0056C20.2275 13.386 20.4395 13.4789 20.5964 13.6422C20.7533 13.8055 20.8425 14.0263 20.845 14.2573V17.0377C20.845 17.9779 20.4862 18.8796 19.8476 19.5444C19.209 20.2093 18.3428 20.5828 17.4397 20.5828ZM14.9978 14.3466V17.0079C14.9769 17.3558 15.0247 17.7044 15.1382 18.0323C15.2517 18.3602 15.4285 18.6604 15.6578 18.9144C15.887 19.1685 16.1638 19.3709 16.4711 19.5093C16.7784 19.6477 17.1096 19.7191 17.4444 19.7191C17.7793 19.7191 18.1105 19.6477 18.4178 19.5093C18.7251 19.3709 19.0019 19.1685 19.2311 18.9144C19.4604 18.6604 19.6372 18.3602 19.7507 18.0323C19.8642 17.7044 19.912 17.3558 19.8911 17.0079V14.3466H14.9978Z" fill="#210124"/>
<path d="M18.3456 11.5464C18.3456 11.0254 17.9399 10.603 17.4394 10.603C16.9389 10.603 16.5332 11.0254 16.5332 11.5464V14.3963C16.5332 14.9173 16.9389 15.3397 17.4394 15.3397C17.9399 15.3397 18.3456 14.9173 18.3456 14.3963V11.5464Z" fill="#FFBD59"/>
<path d="M17.4398 15.8362C17.0729 15.8362 16.7211 15.6845 16.4617 15.4145C16.2024 15.1444 16.0566 14.7782 16.0566 14.3963V11.5464C16.0566 11.3573 16.0924 11.1701 16.1619 10.9954C16.2314 10.8207 16.3333 10.6619 16.4617 10.5282C16.5902 10.3945 16.7427 10.2885 16.9105 10.2161C17.0783 10.1438 17.2581 10.1065 17.4398 10.1065C17.6214 10.1065 17.8012 10.1438 17.9691 10.2161C18.1369 10.2885 18.2893 10.3945 18.4178 10.5282C18.5462 10.6619 18.6481 10.8207 18.7176 10.9954C18.7871 11.1701 18.8229 11.3573 18.8229 11.5464V14.3963C18.8229 14.7782 18.6772 15.1444 18.4178 15.4145C18.1584 15.6845 17.8066 15.8362 17.4398 15.8362ZM17.4398 11.0995C17.3259 11.0995 17.2167 11.1466 17.1362 11.2304C17.0557 11.3142 17.0105 11.4279 17.0105 11.5464V14.3963C17.0105 14.5148 17.0557 14.6285 17.1362 14.7123C17.2167 14.7961 17.3259 14.8432 17.4398 14.8432C17.5536 14.8432 17.6628 14.7961 17.7433 14.7123C17.8238 14.6285 17.869 14.5148 17.869 14.3963V11.5464C17.869 11.4279 17.8238 11.3142 17.7433 11.2304C17.6628 11.1466 17.5536 11.0995 17.4398 11.0995Z" fill="#210124"/>
</svg>
