<svg width="40" height="40" viewBox="0 0 40 40" fill="none" xmlns="http://www.w3.org/2000/svg">
<path d="M22.5201 6.73244L7.14706 22.6014C4.29572 25.5447 4.29572 30.3168 7.14706 33.2601L7.15427 33.2676C10.0056 36.2109 14.6286 36.2109 17.4799 33.2676L32.853 17.3986C35.7043 14.4553 35.7043 9.6832 32.853 6.73988L32.8457 6.73244C29.9944 3.78912 25.3715 3.78912 22.5201 6.73244Z" fill="#BE1E2D"/>
<path d="M32.8491 6.73312C32.3552 6.22042 31.7919 5.78431 31.1767 5.43839C31.929 6.86851 32.2132 8.51129 31.9872 10.1218C31.7612 11.7323 31.0369 13.2243 29.9225 14.3752L14.555 30.2384C13.44 31.3888 11.9947 32.1364 10.4345 32.3697C8.87434 32.6031 7.28289 32.3096 5.89746 31.5331C6.23257 32.1681 6.65505 32.7496 7.15174 33.2594C7.82981 33.96 8.63497 34.5157 9.5212 34.8948C10.4074 35.274 11.3574 35.4692 12.3167 35.4692C13.276 35.4692 14.226 35.274 15.1122 34.8948C15.9984 34.5157 16.8036 33.96 17.4817 33.2594L32.8491 17.3963C33.5277 16.6963 34.0661 15.8652 34.4334 14.9504C34.8007 14.0356 34.9898 13.055 34.9898 12.0647C34.9898 11.0744 34.8007 10.0938 34.4334 9.17902C34.0661 8.2642 33.5277 7.43306 32.8491 6.73312Z" fill="#931625"/>
<path d="M25.1501 25.3331L14.9528 14.5752L7.15177 22.5963C6.47314 23.2962 5.93478 24.1274 5.56747 25.0422C5.20016 25.957 5.01111 26.9376 5.01111 27.9279C5.01111 28.9181 5.20016 29.8987 5.56747 30.8135C5.93478 31.7284 6.47314 32.5595 7.15177 33.2594C7.82984 33.96 8.635 34.5157 9.52124 34.8948C10.4075 35.274 11.3574 35.4692 12.3167 35.4692C13.2761 35.4692 14.226 35.274 15.1122 34.8948C15.9985 34.5157 16.8036 33.96 17.4817 33.2594L25.1501 25.3331Z" fill="#FEC803"/>
<path d="M22.254 22.291L14.555 30.2384C13.44 31.3888 11.9947 32.1364 10.4345 32.3697C8.87434 32.6031 7.28289 32.3096 5.89746 31.5331C6.05042 31.8068 6.22378 32.0805 6.39713 32.3436L6.5195 32.5015C6.71337 32.7687 6.92461 33.0219 7.15174 33.2594C7.82981 33.96 8.63497 34.5157 9.5212 34.8948C10.4074 35.274 11.3574 35.4692 12.3167 35.4692C13.276 35.4692 14.226 35.274 15.1122 34.8948C15.9984 34.5157 16.8036 33.96 17.4817 33.2594L25.1501 25.3331L22.254 22.291Z" fill="#FCA306"/>
<path d="M12.3116 35.9963C10.7678 35.9927 9.25955 35.5177 7.97682 34.631C6.69409 33.7442 5.69426 32.4855 5.10329 31.0133C4.51231 29.5411 4.35661 27.9213 4.6558 26.3579C4.955 24.7945 5.69571 23.3575 6.78462 22.2279L22.1622 6.35417C23.6281 4.84243 25.6157 3.9937 27.6877 3.99469C28.7137 3.99518 29.7295 4.20426 30.6773 4.61001C31.625 5.01575 32.486 5.6102 33.2111 6.35943C33.9362 7.10866 34.5113 7.99798 34.9035 8.97663C35.2957 9.95527 35.4973 11.0041 35.4968 12.0632C35.4964 13.1222 35.2938 14.1708 34.9008 15.1491C34.5077 16.1274 33.9318 17.0162 33.206 17.7647L17.8386 33.6279C17.115 34.3806 16.2539 34.9776 15.3051 35.3841C14.3564 35.7907 13.3389 35.9988 12.3116 35.9963ZM27.6892 5.0489C26.7883 5.04968 25.8966 5.23632 25.0666 5.59785C24.2365 5.95938 23.4848 6.48852 22.8557 7.15417L7.55962 22.9436C6.92821 23.5947 6.42723 24.3678 6.08526 25.2187C5.74329 26.0697 5.56703 26.9818 5.56656 27.9031C5.56609 28.8243 5.7414 29.7367 6.0825 30.588C6.42359 31.4393 6.92379 32.2129 7.55452 32.8647C8.18525 33.5165 8.93417 34.0336 9.75852 34.3866C10.5829 34.7396 11.4665 34.9216 12.359 34.922C13.2514 34.9225 14.1353 34.7416 14.96 34.3895C15.7847 34.0374 16.5341 33.521 17.1655 32.87L32.4922 17.0173C33.123 16.3663 33.6235 15.5934 33.9649 14.7427C34.3063 13.892 34.482 12.9802 34.482 12.0594C34.482 11.1386 34.3063 10.2268 33.9649 9.37616C33.6235 8.52547 33.123 7.75255 32.4922 7.10154C31.8631 6.44825 31.1146 5.9304 30.2901 5.57805C29.4656 5.22569 28.5816 5.04583 27.6892 5.0489Z" fill="#210124"/>
<path d="M25.1603 25.8489C25.0943 25.8499 25.0288 25.8374 24.9675 25.8121C24.9063 25.7868 24.8505 25.7492 24.8034 25.7015L14.4734 15.0384C14.3774 14.9393 14.3235 14.8049 14.3235 14.6647C14.3235 14.5245 14.3774 14.3901 14.4734 14.291C14.5694 14.1919 14.6997 14.1362 14.8354 14.1362C14.9712 14.1362 15.1014 14.1919 15.1974 14.291L25.5274 24.9542C25.6215 25.0543 25.6741 25.1884 25.6741 25.3279C25.6741 25.4674 25.6215 25.6014 25.5274 25.7015C25.4787 25.75 25.4212 25.788 25.3582 25.8133C25.2951 25.8386 25.2279 25.8507 25.1603 25.8489Z" fill="#210124"/>
<path d="M20.0004 25.5963C22.9966 25.5963 25.4254 23.0891 25.4254 19.9963C25.4254 16.9035 22.9966 14.3963 20.0004 14.3963C17.0043 14.3963 14.5754 16.9035 14.5754 19.9963C14.5754 23.0891 17.0043 25.5963 20.0004 25.5963Z" fill="#FEC803"/>
<path d="M20.0004 26.1015C18.6218 26.1062 17.2843 25.6169 16.2161 24.7172C15.1479 23.8175 14.4152 22.5632 14.143 21.1681C13.8708 19.773 14.0759 18.3236 14.7234 17.0672C15.3708 15.8108 16.4205 14.8251 17.6934 14.2785C18.9663 13.7318 20.3834 13.6579 21.7032 14.0695C23.0229 14.481 24.1635 15.3525 24.9302 16.5352C25.697 17.7179 26.0425 19.1385 25.9078 20.5549C25.7731 21.9712 25.1665 23.2953 24.1916 24.3015C23.6429 24.8726 22.99 25.3258 22.2706 25.6347C21.5512 25.9437 20.7796 26.1024 20.0004 26.1015ZM20.0004 14.9015C19.1924 14.9021 18.397 15.1084 17.6846 15.502C16.9721 15.8956 16.3647 16.4644 15.9161 17.1582C15.4674 17.8519 15.1914 18.6491 15.1124 19.4792C15.0334 20.3093 15.1539 21.1467 15.4632 21.9173C15.7725 22.6879 16.2611 23.3679 16.8857 23.8971C17.5103 24.4262 18.2516 24.7883 19.0441 24.9512C19.8366 25.1141 20.6558 25.0728 21.4291 24.831C22.2024 24.5891 22.9061 24.1542 23.4777 23.5647C24.1659 22.8551 24.6346 21.9507 24.8245 20.9661C25.0144 19.9814 24.9171 18.9606 24.5448 18.0331C24.1725 17.1056 23.542 16.3129 22.733 15.7554C21.9241 15.198 20.9731 14.9008 20.0004 14.9015Z" fill="#210124"/>
<path d="M20.0004 21.1121C20.5974 21.1121 21.0813 20.6125 21.0813 19.9963C21.0813 19.38 20.5974 18.8805 20.0004 18.8805C19.4034 18.8805 18.9195 19.38 18.9195 19.9963C18.9195 20.6125 19.4034 21.1121 20.0004 21.1121Z" fill="#210124"/>
<path d="M18.6136 18.5647L16.8698 16.7647C16.3104 17.3225 15.9116 18.0293 15.7175 18.8068C15.503 19.5808 15.503 20.4013 15.7175 21.1752L18.1037 20.5226C18.012 20.179 18.0108 19.8163 18.1005 19.472C18.1901 19.1278 18.3673 18.8145 18.6136 18.5647Z" fill="#210124"/>
<path d="M21.3873 21.4279C21.1424 21.6775 20.8384 21.8565 20.5056 21.947C20.1728 22.0375 19.8228 22.0364 19.4906 21.9436L18.8583 24.4068C19.6044 24.6427 20.3998 24.6572 21.1535 24.4487C21.9072 24.2403 22.5889 23.8172 23.1208 23.2279L21.3873 21.4279Z" fill="#210124"/>
<path d="M21.3873 18.5647C21.6296 18.8146 21.8022 19.1274 21.887 19.47L24.2732 18.8173C24.1027 18.0213 23.7173 17.2914 23.1616 16.7121C22.6061 16.1307 21.8966 15.7315 21.1222 15.5647L20.4899 18.0279C20.8314 18.1178 21.142 18.3036 21.3873 18.5647Z" fill="#210124"/>
<path opacity="0.5" d="M25.8768 8.55684C26.2153 8.20742 26.2169 7.64257 25.8804 7.29521C25.5439 6.94785 24.9967 6.94952 24.6582 7.29893L21.4495 10.6112C21.111 10.9606 21.1094 11.5254 21.4459 11.8728C21.7824 12.2202 22.3296 12.2185 22.6681 11.8691L25.8768 8.55684Z" fill="white"/>
<path opacity="0.5" d="M12.317 21.9822C12.6555 21.6328 12.6571 21.0679 12.3206 20.7206C11.9841 20.3732 11.4369 20.3749 11.0984 20.7243L10.7307 21.1039C10.3922 21.4533 10.3905 22.0182 10.7271 22.3655C11.0636 22.7129 11.6108 22.7112 11.9493 22.3618L12.317 21.9822Z" fill="white"/>
<path opacity="0.5" d="M9.66575 24.7265C10.0042 24.3771 10.0059 23.8122 9.66936 23.4649C9.33285 23.1175 8.78565 23.1192 8.44715 23.4686L8.07941 23.8482C7.74092 24.1976 7.7393 24.7625 8.07581 25.1098C8.41231 25.4572 8.95951 25.4555 9.29801 25.1061L9.66575 24.7265Z" fill="white"/>
</svg>
