<svg width="40" height="40" viewBox="0 0 40 40" fill="none" xmlns="http://www.w3.org/2000/svg">
<g clip-path="url(#clip0)">
<path d="M12.3755 7.30704V29.527C11.5029 29.11 10.5553 28.9039 9.59994 28.9233C6.91114 28.9233 4.72107 30.5254 4.72107 32.5106C4.72107 34.4957 6.88946 36.1094 9.59994 36.1094C11.9743 36.1094 13.9367 34.8672 14.3921 33.2303C14.4952 33.0523 14.5514 32.8477 14.5547 32.6383V13.2161L32.8234 9.58244V22.5267C31.955 22.1249 31.0152 21.9308 30.0695 21.9578C27.3699 21.9578 25.1798 23.5599 25.1798 25.5451C25.1798 27.5302 27.3482 29.1439 30.0695 29.1439C32.2921 29.1439 34.1569 27.983 34.7424 26.5319C34.9167 26.3202 35.0131 26.0478 35.0134 25.7656V2.80268L12.3755 7.30704Z" fill="#A882DD"/>
<path d="M21.5695 11.823L32.8234 9.58245V22.5267C31.955 22.1249 31.0152 21.9308 30.0695 21.9578C27.3699 21.9578 25.1798 23.5599 25.1798 25.5451C25.1798 27.5302 27.3482 29.1439 30.0695 29.1439C32.2921 29.1439 34.1569 27.983 34.7424 26.5319C34.9167 26.3202 35.0131 26.0478 35.0135 25.7656V2.80268L21.5695 5.47279V11.823Z" fill="#835BC4"/>
<path d="M9.59998 36.6667C6.61845 36.6667 4.17902 34.7976 4.17902 32.4874C4.17902 30.1771 6.61845 28.3197 9.59998 28.3197C10.354 28.3127 11.1042 28.4342 11.8226 28.6796V12.4267C11.8175 12.4038 11.8175 12.3799 11.8226 12.357V7.30705C11.8204 7.17265 11.8628 7.04178 11.9422 6.93766C12.0216 6.83353 12.1329 6.76287 12.2563 6.7382L34.9159 2.22222C34.9941 2.20468 35.0752 2.20709 35.1524 2.22928C35.2296 2.25146 35.3009 2.29279 35.3604 2.34993C35.4233 2.40156 35.4739 2.46851 35.5078 2.54523C35.5418 2.62195 35.5581 2.70623 35.5556 2.79107V25.7076C35.5566 26.0955 35.4343 26.4722 35.2086 26.7756C34.4822 28.5054 32.4331 29.6663 30.0695 29.6663C27.0772 29.6663 24.6486 27.7856 24.6486 25.487C24.6486 23.1884 27.088 21.3193 30.0695 21.3193C30.8054 21.3183 31.5369 21.4397 32.2379 21.6792V10.279L15.0968 13.6921V32.6151C15.0949 32.9041 15.024 33.1879 14.8908 33.4393C14.3271 35.3432 12.1695 36.6667 9.59998 36.6667ZM9.59998 29.4806C7.24728 29.4806 5.26321 30.8621 5.26321 32.4874C5.26321 34.1127 7.24728 35.5058 9.59998 35.5058C11.6816 35.5058 13.4814 34.4725 13.8717 33.0446C13.8674 32.9983 13.8674 32.9516 13.8717 32.9053C13.9282 32.8206 13.9585 32.7191 13.9584 32.6151V13.2161C13.9636 13.0751 14.0175 12.9412 14.1096 12.8404C14.2018 12.7396 14.3256 12.679 14.4572 12.6705L32.7258 9.0136C32.8038 8.99831 32.884 9.00154 32.9607 9.02304C33.0374 9.04454 33.1088 9.08379 33.1698 9.13803C33.2307 9.19227 33.2799 9.26018 33.3137 9.33697C33.3475 9.41375 33.3652 9.49755 33.3655 9.58245V22.5267C33.3653 22.6238 33.3424 22.7193 33.2989 22.8045C33.2553 22.8897 33.1925 22.9618 33.1161 23.0143C33.037 23.0632 32.9473 23.0889 32.8559 23.0889C32.7646 23.0889 32.6748 23.0632 32.5957 23.0143C31.8016 22.6326 30.94 22.4386 30.0695 22.4454C27.7169 22.4454 25.7328 23.8153 25.7328 25.4522C25.7328 27.0891 27.7277 28.4706 30.0695 28.4706C32.0103 28.4706 33.7233 27.5419 34.2329 26.2184C34.2549 26.1578 34.2881 26.1025 34.3304 26.0559C34.4214 25.9521 34.4718 25.8151 34.4714 25.6728V3.49923L12.9176 7.78302V12.357V29.527C12.9175 29.6241 12.8946 29.7197 12.851 29.8049C12.8074 29.89 12.7446 29.9622 12.6682 30.0146C12.5899 30.0659 12.4999 30.0931 12.408 30.0931C12.3162 30.0931 12.2262 30.0659 12.1478 30.0146C11.3444 29.642 10.4753 29.4598 9.59998 29.4806Z" fill="#210124"/>
<path d="M10.4565 17.8366L7.95199 16.4783L5.48003 17.9178L5.91371 14.9343L3.87543 12.8678L6.65096 12.3919L7.85442 9.67532L9.14461 12.357L11.931 12.7401L9.93607 14.8762L10.4565 17.8366Z" fill="#FEC803"/>
<path d="M5.50171 18.4751C5.38953 18.4745 5.28006 18.4381 5.18729 18.3706C5.10596 18.3089 5.04249 18.2239 5.00415 18.1253C4.9658 18.0268 4.95413 17.9187 4.97046 17.8134L5.36077 15.1432L3.50679 13.2858C3.42562 13.212 3.36607 13.1147 3.3353 13.0055C3.30453 12.8964 3.30384 12.78 3.33332 12.6705C3.36433 12.5681 3.42131 12.477 3.49789 12.4073C3.57447 12.3376 3.66765 12.292 3.767 12.2758L6.26065 11.8462L7.34484 9.40831C7.388 9.30844 7.45678 9.22377 7.54316 9.16417C7.62954 9.10456 7.72996 9.07247 7.83273 9.07164C7.93223 9.07516 8.02925 9.10579 8.11462 9.16064C8.19999 9.21548 8.27089 9.29273 8.32061 9.38509L9.49154 11.823L12.0069 12.1713C12.1073 12.1833 12.2025 12.2257 12.2812 12.2935C12.36 12.3614 12.419 12.4519 12.4514 12.5544C12.4815 12.6583 12.4853 12.769 12.4625 12.875C12.4396 12.9811 12.3909 13.0788 12.3213 13.1581L10.5324 15.0736L10.9877 17.7321C11.0074 17.8381 10.9985 17.9478 10.962 18.0486C10.9255 18.1493 10.863 18.2369 10.7817 18.3009C10.6992 18.364 10.6026 18.4026 10.5017 18.4128C10.4008 18.423 10.2992 18.4044 10.2071 18.359L7.96283 17.1284L5.74023 18.4751C5.6616 18.4929 5.58034 18.4929 5.50171 18.4751ZM5.04635 13.2509L6.29317 14.5163C6.35614 14.5816 6.40372 14.6619 6.432 14.7508C6.46028 14.8396 6.46843 14.9343 6.4558 15.0272L6.18475 16.8382L7.6701 15.9675C7.74716 15.9247 7.83267 15.9024 7.91946 15.9024C8.00625 15.9024 8.09177 15.9247 8.16883 15.9675L9.69754 16.8034L9.40481 14.9923C9.3908 14.9004 9.39725 14.8062 9.42362 14.7175C9.45 14.6287 9.49555 14.5479 9.55659 14.4815L10.7709 13.1697L9.06871 12.9259C8.98679 12.9181 8.90747 12.8912 8.8363 12.847C8.76513 12.8029 8.70383 12.7427 8.65671 12.6705L7.87609 10.9872L7.13884 12.6705C7.09938 12.7537 7.04275 12.8262 6.97325 12.8825C6.90375 12.9388 6.8232 12.9775 6.73769 12.9955L5.04635 13.2509Z" fill="#210124"/>
</g>
<defs>
<clipPath id="clip0">
<rect width="32.2222" height="34.4444" fill="white" transform="translate(3.33331 2.22222)"/>
</clipPath>
</defs>
</svg>
